<svg xmlns="http://www.w3.org/2000/svg" width="16" height="16" viewBox="0 0 16 16">
    <defs>
        <linearGradient id="a" x1="87.51%" x2="35.439%" y1="114.204%" y2="7.217%">
            <stop offset="0%" stop-color="#FF0103"/>
            <stop offset="100%" stop-color="#FFDDA9"/>
        </linearGradient>
    </defs>
    <g fill="url(#a)" fill-rule="nonzero" transform="translate(-534 -409)">
        <path d="M548.693 412.64l-.216.064-.487 2.064a6.401 6.401 0 0 1-3.762 8.23 6.392 6.392 0 0 1-8.222-3.766 6.401 6.401 0 0 1 5.99-8.632c.676 0 1.348.108 1.99.32l.368-1.6a8.16 8.16 0 0 0-2.358-.32c-4.414-.001-7.993 3.579-7.995 7.997-.002 4.418 3.574 8 7.988 8.003 4.414.002 7.993-3.578 7.995-7.996a8.005 8.005 0 0 0-1.29-4.364z"/>
        <path d="M538 417a3.998 3.998 0 0 0 3.999 3.997 3.997 3.997 0 0 0 3.937-3.333l1.422-6.015 1.87-.568a1.06 1.06 0 0 0-.599-2.032l-3.045.911-.959 4a3.993 3.993 0 0 0-5.638.38A4.002 4.002 0 0 0 538 417z"/>
    </g>
</svg>
