<svg xmlns="http://www.w3.org/2000/svg" width="16" height="16" viewBox="0 0 16 16">
    <defs>
        <linearGradient id="a" x1="100%" x2="-9.66%" y1="135.654%" y2="-21.228%">
            <stop offset="0%" stop-color="#FF0103"/>
            <stop offset="100%" stop-color="#FFDDA9"/>
        </linearGradient>
    </defs>
    <path fill="url(#a)" fill-rule="nonzero" d="M15.334 15.751c-2-2.42-9.006-2.253-9.125-3.007V7.256c.118-1.065 5.744-.597 8.686-3.452C17.868.92 19 6.438 19 10.211c0 3.772-1.65 7.981-3.666 5.54zM3 11.182v-2.78c0-.615.477-1.113 1.064-1.113h1.08v5.006h-1.08c-.587 0-1.064-.498-1.064-1.113zm4.464 3.122c.75.157 1.314.4 1.314.4s.24.693.892 1.656c.783 1.158 1.76 2.633.646 2.633-.358 0-.668.007-.969.007-.92 0-1.453-.69-2.333-2.264-1-1.79-.75-2.706-.75-2.706s.45.117 1.2.274z" transform="translate(-3 -3)"/>
</svg>
