<svg xmlns="http://www.w3.org/2000/svg" width="14" height="14" viewBox="0 0 14 14">
    <defs>
        <linearGradient id="a" x1="87.51%" x2="35.439%" y1="114.204%" y2="7.217%">
            <stop offset="0%" stop-color="#FF0103"/>
            <stop offset="100%" stop-color="#FFDDA9"/>
        </linearGradient>
    </defs>
    <g fill="none" fill-rule="evenodd">
        <path fill="url(#a)" d="M6.993 14a6.677 6.677 0 0 1-2.692-.583h-2.15a1.585 1.585 0 0 1-1.615-1.59V9.681A6.654 6.654 0 0 1 0 7.007 6.993 6.993 0 1 1 6.993 14z"/>
        <path fill="#FFF" d="M7.062 10c-.861-.029-1.637-.558-2.013-1.374a.436.436 0 0 1 .162-.575.393.393 0 0 1 .546.171c.221.528.705.881 1.252.914a1.404 1.404 0 0 0 1.234-.908.393.393 0 0 1 .546-.17.436.436 0 0 1 .162.575c-.324.803-1.06 1.335-1.889 1.367z"/>
    </g>
</svg>
