<svg xmlns="http://www.w3.org/2000/svg" width="16" height="16" viewBox="0 0 16 16">
    <defs>
        <linearGradient id="a" x1="100%" x2="-9.66%" y1="135.654%" y2="-21.228%">
            <stop offset="0%" stop-color="#FF0103"/>
            <stop offset="100%" stop-color="#FFDDA9"/>
        </linearGradient>
    </defs>
    <g fill="none" fill-rule="evenodd">
        <path fill="url(#a)" d="M2.312.01C1.036.01.002 1.03 0 2.29v11.408c0 .605.244 1.186.677 1.613a2.327 2.327 0 0 0 1.635.668h9.295a4 4 0 0 0 4-4V2.29c0-1.259-1.035-2.28-2.31-2.28H2.311z"/>
        <path fill="#FFF" d="M9.013 7.273H4.388a.575.575 0 0 0-.578.57c0 .316.258.571.578.571h4.625c.32 0 .578-.255.578-.57a.575.575 0 0 0-.578-.571zM4.388 3.636a.575.575 0 0 0-.578.572c0 .315.259.57.578.57h6.937c.32 0 .578-.255.578-.57a.575.575 0 0 0-.578-.57l-6.937-.002zM4.388 10.91a.575.575 0 0 0-.578.57c0 .315.258.57.578.57H6.7c.32.001.58-.254.58-.57a.575.575 0 0 0-.578-.57H4.388z"/>
    </g>
</svg>
