<?xml version="1.0" encoding="UTF-8"?>
<svg width="15px" height="15px" viewBox="0 0 15 15" version="1.1" xmlns="http://www.w3.org/2000/svg" xmlns:xlink="http://www.w3.org/1999/xlink">
    <!-- Generator: Sketch 49.3 (51167) - http://www.bohemiancoding.com/sketch -->
    <title>bf@3x</title>
    <desc>Created with Sketch.</desc>
    <defs></defs>
    <g id="Page-3" stroke="none" stroke-width="1" fill="none" fill-rule="evenodd">
        <g id="立即报名填写效果-总平台" transform="translate(-53.000000, -803.000000)" fill="#BFBFBF" fill-rule="nonzero">
            <g id="Group-12" transform="translate(0.000000, 726.000000)">
                <g id="Group-4">
                    <g id="Group-3-Copy">
                        <g id="Group-Copy" transform="translate(20.000000, 44.000000)">
                            <g id="bf" transform="translate(33.000000, 33.000000)">
                                <path d="M7.5,0 C3.3578716,0 0,3.3578716 0,7.5 C0,11.6421284 3.35785458,15 7.5,15 C11.6421454,15 15,11.6421284 15,7.5 C15,3.3578716 11.6421284,0 7.5,0 Z M10.7981495,7.916672 L5.8950207,10.5927201 C5.5557113,10.7779039 5.13157895,10.5464158 5.13157895,10.1760481 L5.13157896,4.82395193 C5.13157896,4.4535842 5.55571132,4.22209606 5.89502072,4.40727992 L10.7981496,7.083328 C11.1374589,7.26851187 11.1374589,7.73148813 10.7981495,7.916672 Z" id="Shape"></path>
                            </g>
                        </g>
                    </g>
                </g>
            </g>
        </g>
    </g>
</svg>