<?xml version="1.0" encoding="UTF-8"?>
<svg width="24px" height="24px" viewBox="0 0 24 24" version="1.1" xmlns="http://www.w3.org/2000/svg" xmlns:xlink="http://www.w3.org/1999/xlink">
    <!-- Generator: Sketch 49.3 (51167) - http://www.bohemiancoding.com/sketch -->
    <title>bmlb@3x</title>
    <desc>Created with Sketch.</desc>
    <defs></defs>
    <g id="页面定稿" stroke="none" stroke-width="1" fill="none" fill-rule="evenodd">
        <g id="我的-控制台" transform="translate(-22.000000, -446.000000)" fill="#C4A66A" fill-rule="nonzero">
            <g id="Group-11" transform="translate(22.000000, 446.000000)">
                <g id="报名">
                    <path d="M21.6835165,10.2901561 L20.7736264,9.51125836 C20.4175824,9.19969927 19.8241758,9.23864416 19.5076923,9.58914813 L12.0703297,17.8454642 L11.2,21 L14.2857143,19.7927085 L21.7626374,11.4974476 C21.9208791,11.3027232 22,11.1079987 22,10.8743294 C22,10.6406601 21.8813187,10.4459356 21.6835165,10.2901561 Z" id="Shape"></path>
                    <path d="M15.1196721,20.9590909 L15.0360656,21 L16.9590164,21 C18.2131148,21 19.2581967,19.9772727 19.2581967,18.75 L19.2581967,16.3772727 L15.3286885,20.7136364 L15.1196721,20.9590909 Z M17.0008197,3 L6.29918033,3 C5.04508196,3 4,4.02272727 4,5.25 L4,18.7090909 C4,19.9363636 5.04508196,20.9590909 6.29918033,20.9590909 L9.39262296,20.9590909 L9.51803279,20.5909091 L10.4377049,17.2772727 L10.5213115,16.95 L10.7721312,16.7045455 L18.6311476,7.95 C18.840164,7.74545454 19.0491803,7.58181817 19.3,7.4590909 L19.3,5.25 C19.3,4.02272727 18.254918,3 17.0008197,3 Z M11.2737705,11.7954545 L7.30245901,11.7954545 C6.84262294,11.7954545 6.46639343,11.4272727 6.46639344,10.9772727 C6.46639346,10.5272727 6.84262296,10.1590909 7.30245901,10.1590909 L11.2737705,10.1590909 C11.7336066,10.1590909 12.1098361,10.5272727 12.1098361,10.9772727 C12.109836,11.4272727 11.7336065,11.7954546 11.2737705,11.7954545 Z M15.0360656,7.86818183 L7.30245901,7.86818183 C6.84262294,7.86818183 6.46639343,7.5 6.46639344,7.05 C6.46639346,6.6 6.84262296,6.23181817 7.30245901,6.23181817 L15.0360656,6.23181817 C15.4959016,6.23181817 15.8721312,6.6 15.8721312,7.05 C15.8721312,7.5 15.4959016,7.86818183 15.0360656,7.86818183 Z" id="Shape"></path>
                </g>
            </g>
        </g>
    </g>
</svg>