<?xml version="1.0" encoding="UTF-8" standalone="no"?>
<svg width="24px" height="22px" viewBox="0 0 24 22" version="1.1" xmlns="http://www.w3.org/2000/svg" xmlns:xlink="http://www.w3.org/1999/xlink">
    <!-- Generator: Sketch 48.2 (47327) - http://www.bohemiancoding.com/sketch -->
    <title>ddzf_wx@3x</title>
    <desc>Created with Sketch.</desc>
    <defs></defs>
    <g id="05订单确认页" stroke="none" stroke-width="1" fill="none" fill-rule="evenodd" transform="translate(-15.000000, -180.000000)">
        <g id="微信支付" transform="translate(15.000000, 180.000000)" fill="#19C80A">
            <g id="Group">
                <g id="ddzf_wx">
                    <path d="M9.14577,13.7270519 C7.70988,14.5115796 7.49691,13.2866147 7.49691,13.2866147 L5.69733,9.17101702 C5.0049,7.21533549 6.29661,8.28922763 6.29661,8.28922763 C6.29661,8.28922763 7.40496,9.11097753 8.24613,9.61171985 C9.08685,10.1124622 10.04514,9.75871918 10.04514,9.75871918 L21.80994,4.43678237 C19.63938,1.78982023 16.05381,0.059035878 11.99451,0.059035878 C5.36979,0.059035878 0,4.6650446 0,10.3471593 C0,13.6154741 1.7781,16.5243784 4.5477,18.4097482 L4.04823,21.2236048 C4.04823,21.2236048 3.80475,22.045089 4.64859,21.6640714 C5.2236,21.4042841 6.68949,20.4733473 7.5621,19.90678 C8.93391,20.3752887 10.42845,20.6354303 11.99517,20.6354303 C18.61935,20.6354303 23.99025,16.0294216 23.99025,10.3471888 C23.99025,8.70135709 23.53767,7.1470605 22.73598,5.76742155 C18.98769,7.97766578 10.26933,13.1142004 9.14577,13.7270519 L9.14577,13.7270519 L9.14577,13.7270519 L9.14577,13.7270519 Z" id="Shape"></path>
                </g>
            </g>
        </g>
    </g>
</svg>