<?xml version="1.0" encoding="UTF-8"?>
<svg width="50px" height="50px" viewBox="0 0 50 50" version="1.1" xmlns="http://www.w3.org/2000/svg" xmlns:xlink="http://www.w3.org/1999/xlink">
    <!-- Generator: Sketch 49.3 (51167) - http://www.bohemiancoding.com/sketch -->
    <title>dhkf@3x</title>
    <desc>Created with Sketch.</desc>
    <defs></defs>
    <g id="总平台" stroke="none" stroke-width="1" fill="none" fill-rule="evenodd">
        <g id="在线客服弹窗" transform="translate(-81.000000, -535.000000)">
            <g id="在线客服">
                <g id="Group-10" transform="translate(0.000000, 439.000000)">
                    <g id="Group-7" transform="translate(81.000000, 96.000000)">
                        <g id="dhkf">
                            <circle id="Oval-3" fill="#48D2A0" cx="25" cy="25" r="25"></circle>
                            <g id="电话客服" transform="translate(12.000000, 13.000000)" fill="#FFFFFF" fill-rule="nonzero">
                                <path d="M11.8021692,10.3091081 C12.4643726,10.4412459 13.0061754,10.9037282 13.3673773,11.4983483 C13.7285792,12.0929684 13.8489798,12.8197263 13.7285792,13.5464842 C13.6683789,13.8768287 13.7285792,14.2071732 13.9091801,14.4714488 C14.089781,14.7357244 14.3305823,14.9339311 14.5713835,15 L14.7519845,15 C14.9927857,15 15.1733867,14.9339311 15.4141879,14.8017933 C15.6549892,14.6035866 15.8355901,14.339311 15.8957904,14.0750354 C16.4375932,11.303445 14.8121848,8.5946201 12.2867817,8 L12.1061807,8 C11.5643779,8 11.0827754,8.3964134 11.0225751,8.92496461 C10.9623748,9.25530911 11.0225751,9.58565361 11.2031761,9.84992921 C11.2603664,10.0448325 11.5011676,10.2430392 11.8021692,10.3091081 Z" id="Shape"></path>
                                <path d="M14.5150423,3.74921826 L14.3272668,3.74921826 C13.7639405,3.74921826 13.2632059,4.12445278 13.2006141,4.62476548 C13.0128387,5.31269543 13.3883896,5.9380863 14.0143077,6.06316448 C15.5165113,6.37585991 16.8904017,7.25140713 17.7040953,8.561601 C18.5803807,9.87492183 18.8933398,11.435272 18.5803807,12.9362101 C18.4551971,13.561601 18.830748,14.1244528 19.4566662,14.249531 L19.6444416,14.249531 C19.8948089,14.249531 20.0825843,14.1869919 20.3329516,14.0619137 C20.5833189,13.8742964 20.7710943,13.6241401 20.8336861,13.3739837 C21.2718289,11.2476548 20.8336861,9.0619137 19.6444416,7.24828018 C18.4551971,5.43777361 16.6400344,4.18699187 14.5150423,3.74921826 Z M15.9515245,17.4358974 C15.7011572,17.2482802 15.4507899,17.123202 15.2630145,17.0606629 C15.075239,16.9981238 14.9500554,16.9981238 14.7622799,16.9981238 C14.1363618,16.9981238 13.5104436,17.3108193 12.8219336,17.9987492 C12.4463827,18.3739837 12.1334236,18.7492183 11.8830564,19.0619137 C11.8204646,19.1869919 11.6326891,19.249531 11.5075055,19.249531 L11.4449137,19.249531 C11.31973,19.249531 11.1945464,19.1869919 11.0693628,19.1244528 C9.69234279,17.811132 8.31845242,16.2507817 7.19179972,14.4996873 C6.06514702,12.7485929 5.12626978,10.8755472 4.5034812,8.99937461 C4.44088938,8.74921826 4.56607302,8.43652283 4.81644028,8.31144465 C5.06680755,8.18636648 6.56901115,7.56097561 6.56901115,7.56097561 L6.63160296,7.56097561 C7.5078884,7.123202 8.38417383,6.68542839 8.00862293,5.12507817 C7.69566385,3.62414009 7.25752113,2.18886804 6.81937841,1.18824265 C6.50641933,0.437773609 5.94309298,0.187617261 5.6301339,0.0625390869 C5.50495027,0 5.31717482,0 5.06680755,0 C4.69125665,0 4.25311394,0.125078174 3.68978759,0.375234522 C3.31423669,0.500312695 0,2.06378987 0,6.06316448 C0,6.93871169 0.0625918166,11.5009381 3.62719577,16.8136335 C5.69272572,19.9374609 7.81771789,22.0637899 10.63122,23.6866792 C11.31973,24.1244528 12.0708318,24.4371482 12.7593418,24.6873046 C13.4478518,24.8749218 14.07377,25 14.7622799,25 C17.1376394,25 18.639843,23.6241401 18.8276184,23.4365228 C19.5161284,22.811132 19.8290875,22.2482802 19.8290875,21.6228893 C19.8290875,20.7473421 19.1405775,19.996873 18.7024348,19.5590994 C17.5163199,18.4365228 16.0141163,17.4358974 15.9515245,17.4358974 Z" id="Shape"></path>
                                <path d="M16.2823207,0 L16.1023459,0 C15.5624214,0 15.0824885,0.365455732 15.0224969,0.852730041 C14.9625052,1.15727648 15.0224969,1.46182293 15.2024717,1.70546008 C15.3824465,1.94909724 15.622413,2.1318251 15.8623794,2.19273439 C18.1390611,2.6800087 20.1187842,4.02001305 21.378608,6.02697411 C22.6384319,8.03698064 23.1183648,10.3484881 22.6384319,12.6599956 C22.5784403,12.9645421 22.6384319,13.2690885 22.8184067,13.5127257 C22.9983815,13.7563628 23.238348,13.9390907 23.4783144,14 L23.6582893,14 C23.8982557,14 24.0782305,13.9390907 24.318197,13.8172721 C24.5581634,13.6345443 24.7381383,13.3909071 24.7981299,13.14727 C25.9349709,7.12029585 22.158499,1.27909506 16.2823207,0 Z" id="Shape"></path>
                            </g>
                        </g>
                    </g>
                </g>
            </g>
        </g>
    </g>
</svg>