<svg xmlns="http://www.w3.org/2000/svg" width="19" height="18" viewBox="0 0 19 18">
  <path fill="#84828E" fill-rule="evenodd" stroke="#85828F" stroke-width=".1" d="M15.6023792,0.223329194 L15.4553795,1.13686838e-13 L2.76989417,1.13686838e-13 L2.62147906,0.191556587 C-0.610961403,4.35330763 -0.163707069,6.88733419 0.390024433,8.02829312 C0.94569645,9.17120904 2.07066974,9.91088915 3.25716876,9.91088915 L3.36410252,9.91088915 C4.86117517,9.85079748 5.85675039,9.10107907 6.38116871,8.55818192 C6.85483687,9.10107907 7.74640052,9.82692198 9.14192719,9.82692198 C10.5970162,9.82692198 11.5046976,9.03682013 11.9592802,8.48825916 C12.5940339,9.01020481 13.8332921,9.86557865 15.1321355,9.86557865 C15.9837017,9.86557865 16.7131981,9.51350133 17.3074065,8.81966126 C19.5119907,6.23070032 15.7629625,0.467310582 15.6023563,0.223329194 L15.6023792,0.223329194 L15.6023792,0.223329194 Z M16.5462454,8.16963517 C16.1467506,8.64111303 15.6838808,8.86616899 15.1301949,8.86616899 C13.8782892,8.86616899 12.5779619,7.72276957 12.287912,7.45120587 L12.287912,4.02342508 C12.2884143,4.0138012 12.293277,4.0066869 12.293277,3.99731629 C12.293277,3.71958226 12.0706429,3.49503281 11.7961857,3.49503281 C11.5213175,3.49503281 11.2991172,3.71958226 11.2991172,3.99731629 L11.2937522,3.99731629 L11.2937522,7.72449634 C11.0222857,8.09777843 10.3342934,8.82755837 9.14195002,8.82755837 C7.79573525,8.82755837 7.09459314,7.89931475 6.90465102,7.60438207 L6.90465102,3.99731629 C6.90465102,3.71955923 6.68199411,3.49503281 6.40806196,3.49503281 C6.13317097,3.49503281 5.91051406,3.71955923 5.91051406,3.99731629 L5.91051406,7.58614736 C5.66687676,7.90571532 4.82848321,8.85168713 3.32410509,8.91419628 L3.25721442,8.91419628 L3.25721442,8.91322929 C2.5936498,8.91322929 1.72596589,8.50276405 1.28309484,7.58810437 C0.839264941,6.67563193 0.517504817,4.61333648 3.25623275,0.99938663 L14.9158023,0.99938663 C15.9509641,2.64907564 17.9143081,6.56905556 16.5461997,8.16970424 L16.5462454,8.16963517 L16.5462454,8.16963517 Z M15.6453445,10.4796418 C15.369449,10.4796418 15.1448059,10.7051353 15.1438699,10.9833528 L15.1438699,10.9842967 L15.1438699,10.9862768 L15.1438699,10.9875201 L15.1438699,14.6236186 C15.1438699,15.1830237 14.6941499,15.6360827 14.1409435,15.6360827 L9.84359438,15.6360827 L9.84263554,15.6360827 L3.85879673,15.6360827 C3.30556747,15.6360827 2.85584755,15.1830468 2.85584755,14.6236186 L2.85584755,10.9848033 C2.85534529,10.7056187 2.63125012,10.4795958 2.35487521,10.4795958 C2.07852312,10.4795958 1.85438229,10.7056187 1.85342345,10.9848033 L1.85342345,14.7245772 C1.85342345,15.7876933 2.70592568,16.6484777 3.75820959,16.6484777 L14.2415535,16.6484777 C15.2937917,16.6484777 16.146294,15.7877163 16.146294,14.7245772 L16.146294,10.9833298 C16.1448557,10.7050892 15.9212171,10.4795958 15.6453901,10.4795958 L15.6453445,10.4796418 L15.6453445,10.4796418 Z" transform="translate(0 1)"/>
</svg>
