<?xml version="1.0" encoding="UTF-8"?>
<svg width="19px" height="18px" viewBox="0 0 19 18" version="1.1" xmlns="http://www.w3.org/2000/svg" xmlns:xlink="http://www.w3.org/1999/xlink">
    <!-- Generator: Sketch 49.3 (51167) - http://www.bohemiancoding.com/sketch -->
    <title>dp@3x</title>
    <desc>Created with Sketch.</desc>
    <defs></defs>
    <g id="Page-1" stroke="none" stroke-width="1" fill="none" fill-rule="evenodd">
        <g id="商户免费开通" transform="translate(-302.000000, -236.000000)" fill="#CCCCCC">
            <g id="zc_mrtx_x" transform="translate(290.000000, 224.000000)">
                <g id="dp" transform="translate(12.000000, 12.000000)">
                    <path d="M14.8260995,5.99467447 L3.86492225,5.99467447 C3.48673113,5.99467447 3.17988182,5.69545797 3.17988182,5.32667429 C3.17988182,4.9578906 3.48673113,4.65867411 3.86492225,4.65867411 L14.8260995,4.65867411 C15.2050863,4.65867411 15.51114,4.9578906 15.51114,5.32667429 C15.51114,5.69545797 15.2050863,5.99467447 14.8260995,5.99467447 M18.8164667,5.3434842 C18.9358117,5.69675104 19.0007884,6.08415494 18.9999928,6.47155884 C19.0007884,7.81764514 18.24918,9.05537215 17.0382258,9.70009706 C16.5271639,9.97396937 15.9200956,10.113621 15.2363812,10.1175002 C14.1068469,10.1175002 13.0643018,9.63725384 12.3545967,8.81279214 C11.6509915,9.63001264 10.6214418,10.1110348 9.50835054,10.1187933 C8.38624212,10.1120693 7.35324465,9.63311601 6.64698733,8.81641274 C5.93701705,9.64061582 4.89606324,10.1221552 3.77183313,10.125 L3.76971144,10.125 C3.09978805,10.125 2.50306294,9.99129652 1.99677483,9.72673431 C0.767255889,9.08873337 0.0013260558,7.84635131 0,6.485524 C0,6.09889594 0.0628550451,5.71356096 0.188299924,5.33805331 C0.195725837,5.30262318 0.204743016,5.26796889 0.212964562,5.24469362 L1.93922401,1.26720901 C2.20576123,0.491108145 2.94145699,0 3.88826083,0 L15.1589395,0 C16.1248386,0 16.8928901,0.500418252 17.170301,1.30600112 L18.7761546,5.2038326 C18.791802,5.24003857 18.8026757,5.277279 18.8108972,5.31607111 C18.8130189,5.32408815 18.8151406,5.33339825 18.8164667,5.3434842 Z M17.8801846,12.5477029 L17.8823529,16.2513335 C17.8823529,17.2084485 17.0784321,17.9889624 16.0907424,17.9915904 L2.91630637,18 C1.92699041,18 1.12252746,17.2213257 1.12252746,16.2642106 L1.11764864,12.6265427 C1.1168355,12.2510025 1.42989302,11.9461553 1.81613281,11.9461553 L1.81775908,11.9461553 C1.87305236,11.9461553 1.97388127,11.9632373 1.97388127,11.9632373 C2.00396732,11.9740121 2.02619305,11.9816332 2.055737,11.992408 C2.07335496,11.9984524 2.09070187,12.0026572 2.10750669,12.010804 C2.71817213,12.229453 3.09600951,12.3529687 3.76684705,12.3529687 L3.77091273,12.3529687 C4.86946001,12.3529687 5.90078802,12.0276231 6.70877456,11.3598501 C7.51161124,12.0215787 8.5367052,12.2891084 9.6371498,12.2959412 C10.7224159,12.2862176 11.7418179,11.9104146 12.5405889,11.25 C13.3504727,11.9182986 14.1912558,12.1316916 15.2946819,12.1887191 C15.7953028,12.214999 16.4588221,12.1077769 16.9776032,11.9088378 C17.0429251,11.8886023 17.107976,11.8688923 17.1800741,11.8688923 C17.5671271,11.8688923 17.8801846,12.1724255 17.8801846,12.5477029 Z" id="Combined-Shape"></path>
                </g>
            </g>
        </g>
    </g>
</svg>