<?xml version="1.0" encoding="UTF-8"?>
<svg width="22px" height="22px" viewBox="0 0 22 22" version="1.1" xmlns="http://www.w3.org/2000/svg" xmlns:xlink="http://www.w3.org/1999/xlink">
    <!-- Generator: Sketch 49.3 (51167) - http://www.bohemiancoding.com/sketch -->
    <title>dz@3x</title>
    <desc>Created with Sketch.</desc>
    <defs></defs>
    <g id="Page-1" stroke="none" stroke-width="1" fill="none" fill-rule="evenodd">
        <g id="我的-未登录" transform="translate(-207.000000, -408.000000)" fill="#000000" fill-rule="nonzero">
            <g id="Group-4" transform="translate(194.000000, 396.000000)">
                <g id="商户" transform="translate(13.000000, 12.000000)">
                    <path d="M17.4288151,12.5387616 L17.429811,12.5387616 C17.5229213,12.5466601 17.6190191,12.5520903 17.7136232,12.5520903 C17.9078105,12.5520903 18.0980145,12.5338251 18.2822435,12.5007504 L18.2822435,18.0138691 C18.2822435,18.466549 17.8998439,18.8333333 17.429313,18.8333333 L4.3410878,18.8333333 C3.86956116,18.8333333 3.48716152,18.4660554 3.48716152,18.0138691 L3.48716152,12.501244 C3.67139051,12.5338251 3.8615945,12.5525839 4.05578182,12.5525839 C4.15187964,12.5525839 4.24698164,12.5466601 4.34009197,12.5392553 C4.42175022,12.5308632 4.50191473,12.5190155 4.58158132,12.5071678 C4.60000422,12.5042059 4.61693337,12.5022313 4.63386252,12.4992694 C4.6702104,12.4918646 4.70556245,12.4819915 4.74191034,12.475574 C4.89825602,12.441512 5.0481288,12.3990578 5.19401824,12.3442623 L5.19401824,14.3998341 L16.5748888,14.3998341 L16.5748888,12.3442623 C16.7197824,12.3985641 16.871149,12.440031 17.0260009,12.4731058 C17.0623488,12.4819915 17.0977008,12.4918646 17.1350446,12.4982821 C17.1519737,12.501244 17.1703966,12.5037123 17.1873258,12.5056869 C17.2664944,12.5190155 17.346161,12.5313568 17.4288151,12.5387616 Z M4.5958018,4.68715847 C4.12744772,4.68715847 3.74721945,4.30939238 3.74672436,3.84357923 C3.74672436,3.37776609 4.12695263,3 4.5958018,3 L17.0438218,3 C17.512671,3 17.8928992,3.37776609 17.8928992,3.84357923 C17.8928992,4.30939238 17.512671,4.68715847 17.0438218,4.68715847 L4.5958018,4.68715847 Z M18.3749587,5.59562842 L18.3729712,5.59562842 L19.969402,9.56017623 C19.969402,10.8103392 18.9518202,11.8251366 17.6982271,11.8251366 C16.444634,11.8251366 15.4270522,10.8103392 15.4270522,9.56017623 C15.4270522,10.8103392 14.4094705,11.8251366 13.1558774,11.8251366 C11.9022843,11.8251366 10.8847025,10.8103392 10.8847025,9.56017623 C10.8847025,10.8103392 9.86712076,11.8251366 8.61352764,11.8251366 C7.35993452,11.8251366 6.34235278,10.8103392 6.34235278,9.56017623 C6.34235278,10.8103392 5.32477103,11.8251366 4.07117792,11.8251366 C2.8175848,11.8251366 1.80000305,10.8103392 1.80000305,9.56017623 L3.39693065,5.59562842 L18.3749587,5.59562842 Z" id="Combined-Shape"></path>
                </g>
            </g>
        </g>
    </g>
</svg>