<?xml version="1.0" encoding="UTF-8" standalone="no"?>
<svg width="197px" height="143px" viewBox="0 0 197 143" version="1.1" xmlns="http://www.w3.org/2000/svg" xmlns:xlink="http://www.w3.org/1999/xlink">
    <!-- Generator: Sketch 48.2 (47327) - http://www.bohemiancoding.com/sketch -->
    <title>ej_kym@3x</title>
    <desc>Created with Sketch.</desc>
    <defs>
        <polygon id="path-1" points="3.30468027e-21 0.0543865659 3.30468027e-21 2.69313396 2.96007985 2.69313396 2.96007985 0.0543865659 0 0.0543865659"></polygon>
        <polygon id="path-3" points="7.81075862 8.44303129 7.81075862 0.782317007 0.129919212 0.782317007 0.129919212 8.44303129 7.81075862 8.44303129"></polygon>
        <path d="M95.3333333,67.2451939 C95.2224425,67.2551111 95.1157051,67.2655513 95.0133057,67.2765299 C89.1937256,67.900472 82.0089925,69.7682699 78.7160645,72.6923828 C76.530703,74.632979 74.7057042,76.7273405 73.7252668,77.9166667 L72.1148588,77.9166667 C71.1319929,76.8700891 69.4195443,75.3542074 67.7460531,75.3542074 C65.7976575,75.3542074 63.4348652,77.0911359 62.4219048,77.9166667 L60.8058111,77.9166667 C58.9591916,77.208338 55.1643172,75.73955 52.0727539,74.4576823 C47.8152669,72.6923828 42.674235,73.4881999 40.4962565,73.9465332 C38.318278,74.4048665 32.2390951,77.2533366 30.6044922,76.5819499 C28.9698893,75.9105632 29.4210612,75.6876628 26.1948242,71.1025391 C24.4402216,68.6089002 21.535173,67.0958545 19.25,66.2343645 L19.25,8.99509606 C19.25,4.02724168 23.2868522,0 28.2577393,0 L86.325594,0 C91.3004311,0 95.3333333,4.02506524 95.3333333,8.99509606 L95.3333333,67.2451939 Z" id="path-5"></path>
    </defs>
    <g id="商家商城" stroke="none" stroke-width="1" fill="none" fill-rule="evenodd" transform="translate(-89.000000, -173.000000)">
        <g id="ej_kym" transform="translate(89.000000, 173.000000)">
            <g id="Group-5">
                <g id="Page-1">
                    <g id="Group-3" transform="translate(0.000000, 74.177116)">
                        <mask id="mask-2" fill="white">
                            <use xlink:href="#path-1"></use>
                        </mask>
                        <g id="Clip-2"></g>
                        <path d="M2.75717438,0.506044898 L0.291440394,0.0585619048 C0.0983172414,0.0235414966 -0.055791133,0.215180952 0.0193123153,0.395146939 L0.915676847,2.54209252 C0.984928079,2.70746667 1.20341084,2.74540544 1.32533202,2.61407891 L2.89470148,0.914616327 C3.02637635,0.771616327 2.9483468,0.541065306 2.75717438,0.506044898" id="Fill-1" fill="#CCCBC7" mask="url(#mask-2)"></path>
                    </g>
                    <path d="M10.442598,30.5661041 L8.64791823,32.0505803 C8.50941576,32.1653694 8.53672611,32.3842469 8.69961281,32.4620701 L10.7888542,33.4591789 C10.9634453,33.5428388 11.1624207,33.4017844 11.1399872,33.2091721 L10.8444502,30.7266143 C10.8220167,30.5330293 10.5928049,30.4415871 10.442598,30.5661041" id="Fill-4" fill="#DADADA"></path>
                    <path d="M113.346807,9.70619796 L110.563102,11.1031231 C110.348521,11.2111027 110.317309,11.5039122 110.505556,11.6537218 L112.926423,13.5788714 C113.1293,13.7403544 113.431664,13.6148646 113.45995,13.3570755 L113.822787,10.0350007 C113.851073,9.77623878 113.57992,9.58946327 113.346807,9.70619796" id="Fill-6" fill="#DADADA"></path>
                    <path d="M29.6548404,106.135378 C27.9742788,106.135378 26.6068108,104.771528 26.6068108,103.095412 C26.6068108,101.419297 27.9742788,100.055446 29.6548404,100.055446 C31.335402,100.055446 32.70287,101.419297 32.70287,103.095412 C32.70287,104.771528 31.335402,106.135378 29.6548404,106.135378 M29.6548404,98.109868 C26.8984463,98.109868 24.6560719,100.34631 24.6560719,103.095412 C24.6560719,105.844514 26.8984463,108.080956 29.6548404,108.080956 C32.4112345,108.080956 34.6536089,105.844514 34.6536089,103.095412 C34.6536089,100.34631 32.4112345,98.109868 29.6548404,98.109868" id="Fill-8" fill="#CCCBC7" opacity="0.699999988"></path>
                    <path d="M37.7016384,29.8821361 C36.2902788,29.8821361 35.1412936,28.7361905 35.1412936,27.3285646 C35.1412936,25.9209388 36.2902788,24.7749932 37.7016384,24.7749932 C39.112998,24.7749932 40.2619833,25.9209388 40.2619833,27.3285646 C40.2619833,28.7361905 39.112998,29.8821361 37.7016384,29.8821361 M37.7016384,23.3158095 C35.4836483,23.3158095 33.6782394,25.1164422 33.6782394,27.3285646 C33.6782394,29.5406871 35.4836483,31.3413197 37.7016384,31.3413197 C39.9196286,31.3413197 41.7250374,29.5406871 41.7250374,27.3285646 C41.7250374,25.1164422 39.9196286,23.3158095 37.7016384,23.3158095" id="Fill-10" fill="#DADADA" opacity="0.699999988"></path>
                    <path d="M158.161717,56.7663306 C156.750358,56.7663306 155.601372,55.620385 155.601372,54.2127592 C155.601372,52.8051333 156.750358,51.6591878 158.161717,51.6591878 C159.573077,51.6591878 160.722062,52.8051333 160.722062,54.2127592 C160.722062,55.620385 159.573077,56.7663306 158.161717,56.7663306 M158.161717,50.2000041 C155.943727,50.2000041 154.138318,52.0006367 154.138318,54.2127592 C154.138318,56.4248816 155.943727,58.2255143 158.161717,58.2255143 C160.379707,58.2255143 162.185116,56.4248816 162.185116,54.2127592 C162.185116,52.0006367 160.379707,50.2000041 158.161717,50.2000041" id="Fill-12" fill="#DADADA" opacity="0.699999988"></path>
                    <path d="M168.063961,108.141756 C167.07201,108.141756 166.265379,107.337259 166.265379,106.347933 C166.265379,105.359579 167.07201,104.55411 168.063961,104.55411 C169.055911,104.55411 169.862542,105.359579 169.862542,106.347933 C169.862542,107.337259 169.055911,108.141756 168.063961,108.141756 M168.063961,103.095899 C166.265379,103.095899 164.802325,104.55411 164.802325,106.347933 C164.802325,108.141756 166.265379,109.600939 168.063961,109.600939 C169.862542,109.600939 171.325596,108.141756 171.325596,106.347933 C171.325596,104.55411 169.862542,103.095899 168.063961,103.095899" id="Fill-14" fill="#E9E9E9" opacity="0.769999981"></path>
                    <path d="M140.145473,5.5248585 C139.153522,5.5248585 138.346892,4.7203619 138.346892,3.73103537 C138.346892,2.74268163 139.153522,1.93721224 140.145473,1.93721224 C141.137424,1.93721224 141.944054,2.74268163 141.944054,3.73103537 C141.944054,4.7203619 141.137424,5.5248585 140.145473,5.5248585 M143.407108,3.73103537 C143.407108,1.93721224 141.944054,0.479001361 140.145473,0.479001361 C138.346892,0.479001361 136.883837,1.93721224 136.883837,3.73103537 C136.883837,5.5248585 138.346892,6.98404218 140.145473,6.98404218 C141.944054,6.98404218 143.407108,5.5248585 143.407108,3.73103537" id="Fill-16" fill="#E9E9E9" opacity="0.769999981"></path>
                    <path d="M41.6031163,93.3067218 L39.7138256,93.3067218 L39.7138256,91.4224293 C39.7138256,90.8844769 39.2768601,90.4486673 38.7374808,90.4486673 C38.1990768,90.4486673 37.7621113,90.8844769 37.7621113,91.4224293 L37.7621113,93.3067218 L35.8728207,93.3067218 C35.3344167,93.3067218 34.8974512,93.7425313 34.8974512,94.2795109 C34.8974512,94.8164905 35.3344167,95.2523 35.8728207,95.2523 L37.7621113,95.2523 L37.7621113,97.1375653 C37.7621113,97.6745449 38.1990768,98.1093816 38.7374808,98.1093816 C39.2768601,98.1093816 39.7138256,97.6745449 39.7138256,97.1375653 L39.7138256,95.2523 L41.6031163,95.2523 C42.1415202,95.2523 42.5784857,94.8164905 42.5784857,94.2795109 C42.5784857,93.7425313 42.1415202,93.3067218 41.6031163,93.3067218" id="Fill-18" fill="#E9E9E9" opacity="0.300000012"></path>
                    <path d="M35.5680177,61.4225857 L33.6787271,61.4225857 L33.6787271,59.5382932 C33.6787271,59.0003408 33.2417616,58.5645313 32.7023823,58.5645313 C32.1639783,58.5645313 31.7270128,59.0003408 31.7270128,59.5382932 L31.7270128,61.4225857 L29.8377222,61.4225857 C29.2993182,61.4225857 28.8623527,61.8583952 28.8623527,62.3953748 C28.8623527,62.9323544 29.2993182,63.3681639 29.8377222,63.3681639 L31.7270128,63.3681639 L31.7270128,65.2534293 C31.7270128,65.7904088 32.1639783,66.2252456 32.7023823,66.2252456 C33.2417616,66.2252456 33.6787271,65.7904088 33.6787271,65.2534293 L33.6787271,63.3681639 L35.5680177,63.3681639 C36.1064217,63.3681639 36.5433872,62.9323544 36.5433872,62.3953748 C36.5433872,61.8583952 36.1064217,61.4225857 35.5680177,61.4225857" id="Fill-20" fill="#E9E9E9" opacity="0.699999988"></path>
                    <path d="M170.929108,23.8022041 L169.039818,23.8022041 L169.039818,21.9179116 C169.039818,21.3799592 168.602852,20.9441497 168.063473,20.9441497 C167.525069,20.9441497 167.088103,21.3799592 167.088103,21.9179116 L167.088103,23.8022041 L165.198813,23.8022041 C164.659433,23.8022041 164.223443,24.2380136 164.223443,24.7749932 C164.223443,25.3119728 164.659433,25.7477823 165.198813,25.7477823 L167.088103,25.7477823 L167.088103,27.6330476 C167.088103,28.1700272 167.525069,28.6048639 168.063473,28.6048639 C168.602852,28.6048639 169.039818,28.1700272 169.039818,27.6330476 L169.039818,25.7477823 L170.929108,25.7477823 C171.468488,25.7477823 171.904478,25.3119728 171.904478,24.7749932 C171.904478,24.2380136 171.468488,23.8022041 170.929108,23.8022041" id="Fill-22" fill="#E9E9E9" opacity="0.699999988"></path>
                    <g id="Group-26" opacity="0.539999962" transform="translate(189.221675, 38.183918)">
                        <mask id="mask-4" fill="white">
                            <use xlink:href="#path-3"></use>
                        </mask>
                        <g id="Clip-25"></g>
                        <path d="M6.83558424,3.64037143 L4.9462936,3.64037143 L4.9462936,1.75607891 C4.9462936,1.21812653 4.50932808,0.782317007 3.96994877,0.782317007 C3.43154483,0.782317007 2.99457931,1.21812653 2.99457931,1.75607891 L2.99457931,3.64037143 L1.10528867,3.64037143 C0.56590936,3.64037143 0.129919212,4.07618095 0.129919212,4.61316054 C0.129919212,5.15014014 0.56590936,5.58594966 1.10528867,5.58594966 L2.99457931,5.58594966 L2.99457931,7.47121497 C2.99457931,8.00819456 3.43154483,8.44303129 3.96994877,8.44303129 C4.50932808,8.44303129 4.9462936,8.00819456 4.9462936,7.47121497 L4.9462936,5.58594966 L6.83558424,5.58594966 C7.37496355,5.58594966 7.81095369,5.15014014 7.81095369,4.61316054 C7.81095369,4.07618095 7.37496355,3.64037143 6.83558424,3.64037143" id="Fill-24" fill="#CCCBC7" mask="url(#mask-4)"></path>
                    </g>
                    <path d="M48.5221921,50.4432014 L47.5770591,50.4432014 L47.5770591,49.5005687 C47.5770591,49.2320789 47.3595517,49.0141741 47.0893744,49.0141741 C46.8201724,49.0141741 46.6016897,49.2320789 46.6016897,49.5005687 L46.6016897,50.4432014 L45.6565567,50.4432014 C45.3873547,50.4432014 45.1688719,50.6611061 45.1688719,50.9295959 C45.1688719,51.1980857 45.3873547,51.4159905 45.6565567,51.4159905 L46.6016897,51.4159905 L46.6016897,52.3586231 C46.6016897,52.6271129 46.8201724,52.8450177 47.0893744,52.8450177 C47.3595517,52.8450177 47.5770591,52.6271129 47.5770591,52.3586231 L47.5770591,51.4159905 L48.5221921,51.4159905 C48.7913941,51.4159905 49.0098768,51.1980857 49.0098768,50.9295959 C49.0098768,50.6611061 48.7913941,50.4432014 48.5221921,50.4432014" id="Fill-27" fill="#E9E9E9"></path>
                    <path d="M178.653059,85.6664361 L177.707926,85.6664361 L177.707926,84.7238034 C177.707926,84.4553136 177.490419,84.2374088 177.220241,84.2374088 C176.951039,84.2374088 176.732557,84.4553136 176.732557,84.7238034 L176.732557,85.6664361 L175.787424,85.6664361 C175.518222,85.6664361 175.299739,85.8843408 175.299739,86.1528306 C175.299739,86.4213204 175.518222,86.6392252 175.787424,86.6392252 L176.732557,86.6392252 L176.732557,87.5818578 C176.732557,87.8503476 176.951039,88.0682524 177.220241,88.0682524 C177.490419,88.0682524 177.707926,87.8503476 177.707926,87.5818578 L177.707926,86.6392252 L178.653059,86.6392252 C178.922261,86.6392252 179.140744,86.4213204 179.140744,86.1528306 C179.140744,85.8843408 178.922261,85.6664361 178.653059,85.6664361" id="Fill-29" fill="#C1C0C0" opacity="0.699999988"></path>
                    <path d="M139.150596,124.416031 L138.205463,124.416031 L138.205463,123.473399 C138.205463,123.204909 137.987956,122.987004 137.717778,122.987004 C137.448576,122.987004 137.230094,123.204909 137.230094,123.473399 L137.230094,124.416031 L136.284961,124.416031 C136.015759,124.416031 135.797276,124.633936 135.797276,124.902426 C135.797276,125.170916 136.015759,125.38882 136.284961,125.38882 L137.230094,125.38882 L137.230094,126.331453 C137.230094,126.599943 137.448576,126.817848 137.717778,126.817848 C137.987956,126.817848 138.205463,126.599943 138.205463,126.331453 L138.205463,125.38882 L139.150596,125.38882 C139.419798,125.38882 139.638281,125.170916 139.638281,124.902426 C139.638281,124.633936 139.419798,124.416031 139.150596,124.416031" id="Fill-31" fill="#B4B3B3"></path>
                    <g id="Group-35" transform="translate(53.704023, 111.255347)" fill="#C1C0C0">
                        <path d="M5.61013005,5.00140068 L5.48138128,4.25040748 C5.44139113,4.01888367 5.51844532,3.78346871 5.68620887,3.61906735 L6.23339113,3.0869517 C6.65767685,2.67448912 6.42358818,1.95559796 5.83739113,1.87096531 L5.0814798,1.76104014 C4.8483665,1.72796531 4.64744039,1.58204694 4.54307586,1.3709517 L4.20462266,0.688053741 C3.94224828,0.157883673 3.18438621,0.157883673 2.92298719,0.688053741 L2.58453399,1.3709517 C2.48016946,1.58204694 2.27924335,1.72796531 2.04613005,1.76104014 L1.29021872,1.87096531 C0.703046305,1.95559796 0.468957635,2.67448912 0.89324335,3.0869517 L1.44042562,3.61906735 C1.60916453,3.78346871 1.68621872,4.01888367 1.64622857,4.25040748 L1.5174798,5.00140068 C1.41701675,5.58410136 2.03052414,6.02866599 2.55429754,5.75336667 L3.23120394,5.39829864 C3.43895764,5.28934626 3.68767685,5.28934626 3.89640591,5.39829864 L4.57233695,5.75336667 C5.09708571,6.02866599 5.7105931,5.58410136 5.61013005,5.00140068" id="Fill-33"></path>
                    </g>
                    <path d="M84.9577034,1.10421293 L84.4290532,1.02736259 C84.2671419,1.00401565 84.1257133,0.901872789 84.053536,0.754981633 L83.8165212,0.277342177 C83.6341271,-0.0923176871 83.1045015,-0.0923176871 82.921132,0.277342177 L82.6841172,0.754981633 C82.6119399,0.901872789 82.4714867,1.00401565 82.3086,1.02736259 L81.7799498,1.10421293 C81.3702946,1.16355306 81.2064325,1.66551224 81.5029448,1.95443061 L81.8852897,2.32603605 C82.0033094,2.44082517 82.0569547,2.60522653 82.028669,2.76670952 L81.938935,3.29201565 C81.8687084,3.6986415 82.2968956,4.00896122 82.6636345,3.81732177 L83.1366887,3.56926054 C83.2820187,3.49338299 83.4556345,3.49338299 83.6009645,3.56926054 L84.0740187,3.81732177 C84.4407576,4.00896122 84.8689448,3.6986415 84.7987182,3.29201565 L84.7089842,2.76670952 C84.6806985,2.60522653 84.7343438,2.44082517 84.8523635,2.32603605 L85.2347084,1.95443061 C85.5312207,1.66551224 85.3673586,1.16355306 84.9577034,1.10421293" id="Fill-36" fill="#DADADA"></path>
                    <path d="M160.190486,92.1105803 L159.618919,92.1553286 C159.442377,92.1689476 159.270712,92.0959884 159.15952,91.9588252 L158.798633,91.5152333 C158.518702,91.170866 157.963717,91.2963558 157.860328,91.7273014 L157.726702,92.2837367 C157.684762,92.4549476 157.561865,92.5950293 157.397028,92.6582605 L156.862525,92.863519 C156.447018,93.0220837 156.395323,93.5872741 156.774742,93.818798 L157.263402,94.1174442 C157.413609,94.2098592 157.509195,94.3703694 157.518949,94.5454714 L157.549185,95.1164986 C157.572594,95.5600905 158.095392,95.783832 158.433845,95.4958864 L158.869835,95.124281 C159.004436,95.0094918 159.185855,94.9686347 159.356545,95.013383 L159.910555,95.1612469 C160.340693,95.2760361 160.715234,94.8489816 160.54552,94.4394374 L160.325087,93.9112129 C160.257786,93.7487571 160.275343,93.5629544 160.370929,93.4150905 L160.683047,92.9355054 C160.924939,92.5629272 160.634279,92.0755599 160.190486,92.1105803" id="Fill-38" fill="#E9E9E9"></path>
                </g>
                <ellipse id="Oval-11" fill="#FFFFFF" opacity="0.122679572" cx="102.413793" cy="138.894063" rx="66.3251232" ry="3.67637561"></ellipse>
                <g id="Group-2" transform="translate(42.166667, 43.083333)">
                    <g id="Combined-Shape">
                        <use fill="#FFFFFF" fill-rule="evenodd" xlink:href="#path-5"></use>
                        <path stroke="#969696" stroke-width="2" d="M94.3333333,66.34687 L94.3333333,8.99509606 C94.3333333,4.57845382 90.7492507,1 86.325594,1 L28.2577393,1 C23.8373909,1 20.25,4.58127089 20.25,8.99509606 L20.25,65.5530719 C23.0996953,66.7206918 25.4756238,68.3426536 27.0126585,70.5270852 C28.1518502,72.1461029 29.9239029,74.9151025 30.1192203,75.1319871 C30.2616694,75.2901656 30.3913209,75.3845825 30.6340519,75.5025162 C30.7289283,75.548613 30.8422067,75.5985219 30.9844265,75.6569364 C31.3925345,75.8245602 32.9713172,75.4615209 35.4065756,74.6086134 C35.6381294,74.5275156 35.8809971,74.4412081 36.1536625,74.3433011 C36.428709,74.2445392 37.4354632,73.8800282 37.3307458,73.9178627 C37.7935433,73.7506537 38.1263889,73.6320321 38.4380208,73.5240341 C39.2510248,73.2422824 39.8340084,73.063994 40.2903271,72.9679664 C44.4797755,72.0863397 48.787585,72.0129859 52.4557689,73.5339402 C54.928548,74.5592388 57.9835966,75.7619103 60.9911073,76.9166667 L62.0703257,76.9166667 C63.9820924,75.4067007 65.9477341,74.3542074 67.7460531,74.3542074 C69.3988399,74.3542074 71.0055197,75.3629265 72.540147,76.9166667 L73.2563473,76.9166667 C74.6807335,75.2194869 76.3101898,73.4914312 78.0520729,71.9446427 C81.1388541,69.2035877 87.6356324,67.1389647 94.3333333,66.34687 Z"></path>
                    </g>
                    <path d="M27.2708333,27.2708333 L27.2708333,25.4366957 C27.2708333,25.0574442 27.5759904,24.75 27.9583333,24.75 C28.3380291,24.75 28.6458333,25.0594892 28.6458333,25.4366957 L28.6458333,27.2708333 L30.4799709,27.2708333 C30.8592225,27.2708333 31.1666667,27.5759904 31.1666667,27.9583333 C31.1666667,28.3380291 30.8571775,28.6458333 30.4799709,28.6458333 L28.6458333,28.6458333 L28.6458333,30.4799709 C28.6458333,30.8592225 28.3406763,31.1666667 27.9583333,31.1666667 C27.5786376,31.1666667 27.2708333,30.8571775 27.2708333,30.4799709 L27.2708333,28.6458333 L25.4366957,28.6458333 C25.0574442,28.6458333 24.75,28.3406763 24.75,27.9583333 C24.75,27.5786376 25.0594892,27.2708333 25.4366957,27.2708333 L27.2708333,27.2708333 Z" id="Combined-Shape" fill="#FFFFFF" opacity="0.429999977"></path>
                    <path d="M87.0505952,23.8005952 L87.0505952,22.490497 C87.0505952,22.219603 87.2783872,22 87.5416667,22 C87.8128779,22 88.0327381,22.2210637 88.0327381,22.490497 L88.0327381,23.8005952 L89.3428364,23.8005952 C89.6137304,23.8005952 89.8333333,24.0283872 89.8333333,24.2916667 C89.8333333,24.5628779 89.6122696,24.7827381 89.3428364,24.7827381 L88.0327381,24.7827381 L88.0327381,26.0928364 C88.0327381,26.3637304 87.8049462,26.5833333 87.5416667,26.5833333 C87.2704554,26.5833333 87.0505952,26.3622696 87.0505952,26.0928364 L87.0505952,24.7827381 L85.740497,24.7827381 C85.469603,24.7827381 85.25,24.5549462 85.25,24.2916667 C85.25,24.0204554 85.4710637,23.8005952 85.740497,23.8005952 L87.0505952,23.8005952 Z" id="Combined-Shape-Copy" fill="#FFFFFF" opacity="0.429999977"></path>
                    <circle id="Oval" stroke="#333333" stroke-width="2" fill="#FFFFFF" opacity="0.449999988" cx="46.75" cy="42.1666667" r="3.66666667"></circle>
                    <circle id="Oval-Copy" stroke="#333333" stroke-width="2" fill="#FFFFFF" opacity="0.449999988" cx="67.8333333" cy="42.1666667" r="3.66666667"></circle>
                    <rect id="Rectangle-2" stroke="#979797" stroke-width="1.5" opacity="0.600000024" x="52.0833333" y="9" width="31.5" height="1"></rect>
                    <rect id="Rectangle-3" stroke="#979797" opacity="0.600000024" x="20.6666667" y="17.9166667" width="73.25" height="1"></rect>
                    <path d="M42.6510722,60.1625163 C42.6510722,60.1625163 48.6772156,53.1239217 57.2916667,53.1239217 C65.9061178,53.1239217 70.8617576,59.5477658 71.9322611,61.0816447" id="Path-5" stroke="#969696" stroke-width="2"></path>
                    <path d="M29.1041667,10.5416667 C27.7119489,10.5416667 26.5833333,9.41305114 26.5833333,8.02083333 C26.5833333,6.62861553 27.7119489,5.5 29.1041667,5.5 C30.4963845,5.5 31.625,6.62861553 31.625,8.02083333 C31.625,9.41305114 30.4963845,10.5416667 29.1041667,10.5416667 Z M36.4375,10.5416667 C35.0452822,10.5416667 33.9166667,9.41305114 33.9166667,8.02083333 C33.9166667,6.62861553 35.0452822,5.5 36.4375,5.5 C37.8297178,5.5 38.9583333,6.62861553 38.9583333,8.02083333 C38.9583333,9.41305114 37.8297178,10.5416667 36.4375,10.5416667 Z M43.7708333,10.5416667 C42.3786155,10.5416667 41.25,9.41305114 41.25,8.02083333 C41.25,6.62861553 42.3786155,5.5 43.7708333,5.5 C45.1630511,5.5 46.2916667,6.62861553 46.2916667,8.02083333 C46.2916667,9.41305114 45.1630511,10.5416667 43.7708333,10.5416667 Z" id="Combined-Shape" fill="#D8D8D8" opacity="0.5"></path>
                    <path d="M0,62.7972361 C0,62.7972361 8.45052083,60.8546905 18.4013672,64.9197133 C28.3522135,68.9847361 28.9322917,75.5945638 30.986735,75.5945638 C33.0411784,75.5945638 41.0199382,72.5099639 45.3329264,72.5099639 C49.6459147,72.5099639 56.7984212,74.5205434 60.1517741,76.5669301 C63.505127,78.6133168 63.3610026,74.5830078 67.1216634,74.5830078 C70.8823242,74.5830078 71.4686686,76.5669301 72.6655273,76.5669301 C73.8623861,76.5669301 76.9104818,71.0982615 83.7192383,68.9847361 C90.5279948,66.8712107 103.49292,64.5365753 112.82251,66.2678578" id="Path-7" stroke="#979797" stroke-width="2"></path>
                    <path d="M86.433239,76.0084424 C91.972106,74.289107 102.518965,72.3899004 110.108509,73.7982844" id="Path-7-Copy-2" stroke="#979797" stroke-width="1.5" transform="translate(98.270874, 74.657945) rotate(-3.000000) translate(-98.270874, -74.657945) "></path>
                    <path d="M10.7534556,76.8485141 C10.7534556,76.8485141 15.1786353,75.5636216 20.3894719,78.252422 C25.6003085,80.9412223 25.9495414,85.4963734 27.0253664,85.4963734 C28.1011913,85.4963734 31.3230409,83.686701 34.4923883,83.2729765 C37.6617357,82.8592521 39.4079004,83.2729765 40.0346446,83.2729765" id="Path-7-Copy" stroke="#979797" stroke-width="1.5"></path>
                </g>
            </g>
        </g>
    </g>
</svg>