<?xml version="1.0" encoding="UTF-8"?>
<svg width="29px" height="24px" viewBox="0 0 29 24" version="1.1" xmlns="http://www.w3.org/2000/svg" xmlns:xlink="http://www.w3.org/1999/xlink">
    <!-- Generator: Sketch 49.3 (51167) - http://www.bohemiancoding.com/sketch -->
    <title>fm@3x</title>
    <desc>Created with Sketch.</desc>
    <defs></defs>
    <g id="Page-1" stroke="none" stroke-width="1" fill="none" fill-rule="evenodd">
        <g id="立即报名" transform="translate(-97.000000, -499.000000)" fill="#B0B0B0" fill-rule="nonzero">
            <g id="Group-5" transform="translate(0.000000, 427.000000)">
                <g id="Group-2-Copy">
                    <g id="Group" transform="translate(77.000000, 50.000000)">
                        <g id="Group-2">
                            <g id="fm" transform="translate(20.000000, 22.000000)">
                                <path d="M29,21.7894737 L29,2.2105263 C29,0.378947367 28.6704545,0 26.825,0 L2.175,0 C0.395454544,0 0,0.315789469 0,2.2105263 L0,21.8526316 C0,23.6210526 0.395454544,24 2.175,24 L26.825,24 C28.6045455,24 29,23.6842105 29,21.7894737 Z M21.5,3 C22.8414634,3 24,4.11764706 24,5.52941178 C23.9390244,6.82352941 22.8414634,8 21.5,8 C20.1585366,8 19,6.88235294 19,5.47058824 C19,4.11764708 20.097561,3.00000002 21.5,3 Z M3,18 C5.42261904,14.64 9.67857143,9.00000002 10.7916667,9 C11.8392857,9 15.4404762,13.56 17.0119048,15.12 C17.0119048,15.12 19.1071429,12.48 20.1547619,12.48 C21.2678571,12.48 24.9345238,17.94 25,18 L3,18 Z" id="Shape"></path>
                            </g>
                        </g>
                    </g>
                </g>
            </g>
        </g>
    </g>
</svg>