<svg xmlns="http://www.w3.org/2000/svg" width="36" height="36" viewBox="0 0 36 36">
  <defs>
    <linearGradient id="gd@3x-a" x1="50%" x2="50%" y1="100%" y2="4.254%">
      <stop offset="0%" stop-color="#161616"/>
      <stop offset="100%" stop-color="#8C8C8C"/>
    </linearGradient>
  </defs>
  <g fill="none" fill-rule="evenodd">
    <circle cx="18" cy="18" r="18" fill="url(#gd@3x-a)"/>
    <path fill="#FFF" d="M25.5001186,19.0000387 L19.0000494,19.0000387 L19.0000494,25.4996508 C19.0000494,26.0523399 18.5522979,26.5000909 18.000056,26.5000909 C17.4478142,26.5000909 17.0000626,26.0523399 17.0000626,25.4996508 L17.0000626,19.0000387 L10.4999374,19.0000387 C9.94775159,19.0000387 9.5,18.5522878 9.5,18.0000467 C9.5,17.4478056 9.94775154,17.0000547 10.4999374,17.0000547 L17.0000066,17.0000547 L17.0000066,10.4999946 C17.0000066,9.94724958 17.4477581,9.5000026 18,9.5000026 C18.5522419,9.5000026 18.9999934,9.94724958 18.9999934,10.4999946 L18.9999934,17.0000547 L25.5000626,17.0000547 C26.0522484,17.0000547 26.5,17.4478056 26.5,18.0000467 C26.500056,18.5522878 26.0523044,19.0000387 25.5001186,19.0000387 Z" opacity=".8"/>
  </g>
</svg>
