<?xml version="1.0" encoding="UTF-8" standalone="no"?>
<svg width="30px" height="30px" viewBox="0 0 30 30" version="1.1" xmlns="http://www.w3.org/2000/svg" xmlns:xlink="http://www.w3.org/1999/xlink">
    <!-- Generator: Sketch 48.2 (47327) - http://www.bohemiancoding.com/sketch -->
    <title>gfkf@3x</title>
    <desc>Created with Sketch.</desc>
    <defs></defs>
    <g id="我的" stroke="none" stroke-width="1" fill="none" fill-rule="evenodd" transform="translate(-20.000000, -255.000000)">
        <g id="我的粉丝" transform="translate(0.000000, 245.000000)" fill="#000000" fill-rule="nonzero">
            <g id="银行管理" transform="translate(20.000000, 10.000000)">
                <g id="客服" transform="translate(6.000000, 5.000000)">
                    <path d="M16.2683544,7.18331341 C16.2227848,5.26166269 15.4936709,3.47727274 14.1265823,2.15041867 C12.7594937,0.777811011 10.9367089,0 8.97721519,0 C5.05822785,0 1.86835444,3.15699761 1.77721519,7.1375598 C0.729113917,7.50358852 0,8.51016746 0,9.65400718 L0,11.9416866 C0,13.4058014 1.18481013,14.6411483 2.6886076,14.6411483 L3.41772152,14.6411483 C3.73670885,14.6411483 3.96455696,14.3666268 3.96455696,14.0921053 L3.96455696,7.5493421 C3.96455696,7.22906699 3.69113924,7.00029904 3.41772152,7.00029904 L2.91645571,7.00029904 C3.09873418,3.75179425 5.74177217,1.18959331 9.02278481,1.18959331 C10.6632911,1.18959331 12.2126582,1.83014355 13.3518987,2.97398326 C14.4455696,4.07206938 15.0379747,5.49043062 15.1291139,7.04605264 L14.5822785,7.04605264 C14.2632911,7.04605264 14.035443,7.32057417 14.035443,7.5950957 L14.035443,14.0921053 C14.035443,14.4123804 14.3088608,14.6411483 14.5822785,14.6411483 L14.764557,14.6411483 C14.1721519,16.3340311 12.8962025,17.2948564 10.7088608,17.569378 C10.6632912,17.3863636 10.4810127,17.2033493 10.2531646,17.2033493 L8.20253164,17.2033493 C7.92911392,17.2033493 7.74683545,17.4321172 7.74683545,17.6608852 L7.74683545,18.6674641 C7.74683545,18.9419856 7.97468356,19.125 8.20253164,19.125 L10.2531646,19.125 C10.4810127,19.125 10.6632911,18.9419857 10.7088608,18.7132177 C13.5797468,18.347189 15.3113924,16.9745813 15.9949367,14.5496411 C17.1341772,14.229366 18,13.2227871 18,11.9874402 L18,9.69976077 C17.9544304,8.55592106 17.2708861,7.5950957 16.2683544,7.18331341 Z M2.82531646,13.451555 L2.64303799,13.451555 C1.77721521,13.451555 1.09367091,12.7652512 1.09367089,11.895933 L1.09367089,9.60825358 C1.09367089,8.83044257 1.64050633,8.23564593 2.36962027,8.09838516 L2.77974685,8.09838516 L2.77974685,13.451555 L2.82531646,13.451555 Z M16.8151899,11.9416866 C16.8151899,12.7194976 16.2227848,13.3600478 15.4481013,13.451555 L15.0835443,13.451555 L15.0835443,8.14413876 L15.2658228,8.14413876 C15.356962,8.14413876 15.4481013,8.14413876 15.5848101,8.18989235 C16.313924,8.32715311 16.8151899,8.96770336 16.8151899,9.69976077 L16.8151899,11.9416866 Z" id="Shape"></path>
                </g>
            </g>
        </g>
    </g>
</svg>