<?xml version="1.0" encoding="UTF-8"?>
<svg width="42px" height="42px" viewBox="0 0 42 42" version="1.1" xmlns="http://www.w3.org/2000/svg" xmlns:xlink="http://www.w3.org/1999/xlink">
    <!-- Generator: Sketch 50 (54983) - http://www.bohemiancoding.com/sketch -->
    <title>sdf</title>
    <desc>Created with Sketch.</desc>
    <defs></defs>
    <g id="总平台版" stroke="none" stroke-width="1" fill="none" fill-rule="evenodd">
        <g id="立即报名-总平台" transform="translate(-290.000000, -489.000000)">
            <g id="Group-5" transform="translate(0.000000, 64.000000)">
                <g id="sdf" transform="translate(290.000000, 425.000000)">
                    <g id="tx-copy" fill="#CCCCCC">
                        <g id="zc_mrtx">
                            <rect id="Rectangle-26" x="0" y="0" width="42" height="42"></rect>
                        </g>
                    </g>
                    <g id="tupian" transform="translate(9.000000, 11.000000)" fill="#FFFFFF" fill-rule="nonzero">
                        <path d="M21.9511766,1.54834466e-16 L1.04657748,1.54834466e-16 C0.467141881,1.54834466e-16 0,0.470685898 0,1.05032687 L0,19.9496731 C0,20.5293141 0.467141881,21 1.04657748,21 L21.9534225,21 C22.5306122,21 23,20.5314932 23,19.9496731 L23,1.05032687 C22.9977541,0.470685898 22.5306122,0 21.9511766,1.54834466e-16 Z M21.4952641,1.46653523 L21.4952641,15.390993 L18.2477297,11.8455951 C18.0568304,11.6298641 17.7850796,11.5056553 17.4976077,11.5056553 C17.2101357,11.5056553 16.936139,11.6298641 16.7474856,11.8455951 L14.1445171,14.8069939 L6.2525144,5.82255889 C6.06161508,5.60682785 5.78986427,5.48261907 5.50239234,5.48261907 C5.21492042,5.48261907 4.94316961,5.60682785 4.75227029,5.82255889 L1.50473587,9.58586697 L1.50473587,1.46435613 L21.4952641,1.46653523 Z M15.4987794,9.49870292 C17.1539889,9.49870292 18.4970218,8.14983916 18.4970218,6.48718481 C18.4970218,4.82235135 17.1539889,3.4756667 15.4987794,3.4756667 C13.8413241,3.4756667 12.5005371,4.82453046 12.5005371,6.48718481 C12.4982912,8.14983916 13.8413241,9.49870292 15.4987794,9.49870292 Z M15.4987794,4.82453046 C16.4106044,4.82453046 17.1539889,5.56978313 17.1539889,6.48718481 C17.1539889,7.40240739 16.4106044,8.14983916 15.4987794,8.14983916 C14.5847085,8.14983916 13.84357,7.40458649 13.84357,6.48718481 C13.84357,5.56978313 14.5847085,4.82453046 15.4987794,4.82453046 Z" id="Shape"></path>
                    </g>
                </g>
            </g>
        </g>
    </g>
</svg>