<?xml version="1.0" encoding="UTF-8"?>
<svg width="24px" height="24px" viewBox="0 0 24 24" version="1.1" xmlns="http://www.w3.org/2000/svg" xmlns:xlink="http://www.w3.org/1999/xlink">
    <!-- Generator: Sketch 49.3 (51167) - http://www.bohemiancoding.com/sketch -->
    <title>jgsq@3x</title>
    <desc>Created with Sketch.</desc>
    <defs></defs>
    <g id="页面定稿" stroke="none" stroke-width="1" fill="none" fill-rule="evenodd">
        <g id="我的-控制台" transform="translate(-22.000000, -497.000000)" fill="#C4A66A" fill-rule="nonzero">
            <g id="Group-12" transform="translate(22.000000, 497.000000)">
                <g id="Group-2">
                    <path d="M8.354009,17.8231498 L7.32368661,17.8231498 C7.14490926,17.8231498 6.99906497,17.9606995 6.99906497,18.1293088 L6.99906497,19.1010307 C6.99906497,19.26964 7.14490926,19.4071897 7.32368661,19.4071897 L8.354009,19.4071897 C8.53278544,19.4071897 8.67863064,19.26964 8.67863064,19.1010307 L8.67863064,18.1293088 C8.67863064,17.9606995 8.53278544,17.8231498 8.354009,17.8231498 Z M8.354009,10.4930832 L7.32368661,10.4930832 C7.14490926,10.4930832 6.99906497,10.6306328 6.99906497,10.799242 L6.99906497,11.770964 C6.99906497,11.9395733 7.14490926,12.077123 7.32368661,12.077123 L8.354009,12.077123 C8.53278544,12.077123 8.67863064,11.9395733 8.67863064,11.770964 L8.67863064,10.799242 C8.67863064,10.6306328 8.53278544,10.4930832 8.354009,10.4930832 Z M8.354009,12.9379177 L7.32368661,12.9379177 C7.14490926,12.9379177 6.99906497,13.0754674 6.99906497,13.2440767 L6.99906497,14.2113615 C6.99906497,14.3799708 7.14490926,14.5175205 7.32368661,14.5175205 L8.354009,14.5175205 C8.53278544,14.5175205 8.67863064,14.3799708 8.67863064,14.2113615 L8.67863064,13.2396396 C8.67863064,13.0710303 8.53278544,12.9379177 8.354009,12.9379177 Z M8.354009,15.3783153 L7.32368661,15.3783153 C7.14490926,15.3783153 6.99906497,15.5158649 6.99906497,15.6844742 L6.99906497,16.6561961 C6.99906497,16.8248055 7.14490926,16.9623551 7.32368661,16.9623551 L8.354009,16.9623551 C8.53278544,16.9623551 8.67863064,16.8248055 8.67863064,16.6561961 L8.67863064,15.6844742 C8.67863064,15.5158649 8.53278544,15.3783153 8.354009,15.3783153 Z M8.354009,8.04824855 L7.32368661,8.04824855 C7.14490926,8.04824855 6.99906497,8.18579818 6.99906497,8.35440751 L6.99906497,9.32612938 C6.99906497,9.4947387 7.14490926,9.63228833 7.32368661,9.63228833 L8.354009,9.63228833 C8.53278544,9.63228833 8.67863064,9.4947387 8.67863064,9.32612938 L8.67863064,8.35440751 C8.67863064,8.18579818 8.53278544,8.04824855 8.354009,8.04824855 Z M20.670674,21 L3.32462164,21 C3.14584429,21 3,20.8624504 3,20.693841 L3,19.6999337 C3,19.5313244 3.14584429,19.3937747 3.32462164,19.3937747 L4.29848749,19.3937747 L4.29848749,7.0021653 C4.29848749,6.65607257 4.51490223,6.34547649 4.85363779,6.20792677 L10.5979852,3.07090676 C10.8802651,2.95554244 11.2048867,2.98216496 11.4636432,3.14190008 C11.7223997,3.30163519 11.8729492,3.5722975 11.8729492,3.86070809 L11.8729492,19.3893377 L12.9126802,19.3893377 L12.9126802,5.25721748 C12.9126802,4.94662141 13.0867533,4.66264793 13.3690332,4.51178695 C13.6513131,4.35648895 14.0041626,4.36092606 14.2864425,4.51622406 L19.2451604,7.24059514 C19.5274404,7.39589314 19.6968082,7.67986669 19.6968082,7.98602558 L19.6968082,19.3982118 L20.6753783,19.3982118 C20.8541557,19.3982118 21,19.5357616 21,19.7043708 L21,20.693841 C20.9952957,20.8624504 20.8494514,21 20.670674,21 Z M16.7893245,13.0321657 L15.759003,13.0321657 C15.5802257,13.0321657 15.4343814,13.1697154 15.4343814,13.3383246 L15.4343814,14.3056094 C15.4343814,14.4742188 15.5802257,14.6117684 15.759003,14.6117684 L16.7893245,14.6117684 C16.9681019,14.6117684 17.1139471,14.4742188 17.1139471,14.3056094 L17.1139471,13.3338876 C17.1139471,13.1652783 16.9681019,13.0321657 16.7893245,13.0321657 Z M16.7893245,8.14249651 L15.759003,8.14249651 C15.5802257,8.14249651 15.4343814,8.28004612 15.4343814,8.44865547 L15.4343814,9.42037732 C15.4343814,9.58898666 15.5802257,9.72653629 15.759003,9.72653629 L16.7893245,9.72653629 C16.9681019,9.72653629 17.1139471,9.58898666 17.1139471,9.42037732 L17.1139471,8.44865547 C17.1139471,8.28004612 16.9681019,8.14249651 16.7893245,8.14249651 Z M16.7893245,15.4725632 L15.759003,15.4725632 C15.5802257,15.4725632 15.4343814,15.6101129 15.4343814,15.7787221 L15.4343814,16.7504441 C15.4343814,16.9190534 15.5802257,17.056603 15.759003,17.056603 L16.7893245,17.056603 C16.9681019,17.056603 17.1139471,16.9190534 17.1139471,16.7504441 L17.1139471,15.7787221 C17.1139471,15.6101129 16.9681019,15.4725632 16.7893245,15.4725632 Z M16.7893245,17.9173978 L15.759003,17.9173978 C15.5802257,17.9173978 15.4343814,18.0549475 15.4343814,18.2235567 L15.4343814,19.1952787 C15.4343814,19.3638879 15.5802257,19.5014376 15.759003,19.5014376 L16.7893245,19.5014376 C16.9681019,19.5014376 17.1139471,19.3638879 17.1139471,19.1952787 L17.1139471,18.2235567 C17.1139471,18.0549475 16.9681019,17.9173978 16.7893245,17.9173978 Z M16.7893245,10.587331 L15.759003,10.587331 C15.5802257,10.587331 15.4343814,10.7248807 15.4343814,10.89349 L15.4343814,11.8652119 C15.4343814,12.0338213 15.5802257,12.1713709 15.759003,12.1713709 L16.7893245,12.1713709 C16.9681019,12.1713709 17.1139471,12.0338213 17.1139471,11.8652119 L17.1139471,10.89349 C17.1139471,10.7248807 16.9681019,10.587331 16.7893245,10.587331 Z" id="Shape"></path>
                </g>
            </g>
        </g>
    </g>
</svg>