<?xml version="1.0" encoding="UTF-8"?>
<svg width="34px" height="34px" viewBox="0 0 34 34" version="1.1" xmlns="http://www.w3.org/2000/svg" xmlns:xlink="http://www.w3.org/1999/xlink">
    <!-- Generator: Sketch 49.3 (51167) - http://www.bohemiancoding.com/sketch -->
    <title>jlsa@3x</title>
    <desc>Created with Sketch.</desc>
    <defs></defs>
    <g id="新版" stroke="none" stroke-width="1" fill="none" fill-rule="evenodd">
        <g id="支付成功-copy-6" transform="translate(-114.000000, -243.000000)" fill="#E84653" fill-rule="nonzero">
            <g id="jlsa" transform="translate(114.000000, 243.000000)">
                <path d="M0.030243283,5.20141892 C0.030243283,7.05974143 2.49422176,8.7765125 6.49405766,9.70583549 C10.4938935,10.6351585 15.4222548,10.6351989 19.422212,9.70583549 C23.4221692,8.77647207 25.8860264,7.05917538 25.8860264,5.20141892 C25.8860264,2.32890725 20.0981979,0 12.957872,0 C5.81754615,0 0.0300815542,2.32902854 0.0300815542,5.20141892 L0.030243283,5.20141892 Z M17.7159329,16.5224206 C19.5708812,15.0938063 21.5839194,13.9421089 25.1075449,13.8201669 C25.7126936,13.315013 25.9098005,12.8111125 25.9542355,12.0286375 L25.9542355,7.30908382 C25.7727354,10.1115678 20.0675907,12.3759056 13.0260811,12.3759056 C5.98457155,12.3759056 0.0302837149,10.0439659 0.0302837153,7.17448664 L0.0302837153,11.6584043 C0.0302837153,14.5505658 5.82652209,16.8823437 12.9584381,16.8823437 C14.8346133,16.8885702 16.1632153,16.8229899 17.7161351,16.5225823 L17.7159329,16.5224206 Z M0.030243283,13.4526426 L0.030243283,17.9365603 C0.030243283,20.8060395 5.82648166,23.1379792 12.9583976,23.1379792 L13.9004274,23.1379792 C14.0167508,21.5625978 14.8699106,19.9023098 15.9718092,18.5495455 C14.8661908,18.6689404 14.069434,18.74289 12.9575486,18.7436582 C5.82636036,18.7436582 0.0297580964,16.4117185 0.0297580964,13.4527639 L0.030243283,13.4526426 Z M12.9435995,25.1407642 C5.78071242,25.1407642 0,22.9010898 0,19.9455313 L0,24.4238695 C0,27.2896695 5.80339488,29.6191023 12.9435995,29.6191023 L14.7272254,29.6191023 C13.9863054,28.3150178 13.7590764,26.8666324 13.7590764,25.1407642 L12.9433973,25.1407642 L12.9435995,25.1407642 Z M24.8791838,15.7585846 C19.8417365,15.7585846 15.7583677,19.8422687 15.7583677,24.8792923 C15.7583677,29.9163159 19.8421004,34 24.8791838,34 C29.9166312,34 34,29.9163159 34,24.8792923 C34,19.8421879 29.9171164,15.7585846 24.8791838,15.7585846 Z M29.5805183,22.5224872 L23.9434615,28.2204076 C23.9420464,28.2218227 23.939297,28.2223483 23.9377606,28.224572 C23.9358198,28.2259871 23.9358198,28.2287365 23.9335961,28.2302729 C23.8884333,28.2738987 23.8327582,28.3007454 23.7805198,28.3304627 C23.7546836,28.3454224 23.7331332,28.3678216 23.7055989,28.3782934 C23.6276861,28.4101536 23.5375223,28.4288735 23.4427492,28.4288735 C23.3468036,28.4288735 23.2551438,28.4095471 23.1717322,28.374978 C23.1482006,28.3647488 23.1255991,28.3404897 23.0987521,28.3259343 C23.0465541,28.2965405 22.9921728,28.2702599 22.9471718,28.2257445 L22.9435329,28.2200437 C22.9421177,28.2181029 22.9393684,28.2181029 22.9378319,28.2158792 L20.1658005,25.3668584 C20.0478598,25.2411157 19.9754862,25.071909 19.9754862,24.8854784 C19.9754862,24.4966061 20.2910191,24.1812387 20.6797342,24.1812387 C20.873081,24.1812387 21.0483141,24.2592315 21.1756351,24.3852167 L23.4475606,26.7191375 L28.5793767,21.5310206 C28.7071829,21.4020435 28.8841951,21.3219887 29.0801699,21.3219887 C29.4690468,21.3219887 29.7844179,21.6375178 29.7844179,22.0262283 C29.7844179,22.219411 29.7065859,22.3943186 29.5807205,22.5217998 L29.5805183,22.5224872 Z" id="Shape"></path>
            </g>
        </g>
    </g>
</svg>