<svg xmlns="http://www.w3.org/2000/svg" width="24" height="24" viewBox="0 0 24 24">
  <path fill="#C4A66A" d="M18.7846355,1.9828816 L16.6797479,1.9828816 L16.6797479,1.21493105 C16.6797479,0.551592962 16.1279581,0 15.3525984,0 L4.64740159,0 C3.87442026,0 3.32025211,0.551592962 3.32025211,1.21493105 L3.32025211,1.9828816 L1.21536449,1.9828816 C0.551789749,1.9828816 0,2.53447456 0,3.19781265 L0,5.59438897 C0,7.47265811 1.54596266,9.02044698 3.42490189,9.02044698 C3.75550006,12.0042796 6.32655488,14.4341417 9.31145202,14.8763671 L9.31145202,18.0052306 L7.2065644,18.0052306 C6.54298965,18.0052306 5.9911999,18.4117927 5.9911999,19.0751308 L5.9911999,19.6695197 C5.9911999,19.8906324 6.10060649,20 6.32179807,20 L13.6805803,20 C13.9017719,20 14.0111785,19.8882549 14.0111785,19.6695197 L14.0111785,19.1179268 C14.0111785,18.4545887 13.4593888,18.0076082 12.795814,18.0076082 L10.6909264,18.0076082 L10.6909264,14.8739895 C13.6734451,14.4317641 16.2444999,12.001902 16.5750981,9.01806942 C18.4540373,9.01806942 20,7.47028055 20,5.59201141 L20,3.05278174 C20,2.38944365 19.4482103,1.9828816 18.7846355,1.9828816 Z M3.34165775,7.25867808 C2.56867642,7.25867808 2.00261624,6.59533999 2.00261624,5.71326676 L2.00261624,3.361864 L3.34165775,3.361864 L3.34165775,7.25867808 Z M12.9290046,6.14598193 L11.7136401,7.47028055 L12.0442383,9.34854969 C12.0442383,9.46029482 12.0442383,9.67902996 11.9348317,9.79077508 C11.8254251,9.79077508 11.8254251,9.90014265 11.7136401,9.90014265 L11.4924486,9.90014265 L9.9441075,9.01806942 L8.39814484,9.90252021 C8.28873826,10.0118878 8.06754668,10.0118878 7.95576168,9.90252021 C7.8463551,9.79315264 7.7345701,9.68140751 7.8463551,9.46029482 L8.17695326,7.58202568 L6.74039719,6.14598193 C6.63099061,6.0342368 6.63099061,5.92486923 6.63099061,5.81550166 C6.63099061,5.70613409 6.85218219,5.4850214 6.96158877,5.4850214 L8.72874301,5.2639087 L9.50172434,3.60675226 C9.61113093,3.49500713 9.72291592,3.38563956 9.83232251,3.38563956 C9.9417291,3.38563956 10.1629207,3.49500713 10.1629207,3.60675226 L10.935902,5.2639087 L12.7030562,5.4850214 C12.8124628,5.4850214 12.9242478,5.59438897 13.0336544,5.70613409 C13.0384112,5.92486923 13.0384112,6.0342368 12.9290046,6.14598193 Z M18.0187894,5.80123633 C18.0187894,6.68568711 17.5645142,7.3490252 16.6797479,7.3490252 L16.6797479,3.340466 L18.0187894,3.340466 L18.0187894,5.80123633 Z" transform="translate(2 2)"/>
</svg>
