<?xml version="1.0" encoding="UTF-8"?>
<svg width="22px" height="22px" viewBox="0 0 22 22" version="1.1" xmlns="http://www.w3.org/2000/svg" xmlns:xlink="http://www.w3.org/1999/xlink">
    <!-- Generator: Sketch 49.3 (51167) - http://www.bohemiancoding.com/sketch -->
    <title>jxs@3x</title>
    <desc>Created with Sketch.</desc>
    <defs></defs>
    <g id="页面定稿" stroke="none" stroke-width="1" fill="none" fill-rule="evenodd">
        <g id="总平台我的控制台手机验证" transform="translate(-36.000000, -492.000000)" fill="#000000" fill-rule="nonzero">
            <g id="Group-3-Copy-2" transform="translate(24.000000, 480.000000)">
                <g id="客服-2" transform="translate(12.000000, 12.000000)">
                    <g id="经销商@1x" transform="translate(3.500000, 1.500000)">
                        <path d="M11.1719268,4.05937111 C11.1627463,4.0571975 11.1428026,4.05657647 11.1333055,4.05471337 C11.0699921,1.79291735 10.2469168,1.13686838e-13 7.44877741,1.13686838e-13 C4.88268196,1.13686838e-13 3.84718994,1.79291738 3.7822936,4.05471337 C3.77311316,4.05657647 3.76234984,4.0571975 3.75285283,4.05937111 C3.20677404,4.18357738 2.85633392,4.850565 2.97061476,5.54984623 C3.07856425,6.21155507 3.62116079,7.00647516 4.1419142,6.98722317 C4.62119727,8.62364065 5.58324563,10.0253083 7.44941054,10.0253083 C9.31557546,10.0253084 10.2934522,8.62364067 10.7733684,6.98722317 C11.2931721,7.00647516 11.8519136,6.21093404 11.959863,5.54984623 C12.0712948,4.85056498 11.7161061,4.18295632 11.1703439,4.05937111 L11.1719268,4.05937111 Z M14.5,14.9056828 C14.5,12.5501111 12.6278203,10.6230509 10.339671,10.6230509 L4.70002255,10.6230509 C2.38084966,10.6230509 0.500755783,12.558495 0.500755783,14.9457393 L0.500755783,15.6310474 C0.466067006,17.0742002 1.62979987,18.2721073 3.10104053,18.3076923 L11.8446325,18.3076923 C13.3443947,18.2668835 14.5294743,17.0464902 14.4981006,15.5751546 L14.4981006,14.9047513 L14.5,14.9056828 Z M7.95940064,15.7412804 C7.69231988,15.9596378 7.30486143,15.9614612 7.03565692,15.7456276 L6.48039768,15.3065585 C6.24702882,15.117797 6.14002713,14.8174094 6.20276805,14.5271642 L6.76277581,11.8666661 C6.82311554,11.5138047 7.13450605,11.2553319 7.4992699,11.2553319 C7.86403376,11.2553319 8.17542426,11.5138047 8.235764,11.8666661 L8.79545519,14.5113279 C8.8581227,14.7995054 8.75353276,15.0980808 8.52352378,15.2876171 L7.95940064,15.7412804 Z" id="Shape"></path>
                    </g>
                </g>
            </g>
        </g>
    </g>
</svg>