<?xml version="1.0" encoding="UTF-8"?>
<svg width="22px" height="22px" viewBox="0 0 22 22" version="1.1" xmlns="http://www.w3.org/2000/svg" xmlns:xlink="http://www.w3.org/1999/xlink">
    <!-- Generator: Sketch 49.3 (51167) - http://www.bohemiancoding.com/sketch -->
    <title>kf@3x</title>
    <desc>Created with Sketch.</desc>
    <defs></defs>
    <g id="Page-1" stroke="none" stroke-width="1" fill="none" fill-rule="evenodd">
        <g id="我的-未登录" transform="translate(-36.000000, -408.000000)" fill="#000000" fill-rule="nonzero">
            <g id="Group-3" transform="translate(24.000000, 396.000000)">
                <g id="客服-2" transform="translate(12.000000, 12.000000)">
                    <path d="M12.6194552,13.2676441 C12.1262483,13.2676441 11.66632,13.2413807 11.2396704,13.1888538 C11.0664507,13.1758271 10.9265096,13.1003985 10.8198472,12.962568 C10.7131848,12.8247375 10.6698799,12.6705186 10.6899324,12.4999114 C10.7099849,12.3293041 10.7865685,12.1881119 10.9196832,12.0763347 C11.0527979,11.9645575 11.2061784,11.9219057 11.3798248,11.9483792 C11.966468,11.9878794 12.5597243,12.0011162 13.1595936,11.9880895 C13.759463,11.9750629 14.3228538,11.8897592 14.849766,11.7321786 C15.3766783,11.574598 15.7066917,11.3644905 15.8398064,11.1018562 C15.9200165,10.9442756 16.0433183,10.8358601 16.2097116,10.7766098 C16.376105,10.7173595 16.5395118,10.7238728 16.699932,10.7961498 C16.8603523,10.8684268 16.9704278,10.9867173 17.0301588,11.1510213 C17.0898897,11.3153254 17.0798635,11.4762677 17.00008,11.6338483 C16.466768,12.7238859 15.0067731,13.2689047 12.6200952,13.2689047 L12.6194552,13.2676441 Z M18.3593856,12.6373217 C18.1861659,12.6373217 18.0361986,12.5749197 17.9094836,12.4501159 C17.7827687,12.325312 17.7194112,12.1776065 17.7194112,12.0069992 L17.7194112,9.83995062 L16.8592856,9.5247894 C16.5794035,9.43276232 16.4394624,9.2356815 16.4394624,8.93354694 C16.4394624,7.37076748 15.8760716,6.034694 14.74929,4.92532649 C13.6225084,3.81595898 12.265976,3.26106511 10.6796928,3.2606449 C9.0934096,3.26022468 7.73687719,3.81511855 6.6100956,4.92532649 C5.483314,6.03553443 4.9199232,7.37160791 4.9199232,8.93354694 C4.9199232,9.03860068 4.8966708,9.13714109 4.85016599,9.22916817 C4.80366119,9.32119525 4.74030372,9.39347222 4.6600936,9.44599909 L4.2799488,9.72208033 L4.2799488,12.0069992 C4.2799488,12.1776065 4.21659134,12.325312 4.0898764,12.4501159 C3.96316147,12.5749197 3.81319414,12.6373217 3.6399744,12.6373217 C3.46675466,12.6373217 3.31678733,12.5749197 3.1900724,12.4501159 C3.06335747,12.325312 3,12.1776065 3,12.0069992 L3,9.38737911 C3,9.32182557 3.01002627,9.25606193 3.0300788,9.19008818 C3.05013133,9.12411443 3.08021012,9.06507423 3.12031519,9.01296757 C3.16042025,8.96086092 3.20713838,8.91484738 3.26046958,8.87492695 L3.64061438,8.61901604 C3.73405064,6.78057556 4.46063491,5.2177961 5.82036719,3.93067766 C7.18009946,2.64355922 8.800088,2 10.6803328,2 C11.9069504,2 13.0435449,2.28889779 14.0901164,2.86669337 C15.1366879,3.44448895 15.9799608,4.22903029 16.6199352,5.22031739 C17.2599096,6.2116045 17.6200019,7.30479373 17.700212,8.4998851 L18.5801768,8.79550633 C18.8600589,8.90056007 19,9.09764089 19,9.38674878 L19,12.0063689 C19,12.1769762 18.9366425,12.3246817 18.8099276,12.4494856 C18.6832127,12.5742894 18.5332453,12.6366913 18.3600256,12.6366913 L18.3593856,12.6373217 Z M13.2395904,15.4737727 L13.2395904,15.2764818 C13.8795648,14.7907132 14.3062144,14.3114581 14.5195392,13.8387162 C14.2661094,13.8782165 13.6794662,13.8979666 12.7596096,13.8979666 L12.399304,13.8979666 C12.2525366,13.8979666 12.1324347,13.9013283 12.0389984,13.9080517 C11.9455622,13.9147752 11.8455128,13.9147752 11.7388504,13.9080517 C11.632188,13.9013283 11.5387518,13.8979666 11.4585417,13.8979666 C11.3783315,13.8979666 11.3049478,13.8914532 11.2383905,13.8784266 C10.8915243,13.8389264 10.6048158,13.6748324 10.3782649,13.3861447 C10.1517139,13.097457 10.0582777,12.7757825 10.0979561,12.4211211 C10.1380611,12.0794863 10.2980547,11.8004635 10.5779369,11.5840528 C10.857819,11.3676421 11.1711932,11.2789768 11.5180593,11.3180568 C12.2514699,11.3836103 12.958215,11.386972 13.6382945,11.3281419 C14.3183739,11.2693118 14.8184073,11.1741331 15.1383945,11.0426059 C15.1516206,10.7669448 15.1582337,10.2154127 15.1582337,9.38800943 C15.1582337,8.73121344 15.0581843,8.13366775 14.8580857,7.59537238 C14.657987,7.05707701 14.3712785,6.60072356 13.9979601,6.22631202 C13.6246417,5.85190049 13.1679133,5.5630027 12.6277749,5.35961865 C12.0876365,5.15623461 11.490967,5.04781915 10.8377665,5.03437227 L10.4377825,5.03437227 C9.90447049,5.04739894 9.41446342,5.11967591 8.96776129,5.25120319 C8.52105916,5.38273048 8.12448835,5.57308786 7.77804888,5.82227533 C7.4316094,6.07146281 7.1382878,6.37023565 6.89808408,6.71859386 C6.65788035,7.06695206 6.47783422,7.46741693 6.35794568,7.91998844 C6.23805714,8.37255996 6.17811288,8.86820352 6.17811288,9.4069191 C6.17811288,9.86663428 6.18152607,10.2441974 6.18835247,10.5396085 C6.19517886,10.8350197 6.23528392,11.2388462 6.30866765,11.7510883 C6.38205138,12.2633303 6.48210072,12.7032954 6.60881565,13.0709835 C6.73553058,13.4386716 6.92880285,13.8292614 7.18863245,14.2427529 C7.44846206,14.6562445 7.758423,15.0010308 8.11851526,15.2771121 L8.11851526,15.474403 C6.78523526,15.6714838 5.69855872,16.0194218 4.85848566,16.518217 C4.0184126,17.0170121 3.59837606,17.6013211 3.59837606,18.2711437 C3.59837606,18.5602516 3.73831713,18.7638458 4.01819927,18.8819262 C4.0984094,18.9214264 4.1784062,18.9411765 4.25818967,18.9411765 L16.8176873,18.9411765 C16.9243497,18.9411765 17.0410384,18.9083997 17.1677533,18.8428462 C17.2944682,18.7772926 17.3977174,18.691989 17.4775009,18.5869353 C17.5572844,18.4818815 17.5973894,18.3768278 17.5978161,18.271774 C17.5978161,17.6019514 17.1978321,17.0176425 16.3978641,16.5188473 C15.5978961,16.0200521 14.5444982,15.6721141 13.2376705,15.4750333 L13.2395904,15.4737727 Z" id="Shape"></path>
                </g>
            </g>
        </g>
    </g>
</svg>