<svg xmlns="http://www.w3.org/2000/svg" width="20" height="20" viewBox="0 0 20 20">
  <path fill="#FFA816" d="M14.483234,14.3405475 C14.2424134,14.2749403 13.9896286,14.2397286 13.7280224,14.2397286 C12.6688119,14.2397286 11.7432081,14.8117493 11.2432098,15.6646076 C11.0816033,15.9390235 10.8016043,16.1262127 10.4832126,16.1470115 C10.3496059,16.1558234 10.2152135,16.159819 10.0799997,16.159819 C6.95201089,16.159819 4.36319871,13.857323 3.91120031,10.8555874 C3.85359338,10.4699711 4.03598559,10.0899557 4.36880584,9.88835355 C5.20237426,9.38433026 5.75997942,8.46907559 5.75997942,7.42342701 C5.75997942,6.85939755 5.59758714,6.33379057 5.31758812,5.88977345 C4.80716139,5.08093877 3.90637889,4.54330916 2.87998971,4.54330916 C1.34078092,4.54330916 0.0839996959,5.75056768 0.00399998979,7.26984402 C0.00160713916,7.32103836 0,7.37223272 0,7.42346271 C0,7.56987489 0.0111785193,7.71307633 0.0319998735,7.85306694 C0.499212497,14.6397578 6.15115659,20 13.0559534,20 C13.2087742,20 13.3615594,19.9967892 13.5127731,19.9911881 C13.5839872,19.9967892 13.6551655,20 13.7279867,20 C13.9311645,20 14.1287709,19.9792012 14.3191631,19.939209 C15.6263728,19.6663985 16.6079407,18.507944 16.6079407,17.1198821 C16.6080121,15.7910415 15.7072296,14.6725793 14.483234,14.3405475 Z M13.4401306,12.1586346 C12.9984536,12.1586346 12.6401334,11.8007024 12.6401334,11.3595037 C12.6401334,9.1535812 10.8458541,7.35864032 8.64014772,7.35864032 C8.19847072,7.35864032 7.84015054,7.00070816 7.84015054,6.55950939 C7.84015054,6.11831062 8.19847072,5.76037846 8.64014772,5.76037846 C11.7281724,5.76037846 14.2401277,8.27221823 14.2401277,11.3595037 C14.2401277,11.8007024 13.8818076,12.1586346 13.4401306,12.1586346 Z M16.3197989,11.678942 C15.8781219,11.678942 15.5198017,11.3210098 15.5198017,10.8798111 C15.5198017,7.35032793 12.6489905,4.47845114 9.11982455,4.47845114 C8.67814757,4.47845114 8.31982742,4.12051893 8.31982742,3.67932016 C8.31982742,3.23812139 8.67814757,2.88018923 9.11982455,2.88018923 C13.5312731,2.88018923 17.119796,6.46900068 17.119796,10.8798111 C17.119796,11.3210098 16.7614758,11.678942 16.3197989,11.678942 Z M19.2000028,11.1987499 C18.7583259,11.1987499 18.4000057,10.8408177 18.4000057,10.399619 C18.4000057,5.54657524 14.4520912,1.59826188 9.60003713,1.59826188 C9.15836013,1.59826188 8.80003998,1.24032973 8.80003998,0.799130953 C8.80003998,0.357932179 9.15836013,0 9.60003713,0 C15.3343738,0 20,4.66524799 20,10.399619 C20,10.8408177 19.6416798,11.1987499 19.2000028,11.1987499 Z"/>
</svg>
