<?xml version="1.0" encoding="UTF-8"?>
<svg width="170px" height="102px" viewBox="0 0 170 102" version="1.1" xmlns="http://www.w3.org/2000/svg" xmlns:xlink="http://www.w3.org/1999/xlink">
    <!-- Generator: Sketch 49.3 (51167) - http://www.bohemiancoding.com/sketch -->
    <title>kym@3x</title>
    <desc>Created with Sketch.</desc>
    <defs></defs>
    <g id="页面定稿" stroke="none" stroke-width="1" fill="none" fill-rule="evenodd">
        <g id="琴童招募中-总平台" transform="translate(-103.000000, -352.000000)">
            <g id="kym" transform="translate(103.000000, 352.000000)">
                <g id="Page-1">
                    <path d="M2.36727094,64.0414657 L0.250226601,63.6577451 C0.0844137931,63.6277148 -0.0479014778,63.7920473 0.0165812808,63.9463698 L0.786187192,65.7873944 C0.84564532,65.9292042 1.03323153,65.961737 1.13791133,65.8491234 L2.48534975,64.3918193 C2.59840394,64.2691956 2.53140887,64.071496 2.36727094,64.0414657" id="Fill-1" fill="#CCCBC7"></path>
                    <path d="M8.965867,26.2107026 L7.4249803,27.4836539 C7.30606404,27.5820866 7.32951232,27.769776 7.46936453,27.83651 L9.26315764,28.6915396 C9.41305911,28.7632787 9.58389655,28.6423233 9.56463547,28.4771566 L9.31089163,26.3483415 C9.29163054,26.1823406 9.09483251,26.1039281 8.965867,26.2107026" id="Fill-4" fill="#DADADA"></path>
                    <path d="M97.3179655,8.32314995 L94.9279163,9.52102554 C94.7436798,9.61361899 94.7168818,9.86470573 94.8785074,9.99316871 L96.9570296,11.6440014 C97.1312167,11.7824745 97.3908227,11.6748659 97.4151084,11.4538095 L97.7266355,8.60510117 C97.7509212,8.38321056 97.5181133,8.22304892 97.3179655,8.32314995" id="Fill-6" fill="#DADADA"></path>
                    <path d="M25.4612266,91.0120185 C24.0183202,91.0120185 22.8442315,89.8425048 22.8442315,88.405221 C22.8442315,86.9679371 24.0183202,85.7984234 25.4612266,85.7984234 C26.904133,85.7984234 28.0782217,86.9679371 28.0782217,88.405221 C28.0782217,89.8425048 26.904133,91.0120185 25.4612266,91.0120185 M25.4612266,84.130073 C23.0946256,84.130073 21.1693547,86.0478418 21.1693547,88.405221 C21.1693547,90.7626001 23.0946256,92.6803689 25.4612266,92.6803689 C27.8278276,92.6803689 29.7530985,90.7626001 29.7530985,88.405221 C29.7530985,86.0478418 27.8278276,84.130073 25.4612266,84.130073" id="Fill-8" fill="#DADADA"></path>
                    <path d="M32.3700936,25.624194 C31.1583202,25.624194 30.1718177,24.6415356 30.1718177,23.4344841 C30.1718177,22.2274325 31.1583202,21.2447741 32.3700936,21.2447741 C33.581867,21.2447741 34.5683695,22.2274325 34.5683695,23.4344841 C34.5683695,24.6415356 33.581867,25.624194 32.3700936,25.624194 M32.3700936,19.9935113 C30.4657586,19.9935113 28.9156601,21.5375696 28.9156601,23.4344841 C28.9156601,25.3313985 30.4657586,26.8754568 32.3700936,26.8754568 C34.2744286,26.8754568 35.8245271,25.3313985 35.8245271,23.4344841 C35.8245271,21.5375696 34.2744286,19.9935113 32.3700936,19.9935113" id="Fill-10" fill="#DADADA"></path>
                    <path d="M135.795414,48.6776268 C134.58364,48.6776268 133.597138,47.6949684 133.597138,46.4879169 C133.597138,45.2808653 134.58364,44.298207 135.795414,44.298207 C137.007187,44.298207 137.99369,45.2808653 137.99369,46.4879169 C137.99369,47.6949684 137.007187,48.6776268 135.795414,48.6776268 M135.795414,43.0469441 C133.891079,43.0469441 132.34098,44.5910025 132.34098,46.4879169 C132.34098,48.3848313 133.891079,49.9288896 135.795414,49.9288896 C137.699749,49.9288896 139.249847,48.3848313 139.249847,46.4879169 C139.249847,44.5910025 137.699749,43.0469441 135.795414,43.0469441" id="Fill-12" fill="#DADADA"></path>
                    <path d="M144.29734,92.7325048 C143.445665,92.7325048 142.753103,92.0426419 142.753103,91.1942858 C142.753103,90.3467637 143.445665,89.6560667 144.29734,89.6560667 C145.149015,89.6560667 145.841576,90.3467637 145.841576,91.1942858 C145.841576,92.0426419 145.149015,92.7325048 144.29734,92.7325048 M144.29734,88.405638 C142.753103,88.405638 141.496946,89.6560667 141.496946,91.1942858 C141.496946,92.7325048 142.753103,93.9837676 144.29734,93.9837676 C145.841576,93.9837676 147.097734,92.7325048 147.097734,91.1942858 C147.097734,89.6560667 145.841576,88.405638 144.29734,88.405638" id="Fill-14" fill="#E9E9E9"></path>
                    <path d="M120.326921,4.73761466 C119.475246,4.73761466 118.782685,4.04775177 118.782685,3.19939558 C118.782685,2.35187357 119.475246,1.6611765 120.326921,1.6611765 C121.178596,1.6611765 121.871158,2.35187357 121.871158,3.19939558 C121.871158,4.04775177 121.178596,4.73761466 120.326921,4.73761466 M123.127315,3.19939558 C123.127315,1.6611765 121.871158,0.410747871 120.326921,0.410747871 C118.782685,0.410747871 117.526527,1.6611765 117.526527,3.19939558 C117.526527,4.73761466 118.782685,5.98887747 120.326921,5.98887747 C121.871158,5.98887747 123.127315,4.73761466 123.127315,3.19939558" id="Fill-16" fill="#E9E9E9"></path>
                    <path d="M88.6637931,95.8784298 L87.0416749,95.8784298 L87.0416749,94.2626324 C87.0416749,93.8013335 86.6665025,93.427623 86.203399,93.427623 C85.741133,93.427623 85.3659606,93.8013335 85.3659606,94.2626324 L85.3659606,95.8784298 L83.7438424,95.8784298 C83.2815764,95.8784298 82.9064039,96.2521403 82.9064039,96.712605 C82.9064039,97.1730697 83.2815764,97.5467802 83.7438424,97.5467802 L85.3659606,97.5467802 L85.3659606,99.1634117 C85.3659606,99.6238765 85.741133,99.9967528 86.203399,99.9967528 C86.6665025,99.9967528 87.0416749,99.6238765 87.0416749,99.1634117 L87.0416749,97.5467802 L88.6637931,97.5467802 C89.1260591,97.5467802 89.5012315,97.1730697 89.5012315,96.712605 C89.5012315,96.2521403 89.1260591,95.8784298 88.6637931,95.8784298" id="Fill-18" fill="#E9E9E9"></path>
                    <path d="M30.538197,52.6704064 L28.9160788,52.6704064 L28.9160788,51.054609 C28.9160788,50.5933101 28.5409064,50.2195997 28.077803,50.2195997 C27.6155369,50.2195997 27.2403645,50.5933101 27.2403645,51.054609 L27.2403645,52.6704064 L25.6182463,52.6704064 C25.1559803,52.6704064 24.7808079,53.0441169 24.7808079,53.5045816 C24.7808079,53.9650463 25.1559803,54.3387568 25.6182463,54.3387568 L27.2403645,54.3387568 L27.2403645,55.9553884 C27.2403645,56.4158531 27.6155369,56.7887294 28.077803,56.7887294 C28.5409064,56.7887294 28.9160788,56.4158531 28.9160788,55.9553884 L28.9160788,54.3387568 L30.538197,54.3387568 C31.0004631,54.3387568 31.3756355,53.9650463 31.3756355,53.5045816 C31.3756355,53.0441169 31.0004631,52.6704064 30.538197,52.6704064" id="Fill-20" fill="#E9E9E9"></path>
                    <path d="M146.757315,20.4105989 L145.135197,20.4105989 L145.135197,18.7948016 C145.135197,18.3335027 144.760025,17.9597922 144.296921,17.9597922 C143.834655,17.9597922 143.459483,18.3335027 143.459483,18.7948016 L143.459483,20.4105989 L141.837365,20.4105989 C141.374261,20.4105989 140.999926,20.7843094 140.999926,21.2447741 C140.999926,21.7052389 141.374261,22.0789493 141.837365,22.0789493 L143.459483,22.0789493 L143.459483,23.6955809 C143.459483,24.1560456 143.834655,24.5289219 144.296921,24.5289219 C144.760025,24.5289219 145.135197,24.1560456 145.135197,23.6955809 L145.135197,22.0789493 L146.757315,22.0789493 C147.220419,22.0789493 147.594754,21.7052389 147.594754,21.2447741 C147.594754,20.7843094 147.220419,20.4105989 146.757315,20.4105989" id="Fill-22" fill="#E9E9E9"></path>
                    <path d="M168.33199,42.5380973 L166.709872,42.5380973 L166.709872,40.9222999 C166.709872,40.461001 166.3347,40.0872905 165.871596,40.0872905 C165.40933,40.0872905 165.034158,40.461001 165.034158,40.9222999 L165.034158,42.5380973 L163.412039,42.5380973 C162.948936,42.5380973 162.574601,42.9118078 162.574601,43.3722725 C162.574601,43.8327372 162.948936,44.2064477 163.412039,44.2064477 L165.034158,44.2064477 L165.034158,45.8230792 C165.034158,46.2835439 165.40933,46.6564203 165.871596,46.6564203 C166.3347,46.6564203 166.709872,46.2835439 166.709872,45.8230792 L166.709872,44.2064477 L168.33199,44.2064477 C168.795094,44.2064477 169.169429,43.8327372 169.169429,43.3722725 C169.169429,42.9118078 168.795094,42.5380973 168.33199,42.5380973" id="Fill-24" fill="#CCCBC7"></path>
                    <path d="M37.2140887,67.1252446 L36.4026108,67.1252446 L36.4026108,66.3169288 C36.4026108,66.0866965 36.2158621,65.8998412 35.9838916,65.8998412 C35.7527586,65.8998412 35.5651724,66.0866965 35.5651724,66.3169288 L35.5651724,67.1252446 L34.7536946,67.1252446 C34.5225616,67.1252446 34.3349754,67.3120999 34.3349754,67.5423322 C34.3349754,67.7725646 34.5225616,67.9594198 34.7536946,67.9594198 L35.5651724,67.9594198 L35.5651724,68.7677356 C35.5651724,68.997968 35.7527586,69.1848232 35.9838916,69.1848232 C36.2158621,69.1848232 36.4026108,68.997968 36.4026108,68.7677356 L36.4026108,67.9594198 L37.2140887,67.9594198 C37.4452217,67.9594198 37.6328079,67.7725646 37.6328079,67.5423322 C37.6328079,67.3120999 37.4452217,67.1252446 37.2140887,67.1252446" id="Fill-27" fill="#CCCBC7"></path>
                    <path d="M153.38899,73.4597209 L152.577512,73.4597209 L152.577512,72.6514051 C152.577512,72.4211728 152.390764,72.2343175 152.158793,72.2343175 C151.92766,72.2343175 151.740074,72.4211728 151.740074,72.6514051 L151.740074,73.4597209 L150.928596,73.4597209 C150.697463,73.4597209 150.509877,73.6465761 150.509877,73.8768085 C150.509877,74.1070408 150.697463,74.2938961 150.928596,74.2938961 L151.740074,74.2938961 L151.740074,75.1022119 C151.740074,75.3324442 151.92766,75.5192995 152.158793,75.5192995 C152.390764,75.5192995 152.577512,75.3324442 152.577512,75.1022119 L152.577512,74.2938961 L153.38899,74.2938961 C153.620123,74.2938961 153.807709,74.1070408 153.807709,73.8768085 C153.807709,73.6465761 153.620123,73.4597209 153.38899,73.4597209" id="Fill-29" fill="#C1C0C0"></path>
                    <path d="M119.472734,98.3460869 L118.661256,98.3460869 L118.661256,97.5377711 C118.661256,97.3075388 118.474507,97.1206835 118.242537,97.1206835 C118.011404,97.1206835 117.823818,97.3075388 117.823818,97.5377711 L117.823818,98.3460869 L117.01234,98.3460869 C116.781207,98.3460869 116.593621,98.5329421 116.593621,98.7631745 C116.593621,98.9934068 116.781207,99.1802621 117.01234,99.1802621 L117.823818,99.1802621 L117.823818,99.9885779 C117.823818,100.21881 118.011404,100.405665 118.242537,100.405665 C118.474507,100.405665 118.661256,100.21881 118.661256,99.9885779 L118.661256,99.1802621 L119.472734,99.1802621 C119.703867,99.1802621 119.891453,98.9934068 119.891453,98.7631745 C119.891453,98.5329421 119.703867,98.3460869 119.472734,98.3460869" id="Fill-31" fill="#B4B3B3"></path>
                    <path d="M51.71333,101.263281 L51.6027882,100.619298 C51.5684532,100.420764 51.6346108,100.218894 51.7786502,100.077918 L52.2484532,99.6216242 C52.6127389,99.2679339 52.4117537,98.6514784 51.9084532,98.5789052 L51.2594384,98.4846434 C51.0592906,98.4562814 50.8867783,98.3311551 50.7971724,98.1501391 L50.5065813,97.5645481 C50.2813103,97.1099226 49.6306207,97.1099226 49.4061872,97.5645481 L49.1155961,98.1501391 C49.0259901,98.3311551 48.8534778,98.4562814 48.65333,98.4846434 L48.0043153,98.5789052 C47.5001773,98.6514784 47.2991921,99.2679339 47.6634778,99.6216242 L48.1332808,100.077918 C48.2781576,100.218894 48.3443153,100.420764 48.3099803,100.619298 L48.1994384,101.263281 C48.1131823,101.762952 48.639931,102.14417 49.0896355,101.908098 L49.6708177,101.603624 C49.8491921,101.510197 50.0627389,101.510197 50.2419507,101.603624 L50.8222956,101.908098 C51.2728374,102.14417 51.7995862,101.762952 51.71333,101.263281" id="Fill-33" fill="#DADADA"></path>
                    <path d="M72.9434828,0.946872276 L72.4895911,0.880972435 C72.3505764,0.86095223 72.2291478,0.773363833 72.1671773,0.647403377 L71.9636798,0.237823351 C71.8070788,-0.079163227 71.3523498,-0.079163227 71.1949113,0.237823351 L70.9914138,0.647403377 C70.9294433,0.773363833 70.8088522,0.86095223 70.669,0.880972435 L70.2151084,0.946872276 C69.8633842,0.997756963 69.7226946,1.42819137 69.9772759,1.67594141 L70.3055517,1.99459633 C70.4068818,2.09302901 70.4529409,2.23400462 70.4286552,2.3724777 L70.3516108,2.82293231 C70.2913153,3.17161755 70.6589507,3.43771944 70.9738276,3.27338692 L71.3799852,3.06067225 C71.5047635,2.99560658 71.6538276,2.99560658 71.7786059,3.06067225 L72.1847635,3.27338692 C72.4996404,3.43771944 72.8672759,3.17161755 72.8069803,2.82293231 L72.729936,2.3724777 C72.7056502,2.23400462 72.7517094,2.09302901 72.8530394,1.99459633 L73.1813153,1.67594141 C73.4358966,1.42819137 73.2952069,0.997756963 72.9434828,0.946872276" id="Fill-36" fill="#DADADA"></path>
                    <path d="M123.744065,85.7664143 L123.253326,85.8047864 C123.10175,85.8164648 122.95436,85.7539017 122.858892,85.636283 L122.54904,85.2558991 C122.308695,84.9606011 121.832193,85.0682097 121.743424,85.4377493 L121.628695,85.9148975 C121.592685,86.0617123 121.487168,86.1818336 121.345641,86.236055 L120.886725,86.4120659 C120.529976,86.5480365 120.485592,87.0326923 120.811355,87.231226 L121.230912,87.4873178 C121.359878,87.5665644 121.441947,87.7042033 121.450321,87.8543549 L121.476282,88.3440157 C121.49638,88.7243996 121.945247,88.9162599 122.235838,88.669344 L122.610173,88.3506891 C122.72574,88.2522564 122.881503,88.2172211 123.028055,88.2555931 L123.50372,88.3823878 C123.87303,88.4808204 124.194607,88.1146175 124.048892,87.7634298 L123.859631,87.3104726 C123.801848,87.1711654 123.816922,87.0118379 123.898991,86.8850433 L124.166971,86.4737949 C124.374656,86.1543058 124.125099,85.736384 123.744065,85.7664143" id="Fill-38" fill="#E9E9E9"></path>
                </g>
                <g id="Page-1" transform="translate(39.230769, 25.147929)">
                    <g id="Group">
                        <path d="M72.5916557,57.9216069 L17.2727604,57.9216069 C13.7527544,57.9216069 10.8889732,55.0814893 10.8889732,51.5905694 L10.8889732,16.4409783 C10.8889732,12.9493616 13.7527544,10.109244 17.2727604,10.109244 L72.5916557,10.109244 C76.1116616,10.109244 78.9754429,12.9493616 78.9754429,16.4409783 L78.9754429,51.5905694 C78.9754429,55.0814893 76.1116616,57.9216069 72.5916557,57.9216069" id="Fill-1" fill="#989898"></path>
                        <path d="M17.2725496,11.5027551 C14.527507,11.5027551 12.2939544,13.7178517 12.2939544,16.4409086 L12.2939544,51.5904998 C12.2939544,54.3128598 14.527507,56.5279565 17.2725496,56.5279565 L72.5914449,56.5279565 C75.3371901,56.5279565 77.5700401,54.3128598 77.5700401,51.5904998 L77.5700401,16.4409086 C77.5700401,13.7178517 75.3371901,11.5027551 72.5914449,11.5027551 L17.2725496,11.5027551 Z" id="Fill-3" fill="#FEFEFE"></path>
                        <path d="M77.5702509,16.4408389 C77.5702509,16.4324774 77.5688457,16.4255095 77.5688457,16.417148 C77.1255076,15.1845258 76.1334421,14.0313377 73.9462608,14.0313377 L21.1869226,14.0313377 C17.8011125,14.0313377 15.05607,16.782963 15.05607,20.1784226 L15.05607,54.6758179 C15.05607,55.2618186 15.2626332,55.802528 15.6019871,56.2359316 C16.1254211,56.4219746 16.6860927,56.5278868 17.2727604,56.5278868 L72.5916557,56.5278868 C75.3366982,56.5278868 77.5702509,54.3134869 77.5702509,51.5904301 L77.5702509,16.4408389 Z" id="Fill-5" fill="#F9F9F9"></path>
                        <path d="M44.7739834,5.91003672 C43.1306114,5.91003672 41.7942738,4.5847414 41.7942738,2.95564547 C41.7942738,1.32585275 43.1306114,0.000557432311 44.7739834,0.000557432311 C46.4166528,0.000557432311 47.7529904,1.32585275 47.7529904,2.95564547 C47.7529904,4.5847414 46.4166528,5.91003672 44.7739834,5.91003672" id="Fill-7" fill="#989898"></path>
                        <path d="M44.7739834,1.39378982 C43.9062774,1.39378982 43.1994658,2.09406416 43.1994658,2.95529708 C43.1994658,3.81653 43.9062774,4.51610755 44.7739834,4.51610755 C45.6416895,4.51610755 46.3477984,3.81653 46.3477984,2.95529708 C46.3477984,2.09406416 45.6416895,1.39378982 44.7739834,1.39378982" id="Fill-9" fill="#FEFEFE"></path>
                        <path d="M26.0124222,11.5027551 C25.7482461,11.5027551 25.4953115,11.3550355 25.3758702,11.1021006 C25.2107601,10.7544022 25.3618183,10.3391152 25.7131163,10.1753694 L42.198126,2.49882969 C42.5487214,2.33438716 42.9688738,2.48628747 43.1325787,2.83398587 C43.2976887,3.18168427 43.1466306,3.59627456 42.7953326,3.76071709 L26.3103229,11.43656 C26.2140672,11.4818514 26.1121908,11.5027551 26.0124222,11.5027551" id="Fill-11" fill="#989898"></path>
                        <path d="M62.9358087,11.5027551 C62.8318245,11.5027551 62.7257325,11.4804578 62.6266665,11.4309857 L46.901163,3.75444597 C46.5526754,3.58512591 46.4100484,3.16705168 46.5807793,2.82214043 C46.7522127,2.47722919 47.1744729,2.33438716 47.5215553,2.50440402 L63.2463562,10.1816405 C63.5948438,10.3509606 63.7381734,10.768338 63.5667399,11.1132493 C63.4451908,11.3599131 63.1950667,11.5027551 62.9358087,11.5027551" id="Fill-13" fill="#989898"></path>
                        <path d="M18.393682,16.7551611 L5.63313362,16.7551611 C2.81291331,16.7551611 0.526665955,19.022517 0.526665955,21.8201304 C0.526665955,24.6163502 2.81291331,26.8837062 5.63313362,26.8837062 L10.5541159,26.8837062 C10.5723834,26.9171521 10.5843276,26.9512948 10.6075132,26.9833472 L12.150414,29.0618729 C12.4630692,29.4841279 13.094703,29.4945797 13.4221128,29.0841702 L15.0837523,27.0056445 C15.1146665,26.9666242 15.1322314,26.9248168 15.1547145,26.8837062 L18.393682,26.8837062 C21.2139023,26.8837062 23.5001497,24.6163502 23.5001497,21.8201304 C23.5001497,19.022517 21.2139023,16.7551611 18.393682,16.7551611" id="Fill-15" fill="#FEFEFE"></path>
                        <path d="M12.7962403,29.9077764 L12.772352,29.9077764 C12.35501,29.9001117 11.9735004,29.7050104 11.7261866,29.3719446 L10.2675973,27.4062989 L5.63327414,27.4062989 C2.52709726,27.4062989 -0.000140519198,24.8999439 -0.000140519198,21.8201304 C-0.000140519198,18.7389233 2.52709726,16.2325683 5.63327414,16.2325683 L18.3938225,16.2325683 C21.4999994,16.2325683 24.0265346,18.7389233 24.0265346,21.8201304 C24.0265346,24.8999439 21.4999994,27.4062989 18.3938225,27.4062989 L15.4358934,27.4062989 L13.8353797,29.4095713 C13.58104,29.7273077 13.2037459,29.9077764 12.7962403,29.9077764" id="Fill-17" fill="#989898"></path>
                        <path d="M5.63306336,17.2777538 C3.10793337,17.2777538 1.05354269,19.3151689 1.05354269,21.8201304 C1.05354269,24.3236983 3.10793337,26.3611134 5.63306336,26.3611134 L10.8695113,26.3611134 L11.0528888,26.7053278 L12.5754143,28.752498 C12.6463765,28.848655 12.7194465,28.8528358 12.7953269,28.8625909 C12.847319,28.8625909 12.9379539,28.848655 13.0089161,28.7601627 L14.6705556,26.6809401 L14.8209111,26.4098887 L15.1553468,26.3611134 L18.3936117,26.3611134 C20.9187417,26.3611134 22.9731324,24.3236983 22.9731324,21.8201304 C22.9731324,19.3151689 20.9187417,17.2777538 18.3936117,17.2777538 L5.63306336,17.2777538 Z" id="Fill-20" fill="#FEFEFE"></path>
                        <path d="M18.393682,17.2777538 L6.32448807,17.2777538 C4.2159975,17.7550553 2.64077729,19.6224535 2.64077729,21.8577571 L2.64077729,22.1734031 C2.64077729,23.9843613 3.67429599,25.5535333 5.18698516,26.3388161 C5.33382773,26.3527519 5.48277808,26.3611134 5.63313362,26.3611134 L10.8695815,26.3611134 L11.0529591,26.7053278 L12.5754846,28.752498 C12.6464468,28.848655 12.7195168,28.8528358 12.7953971,28.8625909 C12.8466867,28.8625909 12.9380241,28.848655 13.0089863,28.7601627 L14.6706258,26.6809401 L14.8209814,26.4098887 L15.1554171,26.3611134 L18.393682,26.3611134 C20.918812,26.3611134 22.9732027,24.3236983 22.9732027,21.8201304 C22.9732027,19.3151689 20.918812,17.2777538 18.393682,17.2777538" id="Fill-22" fill="#F9F9F9"></path>
                        <path d="M8.20807766,21.8579661 C8.20807766,22.6111965 7.59330617,23.2208881 6.83379991,23.2208881 C6.07499624,23.2208881 5.45952215,22.6111965 5.45952215,21.8579661 C5.45952215,21.1054325 6.07499624,20.4957409 6.83379991,20.4957409 C7.59330617,20.4957409 8.20807766,21.1054325 8.20807766,21.8579661" id="Fill-24" fill="#989898"></path>
                        <path d="M13.3876856,21.8579661 C13.3876856,22.6111965 12.7722115,23.2208881 12.0134078,23.2208881 C11.2546041,23.2208881 10.6391301,22.6111965 10.6391301,21.8579661 C10.6391301,21.1054325 11.2546041,20.4957409 12.0134078,20.4957409 C12.7722115,20.4957409 13.3876856,21.1054325 13.3876856,21.8579661" id="Fill-26" fill="#989898"></path>
                        <path d="M18.5075728,21.8579661 C18.5075728,22.6111965 17.8928013,23.2208881 17.1332951,23.2208881 C16.3744914,23.2208881 15.7590173,22.6111965 15.7590173,21.8579661 C15.7590173,21.1054325 16.3744914,20.4957409 17.1332951,20.4957409 C17.8928013,20.4957409 18.5075728,21.1054325 18.5075728,21.8579661" id="Fill-28" fill="#989898"></path>
                        <path d="M38.8522936,32.5391357 C39.0370764,32.5391357 39.1839189,32.4833924 39.2914161,32.3712092 C39.4003185,32.2590259 39.4537158,32.1210614 39.4537158,31.9580125 L39.4537158,30.0453229 C39.4537158,29.8822739 39.4818196,29.772181 39.5387299,29.715741 C39.5949376,29.6599978 39.7108659,29.6321262 39.8858123,29.6321262 L42.4790941,29.6321262 C42.4263994,30.0599555 42.331549,30.4278608 42.192435,30.7337518 C42.0540236,31.0403395 41.8762668,31.3030295 41.6605698,31.5218217 C41.4441702,31.7413107 41.1842097,31.9273537 40.8813908,32.0806476 C40.5778694,32.2339415 40.230787,32.3712092 39.8401436,32.4938443 C39.6335804,32.5649169 39.48463,32.687552 39.3925899,32.8610528 C39.2991447,33.0345536 39.2991447,33.212932 39.3925899,33.3961878 C39.48463,33.5696886 39.6160155,33.6546971 39.7860437,33.6491228 C39.9553693,33.6442452 40.1584196,33.6059218 40.3951944,33.5348491 C40.8371273,33.4115172 41.2516589,33.2387132 41.6373841,33.0143467 C42.0231093,32.7892834 42.3631658,32.5168384 42.6554457,32.195618 C42.9491309,31.8737008 43.1880135,31.4995244 43.3734988,31.0709983 C43.5582816,30.6417754 43.6763177,30.1623836 43.7283098,29.6321262 L46.1972321,29.6321262 L46.1972321,31.7740598 C46.1972321,32.3663316 46.3131605,32.764199 46.5443145,32.9676618 C46.7761712,33.1718213 47.1534653,33.2742495 47.6783045,33.2742495 L49.8542443,33.2742495 C50.0088154,33.2742495 50.1373904,33.2185063 50.2399694,33.1056263 C50.3425485,32.993443 50.3945406,32.8561753 50.3945406,32.6924295 C50.3945406,32.5293806 50.3425485,32.3969904 50.2399694,32.2945622 C50.1373904,32.1928308 50.0088154,32.1419651 49.8542443,32.1419651 L47.8019614,32.1419651 C47.5546476,32.1419651 47.4316933,31.9991231 47.4316933,31.7127423 L47.4316933,29.6321262 L50.5027404,29.6321262 C50.7282737,29.6321262 50.8413916,29.7596388 50.8413916,30.0146641 C50.8413916,30.177713 50.8210163,30.3414588 50.7795632,30.5038109 C50.7388126,30.6675567 50.6467725,30.8919232 50.5027404,31.1776072 C50.357303,31.4737432 50.2961771,31.7002 50.317255,31.8583715 C50.3376303,32.0172397 50.4662054,32.1419651 50.7029802,32.2339415 C50.887763,32.2945622 51.0704379,32.28202 51.2503025,32.195618 C51.4308697,32.1085192 51.5924667,31.8862431 51.7364989,31.5301832 C51.8601558,31.2228986 51.938144,30.9532407 51.967653,30.7184224 C51.9992698,30.4843008 52.0147269,30.2494824 52.0147269,30.0146641 C52.0147269,28.994563 51.510263,28.4845124 50.5027404,28.4845124 L45.6112671,28.4845124 C45.5079855,28.2287903 45.4025961,27.9946687 45.2936937,27.7800573 C45.1868991,27.5654459 45.06535,27.3724349 44.9318567,27.1989341 C44.8187388,27.0456402 44.6747066,26.9459992 44.4997602,26.900011 C44.3248138,26.8547197 44.1653245,26.8721394 44.0212923,26.9536639 C43.8463459,27.0665439 43.7536033,27.1912694 43.7437669,27.3285371 C43.733228,27.4665016 43.7852201,27.6177051 43.898338,27.7800573 C43.9700028,27.8929373 44.0367494,28.0044238 44.0985779,28.1166071 C44.1604063,28.2287903 44.227153,28.3514254 44.2988177,28.4845124 L39.48463,28.4845124 C39.0005414,28.4845124 38.6752394,28.5764887 38.5045086,28.7597446 C38.335183,28.9430005 38.2501689,29.2600401 38.2501689,29.7087731 L38.2501689,31.9580125 C38.2501689,32.3461247 38.4511113,32.5391357 38.8522936,32.5391357" id="Fill-46" fill="#989898"></path>
                        <path d="M52.1607966,40.1602805 C52.0631358,40.0383422 51.9015387,39.9770247 51.6753028,39.9770247 L45.6111968,39.9770247 L45.6111968,35.431861 L49.8232598,35.431861 C50.0291204,35.431861 50.1836915,35.3782081 50.2862705,35.2709024 C50.3895521,35.1642935 50.4408416,35.0235418 50.4408416,34.850041 C50.4408416,34.4626255 50.234981,34.2689178 49.8232598,34.2689178 L40.3487528,34.2689178 C40.1330559,34.2689178 39.9812951,34.3225707 39.8934706,34.4291796 C39.8063487,34.5364853 39.7627878,34.6821145 39.7627878,34.8653704 C39.7627878,35.0388712 39.8063487,35.1768357 39.8934706,35.2785671 C39.9812951,35.3809953 40.1330559,35.431861 40.3487528,35.431861 L44.4224044,35.431861 L44.4224044,39.9770247 L38.1889728,39.9770247 C37.9620342,39.9770247 37.8004372,40.0383422 37.7020737,40.1602805 C37.6044129,40.2829157 37.5559338,40.4208802 37.5559338,40.574174 C37.5559338,40.7476748 37.6044129,40.8870329 37.7020737,40.9943386 C37.8004372,41.1016444 37.9620342,41.1552972 38.1889728,41.1552972 L51.6753028,41.1552972 C51.9015387,41.1552972 52.0631358,41.1016444 52.1607966,40.9943386 C52.2591601,40.8870329 52.3083418,40.7476748 52.3083418,40.574174 C52.3083418,40.4208802 52.2591601,40.2829157 52.1607966,40.1602805" id="Fill-48" fill="#989898"></path>
                    </g>
                    <g id="Group-4" transform="translate(69.828940, 33.338969)">
                        <path d="M1.30117396,10.5426987 C1.00587327,10.3801713 0.9276312,9.97927016 1.15226165,9.7292279 C1.38614653,9.46918394 1.79838967,9.17080017 2.5118227,9.02160828 C3.93448219,8.72489146 6.18078666,8.50235385 7.97783023,3.23563026 C9.7748738,-2.03109332 11.4221637,4.19995993 11.4221637,4.19995993 C11.4221637,4.19995993 12.2458087,7.98309941 16.1394031,8.79907067 C19.6182304,9.52836061 17.6571309,10.4943572 17.2002982,10.6918906 C17.1456129,10.7152279 16.6913041,10.8344147 16.5491223,10.8760884 C15.9172966,11.0644536 13.3134343,11.1661374 11.9463015,14.2141527 C10.4487651,17.5522169 9.7748738,20.0009642 8.50196794,17.1813209 C7.22906208,14.3625111 6.77980118,11.8404181 4.30886627,11.3211637 C2.48826595,10.938599 1.76557848,10.7977418 1.30117396,10.5426987" id="Fill-21" fill="#FEFEFE"></path>
                        <path d="M9.54469069,18.8320999 C8.87248198,18.8320999 8.42911027,18.0419664 8.11782464,17.3518497 C7.86122431,16.7834203 7.63743518,16.227493 7.4237418,15.6965699 C6.5849532,13.60705 5.97920818,12.0984617 4.22170629,11.7300661 L3.90200753,11.6625547 C2.26565465,11.3191633 1.58755675,11.1766392 1.09707154,10.907427 C1.09623023,10.907427 1.09623023,10.907427 1.09623023,10.9065936 C0.840471221,10.7657364 0.664636902,10.5190281 0.615840775,10.230646 C0.567044648,9.94726475 0.647810651,9.66388352 0.837947283,9.45218107 C1.09286498,9.16713288 1.57577838,8.79123601 2.42466272,8.613706 L2.62237117,8.57369924 C4.02231522,8.29198495 5.93882517,7.90775334 7.57938462,3.10277447 C7.93610113,2.05676433 8.53343303,0.670696703 9.53543626,0.70570262 C10.8436772,0.750710228 11.6218913,3.31114303 11.8288542,4.09377532 C11.8650307,4.25546932 12.6558644,7.64270854 16.2263948,8.39200186 C17.7912361,8.71955723 18.5172889,9.13962823 18.5803873,9.75223178 C18.6451684,10.3823383 17.957816,10.8190788 17.3688973,11.0732884 C17.3301969,11.0907914 17.1198687,11.151635 16.9246842,11.2049773 L16.6697665,11.2758227 C16.5780635,11.3033273 16.450184,11.329165 16.2928585,11.3600036 C15.3640495,11.5450348 13.4323959,11.928433 12.3311178,14.383848 C12.132568,14.8255893 11.9483206,15.2523281 11.7758515,15.6532292 C10.9227606,17.6310636 10.4078774,18.8245986 9.55226251,18.8320999 L9.54469069,18.8320999 Z" id="Fill-23" fill="#C4A66A"></path>
                        <path d="M1.50502399,10.1783038 C1.88613857,10.3875058 2.5726496,10.5316969 4.07691641,10.8475836 L4.39661517,10.9142615 C6.59412351,11.3760063 7.34120904,13.2354872 8.20607832,15.3883511 C8.41472383,15.9084391 8.6343064,16.4535312 8.88585885,17.0111254 C9.3124043,17.9554517 9.54376525,17.9987924 9.54628919,17.9987924 C9.86682926,17.9587856 10.523053,16.4368617 11.0026012,15.3258406 C11.1767529,14.9216056 11.3618416,14.4915329 11.562074,14.0456242 C12.8400278,11.1959758 15.1435415,10.7383985 16.1270358,10.542532 C16.2532327,10.5183613 16.3550315,10.4991914 16.4282257,10.4766876 L16.7016523,10.4016749 C16.8446754,10.3625016 16.9986356,10.3208279 17.0482731,10.3033249 C17.4765011,10.1174602 17.7187991,9.90575773 17.7440385,9.82157684 C17.7490864,9.84074675 17.5841891,9.52902739 16.052159,9.20730634 C11.938982,8.34466052 11.0471907,4.4531694 11.0110143,4.2881415 C10.6719654,3.00875858 9.96778677,1.5535126 9.5067475,1.53851006 C9.45879268,1.55517954 8.98681635,1.58018377 8.37602345,3.36965292 C6.58150382,8.62970871 4.29902292,9.08728605 2.78970823,9.39067067 L2.59788897,9.42984396 C1.97363507,9.55986593 1.63795137,9.81490904 1.46632361,10.0057746 C1.44108424,10.0341128 1.44108424,10.0674517 1.4452908,10.0916225 C1.44781474,10.1091254 1.46043443,10.1541331 1.50502399,10.1783038" id="Fill-25" fill="#FEFEFE"></path>
                        <path d="M11.010846,4.28780811 C10.8930623,3.84273288 10.7290063,3.37848774 10.5481242,2.95925021 C9.4569418,8.31265511 6.63265562,10.2621513 4.52011985,10.9531014 C6.61582937,11.4606872 7.35870834,13.279328 8.20591006,15.3880178 C8.41539688,15.9081057 8.63413814,16.4540313 8.88569059,17.0116255 C9.31223604,17.9551183 9.54359699,17.998459 9.54612093,17.998459 C9.866661,17.9584522 10.5228848,16.4365283 11.0024329,15.3255072 C11.1765846,14.9221057 11.3616734,14.4911995 11.5619058,14.0452908 C12.8398595,11.1956424 15.1433732,10.7380651 16.1277089,10.5430321 C16.2530644,10.5188614 16.3557046,10.498858 16.4280575,10.4771877 L16.701484,10.4013415 C16.8445072,10.3621682 16.9984673,10.3204945 17.0481048,10.303825 C17.4771742,10.1171268 17.7186309,9.90542434 17.7438703,9.82207692 C17.7489181,9.84041336 17.5840209,9.528694 16.0519907,9.20697295 C11.9396551,8.34432713 11.0470225,4.45283601 11.010846,4.28780811" id="Fill-27" fill-opacity="0.397390172" fill="#C4A66A"></path>
                        <path d="M16.045765,18.6854918 C15.9490141,18.6321495 15.9229334,18.5004605 15.9969689,18.4179466 C16.0735283,18.3329322 16.2089797,18.2345822 16.4437059,18.1854073 C16.9106343,18.0887243 17.6493067,18.0153785 18.2399081,16.2850861 C18.8296682,14.5539601 19.3714735,16.6018063 19.3714735,16.6018063 C19.3714735,16.6018063 19.6415348,17.8445163 20.9211712,18.112895 C22.0645149,18.3521021 21.4200695,18.6696558 21.2694746,18.7346668 C21.251807,18.742168 21.1020534,18.7813413 21.0557812,18.7955104 C20.847977,18.8571875 19.9923621,18.8905265 19.5431012,19.8923625 C19.0517747,20.9883811 18.8296682,21.7926837 18.4115359,20.8666938 C17.9934036,19.940704 17.8461739,19.1122306 17.0343073,18.9413684 C16.4361341,18.8155138 16.1980426,18.7696727 16.045765,18.6854918" id="Fill-29" fill="#FEFEFE"></path>
                        <path d="M18.7537818,21.6890828 C18.3221885,21.6890828 18.1160669,21.232339 18.0277291,21.037306 C17.9419152,20.8464404 17.8670384,20.6605757 17.7955268,20.4830456 C17.5204176,19.7970964 17.357203,19.4353686 16.9466425,19.3486872 L16.8406371,19.3270169 C16.2744338,19.2078301 16.0397076,19.1594886 15.8419991,19.0503035 C15.8411578,19.04947 15.8411578,19.04947 15.8403165,19.04947 C15.6813084,18.9611217 15.5719378,18.8077625 15.5416506,18.6285655 C15.5113633,18.4510355 15.5635247,18.2735055 15.6829911,18.1401496 C15.7948856,18.015962 16.0026898,17.8517675 16.3568824,17.7784218 C16.8389545,17.6809053 17.3546791,17.576721 17.8409577,16.1506467 C17.9326608,15.8814345 18.1749588,15.1729814 18.7377969,15.1729814 C18.7453687,15.1729814 18.7537818,15.1738149 18.7613536,15.1738149 C19.3469072,15.1938183 19.6497797,16.010623 19.7785005,16.495705 C19.7911202,16.5507143 20.0207985,17.4983745 21.0084994,17.7050761 C21.3147372,17.7692536 21.9532934,17.9026095 22.0046134,18.3968597 C22.0214397,18.5660549 21.9718023,18.8852756 21.4384101,19.1161479 C21.4283144,19.1211488 21.349231,19.1469865 21.268465,19.1694903 L21.1834924,19.1928276 C21.1397442,19.2061631 21.0892654,19.2161648 21.0278496,19.2286669 C20.7493751,19.2836762 20.2302853,19.3861936 19.9282541,20.0613077 L19.7473719,20.4738774 C19.432721,21.2031674 19.2257581,21.6849155 18.7588297,21.6890828 L18.7537818,21.6890828 Z" id="Fill-31" fill="#C4A66A"></path>
                        <path d="M16.5806715,18.5160465 C16.6109588,18.5227143 16.6420874,18.5293821 16.6748985,18.5360499 L16.8019367,18.562721 C17.8401164,18.7810913 18.1951503,19.6654074 18.5384058,20.5197185 C18.6073934,20.6914142 18.678905,20.8714446 18.759671,21.0539755 C18.8412783,20.8806128 18.9312988,20.6722443 19.0112235,20.4863795 L19.2324886,19.9812942 C19.6960519,18.9469527 20.4809964,18.6127295 20.9748469,18.481874 C19.3696226,18.0017929 19.0103821,16.4331944 18.9952385,16.3631826 C18.9355053,16.1398115 18.8345478,15.8839349 18.7420034,15.7097388 C18.7049857,15.7880854 18.6603961,15.8947701 18.6107587,16.0397946 C18.0218399,17.7667532 17.2806436,18.2935089 16.5806715,18.5160465" id="Fill-33" fill="#FEFEFE"></path>
                        <path d="M20.9745104,18.4821241 C19.560264,18.0587192 19.1143684,16.7935053 19.0176174,16.4501139 C18.6600596,17.8611858 17.9205459,18.485458 17.293768,18.7480024 C17.9609289,19.1055628 18.2570709,19.8198502 18.5380693,20.5199686 C18.6078982,20.6916642 18.6794098,20.8708612 18.7593345,21.0533921 C18.8409418,20.8808629 18.9318036,20.6724943 19.0108869,20.4866296 L19.2321521,19.9807107 C19.6965566,18.9472027 20.4815012,18.6129795 20.9745104,18.4821241" id="Fill-35" fill-opacity="0.397390172" fill="#C4A66A"></path>
                    </g>
                </g>
            </g>
        </g>
    </g>
</svg>