<?xml version="1.0" encoding="UTF-8"?>
<svg width="192px" height="119px" viewBox="0 0 192 119" version="1.1" xmlns="http://www.w3.org/2000/svg" xmlns:xlink="http://www.w3.org/1999/xlink">
    <!-- Generator: Sketch 49.3 (51167) - http://www.bohemiancoding.com/sketch -->
    <title>xlogo@3x</title>
    <desc>Created with Sketch.</desc>
    <defs>
        <polygon id="path-1" points="0.747270468 0.240231901 61.556 0.240231901 61.556 62.6156 0.747270468 62.6156"></polygon>
        <polygon id="path-3" points="0 0.795818863 24.2164482 0.795818863 24.2164482 30.8039626 0 30.8039626"></polygon>
    </defs>
    <g id="猩派客" stroke="none" stroke-width="1" fill="none" fill-rule="evenodd">
        <g id="商户登录" transform="translate(-91.000000, -103.000000)">
            <g id="xlogo" transform="translate(91.000000, 103.000000)">
                <path d="M105.9064,29.703 C104.9264,29.966 104.3944,30.263 104.3094,30.593 C104.2234,30.922 104.1804,31.482 104.1804,32.272 L104.1804,54.276 C104.1804,55.682 104.3094,56.44 104.5644,56.549 C104.8204,56.659 105.6084,56.143 106.9284,55.001 C109.1434,53.113 110.9334,53.245 112.2954,55.396 C112.8924,56.275 113.1164,57.285 112.9684,58.427 C112.8174,59.568 112.2334,60.622 111.2114,61.588 C110.6134,62.159 110.0604,62.653 109.5484,63.071 C109.0384,63.488 108.5154,63.905 107.9834,64.323 C107.4494,64.74 106.8654,65.168 106.2264,65.607 C105.5874,66.046 104.8204,66.573 103.9254,67.188 C101.9654,68.461 100.3894,68.671 99.1964,67.814 C98.0034,66.958 97.4084,65.3 97.4084,62.84 L97.4084,29.571 C97.4084,27.331 97.8864,25.707 98.8444,24.696 C99.8034,23.686 101.3914,22.961 103.6064,22.522 C104.9694,22.259 106.2464,21.995 107.4404,21.731 C108.6314,21.468 109.8134,21.172 110.9864,20.842 C112.1574,20.512 113.3604,20.162 114.5974,19.788 C115.8324,19.416 117.1734,18.964 118.6224,18.437 C120.3684,17.955 121.6684,17.855 122.5204,18.141 C123.3714,18.427 123.9684,19.074 124.3104,20.084 C124.7784,21.359 124.7894,22.446 124.3424,23.346 C123.8944,24.246 122.9044,24.893 121.3694,25.288 C119.5814,25.904 117.9834,26.388 116.5784,26.738 C115.1724,27.09 113.7024,27.486 112.1684,27.924 C112.5094,29.549 112.8174,31.098 113.0944,32.569 C113.3714,34.041 113.6804,35.412 114.0214,36.686 C115.2144,35.808 116.3434,34.864 117.4084,33.853 C118.4734,32.843 119.4754,31.811 120.4124,30.757 C121.3924,29.571 122.3824,29.001 123.3824,29.044 C124.3844,29.088 125.2464,29.549 125.9714,30.428 C126.7374,31.438 127.0784,32.371 126.9934,33.227 C126.9084,34.084 126.2904,35.083 125.1404,36.225 C124.4584,36.928 123.7874,37.587 123.1284,38.201 C122.4674,38.817 121.7754,39.42 121.0514,40.013 C120.3254,40.606 119.5594,41.21 118.7514,41.825 C117.9414,42.44 117.0674,43.077 116.1314,43.735 C116.7264,45.536 117.3644,47.172 118.0484,48.643 C118.7294,50.115 119.4754,51.498 120.2834,52.794 C121.0944,54.09 121.9554,55.353 122.8724,56.581 C123.7874,57.811 124.7994,59.085 125.9064,60.403 C126.5464,61.236 127.0474,61.973 127.4094,62.61 C127.7704,63.246 127.9844,63.85 128.0484,64.422 C128.1134,64.992 128.0374,65.551 127.8234,66.101 C127.6104,66.65 127.2694,67.231 126.8024,67.847 C125.2684,69.735 123.3294,69.429 120.9874,66.925 C119.1554,64.728 117.4834,62.445 115.9704,60.074 C114.4574,57.702 113.0844,55.045 111.8494,52.102 C110.6134,49.161 109.5264,45.866 108.5914,42.22 C107.6524,38.575 106.8654,34.381 106.2264,29.637 C106.1404,29.637 106.0864,29.648 106.0664,29.67 C106.0444,29.693 105.9904,29.703 105.9064,29.703 Z M123.2864,9.214 C123.7124,10.489 123.6924,11.576 123.2244,12.475 C122.7544,13.376 121.5614,14.023 119.6444,14.418 C116.0244,15.298 112.1894,15.978 108.1434,16.461 C104.0944,16.945 99.8774,17.362 95.4914,17.713 C94.9794,17.801 94.6274,17.955 94.4364,18.174 C94.2444,18.394 94.1494,18.724 94.1494,19.162 L94.1494,33.261 C94.1494,37.872 94.0094,41.924 93.7334,45.415 C93.4554,48.907 93.0404,51.96 92.4864,54.573 C91.9324,57.186 91.2304,59.436 90.3784,61.326 C89.5254,63.213 88.5254,64.904 87.3744,66.398 C86.1394,68.022 84.8724,69.043 83.5724,69.461 C82.2724,69.878 81.0704,69.45 79.9634,68.177 C79.4934,67.605 79.1734,67.09 79.0034,66.628 C78.8324,66.167 78.8014,65.695 78.9074,65.212 C79.0134,64.728 79.2384,64.202 79.5784,63.631 C79.9194,63.059 80.4104,62.379 81.0494,61.588 C82.2404,60.095 83.2224,58.558 83.9884,56.977 C84.7544,55.396 85.3624,53.518 85.8094,51.345 C86.2574,49.17 86.5534,46.579 86.7044,43.571 C86.8534,40.563 86.9274,36.862 86.9274,32.47 L86.9274,17.12 C86.9274,14.748 87.4484,13.014 88.4934,11.915 C89.5364,10.818 91.3154,10.246 93.8284,10.202 C97.8334,10.115 101.7634,9.83 105.6184,9.346 C109.4744,8.863 113.5754,8.073 117.9194,6.974 C120.7734,6.272 122.5634,7.018 123.2864,9.214 Z M83.1574,20.283 C82.3054,21.117 81.4214,21.491 80.5064,21.402 C79.5894,21.314 78.5134,20.7 77.2784,19.557 C76.4264,18.811 75.4774,17.998 74.4354,17.12 C73.3914,16.242 72.5504,15.538 71.9104,15.012 C70.8884,14.134 70.2814,13.266 70.0894,12.409 C69.8984,11.553 70.2054,10.554 71.0154,9.411 C71.7394,8.446 72.6034,7.908 73.6044,7.798 C74.6044,7.688 75.6594,8.073 76.7664,8.951 C77.5764,9.566 78.2694,10.115 78.8434,10.598 C79.4194,11.082 79.9194,11.519 80.3454,11.915 C80.7714,12.31 81.1654,12.673 81.5284,13.002 C81.8894,13.331 82.2624,13.672 82.6464,14.023 C83.5834,14.99 84.2004,15.978 84.5004,16.988 C84.7974,17.998 84.3934,19.074 83.2844,20.216 L83.1574,20.283 Z M82.0074,47.622 C81.1544,51.092 80.2504,54.365 79.2914,57.438 C78.3334,60.512 77.1074,63.565 75.6174,66.595 C75.0194,67.913 74.1684,68.747 73.0614,69.099 C71.9534,69.45 70.9094,69.34 69.9294,68.77 C68.9074,68.154 68.2894,67.353 68.0764,66.365 C67.8634,65.376 68.2044,64.048 69.0994,62.379 C70.3344,60.008 71.3874,57.428 72.2624,54.639 C73.1354,51.849 73.9764,48.852 74.7864,45.646 C75.1274,44.109 75.6374,43.055 76.3214,42.484 C77.0004,41.913 78.0024,41.759 79.3234,42.023 C80.6024,42.243 81.4864,42.769 81.9754,43.603 C82.4644,44.438 82.4744,45.778 82.0074,47.622 Z M79.3864,35.829 C78.5344,36.664 77.6394,37.038 76.7034,36.949 C75.7664,36.862 74.7004,36.203 73.5094,34.973 C72.9544,34.622 72.1874,34.03 71.2074,33.194 C70.2274,32.361 69.2264,31.547 68.2044,30.757 C67.2244,29.834 66.6284,28.945 66.4164,28.089 C66.2004,27.232 66.5214,26.211 67.3734,25.026 C68.8214,23.138 70.7384,23.072 73.1244,24.828 C73.9764,25.531 74.9564,26.31 76.0654,27.166 C77.1714,28.023 78.1094,28.825 78.8764,29.571 C79.8564,30.537 80.4734,31.526 80.7294,32.536 C80.9854,33.546 80.5574,34.622 79.4514,35.764 L79.3864,35.829 Z" id="Fill-1" fill="#FEFEFE"></path>
                <g id="Group-5" transform="translate(130.000000, 5.364000)">
                    <mask id="mask-2" fill="white">
                        <use xlink:href="#path-1"></use>
                    </mask>
                    <g id="Clip-4"></g>
                    <path d="M24.9196,24.2726 C27.0926,26.2496 29.6486,27.9616 32.5886,29.4116 C35.4406,28.1826 37.9566,26.7996 40.1286,25.2606 C40.8086,24.7336 41.0336,24.4376 40.7996,24.3716 C40.5656,24.3056 40.2336,24.2726 39.8086,24.2726 L24.9196,24.2726 Z M46.0716,49.7686 C46.0716,49.4176 46.0066,49.1986 45.8796,49.1086 C45.7526,49.0216 45.4526,48.9786 44.9846,48.9786 L17.6996,48.9786 C17.3576,48.9786 17.1456,49.0436 17.0606,49.1756 C16.9746,49.3076 16.9316,49.6366 16.9316,50.1636 L16.9316,54.8416 C16.9316,55.3686 16.9746,55.6976 17.0606,55.8296 C17.1456,55.9616 17.4216,56.0266 17.8906,56.0266 L45.6236,56.0266 C45.9216,56.0266 46.0716,55.8516 46.0716,55.5006 L46.0716,49.7686 Z M53.8676,55.5656 C53.8676,56.9716 53.7716,58.1236 53.5806,59.0246 C53.3886,59.9246 53.0256,60.6386 52.4936,61.1656 C51.9606,61.6926 51.2256,62.0656 50.2886,62.2856 C49.3506,62.5046 48.1376,62.6156 46.6456,62.6156 L16.2306,62.6156 C14.7366,62.6156 13.5346,62.5166 12.6196,62.3176 C11.7026,62.1206 10.9786,61.7586 10.4466,61.2306 C9.9126,60.7046 9.5516,59.9896 9.3596,59.0906 C9.1686,58.1896 9.0726,57.0146 9.0726,55.5656 L9.0726,49.2416 C9.0726,47.7486 9.1776,46.5516 9.3916,45.6506 C9.6046,44.7516 9.9876,44.0596 10.5426,43.5756 C11.0946,43.0926 11.8296,42.7746 12.7466,42.6206 C13.6636,42.4666 14.8236,42.3896 16.2306,42.3896 L46.6456,42.3896 C48.0946,42.3896 49.2886,42.4786 50.2256,42.6536 C51.1606,42.8296 51.9066,43.1586 52.4616,43.6416 C53.0146,44.1256 53.3886,44.8166 53.5806,45.7166 C53.7716,46.6176 53.8676,47.7916 53.8676,49.2416 L53.8676,55.5656 Z M27.4126,6.8806 C27.2416,6.5296 27.1346,6.2876 27.0926,6.1556 C26.4956,5.1466 26.2826,4.1586 26.4536,3.1906 C26.6226,2.2256 27.2836,1.4126 28.4346,0.7536 C28.8176,0.5346 29.2656,0.3816 29.7766,0.2926 C30.2876,0.2056 30.8086,0.2266 31.3416,0.3586 C31.8746,0.4896 32.3976,0.7656 32.9076,1.1816 C33.4196,1.6006 33.8446,2.2036 34.1856,2.9936 C34.6546,4.0046 35.1226,5.2996 35.5916,6.8806 L52.1426,6.8806 C58.7016,6.5296 61.6416,8.7476 60.9606,13.5346 C60.8336,14.3256 60.7046,15.1156 60.5776,15.9066 C60.4486,16.6966 60.2346,17.5756 59.9386,18.5416 C59.4266,20.2106 58.7656,21.2656 57.9576,21.7036 C57.1476,22.1436 56.1036,22.0776 54.8256,21.5056 C54.1436,21.2426 53.6316,20.9576 53.2936,20.6496 C52.9506,20.3426 52.7386,19.9806 52.6536,19.5626 C52.5676,19.1466 52.5896,18.6296 52.7166,18.0146 C52.8456,17.3996 53.0376,16.6306 53.2936,15.7086 C53.5046,15.1386 53.5156,14.6776 53.3246,14.3256 C53.1326,13.9736 52.7386,13.7986 52.1426,13.7986 L24.1536,13.7986 C24.6636,13.9296 25.1536,14.1506 25.6226,14.4576 C26.4756,15.0726 26.9546,15.7196 27.0606,16.3996 C27.1666,17.0816 27.0496,17.7296 26.7096,18.3436 L45.7526,18.3436 C47.5406,18.3436 48.8826,18.6186 49.7776,19.1676 C50.6726,19.7166 51.2366,20.3976 51.4706,21.2096 C51.7046,22.0226 51.6306,22.9006 51.2476,23.8446 C50.8646,24.7896 50.2666,25.6566 49.4576,26.4476 C46.9016,28.9506 44.1746,31.0816 41.2776,32.8366 C44.0476,33.7156 46.6996,34.3966 49.2346,34.8796 C51.7686,35.3636 54.3356,35.7356 56.9356,36.0006 C58.9796,36.2196 60.2996,36.6696 60.8966,37.3496 C61.4926,38.0316 61.6846,38.9866 61.4726,40.2156 C61.2566,41.7096 60.7466,42.6316 59.9386,42.9826 C59.1286,43.3346 57.7216,43.3556 55.7196,43.0486 C54.0166,42.7846 52.2066,42.4556 50.2886,42.0606 C48.3716,41.6656 46.4226,41.2046 44.4416,40.6766 C42.4606,40.1496 40.5016,39.5806 38.5626,38.9646 C36.6236,38.3506 34.7616,37.6696 32.9716,36.9216 C29.2226,38.3286 25.1536,39.5356 20.7676,40.5456 C16.3776,41.5566 11.5016,42.5446 6.1336,43.5096 C4.3436,43.8616 3.0976,43.8176 2.3946,43.3776 C1.6926,42.9396 1.1906,42.0836 0.8936,40.8086 C0.5946,39.4906 0.7536,38.5256 1.3726,37.9096 C1.9886,37.2956 3.1706,36.8556 4.9186,36.5926 C8.1556,36.1096 11.4366,35.5386 14.7586,34.8796 C18.0826,34.2216 21.3196,33.3866 24.4716,32.3766 C23.3636,31.6296 22.2776,30.7846 21.2146,29.8396 C20.1486,28.8966 19.0626,27.8086 17.9556,26.5786 C16.0386,28.0276 14.1416,29.1706 12.2676,30.0046 C10.6066,30.7516 9.2736,31.0916 8.2736,31.0256 C7.2716,30.9596 6.5376,30.3566 6.0696,29.2136 C5.5576,27.9406 5.5256,26.9306 5.9736,26.1836 C6.4206,25.4376 7.5386,24.7116 9.3286,24.0096 C11.2456,23.2626 13.0866,22.1756 14.8566,20.7486 C16.6226,19.3216 18.1466,17.8386 19.4246,16.3016 C20.5736,14.8966 21.6606,14.0616 22.6836,13.7986 L11.8846,13.7986 C11.1166,13.7986 10.5956,13.9736 10.3186,14.3256 C10.0416,14.6776 9.9026,15.2916 9.9026,16.1696 L9.9026,17.8826 C9.9026,19.1576 9.5626,20.1336 8.8806,20.8146 C8.1976,21.4956 7.3046,21.8346 6.1966,21.8346 C4.9616,21.8346 4.0126,21.5506 3.3536,20.9796 C2.6926,20.4086 2.3626,19.4206 2.3626,18.0146 L2.3626,14.4576 C2.3626,11.8656 2.9596,9.9556 4.1526,8.7256 C5.3436,7.4966 7.2606,6.8806 9.9026,6.8806 L27.4126,6.8806 Z" id="Fill-3" fill="#FEFEFE" mask="url(#mask-2)"></path>
                </g>
                <path d="M63.3801,63.038 C62.9321,62.599 62.0911,62.379 60.8571,62.379 L46.8911,62.379 L46.8911,56.845 L57.8541,56.845 C59.0031,56.845 59.8221,56.604 60.3141,56.121 C60.8021,55.638 61.0481,54.847 61.0481,53.749 C61.0481,52.563 60.8021,51.729 60.3141,51.246 C59.8221,50.763 59.0031,50.521 57.8541,50.521 L46.8911,50.521 L46.8911,45.711 L58.9401,45.711 C60.2181,45.711 61.0481,45.471 61.4321,44.987 C61.8151,44.504 62.0061,43.692 62.0061,42.55 C62.0061,41.408 61.8151,40.596 61.4321,40.112 C61.0481,39.629 60.2181,39.387 58.9401,39.387 L46.8911,39.387 L46.8911,35.989 C46.8911,35.317 46.3461,32.862 43.6511,32.803 C40.7501,32.74 40.2451,35.168 40.2451,35.989 L40.2451,39.387 L33.8901,39.387 C34.4011,38.333 34.6451,37.422 34.6251,36.653 C34.6031,35.885 33.7921,34.637 32.8421,34.362 C31.1661,33.876 29.3231,34.473 28.4181,36.005 C28.3601,36.103 28.3091,36.199 28.2671,36.29 C27.5411,38.092 26.8171,39.608 26.0941,40.836 C25.3691,42.066 24.4741,43.318 23.4111,44.592 C22.8571,45.207 22.4721,45.756 22.2601,46.239 C22.1741,42.198 21.7701,38.147 21.0451,34.084 C20.3211,30.022 19.2131,26.058 17.7231,22.192 C18.7031,20.875 19.6291,19.524 20.5041,18.141 C21.3751,16.757 22.1961,15.364 22.9631,13.957 C23.9421,12.113 24.3151,10.697 24.0811,9.708 C23.8461,8.72 23.2401,7.941 22.2601,7.37 C20.2991,6.184 18.6381,6.909 17.2761,9.543 C16.8061,10.511 16.3171,11.411 15.8061,12.245 C15.2941,13.079 14.7841,13.892 14.2721,14.682 C13.6761,13.672 13.1001,12.729 12.5471,11.849 C11.9931,10.971 11.4391,10.137 10.8861,9.346 C9.8621,8.028 8.8831,7.315 7.9451,7.205 C7.0081,7.095 6.0931,7.48 5.1981,8.358 C4.2611,9.28 3.8241,10.213 3.8891,11.158 C3.9511,12.102 4.4731,13.277 5.4541,14.682 C6.9881,16.879 8.3081,19.074 9.4151,21.27 C8.7761,22.06 8.1261,22.786 7.4661,23.444 C6.8061,24.103 6.1351,24.74 5.4541,25.355 C4.1321,26.497 3.3551,27.529 3.1211,28.451 C2.8871,29.374 3.0261,30.45 3.5371,31.68 C4.1321,32.733 4.9841,33.293 6.0931,33.359 C7.2001,33.425 8.3931,32.843 9.6711,31.613 C10.1401,31.131 10.6191,30.636 11.1091,30.131 C11.5991,29.627 12.0771,29.11 12.5471,28.583 C12.8441,29.462 13.1221,30.329 13.3781,31.185 C13.6331,32.042 13.8671,32.954 14.0811,33.919 C12.3761,36.29 10.8111,38.323 9.3831,40.013 C7.9571,41.705 6.6251,43.076 5.3901,44.131 C3.0891,46.152 2.4711,48.128 3.5371,50.059 C4.3031,51.334 5.1981,52.036 6.2201,52.168 C7.2441,52.3 8.4151,51.729 9.7351,50.455 C10.7151,49.401 11.6831,48.336 12.6431,47.259 C13.6021,46.184 14.5281,45.075 15.4231,43.933 C15.5081,46.305 15.4861,48.677 15.3591,51.048 C15.2301,53.419 14.9321,55.66 14.4641,57.768 C14.2501,58.69 14.0591,59.403 13.8891,59.909 C13.7181,60.413 13.4951,60.743 13.2171,60.897 C12.9411,61.05 12.5781,61.028 12.1311,60.831 C11.6831,60.633 11.0551,60.314 10.2471,59.876 C7.7321,58.337 5.9221,58.822 4.8151,61.325 C4.3461,62.335 4.2921,63.335 4.6551,64.323 C5.0161,65.311 5.8371,66.156 7.1151,66.859 C9.3301,68.132 11.3541,68.77 13.1861,68.77 C17.3601,68.77 20.0451,65.827 21.2381,59.941 C21.5351,58.272 21.7591,56.581 21.9081,54.869 C22.0581,53.156 22.1741,51.4 22.2601,49.598 C22.4301,49.862 22.5791,50.038 22.7081,50.126 C23.5581,51.048 24.4331,51.41 25.3281,51.213 C26.2211,51.015 27.1161,50.346 28.0111,49.204 C28.8631,48.106 29.6721,46.941 30.4401,45.711 L40.2451,45.711 L40.2451,50.521 L30.3111,50.521 C29.1621,50.521 28.3401,50.763 27.8511,51.246 C27.3611,51.729 27.1161,52.563 27.1161,53.749 C27.1161,54.847 27.3611,55.638 27.8511,56.121 C28.3401,56.604 29.1621,56.845 30.3111,56.845 L40.2451,56.845 L40.2451,62.379 L25.5821,62.379 C24.3041,62.379 23.4421,62.599 22.9951,63.038 C22.5471,63.476 22.3241,64.311 22.3241,65.541 C22.3241,66.683 22.5471,67.507 22.9951,68.012 C23.4421,68.517 24.3041,68.77 25.5821,68.77 L60.8571,68.77 C62.0911,68.77 62.9321,68.517 63.3801,68.012 C63.8271,67.507 64.0521,66.683 64.0521,65.541 C64.0521,64.311 63.8271,63.476 63.3801,63.038" id="Fill-6" fill="#FEFEFE"></path>
                <g id="Group-10" transform="translate(0.000000, 81.364000)">
                    <mask id="mask-4" fill="white">
                        <use xlink:href="#path-3"></use>
                    </mask>
                    <g id="Clip-9"></g>
                    <path d="M17.9816,2.3639 C18.5076,1.6129 19.0806,1.1339 19.6906,0.9259 C20.3016,0.7159 20.9716,0.8349 21.6926,1.2799 C22.4186,1.7249 22.8216,2.2319 22.9066,2.8029 C22.9866,3.3729 22.8346,3.9369 22.4436,4.4929 L15.0166,14.8839 L23.9076,27.4029 C24.1836,27.7929 24.2766,28.2449 24.1786,28.7589 C24.0816,29.2739 23.6696,29.7679 22.9446,30.2409 C22.1686,30.7409 21.5196,30.9089 21.0056,30.7409 C20.4926,30.5739 20.0256,30.1979 19.6066,29.6149 L12.0136,19.0969 L4.4586,29.6559 C3.5976,30.9089 2.4816,31.0889 1.1206,30.1979 C0.5646,29.8379 0.2086,29.3559 0.0556,28.7589 C-0.0974,28.1599 0.0646,27.5279 0.5356,26.8599 L9.0106,14.9259 L1.6206,4.6179 C1.3156,4.1449 1.2476,3.5959 1.4136,2.9699 C1.5786,2.3439 1.9136,1.8499 2.4146,1.4879 C3.1396,0.9879 3.7586,0.7579 4.2726,0.8009 C4.7856,0.8409 5.2816,1.1819 5.7526,1.8229 L12.0556,10.7099 L17.9816,2.3639 Z" id="Fill-8" fill="#ECC421" mask="url(#mask-4)"></path>
                </g>
                <path d="M41.7697,100.8368 C41.7947,98.3898 41.3457,96.5338 40.4127,95.2678 C39.4787,94.0018 38.2617,93.3818 36.7597,93.4098 C35.2587,93.4368 34.1177,94.1268 33.3367,95.4758 C32.5607,96.8238 32.1577,98.6268 32.1277,100.8788 C32.1027,103.0488 32.4547,104.7668 33.1927,106.0328 C33.9307,107.2988 35.0927,107.9318 36.6747,107.9318 C38.2617,107.9318 39.4997,107.3758 40.3907,106.2618 C41.2817,105.1508 41.7397,103.3418 41.7697,100.8368 Z M32.1707,116.1938 C32.1707,116.4168 32.1367,116.6518 32.0637,116.9048 C31.9967,117.1548 31.8567,117.3908 31.6487,117.6128 C31.4407,117.8358 31.1607,118.0158 30.8127,118.1558 C30.4647,118.2938 30.0287,118.3638 29.4987,118.3638 C28.4157,118.3368 27.6997,118.0798 27.3517,117.5918 C27.0037,117.1068 26.8297,116.6398 26.8297,116.1938 L26.8297,91.3648 C26.8297,90.9198 27.0417,90.4548 27.4747,89.9668 C27.9077,89.4818 28.5687,89.2228 29.4557,89.1948 C30.3467,89.1948 31.0077,89.4458 31.4407,89.9458 C31.8697,90.4468 32.0857,90.9198 32.0857,91.3648 L32.0857,93.1168 C32.6157,91.6978 33.3927,90.6208 34.4227,89.8848 C35.4537,89.1468 36.6367,88.7778 37.9687,88.7778 C39.1657,88.7778 40.3227,88.9788 41.4347,89.3818 C42.5457,89.7868 43.5257,90.4618 44.3777,91.4078 C45.2267,92.3538 45.9057,93.5918 46.4227,95.1208 C46.9367,96.6498 47.1947,98.5428 47.1947,100.7968 C47.1947,102.6308 46.9697,104.2668 46.5247,105.6998 C46.0797,107.1318 45.4557,108.3428 44.6457,109.3288 C43.8397,110.3168 42.8727,111.0678 41.7487,111.5838 C40.6197,112.0968 39.3767,112.3558 38.0117,112.3558 C36.6497,112.3558 35.4957,112.0898 34.5497,111.5628 C33.6037,111.0338 32.8107,110.0608 32.1707,108.6418 L32.1707,116.1938 Z" id="Fill-11" fill="#ECC421"></path>
                <path d="M54.4484,100.7967 C54.4784,103.3267 54.9444,105.1507 55.8474,106.2617 C56.7514,107.3757 58.0114,107.9317 59.6234,107.9317 C61.2394,107.9317 62.4184,107.2987 63.1694,106.0327 C63.9244,104.7667 64.2844,103.0367 64.2554,100.8367 C64.2294,98.5847 63.8314,96.7967 63.0674,95.4757 C62.3004,94.1537 61.1244,93.4667 59.5424,93.4097 C57.9564,93.3817 56.7044,93.9737 55.7844,95.1827 C54.8684,96.3937 54.4234,98.2647 54.4484,100.7967 Z M64.1324,108.6417 C63.4914,110.0607 62.6984,111.0337 61.7524,111.5627 C60.8064,112.0897 59.6534,112.3557 58.2874,112.3557 C56.9254,112.3557 55.6824,112.0967 54.5544,111.5837 C53.4264,111.0677 52.4584,110.3177 51.6534,109.3287 C50.8464,108.3427 50.2194,107.1317 49.7784,105.6997 C49.3324,104.2667 49.1084,102.6307 49.1084,100.7967 C49.1084,98.5427 49.3664,96.6507 49.8804,95.1207 C50.3934,93.5917 51.0754,92.3537 51.9244,91.4077 C52.7724,90.4617 53.7524,89.7867 54.8684,89.3817 C55.9794,88.9787 57.1334,88.7777 58.3294,88.7777 C59.6654,88.7777 60.8494,89.1467 61.8754,89.8847 C62.9064,90.6207 63.6864,91.6977 64.2134,93.1167 L64.2134,91.3647 C64.2134,90.9197 64.4294,90.4467 64.8624,89.9457 C65.2944,89.4457 65.9514,89.1947 66.8434,89.1947 C67.7334,89.2227 68.3954,89.4817 68.8234,89.9667 C69.2564,90.4547 69.4724,90.9197 69.4724,91.3647 L69.4724,109.9357 C69.4724,110.3807 69.2994,110.8457 68.9504,111.3337 C68.6034,111.8187 67.8864,112.0777 66.8004,112.1057 C66.2444,112.1057 65.7994,112.0347 65.4684,111.8957 C65.1334,111.7567 64.8624,111.5767 64.6544,111.3547 C64.4464,111.1317 64.3064,110.8947 64.2344,110.6437 C64.1664,110.3937 64.1324,110.1577 64.1324,109.9357 L64.1324,108.6417 Z" id="Fill-13" fill="#FEFEFE"></path>
                <path d="M78.3634,109.9759 C78.3634,110.5059 78.1264,110.9979 77.6554,111.4579 C77.1794,111.9159 76.5394,112.1479 75.7334,112.1479 C74.9274,112.1479 74.2874,111.9229 73.8164,111.4789 C73.3414,111.0339 73.1034,110.5339 73.1034,109.9759 L73.1034,91.6149 C73.1034,90.7819 73.3834,90.1689 73.9394,89.7789 C74.4944,89.3909 75.0924,89.1949 75.7334,89.1949 C76.3744,89.1949 76.9724,89.3819 77.5284,89.7569 C78.0834,90.1349 78.3634,90.7539 78.3634,91.6149 L78.3634,109.9759 Z M72.8954,84.1879 C72.8954,83.3799 73.1674,82.7049 73.7104,82.1639 C74.2534,81.6219 74.9274,81.3499 75.7334,81.3499 C76.5394,81.3499 77.2144,81.6219 77.7574,82.1639 C78.3004,82.7049 78.5714,83.3799 78.5714,84.1879 C78.5714,84.9939 78.3004,85.6679 77.7574,86.2109 C77.2144,86.7539 76.5394,87.0259 75.7334,87.0259 C74.9274,87.0259 74.2534,86.7539 73.7104,86.2109 C73.1674,85.6679 72.8954,84.9939 72.8954,84.1879 Z" id="Fill-15" fill="#FEFEFE"></path>
                <path d="M88.2131,110.3939 C88.2131,110.8939 87.9671,111.3059 87.4791,111.6259 C86.9961,111.9439 86.3591,112.1179 85.5831,112.1479 C84.8021,112.1729 84.1711,112.0139 83.6831,111.6659 C83.1951,111.3179 82.9531,110.8939 82.9531,110.3939 L82.9531,82.6019 C82.9531,81.8509 83.1401,81.2869 83.5171,80.9109 C83.8901,80.5359 84.5821,80.3489 85.5831,80.3489 C86.5841,80.3489 87.2711,80.5509 87.6491,80.9539 C88.0221,81.3559 88.2131,82.0309 88.2131,82.9769 L88.2131,97.8739 L96.1831,89.9039 C96.7091,89.3479 97.3161,89.1129 97.9991,89.1949 C98.6771,89.2779 99.2541,89.5559 99.7291,90.0289 C100.2001,90.5039 100.4721,91.0999 100.5441,91.8229 C100.6111,92.5489 100.2981,93.2719 99.6021,93.9949 L92.8021,100.5459 L99.9801,107.3889 C100.7561,108.1969 101.1251,108.9619 101.0871,109.6859 C101.0441,110.4089 100.7941,110.9849 100.3361,111.4159 C99.8741,111.8469 99.3051,112.0899 98.6221,112.1479 C97.9391,112.2029 97.3501,111.9799 96.8491,111.4789 L88.2131,103.2589 L88.2131,110.3939 Z" id="Fill-17" fill="#ECC421"></path>
                <path d="M103.8185,109.5179 C103.8185,108.7119 104.0895,108.0349 104.6285,107.4949 C105.1715,106.9519 105.8455,106.6799 106.6565,106.6799 C107.4625,106.6799 108.1365,106.9519 108.6795,107.4949 C109.2225,108.0349 109.4935,108.7119 109.4935,109.5179 C109.4935,110.3259 109.2225,110.9979 108.6795,111.5409 C108.1365,112.0839 107.4625,112.3549 106.6565,112.3549 C105.8455,112.3549 105.1715,112.0839 104.6285,111.5409 C104.0895,110.9979 103.8185,110.3259 103.8185,109.5179" id="Fill-19" fill="#FEFEFE"></path>
                <path d="M112.9552,100.7967 C112.9552,99.2107 113.1842,97.6937 113.6422,96.2477 C114.1042,94.8007 114.7832,93.5277 115.6872,92.4297 C116.5952,91.3307 117.7192,90.4467 119.0672,89.7787 C120.4162,89.1127 121.9812,88.7777 123.7632,88.7777 C125.1842,88.7777 126.4822,89.0277 127.6652,89.5277 C128.8492,90.0287 129.7442,90.5867 130.3552,91.1977 C130.5802,91.4207 130.7962,91.6977 131.0042,92.0327 C131.2122,92.3657 131.3652,92.7287 131.4622,93.1167 C131.5592,93.5067 131.5892,93.8977 131.5472,94.2857 C131.5042,94.6757 131.3432,95.0367 131.0672,95.3717 C130.9532,95.5117 130.7882,95.6637 130.5672,95.8297 C130.3422,95.9967 130.0792,96.1157 129.7742,96.1857 C129.4682,96.2537 129.1462,96.2537 128.8112,96.1857 C128.4802,96.1157 128.1452,95.8867 127.8102,95.4967 C127.2542,94.8287 126.6772,94.3157 126.0792,93.9527 C125.4812,93.5917 124.7392,93.4097 123.8482,93.4097 C123.0122,93.4097 122.2492,93.5917 121.5532,93.9527 C120.8572,94.3157 120.2642,94.8157 119.7802,95.4537 C119.2922,96.0947 118.9112,96.8727 118.6312,97.7917 C118.3512,98.7097 118.2152,99.7257 118.2152,100.8367 C118.2152,102.0057 118.3722,103.0277 118.6942,103.9057 C119.0122,104.7817 119.4362,105.5177 119.9672,106.1157 C120.4932,106.7157 121.0912,107.1677 121.7612,107.4727 C122.4272,107.7787 123.1102,107.9317 123.8062,107.9317 C124.3312,107.9317 124.7732,107.9037 125.1212,107.8487 C125.4682,107.7937 125.7522,107.7087 125.9772,107.5987 C126.1982,107.4877 126.3932,107.3697 126.5592,107.2437 C126.7282,107.1187 126.8932,106.9847 127.0592,106.8477 C127.3092,106.6517 127.5772,106.4507 127.8522,106.2407 C128.1322,106.0327 128.4252,105.8797 128.7302,105.7827 C129.0362,105.6857 129.3712,105.6637 129.7312,105.7187 C130.0922,105.7767 130.4822,105.9437 130.8982,106.2217 C131.5132,106.6377 131.8732,107.0767 131.9842,107.5347 C132.0942,107.9947 131.9412,108.5867 131.5262,109.3097 C130.9702,110.2837 130.0372,111.0677 128.7302,111.6667 C127.4192,112.2647 125.8082,112.5637 123.8912,112.5637 C122.1342,112.5637 120.5782,112.2857 119.2162,111.7297 C117.8502,111.1737 116.7052,110.3807 115.7712,109.3497 C114.8382,108.3217 114.1392,107.0827 113.6632,105.6367 C113.1932,104.1907 112.9552,102.5757 112.9552,100.7967" id="Fill-21" fill="#FEFEFE"></path>
                <path d="M143.9626,107.9315 C145.8246,107.9315 147.1946,107.3145 148.0726,106.0755 C148.9516,104.8365 149.3876,103.0915 149.3876,100.8365 C149.3876,98.5845 148.9676,96.7845 148.1366,95.4325 C147.3006,94.0835 145.8796,93.4095 143.8786,93.4095 C142.8776,93.4095 142.0416,93.6045 141.3756,93.9945 C140.7096,94.3835 140.1706,94.9105 139.7676,95.5795 C139.3646,96.2475 139.0806,97.0255 138.9156,97.9165 C138.7456,98.8065 138.6646,99.7535 138.6646,100.7545 C138.6646,103.0085 139.0806,104.7665 139.9166,106.0335 C140.7476,107.2995 142.0966,107.9315 143.9626,107.9315 M143.9626,88.7775 C145.8796,88.7775 147.5216,89.0845 148.8876,89.6955 C150.2496,90.3085 151.3566,91.1575 152.2046,92.2415 C153.0526,93.3275 153.6766,94.6055 154.0836,96.0795 C154.4866,97.5565 154.6866,99.1395 154.6866,100.8365 C154.6866,102.5635 154.4866,104.1415 154.0836,105.5755 C153.6766,107.0065 153.0406,108.2385 152.1626,109.2675 C151.2846,110.2965 150.1726,111.1045 148.8236,111.6875 C147.4746,112.2725 145.8546,112.5635 143.9626,112.5635 C142.0706,112.5635 140.4596,112.2645 139.1226,111.6665 C137.7866,111.0685 136.6886,110.2475 135.8266,109.2035 C134.9616,108.1605 134.3376,106.9175 133.9476,105.4695 C133.5576,104.0245 133.3626,102.4515 133.3626,100.7545 C133.3626,99.0575 133.5576,97.4795 133.9476,96.0185 C134.3376,94.5565 134.9486,93.2905 135.7846,92.2195 C136.6156,91.1505 137.7106,90.3085 139.0596,89.6955 C140.4086,89.0845 142.0416,88.7775 143.9626,88.7775" id="Fill-23" fill="#FEFEFE"></path>
                <path d="M185.8591,98.7523 C185.8591,97.8613 185.8041,97.0833 185.6891,96.4153 C185.5791,95.7473 185.3801,95.1913 185.0871,94.7453 C184.7941,94.3003 184.3831,93.9673 183.8571,93.7443 C183.3271,93.5223 182.6561,93.4093 181.8501,93.4093 C181.1851,93.4093 180.5651,93.4793 179.9971,93.6173 C179.4241,93.7573 178.9321,94.0143 178.5121,94.3893 C178.0961,94.7673 177.7701,95.2883 177.5321,95.9543 C177.2951,96.6233 177.1761,97.4853 177.1761,98.5423 L177.1761,110.3943 C177.1761,110.8943 176.9341,111.3053 176.4461,111.6263 C175.9631,111.9443 175.3271,112.1183 174.5501,112.1483 C173.7701,112.1733 173.1381,112.0143 172.6501,111.6663 C172.1621,111.3183 171.9211,110.8943 171.9211,110.3943 L171.9211,98.7523 C171.9211,96.9703 171.6491,95.6363 171.1061,94.7453 C170.5631,93.8553 169.4851,93.4093 167.8741,93.4093 C167.2041,93.4093 166.5841,93.4793 166.0161,93.6173 C165.4431,93.7573 164.9601,94.0143 164.5571,94.3893 C164.1501,94.7673 163.8311,95.2883 163.5941,95.9543 C163.3561,96.6233 163.2421,97.4853 163.2421,98.5423 L163.2421,110.3943 C163.2421,110.8943 162.9961,111.3123 162.5081,111.6453 C162.0251,111.9803 161.3621,112.1483 160.5271,112.1483 C159.6921,112.1483 159.0591,111.9803 158.6311,111.6453 C158.1981,111.3123 157.9821,110.8943 157.9821,110.3943 L157.9821,90.7393 C157.9821,90.2383 158.1901,89.8563 158.6091,89.5923 C159.0261,89.3273 159.7081,89.1953 160.6541,89.1953 C161.6001,89.1953 162.2541,89.3413 162.6141,89.6323 C162.9741,89.9243 163.1571,90.2943 163.1571,90.7393 L163.1571,92.9513 C163.6281,91.7823 164.3191,90.7943 165.2231,89.9883 C166.1261,89.1803 167.2041,88.7773 168.4551,88.7773 C170.2111,88.7773 171.5941,89.1613 172.6081,89.9243 C173.6261,90.6903 174.3681,91.7823 174.8431,93.2013 C175.5641,91.9483 176.5571,90.9003 177.8251,90.0503 C179.0891,89.2013 180.5571,88.7773 182.2281,88.7773 C183.2551,88.7773 184.2761,88.9453 185.2951,89.2783 C186.3091,89.6133 187.2161,90.1073 188.0051,90.7603 C188.7981,91.4143 189.4391,92.2133 189.9271,93.1593 C190.4151,94.1053 190.6561,95.2043 190.6561,96.4553 L190.6561,110.3943 C190.6561,110.8393 190.5551,111.2353 190.3421,111.5833 C190.1351,111.9313 189.5321,112.1183 188.5271,112.1483 C187.5261,112.1733 186.8301,112.0563 186.4441,111.7913 C186.0541,111.5263 185.8591,111.0623 185.8591,110.3943 L185.8591,98.7523 Z" id="Fill-25" fill="#FEFEFE"></path>
                <path d="M43.5602,29.2552 L52.8212,26.9352 L58.0012,10.7402 L47.2732,4.8062 L38.8372,5.9402 L32.1032,9.4812 C32.1032,9.4812 30.0322,16.4652 30.3772,17.0302 C30.7232,17.5962 37.8602,29.2552 37.8602,29.2552" id="Fill-27" fill="#FEFEFE"></path>
                <path d="M49.6349,18.6532 L50.7629,20.0722 C50.7629,20.0722 51.5219,21.0242 50.8149,22.1402 C50.2519,23.0292 49.1729,23.1062 48.2419,22.8062 C48.2419,22.8062 45.7919,21.8572 43.5849,21.8572 C41.3739,21.8572 38.9089,22.8062 38.9089,22.8062 C37.9779,23.1062 36.8989,23.0292 36.3359,22.1402 C35.6289,21.0242 36.3869,20.0722 36.3869,20.0722 L37.5349,18.6532 C38.3809,17.3002 37.5349,16.5672 37.5349,16.5672 L34.1449,13.4302 L38.2699,7.6842 C39.7179,6.3042 40.9169,8.4632 40.9169,8.4632 C42.2789,10.5232 43.5849,11.1892 43.5849,11.1892 C43.5849,11.1892 44.8649,10.5232 46.2279,8.4632 C46.2279,8.4632 47.4269,6.3042 48.8749,7.6842 L52.9759,13.4302 L49.6349,16.5672 C49.6349,16.5672 48.7689,17.3212 49.6349,18.6532 M49.3759,25.0002 C46.3939,27.4072 43.5869,27.2102 43.5869,27.2102 C43.5869,27.2102 40.7789,27.4072 37.7969,25.0002 C37.7969,25.0002 36.9029,24.2922 37.6059,23.9012 C37.6059,23.9012 39.9889,22.3672 43.5869,22.3672 C47.1759,22.3672 49.5669,23.9012 49.5669,23.9012 C50.2699,24.2922 49.3759,25.0002 49.3759,25.0002 M56.5639,7.0332 L56.3069,7.0332 C55.4639,5.6652 54.3569,4.8952 53.4739,5.2102 C53.0269,5.3692 52.7019,5.7842 52.5089,6.3622 C51.0059,4.0932 49.0739,2.4142 46.8969,1.5712 C46.7719,1.5192 46.6909,1.4852 46.6499,1.4712 C46.6309,1.4642 46.6119,1.4542 46.5929,1.4472 C47.0719,0.9972 47.9249,0.9272 47.9249,0.9272 C46.3159,0.4062 45.0949,0.6872 45.0949,0.6872 C45.3339,0.2692 45.9899,0.0002 45.9899,0.0002 C39.5009,0.0592 35.7679,5.2692 35.7729,5.2702 C35.5069,5.6062 35.2509,5.9572 35.0039,6.3202 C34.8099,5.7492 34.4879,5.3382 34.0449,5.1792 C33.1539,4.8612 32.0359,5.6452 31.1909,7.0332 L30.5759,7.0332 C23.1999,7.0332 24.8749,14.0192 24.8749,14.0192 L25.7739,20.3822 L25.9759,21.6392 C26.5689,24.4152 28.8879,30.8702 37.7249,30.8702 L49.4289,30.8702 C58.3039,30.8702 60.6059,24.3592 61.1859,21.6032 L62.2659,14.0192 C62.2659,14.0192 63.9399,7.0332 56.5639,7.0332" id="Fill-29" fill="#ECC421"></path>
                <path d="M50.6603,12.0902 L49.3443,12.0902 L48.0243,12.0902 L45.9823,12.0902 L45.1083,12.0902 L42.1213,12.0902 L41.5113,12.0902 L39.2053,12.0902 L37.8863,12.0902 L36.5693,12.0902 C36.5693,12.0902 36.6523,13.7802 37.0233,14.7692 C37.0773,14.9452 37.1563,15.1142 37.2613,15.2722 C37.9823,16.3582 39.6513,16.5202 40.9883,15.6332 C42.0053,14.9592 42.5363,13.8732 42.4153,12.9132 L43.0033,12.9132 L43.5153,13.8662 C43.5503,13.9322 43.6433,13.9322 43.6783,13.8662 L44.1903,12.9132 L44.8143,12.9132 C44.6933,13.8732 45.2243,14.9592 46.2413,15.6332 C47.5783,16.5202 49.2473,16.3582 49.9693,15.2722 C50.0743,15.1142 50.1523,14.9452 50.2063,14.7692 C50.5773,13.7802 50.6603,12.0902 50.6603,12.0902" id="Fill-31" fill="#ECC421"></path>
                <path d="M41.5519,17.701 C41.4579,17.701 41.4059,17.809 41.4639,17.883 L41.6799,18.159 C41.6799,18.159 41.7959,18.398 42.2929,18.398 L42.8529,18.398 C42.8529,18.398 43.2329,18.344 43.2329,18.758 L43.2329,20.964 L43.9969,20.964 L43.9969,18.758 C43.9969,18.344 44.3769,18.398 44.3769,18.398 L44.9369,18.398 C45.4339,18.398 45.5499,18.159 45.5499,18.159 L45.7659,17.883 C45.8239,17.809 45.7719,17.701 45.6779,17.701 L41.5519,17.701 Z" id="Fill-33" fill="#ECC421"></path>
            </g>
        </g>
    </g>
</svg>