<svg xmlns="http://www.w3.org/2000/svg" width="42" height="42" viewBox="0 0 42 42">
  <g fill="none" fill-rule="evenodd">
    <path fill="#CCC" d="M42,21 C42,32.5982222 32.5982222,42 21,42 C9.40177778,42 0,32.5982222 0,21 C0,9.40177778 9.40177778,0 21,0 C32.5982222,0 42,9.40177778 42,21"/>
    <path fill="#FFF" d="M21,42 C27.3023333,42 32.9513333,39.2202222 36.8005556,34.8242222 L33.2686667,32.5414444 C30.6428889,31.2293333 31.6913333,32.2801111 28.5413333,30.9656667 C25.3905556,29.652 24.605,29.3883333 24.605,29.3883333 L24.605,26.5012222 C24.605,26.5012222 25.6518889,25.718 26.1784444,22.8285556 C26.9655556,23.0922222 27.2292222,22.0414444 27.2292222,21.2535556 C27.2292222,20.7293333 27.7534444,18.6293333 26.705,18.6293333 C26.9655556,17.3156667 26.9655556,16.0035556 26.9655556,15.4793333 C26.705,13.1187778 25.13,10.7535556 21.1921111,10.7535556 C18.0413333,10.7535556 15.6792222,13.1164444 15.4155556,15.4793333 C15.4155556,16.0058889 15.4155556,17.318 15.6792222,18.6293333 C14.896,18.3641111 15.1588889,20.4656667 15.4202222,21.2512222 C15.4202222,21.7777778 15.6831111,22.8262222 16.2073333,22.5656667 C16.471,25.4551111 17.7823333,26.2422222 17.7823333,26.2422222 L17.7823333,29.1293333 C17.7823333,29.1293333 16.9952222,29.652 13.8467778,30.9656667 C10.6967778,32.2801111 11.7452222,31.2293333 9.12177778,32.5414444 C8.792,32.7607778 8.46611111,32.9808889 8.155,33.201 L7.12911111,34.0207778 C7.09411111,34.0534444 7.05211111,34.0861111 7.02022222,34.1187778 C7.01788889,34.1164444 7.01633333,34.1141111 7.01477778,34.1117778 L5.58366667,35.2543333 C9.41966667,39.4014444 14.9053333,42 21,42"/>
  </g>
</svg>
