<svg xmlns="http://www.w3.org/2000/svg" width="24" height="24" viewBox="0 0 24 24">
  <path fill="#C4A66A" d="M20.7627035,22 L3.23993625,22 C2.85201959,21.9585346 2.49948362,21.7556168 2.26872615,21.4409768 C2.03796869,21.1263368 1.9503174,20.7290551 2.02725345,20.3464955 C2.02725345,17.237907 7.9284773,14.0956245 7.92847732,14.0956245 L10.6994325,19.3444094 L11.198479,18.0715229 L10.4174713,16.5028775 L11.9794866,14.9379758 L13.5415019,16.5066213 L12.7604942,18.0740187 L13.1821885,19.3219467 L16.0317435,14.10436 C16.0317435,14.10436 21.9753863,17.4475589 21.9753863,20.3639665 C22.0480236,20.7440576 21.9582475,21.1372072 21.727832,21.4480613 C21.4974166,21.7589153 21.1474104,21.9590773 20.7627035,22 Z M16.2263716,10.0498421 C15.9700543,11.0844278 15.4675557,12.0417256 14.7616704,12.840209 C14.0520155,13.5669605 13.1320548,14.0523742 12.1316958,14.2279049 L12.0443626,14.2453758 L11.9582771,14.2304007 C10.9860865,14.0833698 10.088479,13.6228421 9.40191186,12.9188285 C8.65924785,12.1104229 8.12706287,11.1315064 7.85237273,10.0685611 C7.53284189,9.88602717 7.28738656,9.59723595 7.15869822,9.2524162 C6.97252663,8.74747665 6.89061404,8.2100297 6.91790833,7.67253944 L6.91790833,7.42295386 L7.12376498,7.28443386 C7.18992601,7.23824121 7.25911676,7.19654961 7.33086923,7.15964107 C7.02021284,5.2528072 7.10130789,3.62800503 8.25160986,2.54230772 C9.16611243,1.87217041 10.7755371,2.32766411 12.2439812,2.10802881 C16.4434568,1.48406485 16.4147616,3.61178197 16.8352082,7.23077295 L16.90757,7.27819421 L17.1109314,7.41671421 L17.1109314,7.6662998 C17.1343826,8.19512928 17.057332,8.72360877 16.8838652,9.22371387 C16.7647537,9.56572941 16.5328941,9.85705661 16.2263716,10.0498421 Z M15.7136014,8.14176034 L15.6487254,7.92836467 L15.5114876,7.93585223 L15.4328878,7.52278809 C15.3742498,7.2020706 15.279431,5.5261034 15.1584123,5.25904682 C14.7476275,5.31673068 14.3321214,5.19232111 14.0205864,4.91836251 L13.8321964,5.50114485 L13.5327686,5.46121114 L13.5726923,5.10679962 L13.2557978,5.61345837 L12.9738366,5.55730161 L13.2508073,4.80230521 C11.7673919,5.83558954 9.20728375,5.78192863 8.86793218,5.32019529 C8.82490159,5.39439759 8.79493868,5.4754443 8.77935145,5.55979746 C8.70948495,5.83933331 8.62963752,7.57020935 8.56101865,7.84600143 L8.54105679,7.94708358 L8.5348187,7.94708358 C8.5215108,8.00448827 8.50778702,8.05440538 8.49364738,8.09683493 C8.28823811,8.04358346 8.07194779,8.0496411 7.86983936,8.11430593 C7.88380611,8.37728009 7.93808694,8.63654638 8.03078183,8.88302953 C8.08387026,9.05668666 8.21210713,9.19732438 8.38011432,9.2661434 L8.62963752,9.34476287 L8.69950403,9.59434845 C8.92347199,10.5819776 9.39585211,11.4960468 10.0718817,12.2499391 C10.5954678,12.7862867 11.2747471,13.1439145 12.0131722,13.2719921 C12.7905579,13.1244386 13.5043944,12.7430502 14.0592625,12.1788072 C14.6996304,11.4348361 15.143938,10.5425668 15.3517927,9.5831171 L15.4166688,9.34101908 L15.6549634,9.25615999 C15.8190246,9.17991347 15.9428823,9.03741883 15.9955626,8.86431062 C16.0853265,8.62443204 16.1354704,8.37154218 16.1440289,8.11555387 C16.0001877,8.11657995 15.8565051,8.12532802 15.7136014,8.14176034 Z"/>
</svg>
