<svg xmlns="http://www.w3.org/2000/svg" width="24" height="24" viewBox="0 0 24 24">
  <g fill="#C4A66A" transform="translate(2 2)">
    <path d="M.00230580363 19.5916299C-.0288589282 19.8754195.261375968 20.0822136.540692609 19.9679749.873434517 19.8308484 3.99923685 18.5381851 5.45454545 17.9367759L.593375873 14.5454545C.411157538 16.0751279.0289124513 19.3415698.00230580363 19.5916299zM12.7272727 14.9995781C12.7272727 15.2508162 13.0533752 15.4545455 13.455043 15.4545455L19.2723334 15.4545455C19.6738976 15.4545455 20 15.2508162 20 14.9995781 20 14.7492488 19.6738976 14.5454545 19.2723334 14.5454545L13.455043 14.5454545C13.0533752 14.5454545 12.7272727 14.7492488 12.7272727 14.9995781zM15.2687995 4.15329173C15.5809629 3.72044008 15.4903257 3.10991387 15.0670677 2.79079718L11.6149911.189812117C11.1910701-.129304569 10.5943986-.0364952931 10.2824246.396453241L10 .788712934 14.9860908 4.54545455 15.2687995 4.15329173zM9.32035038.909090909L.909090909 12.4647714 6.13399657 16.3636364 14.5454545 4.80685023 9.32035038.909090909zM6.56622118 13.7183262C6.37060357 13.9927172 5.99316381 14.0553346 5.72261403 13.8579339 5.45206427 13.6603322 5.39092756 13.2775919 5.58644591 13.0028994L11.2484393 5.05239502C11.4440569 4.7779035 11.8214967 4.71528608 12.0919472 4.91268678 12.3623978 5.11008748 12.423733 5.49302877 12.2280161 5.7676208L6.56622118 13.7183262zM19.2923858 19.0909091L7.97953464 19.0909091C7.58941894 19.0909091 7.27272727 19.2937796 7.27272727 19.545487 7.27272727 19.796416 7.58941892 20 7.97953464 20L19.2923858 20C19.6834092 20 20 19.796416 20 19.545487 20 19.2937796 19.6834092 19.0909091 19.2923858 19.0909091z"/>
  </g>
</svg>
