<svg xmlns="http://www.w3.org/2000/svg" width="22" height="22" viewBox="0 0 22 22">
  <path d="M18.5011197,10.8137663 C18.9735571,10.341306 19.1189224,9.61444403 18.9008744,8.99661136 C18.6828264,8.34243557 18.1740477,7.86997529 17.5199037,7.76094597 L14.612597,7.2521426 C14.285525,7.1794564 14.0311357,6.9977409 13.8857703,6.7069961 L12.5047997,4.01760678 C12.2504103,3.363431 11.668949,3 11.014805,3 C10.360661,3 9.77919964,3.363431 9.45212764,3.98126367 L8.10749829,6.67065301 C7.96213296,6.9613978 7.67140228,7.1794564 7.38067162,7.21579949 L4.47336491,7.72460288 C3.81922091,7.83363219 3.31044223,8.30609247 3.09239424,8.96026825 C2.87434624,9.61444403 3.0560529,10.3049629 3.4921489,10.7774232 L5.52726359,12.9580092 C5.74531158,13.1760677 5.85433559,13.5394987 5.81799427,13.8665866 L5.38189826,16.8830638 C5.27287425,17.5372396 5.56360493,18.2277585 6.0723836,18.6275326 C6.36311427,18.8455912 6.72652761,18.9909636 7.08994095,18.9909636 C7.34433029,18.9909636 7.63506095,18.9182774 7.85310895,18.8092481 L10.5060263,17.4645534 C10.796757,17.319181 11.123829,17.319181 11.4145597,17.4645534 L14.067477,18.8092481 C14.6489384,19.0999929 15.3394237,19.0636498 15.8845437,18.6638757 C16.3933224,18.2641016 16.684053,17.6099258 16.5750291,16.919407 L16.1752744,13.9029297 C16.138933,13.5758418 16.2479571,13.2487539 16.466005,12.9943522 L18.5011197,10.8137663 Z"/>
</svg>
