<?xml version="1.0" encoding="UTF-8"?>
<svg width="16px" height="17px" viewBox="0 0 16 17" version="1.1" xmlns="http://www.w3.org/2000/svg" xmlns:xlink="http://www.w3.org/1999/xlink">
    <!-- Generator: Sketch 52.2 (67145) - http://www.bohemiancoding.com/sketch -->
    <title>ss@3x</title>
    <desc>Created with Sketch.</desc>
    <g id="i-听厦门-v1.0.0" stroke="none" stroke-width="1" fill="none" fill-rule="evenodd">
        <g id="搜索-输入时" transform="translate(-15.000000, -123.000000)" fill="#999999" fill-rule="nonzero">
            <g id="ss" transform="translate(15.000000, 123.000000)">
                <path d="M15.2863848,15.4506886 L12.0616364,11.918758 C12.6093857,11.3140056 13.0459105,10.6246954 13.360366,9.86553238 C13.7231631,8.98962793 13.9071146,8.05961825 13.9071146,7.10134616 C13.9071146,6.14299066 13.7231631,5.21291838 13.3603864,4.33695136 C13.0101291,3.49122822 12.5088424,2.73185657 11.8704551,2.07992369 C11.2320677,1.42799081 10.4884807,0.916055802 9.66034168,0.558343723 C8.80258909,0.187845779 7.89179755,0 6.95333261,0 C6.01494938,0 5.10425994,0.18786663 4.24656864,0.558364574 C3.41849093,0.916055802 2.67494469,1.42799081 2.03659819,2.07994454 C1.39825168,2.73189827 0.896985481,3.49126992 0.546728174,4.33697221 C0.183951462,5.21293923 0,6.14299064 0,7.10134614 C0,8.05961823 0.183951462,8.98960706 0.546728174,9.86551151 C0.896985481,10.7111721 1.39823127,11.470502 2.03659819,12.122414 C2.67496511,12.774326 3.41849093,13.2862402 4.24656864,13.6439106 C5.10428037,14.0144085 6.01496981,14.2022751 6.95333261,14.2022751 C7.89181797,14.2022751 8.80256868,14.0144294 9.66034168,13.6439314 C10.1313408,13.4405048 10.5748502,13.1870403 10.9873574,12.8864578 L14.2754993,16.4831311 C14.4150916,16.6256737 14.5980219,16.6969449 14.7809522,16.6969449 C14.9638825,16.6969449 15.1468129,16.6256737 15.2864052,16.4831311 C15.5655286,16.1980044 15.5655286,15.7357945 15.2863848,15.4506886 Z M6.95331222,12.742205 C3.90752367,12.742205 1.42960126,10.2117309 1.42960126,7.10132529 C1.42960126,3.99071109 3.90752367,1.46002846 6.95331222,1.46002846 C9.99934586,1.46002846 12.4774725,3.99071109 12.4774725,7.10132529 C12.4774725,10.2117309 9.99934584,12.742205 6.95331222,12.742205 Z" id="Shape"></path>
            </g>
        </g>
    </g>
</svg>