<svg xmlns="http://www.w3.org/2000/svg" width="30" height="30" viewBox="0 0 30 30">
  <path d="M6.99987904,4.66667591 C5.71129446,4.66667591 4.66668528,5.71130622 4.66668528,6.99999538 C4.66668528,8.28868454 5.71129446,9.33333333 6.99987904,9.33333333 C8.28870554,9.33333333 9.33333333,8.28870303 9.33333333,6.99999538 C9.33333333,5.71128773 8.28870554,4.66667591 6.99987904,4.66667591 Z M6.99987904,0 C3.13421837,0 0,3.13440851 0,6.99999538 C0,10.8658595 6.99987904,18.6666667 6.99987904,18.6666667 C6.99987904,18.6666667 14,10.8658965 14,6.99999538 C14,3.13439002 10.8658002,5.2537831e-16 6.99987904,0 Z M6.99987904,11.6666713 C4.42276572,11.6666713 2.33319376,9.57717037 2.33319376,6.99999538 C2.33319376,4.42309767 4.42276572,2.33333795 6.99987904,2.33333795 C9.57725289,2.33333795 11.6668062,4.42309767 11.6668062,6.99999538 C11.6668062,9.57717037 9.57725289,11.6666713 6.99987904,11.6666713 Z" transform="translate(8 6)"/>
</svg>
