<svg xmlns="http://www.w3.org/2000/svg" width="22" height="22" viewBox="0 0 22 22">
  <path d="M11.0000622,2 C7.14046013,2 4,5.17249557 4,9.07146892 C4,12.835342 10.2726674,19.5184605 10.5392943,19.8006643 C10.6595076,19.9285827 10.8262301,20 11.0000622,20 L11.0140323,20 C11.1927862,20 11.3614726,19.9157256 11.4791504,19.7800728 L13.651118,17.2665551 C16.5369825,13.6955138 18,10.9382381 18,9.07146892 C18,5.17249555 14.8595399,2 11.0000622,2 Z M11.0000622,12.2857501 C9.24242764,12.2857501 7.81823833,10.8470328 7.81823833,9.07146892 C7.81823833,7.295905 9.24242764,5.8571877 11.0000622,5.8571877 C12.7576967,5.8571877 14.181886,7.295905 14.181886,9.07146892 C14.181886,10.8470328 12.7576967,12.2857501 11.0000622,12.2857501 Z"/>
</svg>
