<svg xmlns="http://www.w3.org/2000/svg" width="18" height="18" viewBox="0 0 18 18">
  <path fill="#8F8F8F" fill-rule="evenodd" stroke="#8F8F8F" stroke-width=".1" d="M3.96924749,11.6471921 L3.96924749,4.25812666 L4.59794953,4.25812666 L4.59794953,11.6471921 L3.96924749,11.6471921 Z M6.72616882,11.6471921 L6.72616882,4.25812666 L7.35487087,4.25812666 L7.35487087,11.6471921 L6.72616882,11.6471921 Z M9.48302729,11.6471921 L9.48302729,4.25812666 L10.1117293,4.25812666 L10.1117293,11.6471921 L9.48302729,11.6471921 Z M0,2.46716028 L0,1.87312188 L14,1.87312188 L14,2.46716028 L0,2.46716028 Z M8.16250152,1.10936671 L5.84824929,1.10936671 C5.84824929,1.10936671 5.84787207,1.10057494 5.84787207,1.09855521 C5.84787207,0.494536968 6.36604829,0 7.00531253,0 C7.64457677,0 8.16281587,0.492933065 8.16281587,1.09695131 C8.16281587,1.09891164 8.16243865,1.10936671 8.16250152,1.10936671 Z M10.673789,14 L3.14923141,14 C2.25804626,14 1.50504982,13.2684417 1.50504982,12.4023931 L1.50504982,3.18850111 L2.13375187,3.18850111 L2.13375187,12.4023931 C2.13375187,12.9463541 2.5987399,13.4059616 3.14923141,13.4059616 L10.673789,13.4059616 C11.2246577,13.4059616 11.6900229,12.9463541 11.6900229,12.4023931 L11.6900229,3.18850111 L12.318725,3.18850111 L12.318725,12.4023931 C12.318725,13.2684417 11.5654771,14 10.673789,14 Z" transform="translate(2 2)"/>
</svg>
