<svg xmlns="http://www.w3.org/2000/svg" width="18" height="18" viewBox="0 0 18 18">
  <g fill="#8F8F8F" transform="translate(3 2)">
    <path d="M10.875,13 L1.125,13 C0.4875,13 0,12.5029412 0,11.8529412 L0,1.91176471 C0,1.26176471 0.4875,0.764705882 1.125,0.764705882 L6,0.764705882 C6.225,0.764705882 6.375,0.917647059 6.375,1.14705882 C6.375,1.37647059 6.225,1.52941176 6,1.52941176 L1.125,1.52941176 C0.9,1.52941176 0.75,1.68235294 0.75,1.91176471 L0.75,11.8529412 C0.75,12.0823529 0.9,12.2352941 1.125,12.2352941 L10.875,12.2352941 C11.1,12.2352941 11.25,12.0823529 11.25,11.8529412 L11.25,6.88235294 C11.25,6.65294118 11.4,6.5 11.625,6.5 C11.85,6.5 12,6.65294118 12,6.88235294 L12,11.8529412 C12,12.5029412 11.5125,13 10.875,13 Z"/>
    <path d="M3.421875,9.17647059 C3.2953125,9.17647059 3.2109375,9.13823529 3.1265625,9.06176471 C2.9578125,8.90882353 2.9578125,8.67941176 3.1265625,8.52647059 L11.2828125,0.114705882 C11.4515625,-0.0382352941 11.7046875,-0.0382352941 11.8734375,0.114705882 C12.0421875,0.267647059 12.0421875,0.497058824 11.8734375,0.65 L3.7171875,9.06176471 C3.6328125,9.13823529 3.5484375,9.17647059 3.421875,9.17647059 Z"/>
  </g>
</svg>
