<?xml version="1.0" encoding="UTF-8" standalone="no"?>
<svg width="31px" height="30px" viewBox="0 0 31 30" version="1.1" xmlns="http://www.w3.org/2000/svg" xmlns:xlink="http://www.w3.org/1999/xlink">
    <!-- Generator: Sketch 48.2 (47327) - http://www.bohemiancoding.com/sketch -->
    <title>shdz@3x</title>
    <desc>Created with Sketch.</desc>
    <defs></defs>
    <g id="我的" stroke="none" stroke-width="1" fill="none" fill-rule="evenodd" transform="translate(-20.000000, -208.000000)">
        <g id="Group-15" transform="translate(21.000000, 208.000000)" fill="#000000" fill-rule="nonzero">
            <path d="M24.5526386,22.5263443 L21.7876131,17.8867642 L19.5000021,17.8867642 L18.6048499,18.8871198 L21.0913837,18.8871198 L23.6177019,23.0782646 L23.6574865,23.1127596 C23.7967324,23.2679872 23.7967324,23.4749573 23.697271,23.6474324 C23.5978097,23.8199075 23.398887,23.9233926 23.1601797,23.9233926 L6.74905708,23.9233926 C6.51034984,23.9233926 6.31142715,23.8199075 6.2119658,23.6474324 C6.11250445,23.4577098 6.13239672,23.2679872 6.27164261,23.0955121 L6.29153488,23.0782646 L8.77806861,18.8698723 L11.6027709,18.8698723 L10.6678342,17.8695167 L8.08183916,17.8695167 L5.31681365,22.5263443 C4.93886052,22.9920271 4.89907598,23.5784424 5.19746003,24.0613727 C5.51573635,24.578798 6.09261218,24.8892531 6.76894935,24.8892531 L23.180072,24.8892531 C23.8365169,24.8892531 24.433285,24.578798 24.7316691,24.0613727 C24.9902686,23.5611949 24.9305918,22.9747796 24.5526386,22.5263443 Z" id="Shape"></path>
            <g id="地址-2" transform="translate(8.509868, 5.000000)">
                <path d="M10.1937433,11.9275401 C9.65634474,12.566349 8.81041887,13.9278977 7.32724381,15.8874555 C7.07930002,16.2033628 6.73935899,16.3793849 6.37810153,16.3793849 C6.01460023,16.3793849 5.68026878,16.2010314 5.4390565,15.8921183 C5.40203322,15.8396614 2.56582554,11.7386952 2.56582554,11.7386952 L2.56582554,11.7375295 C1.55722162,10.5613286 0,8.20542954 0,6.56411049 C0,2.94458233 2.81152549,0 6.38595495,0 C9.96038441,0 12.8695167,2.94458233 12.8695167,6.56411049 C12.8683948,8.68337046 10.4674912,11.5999758 10.1937433,11.9275401 Z M6.38595495,1.02232728 C3.36799662,1.02232728 0.912119005,3.50878575 0.912119005,6.56411049 C0.912119005,7.88952226 2.37285571,10.1521645 3.29395006,11.2665828 C4.30143206,12.4847493 6.14586458,15.1693784 6.22439882,15.283618 C6.25469059,15.3220864 6.31190839,15.3570577 6.36463852,15.3570577 C6.41849056,15.3570577 6.47570836,15.3220864 6.52619465,15.2579723 C7.9768341,13.3415458 8.84071065,11.9590143 9.4241078,11.2642514 C10.5976336,9.86889708 11.8597909,7.80442546 11.8597909,6.5652762 C11.858669,3.50878575 9.40391328,1.02232728 6.38595495,1.02232728 Z M6.38595495,9.11934583 C4.72551691,9.11934583 3.37360621,7.75196853 3.37360621,6.06984964 C3.37360621,4.38773076 4.72551691,3.02035345 6.38595495,3.02035345 C8.04639299,3.02035345 9.39718177,4.38773076 9.39718177,6.06984964 C9.39718177,7.75196853 8.04639299,9.11934583 6.38595495,9.11934583 Z M6.38595495,4.04268073 C5.28086612,4.04268073 4.38221013,4.95309989 4.38221013,6.06984964 C4.38221013,7.1877651 5.28086612,8.09701856 6.38595495,8.09701856 C7.49104378,8.09701856 8.38969977,7.18659939 8.38969977,6.06984964 C8.38857786,4.95309989 7.48992186,4.04268073 6.38595495,4.04268073 Z" id="Shape"></path>
            </g>
        </g>
    </g>
</svg>