<svg xmlns="http://www.w3.org/2000/svg" width="22" height="22" viewBox="0 0 22 22">
  <path d="M14.2220449,1.79960152 L10.5069007,1.79960152 C10.1334397,0.755811105 9.155591,0 7.99978724,0 C6.84462171,0 5.86645391,0.755811105 5.49320567,1.79960152 L1.77774231,1.79960152 C0.800212727,1.79960152 0,2.60947605 0,3.59920304 L0,16.1991061 C0,17.1894793 0.800212745,18 1.77774231,18 L14.2219385,18 C15.1997872,18 16,17.1894793 16,16.1991061 L16,3.59909536 C16.0002127,2.60936837 15.1998936,1.79960152 14.2220449,1.79960152 Z M7.99978724,1.79960152 C8.48855202,1.79960152 8.88913706,2.20486187 8.88913706,2.70004846 C8.88913706,3.19458887 8.48855204,3.59920304 7.99978724,3.59920304 C7.51166066,3.59920304 7.11107563,3.19458887 7.11107563,2.70004846 C7.11107563,2.20486187 7.51166066,1.79960152 7.99978724,1.79960152 Z M9.77752955,14.3993969 L3.5559101,14.3993969 L3.5559101,12.5997954 L9.77752955,12.5997954 L9.77752955,14.3993969 Z M12.4446217,10.7995477 L3.5559101,10.7995477 L3.5559101,8.99929997 L12.4447281,8.99929997 L12.4447281,10.7995477 L12.4446217,10.7995477 Z M12.4446217,7.19969845 L3.5559101,7.19969845 L3.5559101,5.40009693 L12.4447281,5.40009693 L12.4447281,7.19969845 L12.4446217,7.19969845 Z" transform="translate(3 2)"/>
</svg>
