<svg xmlns="http://www.w3.org/2000/svg" width="30" height="30" viewBox="0 0 30 30">
  <g fill-rule="evenodd" transform="translate(8 8)">
    <path fill-rule="nonzero" d="M12.444453,4 L3.55585519,4 C3.24902148,4 3,4.44833333 3,5 C3,5.55166667 3.24902148,6 3.55585519,6 L12.444453,6 C12.750696,6 13,5.55166667 13,5 C13,4.44833333 12.750696,4 12.444453,4 Z"/>
    <path d="M12.6108198 13.9939558L2.39422501 14C1.6274891 13.9994421 1.00562208 13.4237573 1.00444245 12.7138454L1 10.0199551C1 9.74113249 1.24247719 9.5160101 1.54260577 9.5160101 1.58577529 9.5160101 1.66443418 9.52860989 1.66443418 9.52860989L1.72800883 9.55050841C1.74188834 9.55434414 1.75491449 9.55764519 1.76763946 9.56364287 2.24134968 9.7263475 2.53437537 9.81670797 3.05421675 9.81670797L3.05747956 9.81670797C3.90907371 9.81670797 4.70893972 9.57624266 5.33552527 9.08215433 5.95796957 9.57184901 6.75339313 9.7701678 7.60764772 9.77451495 8.43208523 9.77014455 9.22924059 9.49515768 9.85733206 9 10.4859757 9.49571561 11.1382873 9.65293398 11.9934203 9.69510375 12.3807915 9.71537499 12.8964665 9.63540587 13.2980435 9.48860207 13.3484776 9.4711444 13.4015694 9.46116508 13.4553612 9.45903209 13.755791 9.45903209 13.9982431 9.68306189 13.9982431 9.96132656L14 12.7045001C13.9999749 13.4138542 13.3754725 13.992282 12.6108198 13.9939558zM13.4500044 7.66475293C13.0465043 7.88041708 12.5681791 7.99138515 12.0280289 7.9942405 11.1367537 7.9942405 10.3132284 7.61472334 9.75360325 6.96377736 9.19660971 7.613531 8.37477671 7.99088516 7.50687757 7.99538752 6.6212023 7.99079944 5.80622705 7.61128228 5.24867688 6.96548568 4.6861267 7.62162987 3.85462645 8 2.97840118 8L2.97722618 8C2.44855102 8 1.97785088 7.89535274 1.57790076 7.68603381.300200366 7.02359322-.302999818 5.55894645.14940032 4.21737247.154400321 4.19265053.160875323 4.16792859.168850326 4.14318225L1.53077574 1.00056741C1.74195081.387570697 2.32220098 0 3.06942621 0L11.9691039 0C12.7307792 0 13.3375293.394477221 13.5566544 1.03104885L14.8219798 4.11155378C14.837201 4.14693585 14.8478821 4.18401946 14.8537798 4.22196055L14.8549548 4.22196055C15.2955799 5.5503316 14.7053548 6.99599153 13.4500044 7.66475293z"/>
  </g>
</svg>
