<?xml version="1.0" encoding="UTF-8"?>
<svg width="33px" height="33px" viewBox="0 0 33 33" version="1.1" xmlns="http://www.w3.org/2000/svg" xmlns:xlink="http://www.w3.org/1999/xlink">
    <!-- Generator: Sketch 49.3 (51167) - http://www.bohemiancoding.com/sketch -->
    <title>sys@3x</title>
    <desc>Created with Sketch.</desc>
    <defs></defs>
    <g id="新版" stroke="none" stroke-width="1" fill="none" fill-rule="evenodd">
        <g id="支付成功-copy-6" transform="translate(-111.000000, -144.000000)" fill="#E84653" fill-rule="nonzero">
            <g id="sys" transform="translate(111.000000, 144.000000)">
                <path d="M31.0888696,33 L21.648,33 L21.648,30.9611739 L30.9611739,30.9611739 L30.9611739,21.858913 L33,21.858913 L33,31.0888696 C33,32.1443578 32.1443578,33 31.0888696,33 Z M30.9611739,2.0388261 L21.648,2.0388261 L21.648,0 L31.0888696,0 C31.5957329,0 32.0818364,0.201350663 32.4402429,0.559757141 C32.7986493,0.918163619 33,1.40426712 33,1.91113042 L33,11.141087 L30.9611739,11.141087 L30.9611739,2.0388261 Z M17.6119565,11.8642174 L21.4234565,11.8642174 L21.4234565,15.6757174 L17.6119565,15.6757174 L17.6119565,11.8642174 Z M17.6119565,6.20758694 L21.4234565,6.20758694 L21.4234565,10.0183696 L17.6119565,10.0183696 L17.6119565,6.20758694 Z M27.1468043,6.20686955 L27.1468043,15.7955217 L25.1086957,15.7955217 L25.1086957,6.20686955 L27.1468043,6.20686955 Z M27.2063478,26.7601304 L17.5452391,26.7601304 L17.5452391,17.0983043 L27.2063478,17.0983043 L27.2063478,26.7601304 Z M25.1682391,19.1371304 L19.5840652,19.1371304 L19.5840652,24.7213044 L25.1682391,24.7213044 L25.1682391,19.1371304 Z M6.70689132,6.14086957 L16.368,6.14086957 L16.368,15.8019783 L6.70689132,15.8019783 L6.70689132,6.14086957 Z M8.74571738,13.7638696 L14.3298913,13.7638696 L14.3298913,8.17969567 L8.74571738,8.17969567 L8.74571738,13.7638696 Z M2.0388261,11.141087 L0,11.141087 L0,1.91113042 C-5.37613432e-16,1.40426712 0.201350663,0.918163619 0.559757141,0.559757141 C0.918163619,0.201350663 1.40426712,0 1.91113042,0 L11.352,0 L11.352,2.0388261 L2.0388261,2.0388261 L2.0388261,11.141087 Z M6.81234782,17.2051957 L10.6238478,17.2051957 L10.6238478,21.0166957 L6.81234782,21.0166957 L6.81234782,17.2051957 Z M10.6238478,26.6733261 L6.81234782,26.6733261 L6.81234782,22.8618261 L10.6238478,22.8618261 L10.6238478,26.6733261 Z M2.0388261,30.9611739 L11.352,30.9611739 L11.352,33 L1.91113042,33 C1.40426712,33 0.918163619,32.7986493 0.559757141,32.4402429 C0.201350663,32.0818364 0,31.5957329 0,31.0888696 L0,21.858913 L2.0388261,21.858913 L2.0388261,30.9611739 Z M16.347913,26.7931305 L14.3098043,26.7931305 L14.3098043,17.2044783 L16.347913,17.2044783 L16.347913,26.7931305 Z" id="Shape"></path>
            </g>
        </g>
    </g>
</svg>