<?xml version="1.0" encoding="UTF-8" standalone="no"?>
<svg width="14px" height="14px" viewBox="0 0 14 14" version="1.1" xmlns="http://www.w3.org/2000/svg" xmlns:xlink="http://www.w3.org/1999/xlink">
    <!-- Generator: Sketch 48.2 (47327) - http://www.bohemiancoding.com/sketch -->
    <title>tj@3x</title>
    <desc>Created with Sketch.</desc>
    <defs></defs>
    <g id="商城" stroke="none" stroke-width="1" fill="none" fill-rule="evenodd" transform="translate(-15.000000, -140.000000)">
        <g id="Group-2" transform="translate(15.000000, 140.000000)" fill="#FFFFFF" fill-rule="nonzero">
            <g id="tj">
                <path d="M7,0 C3.14006601,0 0,3.14006601 0,7 C0,10.859934 3.14006601,14 7,14 C10.859934,14 14,10.859934 14,7 C14,3.14006601 10.859934,0 7,0 Z M7,13.1221122 C3.6203287,13.1185469 0.881453115,10.3796713 0.877887789,7 C0.881961273,3.62053952 3.62053952,0.881961273 7,0.877887789 C10.3796713,0.881453115 13.1185469,3.6203287 13.1221122,7 C13.1185469,10.3796713 10.3796713,13.1185469 7,13.1221122 Z" id="Shape"></path>
                <path d="M10.2164107,5.14731689 L6.6138319,8.94416165 L4.72341608,7.20601419 C4.53149474,7.05994249 4.25741148,7.09064415 4.10319206,7.27548909 C3.94897264,7.46033404 3.9699158,7.73304209 4.15058441,7.89260115 L6.36743335,9.90003336 C6.44566939,9.96423369 6.53919292,9.98920049 6.63361573,9.99365885 C6.65339955,9.99544219 6.67318338,10.0007922 6.69386647,9.99990055 C6.70285912,9.99900888 6.7109525,9.99455052 6.71994515,9.99365885 C6.82648071,9.98211797 6.92519405,9.93270293 6.99781797,9.85455812 L10.8845645,5.7447367 C11.0506446,5.56177177 11.0357499,5.27996578 10.8512917,5.11521672 C10.6667686,4.94964733 10.3825628,4.9644162 10.2164107,5.14731689 Z" id="Shape"></path>
            </g>
        </g>
    </g>
</svg>