<?xml version="1.0" encoding="utf-8"?>
<!-- Generator: Adobe Illustrator 22.0.1, SVG Export Plug-In . SVG Version: 6.00 Build 0)  -->
<svg version="1.1" id="图层_1" xmlns="http://www.w3.org/2000/svg" xmlns:xlink="http://www.w3.org/1999/xlink" x="0px" y="0px"
	 viewBox="0 0 68.4 68.4" style="enable-background:new 0 0 68.4 68.4;" xml:space="preserve">
<style type="text/css">
	.st0{fill:#FF0000;}
</style>
<path class="st0" d="M34.2,0C15.3,0,0,15.3,0,34.2c0,18.9,15.3,34.2,34.2,34.2c18.9,0,34.2-15.3,34.2-34.2C68.4,15.3,53.1,0,34.2,0z
	 M55.8,55.8c-5.8,5.8-13.4,9-21.6,9c-8.2,0-15.8-3.2-21.6-9C6.8,50,3.6,42.4,3.6,34.2c0-8.2,3.2-15.8,8.9-21.6
	c5.8-5.8,13.4-9,21.6-9c8.2,0,15.8,3.2,21.6,9c5.8,5.8,9,13.4,9,21.6C64.8,42.4,61.6,50,55.8,55.8z"/>
<path class="st0" d="M34.1,45.6c1.6,0,2.9-1.3,2.9-2.8V11.4c0-1.6-1.3-2.8-2.9-2.8c-1.6,0-2.8,1.3-2.8,2.8v31.4
	C31.3,44.3,32.5,45.6,34.1,45.6z"/>
<path class="st0" d="M34.1,51.9c-2,0-3.7,1.7-3.7,3.7c0,2,1.7,3.7,3.7,3.7c2,0,3.7-1.7,3.7-3.7C37.8,53.5,36.2,51.9,34.1,51.9z"/>
</svg>
