<?xml version="1.0" encoding="UTF-8"?>
<svg width="22px" height="22px" viewBox="0 0 22 22" version="1.1" xmlns="http://www.w3.org/2000/svg" xmlns:xlink="http://www.w3.org/1999/xlink">
    <!-- Generator: Sketch 49.3 (51167) - http://www.bohemiancoding.com/sketch -->
    <title>wddd@3x</title>
    <desc>Created with Sketch.</desc>
    <defs></defs>
    <g id="总平台版" stroke="none" stroke-width="1" fill="none" fill-rule="evenodd">
        <g id="总平台我的-已登陆" transform="translate(-206.000000, -408.000000)">
            <g id="官方客服-copy-2" transform="translate(194.000000, 396.000000)">
                <g id="客服-2" transform="translate(12.000000, 12.000000)">
                    <g id="dingdan" transform="translate(4.000000, 2.000000)">
                        <path d="M9.95451185,0.488889082 C9.95451185,0.218883098 10.1738131,-2.84217094e-14 10.4443349,-2.84217094e-14 L10.934158,-2.84217094e-14 C11.2046798,-2.84217094e-14 11.4239811,0.218883098 11.4239811,0.488889082 L11.4239811,2.44429784 C11.4239811,2.57395929 11.3723749,2.69831014 11.2805152,2.78999463 C11.1886556,2.88167911 11.0640672,2.93318692 10.934158,2.93318692 L10.4443349,2.93318692 C10.1738131,2.93318692 9.95451185,2.71430383 9.95451185,2.44429784 L9.95451185,0.488889082 Z M3.38026711,0.488889082 C3.38026711,0.218883098 3.59956837,-2.84217094e-14 3.87009019,-2.84217094e-14 L4.35991326,-2.84217094e-14 C4.63043508,-2.84217094e-14 4.84973634,0.218883098 4.84973634,0.488889082 L4.84973634,2.44429784 C4.84973634,2.71430383 4.63043508,2.93318692 4.35991326,2.93318692 L3.87009019,2.93318692 C3.59956837,2.93318692 3.38026711,2.71430383 3.38026711,2.44429784 L3.38026711,0.488889082 Z M14.9997043,15.9651135 C14.9997043,16.53664 14.5520181,17 13.999655,17 L1.00004928,17 C0.447834015,17 3.41060513e-13,16.53664 3.41060513e-13,15.9651135 L3.41060513e-13,2.51247374 C3.41060513e-13,1.94094721 0.447686166,1.47758719 1.00004928,1.47758719 L2.75826721,1.47758719 L2.75826721,2.44415028 C2.75826721,3.05596257 3.25696121,3.55385323 3.87009019,3.55385323 L4.35991326,3.55385323 C4.97289439,3.55385323 5.47173624,3.05611014 5.47173624,2.44415028 L5.47173624,1.47758719 L9.33251195,1.47758719 L9.33251195,2.44415028 C9.33251195,3.05596257 9.83120595,3.55385323 10.4443349,3.55385323 L10.934158,3.55385323 C11.5471391,3.55385323 12.045981,3.05611014 12.045981,2.44415028 L12.045981,1.47758719 L13.9999507,1.47758719 C14.552166,1.47758719 15,1.94094721 15,2.51247374 L15,15.9651135 L14.9997043,15.9651135 Z" id="Shape" fill="#000000" fill-rule="nonzero"></path>
                        <g id="Group-3" transform="translate(2.000000, 6.000000)" fill="#FFFFFF">
                            <rect id="Rectangle-39" x="0" y="6" width="11" height="1.5" rx="0.75"></rect>
                            <rect id="Rectangle-39" x="0" y="0" width="11" height="1.5" rx="0.75"></rect>
                            <rect id="Rectangle-39" x="0" y="3" width="11" height="1.5" rx="0.75"></rect>
                        </g>
                    </g>
                </g>
            </g>
        </g>
    </g>
</svg>