<?xml version="1.0" encoding="UTF-8"?>
<svg width="22px" height="22px" viewBox="0 0 22 22" version="1.1" xmlns="http://www.w3.org/2000/svg" xmlns:xlink="http://www.w3.org/1999/xlink">
    <!-- Generator: Sketch 49.3 (51167) - http://www.bohemiancoding.com/sketch -->
    <title>pwls@3x</title>
    <desc>Created with Sketch.</desc>
    <defs></defs>
    <g id="总平台版" stroke="none" stroke-width="1" fill="none" fill-rule="evenodd">
        <g id="总平台我的-已登陆" transform="translate(-36.000000, -492.000000)" fill="#000000" fill-rule="nonzero">
            <g id="官方客服-copy" transform="translate(24.000000, 480.000000)">
                <g id="客服-2" transform="translate(12.000000, 12.000000)">
                    <g id="Group-2" transform="translate(2.000000, 2.000000)">
                        <path d="M16.8864332,18 L1.11594263,18 C0.766817633,17.9626811 0.449535258,17.7800551 0.241853539,17.4968791 C0.0341718195,17.2137031 -0.0447143395,16.8561496 0.0245281017,16.5118459 C0.0245281017,13.7141163 5.33562957,10.886062 5.33562959,10.886062 L7.82948929,15.6099684 L8.27863106,14.4643706 L7.57572418,13.0525897 L8.98153794,11.6441783 L10.3873517,13.0559591 L9.6844448,14.4666169 L10.0639696,15.589752 L12.6285691,10.893924 C12.6285691,10.893924 17.9778477,13.902803 17.9778477,16.5275698 C18.0432213,16.8696518 17.9624227,17.2234865 17.7550488,17.5032551 C17.5476749,17.7830238 17.2326694,17.9631695 16.8864332,18 Z M12.8037344,7.24485793 C12.5730489,8.17598505 12.1208002,9.03755308 11.4855033,9.75618809 C10.846814,10.4102644 10.0188493,10.8471368 9.11852618,11.0051144 L9.03992636,11.0208383 L8.9624494,11.0073606 C8.08747781,10.8750328 7.27963112,10.4605579 6.66172067,9.82694561 C5.99332307,9.09938064 5.51435658,8.21835573 5.26713546,7.26170495 C4.9795577,7.09742445 4.75864791,6.83751236 4.6428284,6.52717458 C4.47527396,6.07272899 4.40155264,5.58902673 4.4261175,5.1052855 L4.4261175,4.88065847 L4.61138848,4.75599047 C4.67093341,4.71441709 4.73320508,4.67689465 4.79778231,4.64367696 C4.51819156,2.92752648 4.5911771,1.46520453 5.62644888,0.488076944 C6.44950118,-0.115046629 7.8979834,0.294897696 9.21958307,0.0972259279 C12.9991111,-0.464341635 12.9732854,1.45060378 13.3516874,4.70769566 L13.416813,4.75037479 L13.5998382,4.87504279 L13.5998382,5.09966982 C13.6209444,5.57561635 13.5515988,6.0512479 13.3954787,6.50134248 C13.2882783,6.80915647 13.0796047,7.07135095 12.8037344,7.24485793 Z M12.3422413,5.52758431 L12.2838528,5.3355282 L12.1603388,5.34226701 L12.089599,4.97050928 C12.0368249,4.68186354 11.9514879,3.17349306 11.842571,2.93314214 C11.4728648,2.98505762 11.0989093,2.873089 10.8185278,2.62652625 L10.6489768,3.15103036 L10.3794917,3.11509003 L10.415423,2.79611966 L10.130218,3.25211253 L9.87645293,3.20157145 L10.1257266,2.52207469 C8.79065268,3.45203058 6.48655538,3.40373577 6.18113897,2.98817576 C6.14241143,3.05495783 6.11544482,3.12789987 6.1014163,3.20381771 C6.03853645,3.45539998 5.96667377,5.01318842 5.90491678,5.26140129 L5.88695111,5.35237522 L5.88133683,5.35237522 C5.86935972,5.40403944 5.85700832,5.44896485 5.84428264,5.48715144 C5.6594143,5.43922511 5.46475301,5.44467699 5.28285543,5.50287534 C5.2954255,5.73955209 5.34427825,5.97289175 5.42770365,6.19472658 C5.47548323,6.35101799 5.59089641,6.47759194 5.74210289,6.53952906 L5.96667377,6.61028658 L6.02955362,6.83491361 C6.23112479,7.72377983 6.6562669,8.54644215 7.26469351,9.22494518 C7.735921,9.70765805 8.34727235,10.029523 9.01185501,10.1447929 C9.71150213,10.0119948 10.353955,9.66874514 10.8533363,9.16092647 C11.4296673,8.49135248 11.8295442,7.68831016 12.0166135,6.82480539 L12.0750019,6.60691717 L12.2894671,6.53054399 C12.4371221,6.46192213 12.5485941,6.33367694 12.5960064,6.17787955 C12.6767938,5.96198884 12.7219234,5.73438797 12.729626,5.50399848 C12.6001689,5.50492195 12.4708546,5.51279522 12.3422413,5.52758431 Z" id="Shape"></path>
                    </g>
                </g>
            </g>
        </g>
    </g>
</svg>