<?xml version="1.0" encoding="UTF-8" standalone="no"?>
<svg width="30px" height="30px" viewBox="0 0 30 30" version="1.1" xmlns="http://www.w3.org/2000/svg" xmlns:xlink="http://www.w3.org/1999/xlink">
    <!-- Generator: Sketch 48.2 (47327) - http://www.bohemiancoding.com/sketch -->
    <title>wdsc@3x</title>
    <desc>Created with Sketch.</desc>
    <defs></defs>
    <g id="我的" stroke="none" stroke-width="1" fill="none" fill-rule="evenodd" transform="translate(-20.000000, -159.000000)">
        <g id="Group-9" transform="translate(0.000000, 149.000000)" fill="#000000" fill-rule="nonzero">
            <g id="账号管理" transform="translate(20.000000, 10.000000)">
                <g id="Group-5">
                    <g id="收藏" transform="translate(5.000000, 6.000000)">
                        <path d="M14.4373594,18.05 C14.209471,18.05 13.9815827,17.9935349 13.7347037,17.8617831 L9.89858313,15.866684 C9.80362965,15.810219 9.67069478,15.7725756 9.51876922,15.7725756 C9.38583435,15.7725756 9.23390878,15.810219 9.13895531,15.8478624 L5.32182548,17.8617831 C5.09393713,17.9935349 4.86604879,18.05 4.60017905,18.05 C4.14440235,18.05 3.70761635,17.8429614 3.40376522,17.504171 C3.09991409,17.1653806 2.98596992,16.7136601 3.0619327,16.2619395 L3.80256983,12.0458811 C3.84055122,11.7823775 3.74559774,11.5188738 3.55569079,11.3306569 L0.479198092,8.37565172 C0.0424120921,7.96157456 -0.109513473,7.3592805 0.0803934834,6.79462982 C0.27030044,6.22997914 0.745067831,5.83472367 1.3337794,5.74061522 L5.58769522,5.11949948 C5.85356496,5.0818561 6.100444,4.9124609 6.21438818,4.68660063 L8.11345774,0.846976017 C8.37932748,0.319968717 8.91106696,0 9.49977852,0 C10.0884901,0 10.6202296,0.319968717 10.8860993,0.846976017 L12.7851689,4.68660063 C12.9181037,4.93128259 13.1459921,5.0818561 13.4118618,5.11949948 L17.6657776,5.74061522 C18.2544892,5.83472367 18.7292566,6.22997914 18.9191636,6.77580813 C19.1090705,7.34045881 18.957145,7.94275287 18.5393496,8.35683003 L15.4818476,11.3306569 C15.27295,11.5188738 15.1969872,11.7823775 15.2349686,12.0458811 L15.956615,16.2431178 C16.0325778,16.6948384 15.9186336,17.1465589 15.6147825,17.4853493 C15.3299221,17.8429614 14.8931361,18.05 14.4373594,18.05 Z M14.2552313,17.0273327 C14.3513743,17.0654476 14.4282887,17.0845051 14.4859744,17.0845051 C14.6205746,17.0845051 14.7551748,17.0273327 14.8513177,16.9129879 C14.9474607,16.7986431 14.9666893,16.6461833 14.9474607,16.5508959 L14.2167741,12.30108 C14.1014026,11.691241 14.3129171,11.0242295 14.7744033,10.6049651 L17.870207,7.57482732 C17.9855786,7.4604825 18.0240357,7.28896527 17.9855786,7.09839056 C17.9278928,6.92687333 17.7932926,6.8125285 17.6010067,6.79347103 L13.2938016,6.16457451 C12.659258,6.06928715 12.1016288,5.68813774 11.8324285,5.11641363 L9.90956905,1.24774712 C9.83265468,1.07622988 9.67882592,1 9.50576858,1 C9.33271123,1 9.17888248,1.09528735 9.08273951,1.26680459 L7.1598801,5.11641363 C6.89067979,5.66908027 6.33305056,6.06928715 5.69850696,6.16457451 L1.39130189,6.79347103 C1.21824454,6.83158598 1.08364438,6.9459308 1.0259586,7.09839056 L1.0259586,7.11744803 C0.96827282,7.28896527 1.00673001,7.44142503 1.14133017,7.57482732 L4.2563624,10.6049651 C4.71784866,11.043287 4.9101346,11.6721835 4.81399163,12.30108 L4.08330506,16.5508959 C4.06407646,16.6461833 4.06407646,16.7795856 4.17944803,16.8939304 C4.275591,17.0082752 4.41019115,17.0654476 4.54479131,17.0654476 C4.64093428,17.0654476 4.69862007,17.0463902 4.75630585,17.0273327 L8.64048185,15.0072408 C8.89045357,14.8547811 9.19811107,14.7785512 9.52499717,14.7785512 C9.81342608,14.7785512 10.1210836,14.8547811 10.4095125,15.0072408 L14.2552313,17.0273327 Z" id="Shape"></path>
                    </g>
                </g>
            </g>
        </g>
    </g>
</svg>