<svg xmlns="http://www.w3.org/2000/svg" width="30" height="30" viewBox="0 0 30 30">
  <path d="M13.6774984,17.1 C13.4616041,17.1 13.2457099,17.0465068 13.0118245,16.9216893 L9.37760507,15.0315954 C9.28764914,14.9781022 9.16171085,14.94244 9.01778136,14.94244 C8.89184307,14.94244 8.74791358,14.9781022 8.65795766,15.0137643 L5.0417294,16.9216893 C4.82583518,17.0465068 4.60994095,17.1 4.35806436,17.1 C3.92627591,17.1 3.51247865,16.9038582 3.22461968,16.5828989 C2.93676072,16.2619395 2.82881361,15.8339937 2.90077835,15.406048 L3.60243458,11.4118874 C3.63841695,11.1622523 3.54846102,10.9126173 3.36854917,10.7343066 L0.45397714,7.93482795 C0.0401798767,7.54254432 -0.103749606,6.97194995 0.0761622474,6.43701773 C0.256074101,5.90208551 0.705853735,5.52763295 1.26358048,5.43847758 L5.293606,4.85005214 C5.54548259,4.81438999 5.779368,4.65391032 5.88731511,4.43993743 L7.68643365,0.802398332 C7.93831024,0.303128259 8.44206343,0 8.99979018,0 C9.55751692,0 10.0612701,0.303128259 10.3131467,0.802398332 L12.1122652,4.43993743 C12.2382035,4.6717414 12.4540978,4.81438999 12.7059744,4.85005214 L16.7359999,5.43847758 C17.2937266,5.52763295 17.7435063,5.90208551 17.9234181,6.41918665 C18.10333,6.95411887 17.9594005,7.52471324 17.5635944,7.91699687 L14.6670136,10.7343066 C14.4691105,10.9126173 14.3971458,11.1622523 14.4331282,11.4118874 L15.1167932,15.3882169 C15.1887579,15.8161627 15.0808108,16.2441084 14.7929519,16.5650678 C14.5230841,16.9038582 14.1092868,17.1 13.6774984,17.1 Z" transform="translate(5 6)"/>
</svg>
