<svg xmlns="http://www.w3.org/2000/svg" width="16" height="14" viewBox="0 0 16 14">
  <path d="M15.4667415,14 L0.533311541,14 C0.238543032,14 0,13.7591875 0,13.4615611 L0,9.15449587 C0,8.8574046 0.238543032,8.61605697 0.533311541,8.61605697 C0.828080049,8.61605697 1.06662308,8.8574046 1.06662308,9.15449587 L1.06662308,12.9231936 L14.9333592,12.9231936 L14.9333592,9.15449587 C14.9333592,8.8574046 15.1719023,8.61605697 15.4667238,8.61605697 C15.761457,8.61605697 16,8.8574046 16,9.15449587 L16,13.4615433 C16.0000177,13.7591875 15.7614746,14 15.4667415,14 Z M5.72395491,6.08370846 L7.4833423,8.2362154 L7.4833423,0.539509176 C7.4833423,0.241347633 7.72188533,0 8.0166185,0 C8.31144002,0 8.54998305,0.241347633 8.54998305,0.539509176 L8.54998305,8.21570174 L10.2926724,6.08370846 C10.5015301,5.87125833 10.8406146,5.87125833 11.0494723,6.08370846 C11.2588601,6.29556994 11.2588601,6.63939667 11.0494723,6.85131166 L8.41348342,10.0768969 C8.30198664,10.1899896 8.15408996,10.2383305 8.00827833,10.2304818 C7.86255504,10.2383305 7.71457001,10.1899896 7.60263148,10.0768969 L4.96717272,6.85131166 C4.75778495,6.63945018 4.75778495,6.29556994 4.96717272,6.08370846 C5.17601273,5.871294 5.51509723,5.871294 5.72395491,6.08370846 Z" opacity=".4"/>
</svg>
