<?xml version="1.0" encoding="UTF-8"?>
<svg width="27px" height="12px" viewBox="0 0 27 12" version="1.1" xmlns="http://www.w3.org/2000/svg" xmlns:xlink="http://www.w3.org/1999/xlink">
    <!-- Generator: Sketch 49.3 (51167) - http://www.bohemiancoding.com/sketch -->
    <title>yb2@3x</title>
    <desc>Created with Sketch.</desc>
    <defs>
        <linearGradient x1="98.134935%" y1="1.86506503%" x2="0%" y2="100%" id="linearGradient-1">
            <stop stop-color="#FDEE99" stop-opacity="0.216145833" offset="0%"></stop>
            <stop stop-color="#FBD860" offset="100%"></stop>
        </linearGradient>
    </defs>
    <g id="Page-1" stroke="none" stroke-width="1" fill="none" fill-rule="evenodd">
        <g id="首页一屏" transform="translate(-239.000000, -566.000000)">
            <g id="Group-10" transform="translate(110.000000, 556.000000)">
                <g id="yb2" transform="translate(128.000000, 6.000000)">
                    <g id="音乐" opacity="0.229506341" transform="translate(0.000000, 1.000000)" fill="#FBD860" fill-rule="nonzero">
                        <path d="M13.4947048,7.7758319 C13.4245908,7.7663389 13.361989,7.71887393 13.3068994,7.63343699 C13.2518098,7.54800005 13.2092406,7.39136566 13.1791918,7.16353381 C13.1291103,6.79330706 13.0014027,6.5203835 12.7960689,6.34476312 C12.590735,6.16914273 12.2727179,6.04336057 11.8420177,5.96741662 C11.3912848,5.88197968 10.9931375,5.70873255 10.6475756,5.44767522 C10.3020138,5.1866179 10.0140456,4.94217332 9.78367102,4.71434147 C9.56331274,4.51498861 9.39303589,4.44379115 9.27284047,4.50074912 C9.15264504,4.55770708 9.09254733,4.66213001 9.09254733,4.8140179 L9.09254733,5.42631599 L9.09254733,6.76482808 C9.09254733,7.29643572 9.09004326,7.87076183 9.08503512,8.48780641 C9.08002697,9.104851 9.0775229,9.6886701 9.0775229,10.2392637 L9.0775229,11.6916917 L9.0775229,12.5033427 C9.08753919,12.7311745 9.04997812,12.9851121 8.96483969,13.2651554 C8.87970127,13.5451987 8.7194407,13.8086293 8.48405799,14.0554471 C8.24867529,14.302265 7.93566637,14.5134841 7.54503124,14.6891045 C7.15439611,14.8647248 6.66860627,14.9667745 6.08766171,14.9952535 C5.49670087,15.0237325 4.96333368,14.9240561 4.48756012,14.6962242 C4.01178656,14.4683924 3.64368808,14.1812293 3.38326466,13.834735 C3.12284124,13.4882408 2.9951336,13.108521 3.00014174,12.6955758 C3.00514988,12.2826306 3.19295523,11.8957911 3.56355779,11.5350573 C3.93416035,11.1743236 4.33481177,10.9227593 4.76551204,10.7803644 C5.19621231,10.6379695 5.61188816,10.5596523 6.01253957,10.5454128 C6.41319099,10.5311733 6.77127319,10.557279 7.08678618,10.62373 C7.40229917,10.6901809 7.63517781,10.7518854 7.78542209,10.8088433 L7.78542209,6.77906757 C7.78542209,5.65889433 7.79043023,4.39632619 7.80044651,2.99136314 C7.80044651,2.71606633 7.87556866,2.49060773 8.02581294,2.31498735 C8.17605722,2.13936697 8.37638292,2.03731729 8.62679006,2.0088383 C8.83713205,1.98035932 9.00991298,2.02070455 9.14513283,2.12987397 C9.28035268,2.2390434 9.41807661,2.3909313 9.5583046,2.58553766 C9.6985326,2.78014403 9.87131352,3.00085613 10.0766474,3.24767396 C10.2819812,3.4944918 10.5599331,3.73656313 10.9105031,3.97388797 C11.2109917,4.19222682 11.4739192,4.34886122 11.6992856,4.44379115 C11.924652,4.53872109 12.134994,4.62653128 12.3303116,4.70722173 C12.5256291,4.78791217 12.7184426,4.88521535 12.9087521,4.99913128 C13.0990615,5.1130472 13.3094035,5.29816058 13.539778,5.5544714 C13.7701526,5.80128923 13.9103806,6.05760006 13.960462,6.32340388 C14.0105435,6.5892077 14.0130475,6.83127904 13.9679742,7.04961789 C13.922901,7.26795674 13.8502829,7.44595037 13.75012,7.58359878 C13.6499572,7.72124718 13.5648188,7.78532489 13.4947048,7.7758319 Z" id="Shape" transform="translate(8.500000, 8.500000) rotate(46.000000) translate(-8.500000, -8.500000) "></path>
                    </g>
                    <g id="音乐" transform="translate(3.000000, 0.000000)" fill="#C4A66A" fill-rule="nonzero">
                        <path d="M17.356897,10.1087162 C17.267661,10.0970325 17.187986,10.0386141 17.117872,9.93346091 C17.047758,9.82830775 16.993579,9.63552696 16.955335,9.35511854 C16.891595,8.89945485 16.729058,8.56354892 16.467724,8.34740076 C16.20639,8.1312526 15.801641,7.97644378 15.253477,7.8829743 C14.6798171,7.77782114 14.1730841,7.5645939 13.7332781,7.24329258 C13.2934721,6.92199126 12.9269671,6.62113639 12.6337631,6.34072796 C12.3533071,6.09537059 12.1365911,6.00774296 11.9836151,6.07784507 C11.8306391,6.14794717 11.7541511,6.2764677 11.7541511,6.46340665 L11.7541511,7.21700429 L11.7541511,8.86440379 C11.7541511,9.51869012 11.7509641,10.225553 11.7445901,10.9849925 C11.7382161,11.744432 11.7350291,12.4629786 11.7350291,13.1406323 L11.7350291,14.928236 L11.7350291,15.927191 C11.7477771,16.2075994 11.6999721,16.520138 11.5916142,16.8648067 C11.4832562,17.2094754 11.2792882,17.5336976 10.9797102,17.8374734 C10.6801322,18.1412492 10.2817572,18.4012112 9.78458521,18.6173593 C9.28741323,18.8335075 8.66913525,18.9591071 7.92975127,18.9941582 C7.17761929,19.0292092 6.49878832,18.9065305 5.89325834,18.6261221 C5.28772835,18.3457137 4.81923937,17.9922822 4.48779138,17.5658277 C4.15634339,17.1393733 3.9938064,16.6720259 4.0001804,16.1637856 C4.0065544,15.6555453 4.24557939,15.1794352 4.71725537,14.7354552 C5.18893136,14.2914752 5.69885134,13.9818576 6.24701532,13.8066023 C6.79517931,13.631347 7.32422129,13.5349566 7.83414127,13.5174311 C8.34406126,13.4999056 8.79980224,13.5320357 9.20136423,13.6138215 C9.60292622,13.6956073 9.89931721,13.7715512 10.0905372,13.8416533 L10.0905372,8.88192932 C10.0905372,7.50325456 10.0969112,5.94932454 10.1096592,4.22013925 C10.1096592,3.8813124 10.2052692,3.6038249 10.3964892,3.38767673 C10.5877092,3.17152857 10.8426692,3.04592897 11.1613692,3.01087791 C11.4290772,2.97582686 11.6489802,3.02548252 11.8210781,3.15984489 C11.9931761,3.29420726 12.1684611,3.48114621 12.3469331,3.72066174 C12.5254051,3.96017727 12.7453081,4.23182293 13.0066421,4.53559873 C13.2679761,4.83937452 13.6217331,5.13730847 14.0679131,5.42940058 C14.4503531,5.69812532 14.7849881,5.89090612 15.071818,6.00774296 C15.358648,6.1245798 15.626356,6.23265388 15.874942,6.3319652 C16.123528,6.43127652 16.368927,6.55103428 16.611139,6.6912385 C16.853351,6.83144271 17.121059,7.05927455 17.414263,7.37473403 C17.707467,7.67850983 17.885939,7.99396931 17.9496789,8.32111247 C18.0134189,8.64825563 18.0166059,8.94618958 17.9592399,9.21491432 C17.901874,9.48363906 17.809451,9.70270815 17.681971,9.87212157 C17.554491,10.041535 17.446133,10.1203999 17.356897,10.1087162 Z" id="Shape" transform="translate(11.000000, 11.000000) rotate(46.000000) translate(-11.000000, -11.000000) "></path>
                    </g>
                    <circle id="Oval-Copy-4" fill="url(#linearGradient-1)" transform="translate(26.500000, 5.500000) scale(-1, 1) translate(-26.500000, -5.500000) " cx="26.5" cy="5.5" r="1.5"></circle>
                </g>
            </g>
        </g>
    </g>
</svg>