<svg xmlns="http://www.w3.org/2000/svg" width="23" height="18" viewBox="0 0 23 18">
  <path fill="#C4A66A" d="M21.8109821,1.38317373e-16 L1.18901785,1.38317373e-16 C0.533119034,0.00220812227 0.00197262409,0.557066323 0,1.24209877 L0,4.48608651 L23,4.48608651 L23,1.24209877 C22.9980274,0.557066316 22.466881,0.0022081129 21.8109821,1.38317373e-16 Z M8.8817842e-15,16.2379012 C0.00197262409,16.9229337 0.533119034,17.4777919 1.18901785,17.48 L21.8109821,17.48 C22.466881,17.4777919 22.9980274,16.9229337 23,16.2379012 L23,5.68502148 L8.8817842e-15,5.68502148 L8.8817842e-15,16.2379012 Z M14.9397321,13.2748804 L15.6931362,10.2523417 C15.7259132,10.1227798 15.8382089,10.032587 15.9665179,10.0327693 L20.5049107,10.0327693 C20.5925414,10.0335261 20.674917,10.0765443 20.7280737,10.1493098 C20.7812304,10.2220753 20.799199,10.3164168 20.7767522,10.4048896 L20.0246317,13.4247472 C19.9920266,13.5536359 19.8806871,13.6436522 19.7530469,13.6443196 L15.2120871,13.6443196 C15.1244626,13.6449167 15.0416122,13.6026835 14.9881539,13.5301693 C14.9346955,13.457655 14.9167805,13.3632037 14.9397321,13.2748804 Z M6.47080357,8.04294478 C6.47073546,7.93361141 6.51227313,7.8287317 6.58627157,7.75139618 C6.66027001,7.67406065 6.76066234,7.63060979 6.86534599,7.63060981 L7.60848214,7.63060981 C7.82652366,7.63060981 8.00328124,7.81521847 8.00328124,8.04294478 L8.00328124,9.13785767 C8.00313964,9.3655227 7.82646498,9.55004475 7.60848214,9.55019264 L6.86534599,9.55019264 C6.64740471,9.55004465 6.47080352,9.36547933 6.47080357,9.13785767 L6.47080357,8.04294478 Z M4.01575893,8.04294478 C4.01569082,7.93361141 4.05722849,7.82873171 4.13122693,7.75139618 C4.20522537,7.67406066 4.30561769,7.63060979 4.41030133,7.63060981 L5.1534375,7.63060981 C5.37147902,7.63060981 5.54823661,7.81521847 5.54823661,8.04294478 L5.54823661,9.13785767 C5.54809501,9.3655227 5.37142035,9.55004475 5.1534375,9.55019264 L4.41030133,9.55019264 C4.19236006,9.55004464 4.01575888,9.36547933 4.01575893,9.13785767 L4.01575893,8.04294478 Z M1.56328125,8.04294478 C1.56321315,7.93361141 1.60475082,7.82873171 1.67874925,7.75139618 C1.75274769,7.67406066 1.85314001,7.63060979 1.95782366,7.63060981 L2.70095982,7.63060981 C2.91900135,7.63060981 3.09575893,7.81521847 3.09575893,8.04294478 L3.09575893,9.13785767 C3.09561733,9.3655227 2.91894267,9.55004475 2.70095982,9.55019264 L1.95782366,9.55019264 C1.73988239,9.55004464 1.56328121,9.36547933 1.56328125,9.13785767 L1.56328125,8.04294478 Z"/>
</svg>
