<svg xmlns="http://www.w3.org/2000/svg" width="24" height="24" viewBox="0 0 24 24">
  <g fill="none" fill-rule="evenodd">
    <path fill="#C4A66A" fill-rule="nonzero" d="M17.5980382,9.50121402 L8.37638154,9.50121402 C8.43300266,10.6922221 8.93687505,11.7674644 9.72389755,12.5581989 C10.5597321,13.3979756 11.7139131,13.9159597 12.9872099,13.9159597 C14.2624644,13.9159597 15.4166232,13.3979532 16.25248,12.5581989 C17.0375447,11.7674644 17.5433527,10.6922221 17.5980382,9.50121402 Z M5.97820439,9.50121402 L3,9.50121402 L3,7.84910997 L6.18128401,7.52141622 C6.9507306,4.35259974 9.79611451,2 13.1863739,2 C17.1683406,2 20.3984812,5.24535286 20.3984812,9.24808959 C20.3984812,9.33247185 20.3965234,9.41683176 20.39263,9.50121402 L19.4630424,9.50121402 C19.4064213,11.2102286 18.6935958,12.7524457 17.5706732,13.8826315 C16.3969585,15.061882 14.7779948,15.789827 12.9871876,15.789827 C11.1983161,15.789827 9.57741681,15.061882 8.40565989,13.8826315 C7.28273729,12.7544128 6.56797625,11.2102286 6.51133288,9.50121402 L5.97820439,9.50121402 Z M7.44092047,16.8179494 L11.1475462,16.8179494 L11.1475462,18.5465675 L15.3052943,18.5465675 L15.3052943,16.8179494 L18.7053205,16.8179494 L21,22.1176471 L5.7985519,22.1176471 L7.44094272,16.8179494 L7.44092047,16.8179494 Z"/>
  </g>
</svg>
