<?xml version="1.0" encoding="UTF-8"?>
<svg width="29px" height="26px" viewBox="0 0 29 26" version="1.1" xmlns="http://www.w3.org/2000/svg" xmlns:xlink="http://www.w3.org/1999/xlink">
    <!-- Generator: Sketch 49.3 (51167) - http://www.bohemiancoding.com/sketch -->
    <title>zp@3x</title>
    <desc>Created with Sketch.</desc>
    <defs></defs>
    <g id="Page-1" stroke="none" stroke-width="1" fill="none" fill-rule="evenodd">
        <g id="立即报名" transform="translate(-254.000000, -498.000000)" fill="#B0B0B0" fill-rule="nonzero">
            <g id="Group-5" transform="translate(0.000000, 427.000000)">
                <g id="Group-2-Copy">
                    <g id="Group" transform="translate(234.000000, 50.000000)">
                        <g id="Group-3">
                            <g id="zp" transform="translate(20.000000, 21.000000)">
                                <path d="M26.4783456,26 L25.2174372,26 L3.78272525,26 L3.78256281,26 L2.52181686,26 C1.12907902,26 3.96879148e-08,24.8359638 3.96879148e-08,23.4000126 L0,5.84995064 C0,4.41399944 1.12907898,3.24996325 2.52181682,3.24996325 L3.78256277,3.24996325 L3.78272521,3.24996325 L7.88048465,3.24996325 L9.45646786,0.64997586 C9.45646786,0.290977566 10.3692832,0 10.7175387,0 L18.2826237,0 C18.6306761,0 19.5435321,0.290977566 19.5435321,0.64997586 L21.1196372,3.24996325 L25.2174372,3.24996325 L26.4783456,3.24996325 C27.8710835,3.24996325 29,4.41399948 29,5.84995064 L29,23.4000126 C29,24.8359638 27.8710835,26 26.4783456,26 Z M14.5000609,5.84995064 C9.97379485,5.84995064 6.30433899,9.63316283 6.30433899,14.3000567 C6.30433899,18.9669925 9.97379489,22.7499947 14.5000609,22.7499947 C19.0262051,22.7499947 22.6954579,18.9669925 22.6956204,14.3003925 L22.6956204,14.2997207 C22.6954579,9.63299489 19.0262051,5.84995064 14.5000609,5.84995064 Z M14.5000609,20.1500073 C11.3663703,20.1500073 8.82615581,17.5309993 8.82615581,14.3000567 C8.82615581,11.069282 11.3663703,8.45010598 14.5000609,8.45010598 C17.6336297,8.45010598 20.173966,11.0692819 20.173966,14.3000567 C20.173966,17.5309993 17.6336297,20.1500073 14.5000609,20.1500073 Z" id="Shape"></path>
                            </g>
                        </g>
                    </g>
                </g>
            </g>
        </g>
    </g>
</svg>