<?xml version="1.0" encoding="UTF-8"?>
<svg width="361px" height="6px" viewBox="0 0 361 6" version="1.1" xmlns="http://www.w3.org/2000/svg" xmlns:xlink="http://www.w3.org/1999/xlink">
    <!-- Generator: Sketch 49.3 (51167) - http://www.bohemiancoding.com/sketch -->
    <title>zs@3x</title>
    <desc>Created with Sketch.</desc>
    <defs></defs>
    <g id="Page-1" stroke="none" stroke-width="1" fill="none" fill-rule="evenodd">
        <g id="05订单确认页" transform="translate(-8.000000, -64.000000)" fill="#FFA816">
            <g id="Group-3" transform="translate(0.000000, 64.000000)">
                <g id="zs" transform="translate(8.000000, 0.000000)">
                    <polygon id="Rectangle-39" points="4 0 10 0 6 6 0 6"></polygon>
                    <polygon id="Rectangle-39" opacity="0.419999987" points="18 0 24 0 20 6 14 6"></polygon>
                    <polygon id="Rectangle-39" points="32 0 38 0 34 6 28 6"></polygon>
                    <polygon id="Rectangle-39" opacity="0.419999987" points="46 0 52 0 48 6 42 6"></polygon>
                    <polygon id="Rectangle-39" points="60 0 66 0 62 6 56 6"></polygon>
                    <polygon id="Rectangle-39" opacity="0.419999987" points="74 0 80 0 76 6 70 6"></polygon>
                    <polygon id="Rectangle-39" points="88 0 94 0 90 6 84 6"></polygon>
                    <polygon id="Rectangle-39" opacity="0.419999987" points="102 0 108 0 104 6 98 6"></polygon>
                    <polygon id="Rectangle-39" points="116 0 122 0 118 6 112 6"></polygon>
                    <polygon id="Rectangle-39" opacity="0.419999987" points="130 0 136 0 132 6 126 6"></polygon>
                    <polygon id="Rectangle-39" points="144 0 150 0 146 6 140 6"></polygon>
                    <polygon id="Rectangle-39" opacity="0.419999987" points="158 0 164 0 160 6 154 6"></polygon>
                    <polygon id="Rectangle-39" points="172 0 178 0 174 6 168 6"></polygon>
                    <polygon id="Rectangle-39" opacity="0.419999987" points="186 0 192 0 188 6 182 6"></polygon>
                    <polygon id="Rectangle-39" points="200 0 206 0 202 6 196 6"></polygon>
                    <polygon id="Rectangle-39" opacity="0.419999987" points="214 0 220 0 216 6 210 6"></polygon>
                    <polygon id="Rectangle-39" points="228 0 234 0 230 6 224 6"></polygon>
                    <polygon id="Rectangle-39" opacity="0.419999987" points="242 0 248 0 244 6 238 6"></polygon>
                    <polygon id="Rectangle-39" points="256 0 262 0 258 6 252 6"></polygon>
                    <polygon id="Rectangle-39" opacity="0.419999987" points="270 0 276 0 272 6 266 6"></polygon>
                    <polygon id="Rectangle-39" points="284 0 290 0 286 6 280 6"></polygon>
                    <polygon id="Rectangle-39" opacity="0.419999987" points="298 0 304 0 300 6 294 6"></polygon>
                    <polygon id="Rectangle-39" points="312 0 318 0 314 6 308 6"></polygon>
                    <polygon id="Rectangle-39" opacity="0.419999987" points="326 0 332 0 328 6 322 6"></polygon>
                    <polygon id="Rectangle-39" points="341 0 347 0 343 6 337 6"></polygon>
                    <polygon id="Rectangle-39" opacity="0.419999987" points="355 0 361 0 357 6 351 6"></polygon>
                </g>
            </g>
        </g>
    </g>
</svg>