<svg xmlns="http://www.w3.org/2000/svg" width="30" height="30" viewBox="0 0 30 30">
  <path d="M14.9518838,6.86959435 C14.9052959,3.06815717 11.8127844,0 7.99991594,0 C4.18704752,0 1.09455466,3.06815717 1.04787334,6.86959435 C0.409708464,7.37981752 0,8.16317839 0,9.04337593 C0,10.5798736 1.24590003,11.826104 2.78257296,11.826104 C3.45316632,11.826104 4.06809327,11.5883834 4.54846818,11.1936582 L3.23750571,6.3009591 C3.08901838,6.27678729 2.93778509,6.26070388 2.78259164,6.26070388 C2.68033731,6.26070388 2.57982023,6.26703637 2.48029318,6.27800148 C2.81567392,3.52551618 5.15653958,1.39131734 8.00000934,1.39131734 C10.8430868,1.39131734 13.1843074,3.5254975 13.5195947,6.27800148 C13.4204787,6.26711109 13.3196253,6.26070388 13.2173523,6.26070388 C13.0622149,6.26070388 12.910608,6.27682465 12.7620273,6.3009591 L11.4514571,11.1913792 C11.8221991,11.4957684 12.2730222,11.706179 12.7676313,11.7866707 C12.1112534,12.4918561 11.2765002,13.0290905 10.3321701,13.3196939 L10.2170266,13.4346874 C9.92244297,12.8931567 9.35546758,12.5213891 8.69568994,12.5213891 C7.73503352,12.5213891 6.95654448,13.2998558 6.95654448,14.2608253 C6.95654448,15.221552 7.73499616,16 8.69568994,16 C9.48419147,16 10.1418769,15.4719188 10.3554454,14.7529663 C12.2748529,14.282438 13.8827713,13.0189286 14.8063666,11.3255384 C15.5273213,10.8227311 16,9.98876637 16,9.04331989 C15.9999626,8.16334651 15.5898806,7.37972412 14.9520146,6.86951963 L14.9518838,6.86959435 Z" transform="translate(7 7)"/>
</svg>
