<?xml version="1.0" encoding="UTF-8"?>
<svg width="22px" height="22px" viewBox="0 0 22 22" version="1.1" xmlns="http://www.w3.org/2000/svg" xmlns:xlink="http://www.w3.org/1999/xlink">
    <!-- Generator: Sketch 52.2 (67145) - http://www.bohemiancoding.com/sketch -->
    <title>icon-points</title>
    <desc>Created with Sketch.</desc>
    <defs>
        <linearGradient x1="100%" y1="135.654297%" x2="-9.65983073%" y2="-21.2276786%" id="linearGradient-1">
            <stop stop-color="#FF0103" offset="0%"></stop>
            <stop stop-color="#FFDDA9" offset="100%"></stop>
        </linearGradient>
    </defs>
    <g id="i听厦门-v1.0.0" stroke="none" stroke-width="1" fill="none" fill-rule="evenodd">
        <g id="用户端-我的-登录状态" transform="translate(-38.000000, -317.000000)" fill="url(#linearGradient-1)" fill-rule="nonzero">
            <g id="Group-8" transform="translate(24.000000, 307.000000)">
                <g id="qianbao" transform="translate(14.000000, 10.000000)">
                    <g id="积分">
                        <path d="M3,6.66417661 C3,8.68748887 6.58161394,10.3283689 10.9999921,10.3283689 C15.4183703,10.3283689 18.9999842,8.68747323 18.9999842,6.66417661 C18.9999842,4.64008192 15.4183703,3 10.9999921,3 C6.58161394,3 3,4.64008192 3,6.66417661 Z M11.0000079,11.916451 C7.55380504,11.916451 4.72349561,10.939597 3.49254445,9.59552102 C3.12333321,10.0843471 3,10.450771 3,10.9387833 C3,12.8932894 6.56871614,14.6029756 10.9999921,14.6029756 C15.4312681,14.6029756 18.9999842,13.0148934 18.9999842,10.9387989 C18.9999842,10.4499729 18.754122,10.083549 18.5074556,9.59553667 C17.2764886,10.9387989 14.4453751,11.916451 10.9999921,11.916451 L11.0000079,11.916451 Z M11.0000079,16.3134755 C7.55380504,16.3134755 4.72349561,15.3366215 3.49254445,13.9925455 C3.12333321,14.3589694 3,14.8477954 3,15.3358077 C3,17.2903295 6.56871614,19 11.0000079,19 C15.4312996,19 19,17.4119179 19,15.3358234 C19,14.8469974 18.7541377,14.4805734 18.5074713,13.9925611 C17.2765044,15.3366058 14.4453908,16.3134598 11.0000079,16.3134598 L11.0000079,16.3134755 Z" id="Shape"></path>
                    </g>
                </g>
            </g>
        </g>
    </g>
</svg>