<?xml version="1.0" encoding="UTF-8"?>
<svg width="22px" height="22px" viewBox="0 0 22 22" version="1.1" xmlns="http://www.w3.org/2000/svg" xmlns:xlink="http://www.w3.org/1999/xlink">
    <!-- Generator: Sketch 49.3 (51167) - http://www.bohemiancoding.com/sketch -->
    <title>qyd@3x</title>
    <desc>Created with Sketch.</desc>
    <defs></defs>
    <g id="Page-2" stroke="none" stroke-width="1" fill="none" fill-rule="evenodd">
        <g id="我的-未登录" transform="translate(-208.000000, -494.000000)" fill="#FF9500" fill-rule="nonzero">
            <g id="Group-3-Copy-2" transform="translate(196.000000, 482.000000)">
                <g id="客服-2" transform="translate(12.000000, 12.000000)">
                    <g id="qiye" transform="translate(3.000000, 3.000000)">
                        <path d="M15.36,0 L5.604,0.0113333389 C5.2512,0.0113333389 4.80399999,0.405875 4.80400001,0.718958339 L4.80400001,3.54875 L8.00399999,3.54875 C9.30159999,3.54875 9.6032,3.99641666 9.6032,4.964 L9.59999999,17 L15.36,17 C15.5297385,17 15.6925251,16.9402978 15.8125483,16.8340272 C15.9325716,16.7277566 16,16.5836227 16,16.4333333 L16,0.566666661 C16,0.416377315 15.9325716,0.27224343 15.8125483,0.165972817 C15.6925251,0.0597022026 15.5297385,-4.40300805e-09 15.36,0 Z M8.18,4.26770834 C8.528,4.26770834 8.80960001,4.52766668 8.80960001,4.84641666 L8.80960001,17 L0.629600006,17 C0.281600006,17 0,16.74075 0,16.4212917 L0,4.847125 C0,4.52766666 0.281600006,4.26770834 0.629600006,4.26770834 L8.18,4.26770834 Z M1.6056,7.08758334 L7.20400001,7.08758334 L7.20400001,6.37995834 L1.6056,6.37995834 L1.6056,7.08829166 L1.6056,7.08758334 Z M1.6056,9.91808334 L7.20400001,9.91808334 L7.20400001,9.21045834 L1.6056,9.21045834 L1.6056,9.91879166 L1.6056,9.91808334 Z M1.6056,12.7492917 L7.20400001,12.7492917 L7.20400001,12.0409583 L1.6056,12.0409583 L1.6056,12.7492917 Z" id="Shape"></path>
                    </g>
                </g>
            </g>
        </g>
    </g>
</svg>