<svg xmlns="http://www.w3.org/2000/svg" width="22" height="22" viewBox="0 0 22 22">
  <path fill="#FF9500" d="M0,4.91224365 C0,5.4548394 0.436792293,5.89469237 0.975612449,5.89469237 C1.5144326,5.89469237 1.9512249,5.4548394 1.9512249,4.91224365 C1.9512249,4.36964789 1.5144326,3.92979492 0.975612449,3.92979492 C0.436792293,3.92979492 1.56881965e-16,4.36964789 0,4.91224365 Z M8.78048996,0.982448729 C8.78048996,1.52504449 9.21728225,1.96489746 9.75610241,1.96489746 C10.2949226,1.96489746 10.7317149,1.52504449 10.7317149,0.982448729 C10.7317149,0.43985297 10.2949226,0 9.75610241,0 C9.21728225,0 8.78048996,0.43985297 8.78048996,0.982448729 Z M15.773163,14.2430275 C16.2024263,12.945369 17.9780334,7.58284465 18.1349722,7.10719512 C18.291911,6.6315456 18.0487972,6.14028788 17.4561038,6.4882482 C16.8634105,6.83620852 14.8837256,7.90132284 13.5975695,8.60789351 C13.4552693,8.68566764 13.0122286,8.54566086 12.9325007,8.39751647 C12.0601525,6.76668316 11.2032598,5.1316921 10.316251,3.50492759 C10.0130157,2.94823554 9.46176494,3.09887012 9.3138124,3.42061669 C8.67234617,4.81979515 7.5341206,7.30374268 7.05283877,8.35331551 C6.91301137,8.65949836 6.48374807,8.65378425 6.31055903,8.55884555 C5.06096612,7.87195187 3.81053419,7.18590308 2.56094128,6.4990094 C2.19429452,6.29761486 1.70645518,6.63245719 1.87803244,7.15235215 C2.55526693,9.19913701 3.78127929,12.9021463 4.22359138,14.2390699 C4.32930646,14.5534792 4.58292993,14.7368421 4.87808432,14.7368421 L15.1219819,14.7368421 C15.4593517,14.7368421 15.6699428,14.5559027 15.7731851,14.2431609 L15.773163,14.2430275 Z M18.0487751,4.91224365 C18.0487751,5.4548394 18.4855674,5.89469237 19.0243876,5.89469237 C19.5632077,5.89469237 20,5.4548394 20,4.91224365 C20,4.36964789 19.5632077,3.92979492 19.0243876,3.92979492 C18.4855674,3.92979492 18.0487751,4.36964789 18.0487751,4.91224365 Z" transform="translate(1 4)"/>
</svg>
