<?xml version="1.0" encoding="UTF-8"?>
<svg width="22px" height="22px" viewBox="0 0 22 22" version="1.1" xmlns="http://www.w3.org/2000/svg" xmlns:xlink="http://www.w3.org/1999/xlink">
    <!-- Generator: Sketch 49.3 (51167) - http://www.bohemiancoding.com/sketch -->
    <title>wdqb@3x</title>
    <desc>Created with Sketch.</desc>
    <defs></defs>
    <g id="Page-2" stroke="none" stroke-width="1" fill="none" fill-rule="evenodd">
        <g id="我的-未登录" transform="translate(-207.000000, -325.000000)" fill="#FF9500" fill-rule="nonzero">
            <g id="Group-4-Copy" transform="translate(194.000000, 313.000000)">
                <g id="商户" transform="translate(13.000000, 12.000000)">
                    <path d="M17.4,6 L3,6 L3,16.8198037 C3,18.0239988 3.97672727,19 5.18181818,19 L17.5454545,19 C18.3490909,19 19,18.3495748 19,17.5465358 L19,7.61581921 C19,6.81278026 18.2036364,6 17.4,6 Z M15.9146471,6 C15.9699229,6.15638946 16,6.32468229 16,6.5 L16,7 L5,7 L5,6.5 C5,6.32468229 5.03007711,6.15638946 5.08535285,6 L3,6 C3,4.34314575 4.34314575,3 6,3 L14,3 C15.6568542,3 17,4.34314575 17,6 L15.9146471,6 Z M16.5,14 C15.67125,14 15,13.32875 15,12.5 C15,11.67125 15.67125,11 16.5,11 C17.32875,11 18,11.67125 18,12.5 C18,13.32875 17.32875,14 16.5,14 Z M15.9146471,6 C15.7087289,5.41740381 15.1531094,5 14.5,5 L6.5,5 C5.84689059,5 5.29127106,5.41740381 5.08535285,6 L15.9146471,6 Z" id="Wallet"></path>
                </g>
            </g>
        </g>
    </g>
</svg>