<?xml version="1.0" encoding="UTF-8"?>
<svg width="30px" height="30px" viewBox="0 0 30 30" version="1.1" xmlns="http://www.w3.org/2000/svg" xmlns:xlink="http://www.w3.org/1999/xlink">
    <!-- Generator: Sketch 49.3 (51167) - http://www.bohemiancoding.com/sketch -->
    <title>ddzf_wx@3x</title>
    <desc>Created with Sketch.</desc>
    <defs>
        <rect id="path-1" x="0" y="0" width="355" height="215" rx="2"></rect>
        <filter x="-8.2%" y="-8.8%" width="116.3%" height="127.0%" filterUnits="objectBoundingBox" id="filter-2">
            <feOffset dx="0" dy="10" in="SourceAlpha" result="shadowOffsetOuter1"></feOffset>
            <feGaussianBlur stdDeviation="8" in="shadowOffsetOuter1" result="shadowBlurOuter1"></feGaussianBlur>
            <feColorMatrix values="0 0 0 0 0   0 0 0 0 0   0 0 0 0 0  0 0 0 0.06 0" type="matrix" in="shadowBlurOuter1"></feColorMatrix>
        </filter>
    </defs>
    <g id="Page-2" stroke="none" stroke-width="1" fill="none" fill-rule="evenodd">
        <g id="选择支付方式" transform="translate(-12.000000, -423.000000)">
            <g id="Group-3" transform="translate(10.000000, 244.000000)">
                <g id="Rectangle-24-Copy-2">
                    <use fill="black" fill-opacity="1" filter="url(#filter-2)" xlink:href="#path-1"></use>
                    <use fill="#FFFFFF" fill-rule="evenodd" xlink:href="#path-1"></use>
                </g>
                <text id="小计" font-family="PingFangSC-Regular, PingFang SC" font-size="14" font-weight="normal" line-spacing="14" fill="#000000">
                    <tspan x="15" y="199">小计</tspan>
                </text>
            </g>
            <rect id="Rectangle-293" fill="#000000" opacity="0.5" x="0" y="0" width="375" height="667"></rect>
            <g id="Group-10" transform="translate(0.000000, 369.000000)">
                <rect id="Rectangle-294" fill="#FFFFFF" x="0" y="0" width="375" height="299"></rect>
                <g id="Group-6" transform="translate(12.000000, 54.000000)" fill="#19C80A">
                    <g id="微信支付">
                        <g id="Group">
                            <g id="ddzf_wx">
                                <path d="M12.14577,17.7270519 C10.70988,18.5115796 10.49691,17.2866147 10.49691,17.2866147 L8.69733,13.171017 C8.0049,11.2153355 9.29661,12.2892276 9.29661,12.2892276 C9.29661,12.2892276 10.40496,13.1109775 11.24613,13.6117198 C12.08685,14.1124622 13.04514,13.7587192 13.04514,13.7587192 L24.80994,8.43678237 C22.63938,5.78982023 19.05381,4.05903588 14.99451,4.05903588 C8.36979,4.05903588 3,8.6650446 3,14.3471593 C3,17.6154741 4.7781,20.5243784 7.5477,22.4097482 L7.04823,25.2236048 C7.04823,25.2236048 6.80475,26.045089 7.64859,25.6640714 C8.2236,25.4042841 9.68949,24.4733473 10.5621,23.90678 C11.93391,24.3752887 13.42845,24.6354303 14.99517,24.6354303 C21.61935,24.6354303 26.99025,20.0294216 26.99025,14.3471888 C26.99025,12.7013571 26.53767,11.1470605 25.73598,9.76742155 C21.98769,11.9776658 13.26933,17.1142004 12.14577,17.7270519 L12.14577,17.7270519 L12.14577,17.7270519 L12.14577,17.7270519 Z" id="Shape"></path>
                            </g>
                        </g>
                    </g>
                </g>
            </g>
        </g>
    </g>
</svg>