<?xml version="1.0" encoding="UTF-8"?>
<svg width="30px" height="30px" viewBox="0 0 30 30" version="1.1" xmlns="http://www.w3.org/2000/svg" xmlns:xlink="http://www.w3.org/1999/xlink">
    <!-- Generator: Sketch 49.3 (51167) - http://www.bohemiancoding.com/sketch -->
    <title>ddzf_yezf@3x</title>
    <desc>Created with Sketch.</desc>
    <defs></defs>
    <g id="Page-2" stroke="none" stroke-width="1" fill="none" fill-rule="evenodd">
        <g id="选择支付方式" transform="translate(-12.000000, -482.000000)">
            <g id="Group-2" transform="translate(15.000000, 471.000000)">
                <g id="tx_xz-copy">
                    <g id="gwc_wx">
                        <circle id="Combined-Shape" fill="#FFA816" cx="8" cy="8" r="8"></circle>
                        <polygon id="Shape" fill="#FFFFFF" points="2.66666667 7.04596788 3.50227865 6.23893229 7.11111111 9.81933594 13.0263672 3.91471354 13.8579644 4.74424914 7.11111111 11.4904123"></polygon>
                    </g>
                </g>
                <text id="同意《古龙一膳用户协议》" opacity="0.400000006" font-family="PingFangSC-Regular, PingFang SC" font-size="12" font-weight="normal" line-spacing="14" fill="#000000">
                    <tspan x="26" y="14">同意《古龙一膳用户协议》</tspan>
                </text>
            </g>
            <rect id="Rectangle-293" fill="#000000" opacity="0.5" x="0" y="0" width="375" height="667"></rect>
            <g id="Group-10" transform="translate(0.000000, 369.000000)">
                <rect id="Rectangle-294" fill="#FFFFFF" x="0" y="0" width="375" height="299"></rect>
                <g id="yue" transform="translate(12.000000, 113.000000)" fill="#F7BF28" fill-rule="nonzero">
                    <path d="M14.6327182,3.01295947 C15.4139398,2.9475753 16.195842,3.13075544 16.8668032,3.5363498 L17.4527927,4.0074011 C17.798108,3.92889255 18.0911027,3.79281107 18.4992025,3.72477033 C19.2548902,3.62516366 20.0116911,3.90019399 20.52726,4.46179029 C21.042829,5.02338658 21.2524759,5.80108334 21.0890668,6.54584422 C20.8916248,7.73406157 20.2547751,8.80457252 19.3049381,9.54487084 L19.3049381,9.58150815 C20.0897002,9.90182788 20.8203271,10.3414186 21.4710064,10.8847501 C23.6527709,12.5072601 25.1072806,14.8154115 25.8083751,17.9400518 C25.9525123,18.7112033 26.0156402,19.4953191 25.9967289,20.2796066 C25.9967289,23.1530195 25.1439049,25.1419028 22.9883007,25.832778 C22.1854503,25.9878395 21.3655459,26.0353615 20.5501658,25.9740934 L10.3005816,25.9740934 C8.27054653,25.9740934 7.09856751,26.0630698 5.91089238,25.183774 C4.34127765,24.0375492 3.62971897,21.0856277 4.18954824,18.2697877 C4.74937751,15.4539477 5.98937314,12.9364402 7.85198262,11.4657134 C8.40750989,11.0010539 8.991116,10.57106 9.59948702,10.1781731 C9.9709625,9.98451873 10.3529021,9.79609821 10.7086814,9.60244377 L10.133156,8.99007708 C9.62779307,8.33881531 9.27067305,7.585025 9.08674619,6.78136987 C8.68911045,5.21119887 9.46868576,4.20628943 10.5935763,3.86085181 C10.9108477,3.74295733 11.2510541,3.69996866 11.5876657,3.73523811 C11.9696052,3.79804496 12.2782961,3.96552987 12.6340755,4.00216718 C13.0077445,3.6080219 13.4760534,3.31612602 13.9944083,3.15427484 C14.1879941,3.1019358 14.4129722,3.04959679 14.6327182,3.01295947 Z M14.2141543,17.9034145 L14.2141543,19.0025342 C13.3456342,19.0025342 11.5981298,18.6937339 11.728931,19.6934094 C11.8178758,20.4313898 13.4241149,20.2167998 14.2141543,20.1801624 C14.2141543,20.960014 14.2141543,21.4153636 14.8367682,21.5462112 C14.9958088,21.5914543 15.1643081,21.5914543 15.3233487,21.5462112 C15.7314486,21.342089 15.7680729,20.8291665 15.7419127,20.1958641 C16.5947367,20.1958641 18.1538873,20.4523254 18.2951526,19.7091111 C18.4730423,18.6623305 16.5999687,18.9711308 15.7419127,18.9815986 L15.7419127,17.9348179 C16.5947367,17.9348179 18.5096666,18.1912792 18.2532962,17.1287968 C18.0858707,16.4012842 16.6104328,16.6054065 15.7262165,16.6054065 L15.7262165,15.9668702 C16.4639354,15.1608491 17.1911903,14.3600619 17.9184451,13.5540408 C18.1537118,13.3017789 18.1861254,12.9213247 17.9969258,12.6328738 C17.7666075,12.3711001 17.3757308,12.325896 17.0917813,12.5281957 C16.33885,13.168419 15.6389581,13.8685589 14.9989617,14.6217571 L14.9623373,14.6217571 C14.7949118,14.4438044 14.6170221,14.25015 14.4391324,14.0617294 C14.0347817,13.5042616 13.5736301,12.9903251 13.0631035,12.5281957 C12.7701088,12.3345413 12.2835282,12.1827581 12.053318,12.5281957 C11.8730811,12.8869719 11.9223778,13.3184708 12.1788872,13.6273154 C12.7544126,14.4438044 13.6072366,15.1608491 14.2089223,15.977338 L14.1722979,16.6263421 C13.2933137,16.6263421 11.4568644,16.3175418 11.6975387,17.4323632 C11.8649643,18.1337062 13.3560983,17.9191162 14.182762,17.9034145 L14.2141543,17.9034145 Z" id="Shape"></path>
                </g>
            </g>
        </g>
    </g>
</svg>