<svg xmlns="http://www.w3.org/2000/svg" width="42" height="42" viewBox="0 0 42 42">
  <g fill="none" fill-rule="evenodd">
    <path fill="#D8D8D8" d="M21,42 C32.5979797,42 42,32.5979797 42,21 C42,9.40202025 32.5979797,0 21,0 C9.40202025,0 0,9.40202025 0,21 C0,32.5979797 9.40202025,42 21,42 Z"/>
    <path fill="#FFF" fill-rule="nonzero" d="M33.9659891,33.3887256 L33.96599,33.3887249 C30.3435827,36.0376612 25.9706135,37.4620125 21.482995,37.4546562 C16.815724,37.4546562 12.5004533,35.9456177 9.00000002,33.3887249 L9.00000002,32.1045765 L9,32.105307 C9.00000104,25.2111349 14.5888229,19.622312 21.482995,19.622312 C28.3765655,19.6223131 33.9651736,25.2102326 33.96599,32.1038461 L33.96599,33.3879945 L33.9659891,33.3887256 Z M21.1570757,17.6187893 L21.1570754,17.6187893 C17.3963386,17.6187891 14.3476808,14.57011 14.3476808,10.8093946 C14.3476809,7.04865784 17.3963601,4 21.1570754,4 L21.1570751,4 C24.9178119,3.99999984 27.9664698,7.04867933 27.9664698,10.8093946 C27.9664699,14.5701314 24.9177904,17.6187893 21.1570751,17.6187893 L21.1570757,17.6187893 Z"/>
  </g>
</svg>
