<?xml version="1.0" encoding="UTF-8"?>
<svg width="90px" height="90px" viewBox="0 0 90 90" version="1.1" xmlns="http://www.w3.org/2000/svg" xmlns:xlink="http://www.w3.org/1999/xlink">
    <!-- Generator: Sketch 52.2 (67145) - http://www.bohemiancoding.com/sketch -->
    <title>zc_mrtx@3x</title>
    <desc>Created with Sketch.</desc>
    <g id="i听厦门-v1.0.0" stroke="none" stroke-width="1" fill="none" fill-rule="evenodd">
        <g id="用户端-我的-未登录状态" transform="translate(-143.000000, -104.000000)">
            <g id="zc_mrtx" transform="translate(144.000000, 105.000000)">
                <path d="M88,44 C88,68.301037 68.301037,88 44,88 C19.698963,88 0,68.301037 0,44 C0,19.698963 19.698963,0 44,0 C68.301037,0 88,19.698963 88,44" id="Fill-1" stroke="#F5F5F5" fill="#CCCCCC"></path>
                <path d="M44,88 C57.2048889,88 69.0408889,82.1757037 77.1059259,72.965037 L69.7057778,68.1820741 C64.2041481,65.4328889 66.4008889,67.6345185 59.8008889,64.8804444 C53.1992593,62.128 51.5533333,61.5755556 51.5533333,61.5755556 L51.5533333,55.5263704 C51.5533333,55.5263704 53.7468148,53.8853333 54.8500741,47.8312593 C56.4992593,48.3837037 57.0517037,46.1820741 57.0517037,44.5312593 C57.0517037,43.4328889 58.1500741,39.0328889 55.9533333,39.0328889 C56.4992593,36.2804444 56.4992593,33.5312593 56.4992593,32.4328889 C55.9533333,27.486963 52.6533333,22.5312593 44.4025185,22.5312593 C37.8008889,22.5312593 32.8517037,27.4820741 32.2992593,32.4328889 C32.2992593,33.5361481 32.2992593,36.2853333 32.8517037,39.0328889 C31.2106667,38.4771852 31.7614815,42.8804444 32.309037,44.5263704 C32.309037,45.6296296 32.8598519,47.8263704 33.9582222,47.2804444 C34.5106667,53.3345185 37.2582222,54.9837037 37.2582222,54.9837037 L37.2582222,61.0328889 C37.2582222,61.0328889 35.609037,62.128 29.0122963,64.8804444 C22.4122963,67.6345185 24.609037,65.4328889 19.1122963,68.1820741 C18.4213333,68.6416296 17.7385185,69.1028148 17.0866667,69.564 L14.9371852,71.2816296 C14.8638519,71.3500741 14.7758519,71.4185185 14.709037,71.486963 C14.7041481,71.4820741 14.7008889,71.4771852 14.6976296,71.4722963 L11.6991111,73.8662222 C19.7364444,82.5554074 31.2302222,88 44,88" id="Fill-3" fill="#FFFFFF"></path>
            </g>
        </g>
    </g>
</svg>