<?xml version="1.0" encoding="UTF-8"?>
<svg width="17px" height="18px" viewBox="0 0 17 18" version="1.1" xmlns="http://www.w3.org/2000/svg" xmlns:xlink="http://www.w3.org/1999/xlink">
    <!-- Generator: Sketch 49.3 (51167) - http://www.bohemiancoding.com/sketch -->
    <title>fenxiang@3x</title>
    <desc>Created with Sketch.</desc>
    <defs></defs>
    <g id="Page-2" stroke="none" stroke-width="1" fill="none" fill-rule="evenodd">
        <g id="拼团购详情-我自己" transform="translate(-327.000000, -296.000000)" fill="#FF9500" fill-rule="nonzero">
            <g id="Group-8" transform="translate(0.000000, 65.000000)">
                <g id="Group-5" transform="translate(10.000000, 183.000000)">
                    <g id="Group" transform="translate(315.000000, 48.000000)">
                        <g id="Group-2">
                            <g id="fenxiang" transform="translate(2.000000, 0.000000)">
                                <path d="M16.4013256,8.64861527 C16.0837147,8.64861527 15.8262651,8.90613833 15.8262651,9.22370029 L15.8262651,14.6602709 C15.8262651,15.3579078 15.2586758,15.9254726 14.5610634,15.9254726 L2.42617435,15.9254726 C1.72853746,15.9254726 1.16102161,15.3579078 1.16102161,14.6602709 L1.16102161,3.24430548 C1.16102161,2.54666859 1.72851297,1.97925072 2.42617435,1.97925072 L6.38156484,1.97925072 C6.69910231,1.97925072 6.95652738,1.72167867 6.95652738,1.40401873 C6.95652738,1.08653026 6.69907781,0.828982709 6.38156484,0.828982709 L2.42619885,0.828982709 C1.09446686,0.828982709 0.010925072,1.9124755 0.010925072,3.24425648 L0.010925072,14.6602464 C0.010925072,15.9920764 1.09446686,17.0755202 2.42619885,17.0755202 L14.5610389,17.0755202 C15.8929669,17.0755202 16.9763372,15.9920764 16.9763372,14.6602464 L16.9763372,9.22372478 C16.9763372,8.90613833 16.7189856,8.64861527 16.4013012,8.64861527 L16.4013256,8.64861527 Z M4.33353026,12.0184121 C4.27638184,12.3308545 4.48327233,12.6305101 4.79566571,12.6876585 C4.83004526,12.6940081 4.86493382,12.6971977 4.89989481,12.6971873 C5.17213977,12.6971873 5.41403458,12.5030101 5.46488761,12.2256455 C5.46929683,12.2014683 5.92550432,9.78286311 7.51355908,7.37841643 C8.43758501,5.97917435 9.5573804,4.8665072 10.8417133,4.07125504 C12.0676484,3.31213401 13.4532219,2.83961239 14.9749179,2.65942219 L13.1027622,4.59090634 C12.8816888,4.8189611 12.8873963,5.18306484 13.1155,5.40411383 C13.2226054,5.50825441 13.3661508,5.56644257 13.5155389,5.56627522 C13.6657954,5.56627522 13.8158559,5.50777954 13.928536,5.39137608 L16.826889,2.40106628 C16.8290447,2.39891066 16.8309553,2.39660807 16.8330865,2.39428098 C16.8360749,2.39121902 16.8389654,2.38805908 16.8418559,2.38485014 C16.8450159,2.38137176 16.8481513,2.3777464 16.8513112,2.37407205 C16.8517032,2.37360663 16.8521441,2.37301873 16.8526095,2.37260231 C16.8554265,2.36905043 16.858317,2.36567003 16.861134,2.36219164 C16.8642205,2.3584438 16.8673314,2.35457349 16.8701484,2.35067867 C16.8729654,2.3471268 16.875611,2.34347695 16.878428,2.33985159 L16.8878588,2.32662392 C16.8898674,2.32363545 16.8919251,2.32057349 16.8938847,2.31758501 C16.8958689,2.31464553 16.897951,2.31165706 16.8997637,2.30857061 C16.9004496,2.30759078 16.9010865,2.30643948 16.9019193,2.30526369 C16.9023357,2.30452882 16.9028256,2.30359798 16.9033401,2.30276513 C16.9051772,2.29987464 16.9069164,2.29691066 16.9087291,2.29399568 C16.9116196,2.2887781 16.9146081,2.28375648 16.9174986,2.27868588 C16.9191643,2.2757464 16.920634,2.27280692 16.9222262,2.26991643 C16.9228141,2.26883862 16.923402,2.26768732 16.9239409,2.26660951 C16.9260231,2.26246974 16.9282522,2.25823199 16.9303098,2.25411671 L16.9352824,2.24360807 C16.9376095,2.23875793 16.9397406,2.23403026 16.9418963,2.22905764 C16.943611,2.22516282 16.9451052,2.22121902 16.9467709,2.21715274 C16.9486571,2.21259654 16.9503963,2.20811383 16.9521599,2.20368012 C16.9538012,2.19909942 16.9554914,2.19461671 16.9570591,2.19010951 C16.9584308,2.18594524 16.9598516,2.18182997 16.9611744,2.17776369 C16.9628401,2.17279107 16.9643343,2.16772046 16.9658285,2.16282133 C16.9668818,2.15882853 16.9679352,2.1550072 16.969013,2.1510634 C16.9704827,2.14591931 16.97183,2.14062824 16.9730058,2.13533718 C16.9737406,2.13215274 16.9745735,2.12904179 16.9753084,2.12578386 C16.9755533,2.12492651 16.9756513,2.12392219 16.9758963,2.12308934 C16.9769741,2.11811671 16.9779784,2.11307061 16.9789582,2.1080245 C16.9794236,2.10513401 16.980036,2.10221902 16.9805994,2.09932853 C16.9809179,2.09702594 16.9812608,2.09491931 16.9816772,2.09256772 C16.9822651,2.08859942 16.982755,2.08472911 16.9833919,2.08076081 L16.9844942,2.07297118 C16.9849841,2.06917435 16.9853761,2.06562248 16.9857925,2.06180115 C16.9860375,2.05964553 16.9862089,2.05741643 16.9863559,2.05533429 C16.9866009,2.05337464 16.9867968,2.05156196 16.9869683,2.04955331 C16.9870418,2.04840202 16.9871398,2.04729971 16.9872867,2.0462464 L16.9882911,2.03118156 C16.9882911,2.03044669 16.9882911,2.02958934 16.9883646,2.02885447 C16.988438,2.02579251 16.9886095,2.02273055 16.9887075,2.01966859 C16.9887075,2.01966859 16.9887075,2.01942363 16.988781,2.01932565 C16.9889524,2.01320173 16.9890259,2.00717579 16.9890259,2.00095389 L16.9890259,2.00036599 C16.9890259,1.99083718 16.988781,1.98160231 16.9883401,1.97219597 C16.9882666,1.97133862 16.9882666,1.97060375 16.9881196,1.96984438 C16.9880461,1.9680072 16.9880461,1.96629251 16.9879481,1.9646268 L16.9879481,1.96423487 C16.9875135,1.95765223 16.9869582,1.95107812 16.9862824,1.94451585 C16.986025,1.94259326 16.9858045,1.94066592 16.985621,1.93873487 L16.985621,1.93866138 C16.9854741,1.93765706 16.9854741,1.93665274 16.9853761,1.93567291 C16.9846412,1.92974496 16.9839063,1.9238415 16.9829755,1.91788905 C16.9826571,1.915317 16.9823386,1.91274496 16.9819222,1.91017291 C16.9817626,1.90911316 16.9815665,1.90805922 16.9813343,1.90701297 C16.9805749,1.90199135 16.9796196,1.89701873 16.9786643,1.89207061 L16.9767046,1.88232133 C16.9767046,1.88183141 16.9765331,1.8813415 16.9763617,1.88090058 C16.9761902,1.87982277 16.9759452,1.87881844 16.9757738,1.87783862 C16.9749409,1.87413977 16.9740346,1.87048991 16.9732017,1.86684006 C16.9718055,1.86081412 16.9702622,1.85476369 16.9685965,1.84871326 L16.9666124,1.84185447 C16.9646281,1.83479713 16.9624718,1.82778928 16.9601455,1.82083718 C16.9597536,1.8195389 16.9592392,1.81819164 16.9588473,1.81689337 C16.9571816,1.81199424 16.9556628,1.80704611 16.9537767,1.80207349 C16.9536297,1.80158357 16.9533847,1.80102017 16.9531398,1.80040778 C16.9523804,1.79827666 16.9514741,1.79619452 16.9506412,1.79413689 C16.9503963,1.79330403 16.9500778,1.79266715 16.9497349,1.79188329 C16.9477752,1.78678818 16.9457911,1.78157061 16.9437089,1.7765 C16.9424597,1.77370749 16.9410389,1.770817 16.9398141,1.7679755 L16.9396427,1.76748559 C16.9372666,1.76209654 16.9350375,1.75697695 16.9325389,1.75185735 C16.9325389,1.75185735 16.9323674,1.75163689 16.9323674,1.7515389 C16.9269784,1.74027089 16.9210994,1.72934582 16.9149755,1.71842075 L16.9149755,1.71834726 C16.9105173,1.71058213 16.9059121,1.70289049 16.9011599,1.69519885 C16.90067,1.69443948 16.9000821,1.69360663 16.8996902,1.69287176 C16.8969467,1.68856052 16.8942277,1.68420029 16.8913127,1.67996254 L16.8907248,1.67915418 C16.889304,1.67707205 16.8879323,1.67498991 16.8863401,1.6727853 C16.8848703,1.67062968 16.8831556,1.66832709 16.8814409,1.666 L16.8778156,1.66095389 C16.8765908,1.65928818 16.8754885,1.65764697 16.8742637,1.65615274 C16.8730788,1.65445382 16.871837,1.65279534 16.8705403,1.65118012 C16.8676254,1.64721182 16.8644164,1.64339049 16.86133,1.63952017 L16.8564798,1.63364121 C16.855647,1.63241643 16.8546427,1.63131412 16.8538098,1.63006484 L16.8418069,1.61659222 C16.8407902,1.61536149 16.8397195,1.61417637 16.838598,1.61304035 C16.832616,1.60640977 16.8264404,1.59995646 16.8200793,1.59368876 C16.8139553,1.58746686 16.8076599,1.58144092 16.8012176,1.57556196 C16.8008746,1.575317 16.8006297,1.57514553 16.8004582,1.57492507 C16.7938444,1.56897262 16.7872795,1.56324063 16.7804452,1.55770461 L16.7793674,1.55670029 C16.7729058,1.55137879 16.7663145,1.54621681 16.7595994,1.54121902 C16.7586931,1.54058213 16.7578602,1.53974928 16.7568804,1.5390634 C16.7508208,1.53459946 16.7446627,1.53027082 16.7384107,1.52608069 C16.7366431,1.52477465 16.7348463,1.52350871 16.7330216,1.52228386 C16.7299597,1.52022622 16.7268977,1.5181196 16.7237133,1.51615994 C16.7213127,1.51451873 16.7187406,1.51309798 16.7162421,1.51155476 C16.7134496,1.50984006 16.7106081,1.50807637 16.7077911,1.50641066 C16.7052435,1.50494092 16.7028429,1.5033487 16.7003444,1.50187896 C16.6975519,1.50036023 16.6948084,1.49896398 16.6920893,1.49742075 C16.6887602,1.49558996 16.6854123,1.49379351 16.6820461,1.4920317 C16.6772934,1.48942575 16.6724743,1.4869427 16.6675937,1.48458501 C16.6638703,1.48267435 16.660147,1.48100865 16.6564236,1.47929395 C16.6517939,1.47716282 16.6471643,1.47498271 16.6426081,1.47307205 C16.6384009,1.47119722 16.6341454,1.46943293 16.6298458,1.46778098 C16.6257061,1.46606628 16.6214193,1.46422911 16.6171081,1.46273487 C16.6124049,1.4608487 16.6076772,1.45925648 16.6028026,1.45754179 C16.5989831,1.4561198 16.595119,1.45482086 16.5912161,1.45364697 C16.5887317,1.45277872 16.586224,1.45197824 16.583696,1.4512464 L12.3624784,0.051759366 C12.0609366,-0.0482564841 11.7355115,0.11520317 11.6356427,0.416573487 C11.5357003,0.718115274 11.6990865,1.04349135 12.0005058,1.14343372 L13.6983012,1.70629539 C12.4503689,1.9759928 11.2923357,2.43940202 10.2361066,3.09326513 C8.80913545,3.97697118 7.57014409,5.20530692 6.55367147,6.74441931 C4.83774928,9.34284726 4.35332277,11.9103372 4.33353026,12.0184121 Z" id="Shape"></path>
                            </g>
                        </g>
                    </g>
                </g>
            </g>
        </g>
    </g>
</svg>