<?xml version="1.0" encoding="UTF-8"?>
<svg width="25px" height="25px" viewBox="0 0 25 25" version="1.1" xmlns="http://www.w3.org/2000/svg" xmlns:xlink="http://www.w3.org/1999/xlink">
    <!-- Generator: Sketch 49.2 (51160) - http://www.bohemiancoding.com/sketch -->
    <title>fslb@3x</title>
    <desc>Created with Sketch.</desc>
    <defs></defs>
    <g id="v1.8.0" stroke="none" stroke-width="1" fill="none" fill-rule="evenodd">
        <g id="团长端" transform="translate(-21.000000, -551.000000)" fill-rule="nonzero">
            <g id="Group-3" transform="translate(10.000000, 393.000000)">
                <g id="粉丝列表-copy-2" transform="translate(11.000000, 158.000000)">
                    <g id="Group-2">
                        <g id="fensi">
                            <g id="duanlashuoming" transform="translate(4.000000, 3.000000)">
                                <path d="M15,0 L3,0 C1.34314575,0 0,1.34314575 0,3 L0,15 C0,16.6568542 1.34314575,18 3,18 L15,18 C16.6568542,18 18,16.6568542 18,15 L18,3 C18,1.34314575 16.6568542,0 15,0 Z" id="Shape" fill="#666666"></path>
                                <path d="M13.3888889,5 L3.61111111,5 C3.27360377,5.00000001 3.00000003,5.26579402 3.00000003,5.59366755 C3.00000003,5.92154107 3.27360377,6.18733508 3.61111111,6.18733509 L13.3888889,6.18733509 C13.7263962,6.18733508 14,5.92154107 14,5.59366755 C14,5.26579402 13.7263962,5.00000001 13.3888889,5 Z M3.61111111,10.0936675 L8.5,10.0936675 C8.83750735,10.0936675 9.11111111,9.82787353 9.11111111,9.5 C9.11111111,9.17212647 8.83750735,8.90633245 8.5,8.90633245 L3.61111111,8.90633245 C3.27360376,8.90633245 3,9.17212647 3,9.5 C3,9.82787353 3.27360376,10.0936675 3.61111111,10.0936675 Z M13.3888889,12.8126649 L3.61111111,12.8126649 C3.27360376,12.8126649 3,13.0784589 3,13.4063325 C3,13.734206 3.27360376,14 3.61111111,14 L13.3888889,14 C13.7263962,14 14,13.734206 14,13.4063325 C14,13.0784589 13.7263962,12.8126649 13.3888889,12.8126649 Z" id="Shape" fill="#FFFFFF"></path>
                            </g>
                        </g>
                    </g>
                </g>
            </g>
        </g>
    </g>
</svg>