<?xml version="1.0" encoding="UTF-8"?>
<svg width="12px" height="12px" viewBox="0 0 12 12" version="1.1" xmlns="http://www.w3.org/2000/svg" xmlns:xlink="http://www.w3.org/1999/xlink">
    <!-- Generator: Sketch 49.3 (51167) - http://www.bohemiancoding.com/sketch -->
    <title>gb@3x</title>
    <desc>Created with Sketch.</desc>
    <defs></defs>
    <g id="总平台" stroke="none" stroke-width="1" fill="none" fill-rule="evenodd">
        <g id="在线客服弹窗" transform="translate(-348.000000, -453.000000)" fill="#999999">
            <g id="在线客服">
                <g id="Group-10" transform="translate(0.000000, 439.000000)">
                    <g id="gb" transform="translate(348.000000, 14.000000)">
                        <path d="M5.16768515,6 L0.17235399,1.00466884 C-0.0566869824,0.775627868 -0.0493196021,0.396911699 0.173796049,0.173796049 C0.403633448,-0.0560413507 0.772984976,-0.0593298738 1.00466884,0.17235399 L6,5.16768515 L10.9953312,0.17235399 C11.2243721,-0.0566869824 11.6030883,-0.0493196021 11.826204,0.173796049 C12.0560414,0.403633448 12.0593299,0.772984976 11.827646,1.00466884 L6.83231485,6 L11.827646,10.9953312 C12.056687,11.2243721 12.0493196,11.6030883 11.826204,11.826204 C11.5963666,12.0560414 11.227015,12.0593299 10.9953312,11.827646 L6,6.83231485 L1.00466884,11.827646 C0.775627868,12.056687 0.396911699,12.0493196 0.173796049,11.826204 C-0.0560413507,11.5963666 -0.0593298738,11.227015 0.17235399,10.9953312 L5.16768515,6 Z" id="Combined-Shape"></path>
                    </g>
                </g>
            </g>
        </g>
    </g>
</svg>