<svg xmlns="http://www.w3.org/2000/svg" width="24" height="24" viewBox="0 0 24 24">
  <path fill="#FFF" stroke="#FFF" stroke-width=".5" d="M4.8514679,20.366432 C4.8514679,19.4942668 5.56616589,18.7872373 6.44779053,18.7872373 C7.32941518,18.7872373 8.04411317,19.4942668 8.04411317,20.366432 C8.04411317,21.2385971 7.32941518,21.9456267 6.44779053,21.9456267 C5.56616589,21.9456267 4.8514679,21.2385971 4.8514679,20.366432 Z M16.0257263,20.366432 C16.0257263,19.4942668 16.7404243,18.7872373 17.622049,18.7872373 C18.5036736,18.7872373 19.2183716,19.4942668 19.2183716,20.366432 C19.2183716,21.2385971 18.5036736,21.9456267 17.622049,21.9456267 C16.7404243,21.9456267 16.0257263,21.2385971 16.0257263,20.366432 Z M20.5106328,16.9072436 C20.8907096,16.9072436 21.1187557,17.2080425 21.1187557,17.5088415 C21.1187557,17.8096405 20.8146942,18.1104395 20.5106328,18.1104395 L7.74005171,18.1104395 C6.44779053,18.1104395 5.23154472,17.1328428 5.00349863,15.8544471 L2.72303772,2.54409168 C2.571007,1.86729395 1.88686872,1.26569597 1.20273045,1.26569597 L0.670622908,1.26569597 C0.366561454,1.26569597 0.0625,0.964896976 0.0625,0.664097984 C0.0625,0.363298992 0.366561454,0.0625 0.670622908,0.0625 L1.20273045,0.0625 C2.49499163,0.0625 3.71123745,1.04009672 3.93928354,2.31849244 L6.21974444,15.6288478 C6.37177517,16.3056456 7.05591344,16.9072436 7.74005171,16.9072436 L20.5106328,16.9072436 Z M19.9025099,3.14568967 C21.2707864,3.14568967 22.1829708,4.34888564 21.8789093,5.62728135 L20.2065713,12.2448592 C19.9025099,13.4480551 18.6862641,14.5008516 17.3940029,14.5760514 L7.9680978,15.2528491 C7.58802099,15.3280488 7.28395953,15.0272499 7.28395953,14.7264509 C7.20794417,14.3504521 7.51200562,14.0496531 7.81606708,14.0496531 L17.2419722,13.3728554 C18.0021258,13.2976556 18.8382948,12.6960577 18.9903255,11.9440602 L20.6626635,5.32648236 C20.8146942,4.72488438 20.5106328,4.34888564 19.9025099,4.34888564 L6.29575981,4.34888564 C5.99169835,4.34888564 5.6876369,4.04808664 5.6876369,3.74728765 C5.6876369,3.44648866 5.99169835,3.14568967 6.29575981,3.14568967 L19.9025099,3.14568967 Z" transform="translate(1 1)"/>
</svg>
