<?xml version="1.0" encoding="UTF-8"?>
<svg width="20px" height="20px" viewBox="0 0 20 20" version="1.1" xmlns="http://www.w3.org/2000/svg" xmlns:xlink="http://www.w3.org/1999/xlink">
    <!-- Generator: Sketch 49.2 (51160) - http://www.bohemiancoding.com/sketch -->
    <title>jlmx@3x</title>
    <desc>Created with Sketch.</desc>
    <defs></defs>
    <g id="v1.8.0" stroke="none" stroke-width="1" fill="none" fill-rule="evenodd">
        <g id="团长端-我的钱包" transform="translate(-14.000000, -332.000000)" fill="#000000" fill-rule="nonzero">
            <g id="Group-2" transform="translate(0.000000, 317.000000)">
                <g id="jlmx" transform="translate(14.000000, 15.000000)">
                    <path d="M10,0 C4.47680932,0 0,4.47680932 0,10 C0,15.5231907 4.47680932,20 10,20 C15.5231907,20 20,15.5231907 20,10 C20,4.47680932 15.5231907,0 10,0 Z M13.6612144,6.66367914 L11.8731795,8.45171409 L12.6551647,8.45171409 C13.0831279,8.45171409 13.430428,8.79901412 13.430428,9.22697737 C13.430428,9.65494062 13.0831279,10.0022406 12.6551647,10.0022406 L10.7752633,10.0022406 L10.7752633,10.9926059 L12.6551647,10.9926059 C13.0831279,10.9926059 13.430428,11.3399059 13.430428,11.7678691 C13.430428,12.1958324 13.0831279,12.5431324 12.6551647,12.5431324 L10.7752633,12.5431324 L10.7752633,14.6941519 C10.7752633,15.1221152 10.4279633,15.4694152 10,15.4694152 C9.57203675,15.4694152 9.22473672,15.1221152 9.22473672,14.6941519 L9.22473672,12.5431324 L7.34483531,12.5431324 C6.91687206,12.5431324 6.56957204,12.1958324 6.56957204,11.7678691 C6.56957204,11.3399059 6.91687206,10.9926059 7.34483531,10.9926059 L9.22473672,10.9926059 L9.22473672,10.0022406 L7.34483531,10.0022406 C6.91687206,10.0022406 6.56957204,9.65494062 6.56957204,9.22697737 C6.56957204,8.79901412 6.91687206,8.45171409 7.34483531,8.45171409 L8.12682052,8.45171409 L6.33878557,6.66367914 C6.03629845,6.36119202 6.03629845,5.8704907 6.33878557,5.56576294 C6.64127269,5.26327582 7.13197401,5.26327582 7.43670177,5.56576294 L10,8.13130181 L12.5632982,5.56800359 C12.8657853,5.26551647 13.3564867,5.26551647 13.6612144,5.56800359 C13.9637015,5.8704907 13.9637015,6.36119202 13.6612144,6.66367914 Z" id="Shape"></path>
                </g>
            </g>
        </g>
    </g>
</svg>