<?xml version="1.0" encoding="UTF-8"?>
<svg width="156px" height="108px" viewBox="0 0 156 108" version="1.1" xmlns="http://www.w3.org/2000/svg" xmlns:xlink="http://www.w3.org/1999/xlink">
    <!-- Generator: Sketch 49.2 (51160) - http://www.bohemiancoding.com/sketch -->
    <title>mdpi/kym</title>
    <desc>Created with Sketch.</desc>
    <defs>
        <polygon id="path-1" points="0 0.639066537 2.15219268 0.639066537 2.15219268 3.11459523 0 3.11459523"></polygon>
        <polygon id="path-3" points="0.2225 0.8456 6.623 0.8456 6.623 7.2206 0.2225 7.2206"></polygon>
        <polygon id="path-5" points="0.660712832 0.251 4.02257393 0.251 4.02257393 3.47541714 0.660712832 3.47541714"></polygon>
        <polygon id="path-7" points="0 108.749 155.623 108.749 155.623 1 0 1"></polygon>
    </defs>
    <g id="v1.1.0" stroke="none" stroke-width="1" fill="none" fill-rule="evenodd">
        <g id="拼团购详情-空页面" transform="translate(-111.000000, -423.000000)">
            <g id="kym" transform="translate(111.000000, 422.000000)">
                <g id="Group-3" transform="translate(0.000000, 25.749000)">
                    <mask id="mask-2" fill="white">
                        <use xlink:href="#path-1"></use>
                    </mask>
                    <g id="Clip-2"></g>
                    <path d="M1.5697,0.6865 L0.0737,1.9215 C-0.0413,2.0175 -0.0183,2.1995 0.1167,2.2645 L1.8587,3.0935 C2.0037,3.1645 2.1697,3.0465 2.1507,2.8855 L1.9047,0.8205 C1.8857,0.6595 1.6947,0.5825 1.5697,0.6865" id="Fill-1" fill="#EDEDED" mask="url(#mask-2)"></path>
                </g>
                <path d="M87.3232,9.0771 L85.0032,10.2391 C84.8242,10.3291 84.7992,10.5721 84.9552,10.6971 L86.9732,12.3001 C87.1422,12.4331 87.3942,12.3291 87.4172,12.1151 L87.7202,9.3501 C87.7432,9.1351 87.5172,8.9791 87.3232,9.0771" id="Fill-4" fill="#EDEDED"></path>
                <path d="M17.58,89.3222 C16.18,89.3222 15.04,88.1872 15.04,86.7922 C15.04,85.3972 16.18,84.2622 17.58,84.2622 C18.98,84.2622 20.12,85.3972 20.12,86.7922 C20.12,88.1872 18.98,89.3222 17.58,89.3222 M17.58,82.6432 C15.283,82.6432 13.414,84.5052 13.414,86.7922 C13.414,89.0802 15.283,90.9412 17.58,90.9412 C19.877,90.9412 21.746,89.0802 21.746,86.7922 C21.746,84.5052 19.877,82.6432 17.58,82.6432" id="Fill-6" fill="#E5E5E3"></path>
                <path d="M24.2856,25.8662 C23.1096,25.8662 22.1526,24.9132 22.1526,23.7412 C22.1526,22.5702 23.1096,21.6162 24.2856,21.6162 C25.4616,21.6162 26.4196,22.5702 26.4196,23.7412 C26.4196,24.9132 25.4616,25.8662 24.2856,25.8662 M24.2856,20.4022 C22.4376,20.4022 20.9326,21.9002 20.9326,23.7412 C20.9326,25.5822 22.4376,27.0812 24.2856,27.0812 C26.1346,27.0812 27.6386,25.5822 27.6386,23.7412 C27.6386,21.9002 26.1346,20.4022 24.2856,20.4022" id="Fill-8" fill="#EDEDED"></path>
                <path d="M124.6689,48.2383 C123.4929,48.2383 122.5359,47.2853 122.5359,46.1133 C122.5359,44.9423 123.4929,43.9883 124.6689,43.9883 C125.8449,43.9883 126.8029,44.9423 126.8029,46.1133 C126.8029,47.2853 125.8449,48.2383 124.6689,48.2383 M124.6689,42.7743 C122.8209,42.7743 121.3159,44.2723 121.3159,46.1133 C121.3159,47.9543 122.8209,49.4533 124.6689,49.4533 C126.5179,49.4533 128.0219,47.9543 128.0219,46.1133 C128.0219,44.2723 126.5179,42.7743 124.6689,42.7743" id="Fill-10" fill="#EDEDED"></path>
                <path d="M132.9208,90.9912 C132.0938,90.9912 131.4218,90.3222 131.4218,89.4992 C131.4218,88.6772 132.0938,88.0062 132.9208,88.0062 C133.7478,88.0062 134.4198,88.6772 134.4198,89.4992 C134.4198,90.3222 133.7478,90.9912 132.9208,90.9912 M132.9208,86.7932 C131.4218,86.7932 130.2028,88.0062 130.2028,89.4992 C130.2028,90.9912 131.4218,92.2062 132.9208,92.2062 C134.4198,92.2062 135.6388,90.9912 135.6388,89.4992 C135.6388,88.0062 134.4198,86.7932 132.9208,86.7932" id="Fill-12" fill="#F4F4F4"></path>
                <path d="M109.6557,5.5967 C108.8287,5.5967 108.1567,4.9277 108.1567,4.1047 C108.1567,3.2827 108.8287,2.6117 109.6557,2.6117 C110.4827,2.6117 111.1547,3.2827 111.1547,4.1047 C111.1547,4.9277 110.4827,5.5967 109.6557,5.5967 M112.3737,4.1047 C112.3737,2.6117 111.1547,1.3987 109.6557,1.3987 C108.1567,1.3987 106.9377,2.6117 106.9377,4.1047 C106.9377,5.5967 108.1567,6.8117 109.6557,6.8117 C111.1547,6.8117 112.3737,5.5967 112.3737,4.1047" id="Fill-14" fill="#F4F4F4"></path>
                <path d="M27.537,78.6465 L25.962,78.6465 L25.962,77.0785 C25.962,76.6305 25.599,76.2675 25.149,76.2675 C24.7,76.2675 24.336,76.6305 24.336,77.0785 L24.336,78.6465 L22.762,78.6465 C22.313,78.6465 21.949,79.0085 21.949,79.4565 C21.949,79.9025 22.313,80.2655 22.762,80.2655 L24.336,80.2655 L24.336,81.8345 C24.336,82.2815 24.7,82.6425 25.149,82.6425 C25.599,82.6425 25.962,82.2815 25.962,81.8345 L25.962,80.2655 L27.537,80.2655 C27.986,80.2655 28.349,79.9025 28.349,79.4565 C28.349,79.0085 27.986,78.6465 27.537,78.6465" id="Fill-16" fill="#F4F4F4"></path>
                <g id="Group-20" transform="translate(149.000000, 32.749000)">
                    <mask id="mask-4" fill="white">
                        <use xlink:href="#path-3"></use>
                    </mask>
                    <g id="Clip-19"></g>
                    <path d="M5.8105,3.2246 L4.2365,3.2246 L4.2365,1.6566 C4.2365,1.2086 3.8725,0.8456 3.4225,0.8456 C2.9745,0.8456 2.6095,1.2086 2.6095,1.6566 L2.6095,3.2246 L1.0355,3.2246 C0.5865,3.2246 0.2225,3.5866 0.2225,4.0346 C0.2225,4.4806 0.5865,4.8436 1.0355,4.8436 L2.6095,4.8436 L2.6095,6.4126 C2.6095,6.8596 2.9745,7.2206 3.4225,7.2206 C3.8725,7.2206 4.2365,6.8596 4.2365,6.4126 L4.2365,4.8436 L5.8105,4.8436 C6.2595,4.8436 6.6235,4.4806 6.6235,4.0346 C6.6235,3.5866 6.2595,3.2246 5.8105,3.2246" id="Fill-18" fill="#F4F4F4" mask="url(#mask-4)"></path>
                </g>
                <path d="M22.5077,52.1133 L20.9337,52.1133 L20.9337,50.5463 C20.9337,50.0973 20.5697,49.7353 20.1197,49.7353 C19.6707,49.7353 19.3067,50.0973 19.3067,50.5463 L19.3067,52.1133 L17.7327,52.1133 C17.2837,52.1133 16.9197,52.4763 16.9197,52.9233 C16.9197,53.3703 17.2837,53.7323 17.7327,53.7323 L19.3067,53.7323 L19.3067,55.3013 C19.3067,55.7483 19.6707,56.1103 20.1197,56.1103 C20.5697,56.1103 20.9337,55.7483 20.9337,55.3013 L20.9337,53.7323 L22.5077,53.7323 C22.9567,53.7323 23.3207,53.3703 23.3207,52.9233 C23.3207,52.4763 22.9567,52.1133 22.5077,52.1133" id="Fill-21" fill="#F4F4F4"></path>
                <path d="M135.3085,20.8066 L133.7345,20.8066 L133.7345,19.2396 C133.7345,18.7906 133.3705,18.4286 132.9205,18.4286 C132.4725,18.4286 132.1075,18.7906 132.1075,19.2396 L132.1075,20.8066 L130.5335,20.8066 C130.0835,20.8066 129.7205,21.1696 129.7205,21.6166 C129.7205,22.0636 130.0835,22.4256 130.5335,22.4256 L132.1075,22.4256 L132.1075,23.9946 C132.1075,24.4416 132.4725,24.8036 132.9205,24.8036 C133.3705,24.8036 133.7345,24.4416 133.7345,23.9946 L133.7345,22.4256 L135.3085,22.4256 C135.7585,22.4256 136.1215,22.0636 136.1215,21.6166 C136.1215,21.1696 135.7585,20.8066 135.3085,20.8066" id="Fill-23" fill="#F4F4F4"></path>
                <path d="M141.745,72.2881 L140.957,72.2881 L140.957,71.5041 C140.957,71.2801 140.776,71.1001 140.551,71.1001 C140.327,71.1001 140.145,71.2801 140.145,71.5041 L140.145,72.2881 L139.357,72.2881 C139.133,72.2881 138.951,72.4701 138.951,72.6931 C138.951,72.9171 139.133,73.0981 139.357,73.0981 L140.145,73.0981 L140.145,73.8831 C140.145,74.1051 140.327,74.2871 140.551,74.2871 C140.776,74.2871 140.957,74.1051 140.957,73.8831 L140.957,73.0981 L141.745,73.0981 C141.97,73.0981 142.152,72.9171 142.152,72.6931 C142.152,72.4701 141.97,72.2881 141.745,72.2881" id="Fill-25" fill="#E0DFDF"></path>
                <path d="M108.8266,104.5342 L108.0386,104.5342 L108.0386,103.7502 C108.0386,103.5262 107.8576,103.3462 107.6326,103.3462 C107.4086,103.3462 107.2256,103.5262 107.2256,103.7502 L107.2256,104.5342 L106.4386,104.5342 C106.2146,104.5342 106.0326,104.7162 106.0326,104.9392 C106.0326,105.1632 106.2146,105.3442 106.4386,105.3442 L107.2256,105.3442 L107.2256,106.1292 C107.2256,106.3512 107.4086,106.5332 107.6326,106.5332 C107.8576,106.5332 108.0386,106.3512 108.0386,106.1292 L108.0386,105.3442 L108.8266,105.3442 C109.0506,105.3442 109.2326,105.1632 109.2326,104.9392 C109.2326,104.7162 109.0506,104.5342 108.8266,104.5342" id="Fill-27" fill="#D9D9D9"></path>
                <path d="M42.4052,97.3623 L42.2982,96.7373 C42.2642,96.5453 42.3292,96.3483 42.4682,96.2123 L42.9252,95.7693 C43.2782,95.4253 43.0832,94.8283 42.5942,94.7583 L41.9652,94.6663 C41.7702,94.6383 41.6032,94.5163 41.5162,94.3413 L41.2342,93.7733 C41.0152,93.3323 40.3842,93.3323 40.1662,93.7733 L39.8842,94.3413 C39.7972,94.5163 39.6302,94.6383 39.4352,94.6663 L38.8052,94.7583 C38.3162,94.8283 38.1212,95.4253 38.4742,95.7693 L38.9302,96.2123 C39.0712,96.3483 39.1352,96.5453 39.1022,96.7373 L38.9942,97.3623 C38.9112,97.8473 39.4222,98.2173 39.8592,97.9883 L40.4232,97.6923 C40.5962,97.6023 40.8032,97.6023 40.9772,97.6923 L41.5402,97.9883 C41.9782,98.2173 42.4892,97.8473 42.4052,97.3623" id="Fill-29" fill="#E0DFDF"></path>
                <g id="Group-33" transform="translate(60.000000, 0.749000)">
                    <mask id="mask-6" fill="white">
                        <use xlink:href="#path-5"></use>
                    </mask>
                    <g id="Clip-32"></g>
                    <path d="M3.6659,1.1689 L3.2249,1.1059 C3.0899,1.0859 2.9729,1.0009 2.9119,0.8789 L2.7149,0.4819 C2.5629,0.1739 2.1219,0.1739 1.9689,0.4819 L1.7709,0.8789 C1.7109,1.0009 1.5939,1.0859 1.4579,1.1059 L1.0179,1.1689 C0.6759,1.2189 0.5399,1.6369 0.7869,1.8769 L1.1049,2.1869 C1.2039,2.2809 1.2489,2.4189 1.2249,2.5529 L1.1499,2.9899 C1.0919,3.3279 1.4489,3.5869 1.7539,3.4269 L2.1479,3.2209 C2.2699,3.1569 2.4139,3.1569 2.5349,3.2209 L2.9289,3.4269 C3.2349,3.5869 3.5919,3.3279 3.5329,2.9899 L3.4579,2.5529 C3.4349,2.4189 3.4789,2.2809 3.5779,2.1869 L3.8959,1.8769 C4.1439,1.6369 4.0069,1.2189 3.6659,1.1689" id="Fill-31" fill="#EDEDED" mask="url(#mask-6)"></path>
                </g>
                <path d="M126.3598,77.6513 L125.8828,77.6883 C125.7358,77.6993 125.5928,77.6383 125.5008,77.5243 L125.1998,77.1553 C124.9668,76.8693 124.5038,76.9733 124.4178,77.3323 L124.3068,77.7953 C124.2718,77.9373 124.1698,78.0533 124.0318,78.1063 L123.5868,78.2773 C123.2398,78.4093 123.1968,78.8803 123.5128,79.0723 L123.9208,79.3213 C124.0458,79.3983 124.1258,79.5313 124.1328,79.6773 L124.1588,80.1523 C124.1778,80.5213 124.6138,80.7083 124.8958,80.4673 L125.2588,80.1593 C125.3718,80.0633 125.5228,80.0293 125.6648,80.0663 L126.1268,80.1893 C126.4848,80.2853 126.7968,79.9293 126.6558,79.5883 L126.4718,79.1493 C126.4158,79.0143 126.4308,78.8593 126.5098,78.7363 L126.7698,78.3383 C126.9718,78.0273 126.7298,77.6223 126.3598,77.6513" id="Fill-34" fill="#F4F4F4"></path>
                <path d="M50.7328,59.5459 L50.7328,58.0169 C50.7328,57.7009 50.9988,57.4439 51.3048,57.4439 C51.6208,57.4439 51.8778,57.7019 51.8778,58.0169 L51.8778,59.5459 L53.4068,59.5459 C53.7228,59.5459 53.9788,59.8119 53.9788,60.1179 C53.9788,60.4349 53.7208,60.6909 53.4068,60.6909 L51.8778,60.6909 L51.8778,62.2199 C51.8778,62.5349 51.6118,62.7919 51.3048,62.7919 C50.9888,62.7919 50.7328,62.5339 50.7328,62.2199 L50.7328,60.6909 L49.2038,60.6909 C48.8878,60.6909 48.6318,60.4249 48.6318,60.1179 C48.6318,59.8019 48.8898,59.5459 49.2038,59.5459 L50.7328,59.5459 Z" id="Fill-36" fill="#E5E5E3"></path>
                <path d="M84.5341,63.8906 C83.4011,63.8906 82.4791,64.8106 82.4791,65.9416 C82.4791,67.0726 83.4011,67.9936 84.5341,67.9936 C85.6671,67.9936 86.5901,67.0726 86.5901,65.9416 C86.5901,64.8106 85.6671,63.8906 84.5341,63.8906 M84.5341,69.9936 C82.2981,69.9936 80.4791,68.1756 80.4791,65.9416 C80.4791,63.7076 82.2981,61.8906 84.5341,61.8906 C86.7701,61.8906 88.5901,63.7076 88.5901,65.9416 C88.5901,68.1756 86.7701,69.9936 84.5341,69.9936" id="Fill-38" fill="#CACACA"></path>
                <mask id="mask-8" fill="white">
                    <use xlink:href="#path-7"></use>
                </mask>
                <g id="Clip-41"></g>
                <polygon id="Fill-40" fill="#E6E6E6" mask="url(#mask-8)" points="70.071 44.195 102.084 44.195 102.084 43.432 70.071 43.432"></polygon>
                <path d="M63.769,45.9101 C62.609,45.9101 61.668,44.9721 61.668,43.8121 C61.668,42.6541 62.609,41.7151 63.769,41.7151 C64.929,41.7151 65.87,42.6541 65.87,43.8121 C65.87,44.9721 64.929,45.9101 63.769,45.9101" id="Fill-42" fill="#CACACA" mask="url(#mask-8)"></path>
                <path d="M57.6581,45.9101 C56.4981,45.9101 55.5571,44.9721 55.5571,43.8121 C55.5571,42.6541 56.4981,41.7151 57.6581,41.7151 C58.8181,41.7151 59.7591,42.6541 59.7591,43.8121 C59.7591,44.9721 58.8181,45.9101 57.6581,45.9101" id="Fill-43" fill="#CACACA" mask="url(#mask-8)"></path>
                <path d="M51.5468,45.9101 C50.3868,45.9101 49.4458,44.9721 49.4458,43.8121 C49.4458,42.6541 50.3868,41.7151 51.5468,41.7151 C52.7068,41.7151 53.6478,42.6541 53.6478,43.8121 C53.6478,44.9721 52.7068,45.9101 51.5468,45.9101" id="Fill-44" fill="#CACACA" mask="url(#mask-8)"></path>
                <path d="M66.9648,63.8906 C65.8318,63.8906 64.9088,64.8106 64.9088,65.9416 C64.9088,67.0726 65.8318,67.9936 66.9648,67.9936 C68.0978,67.9936 69.0208,67.0726 69.0208,65.9416 C69.0208,64.8106 68.0978,63.8906 66.9648,63.8906 M66.9648,69.9936 C64.7288,69.9936 62.9088,68.1756 62.9088,65.9416 C62.9088,63.7076 64.7288,61.8906 66.9648,61.8906 C69.2008,61.8906 71.0208,63.7076 71.0208,65.9416 C71.0208,68.1756 69.2008,69.9936 66.9648,69.9936" id="Fill-45" fill="#CACACA" mask="url(#mask-8)"></path>
                <path d="M75.7494,88.6826 C69.7524,88.6826 65.2454,84.9286 63.5344,83.2556 C63.1174,82.8476 63.1464,82.1686 63.5894,81.7886 L63.5944,81.7856 C63.9834,81.4516 64.5644,81.4616 64.9334,81.8186 C66.4364,83.2736 70.5194,86.6826 75.7494,86.6826 C81.4144,86.6826 85.0404,83.1286 86.5694,81.2306 C86.9004,80.8206 87.4874,80.7376 87.9194,81.0386 C88.3934,81.3706 88.4954,82.0296 88.1324,82.4786 C86.3894,84.6366 82.2524,88.6826 75.7494,88.6826" id="Fill-46" fill="#CACACA" mask="url(#mask-8)"></path>
                <path d="M100.3656,101.3222 L99.8466,99.9142 C103.6776,98.5042 112.7816,96.0782 119.8106,97.0062 L119.6156,98.4922 C113.3616,97.6712 104.6776,99.7342 100.3656,101.3222" id="Fill-47" fill="#CACACA" mask="url(#mask-8)"></path>
                <path d="M50.5277,108.749 C49.7617,108.749 49.4047,108.065 48.9537,107.2 C48.2867,105.922 47.2787,103.99 44.6537,102.639 C40.6527,100.576 37.2087,101.516 37.1737,101.523 L36.7587,100.082 C36.9217,100.037 40.7857,98.958 45.3417,101.305 C48.3877,102.875 49.5747,105.148 50.2837,106.506 C50.4167,106.761 50.5747,107.065 50.6847,107.227 C51.0177,107.152 51.6557,106.907 52.1857,106.705 C53.4517,106.221 55.0277,105.617 56.6537,105.405 C58.7757,105.129 60.1817,105.281 60.9377,105.361 C61.1247,105.382 61.2677,105.399 61.3687,105.399 L61.3687,106.899 C61.2297,106.899 61.0337,106.881 60.7767,106.853 C60.0347,106.772 58.7917,106.637 56.8477,106.894 C55.3977,107.082 53.9137,107.649 52.7217,108.105 C51.7457,108.479 51.0407,108.749 50.5277,108.749" id="Fill-48" fill="#CACACA" mask="url(#mask-8)"></path>
                <path d="M97.4765,93.3037 C93.4655,94.5467 90.9415,97.0877 89.4345,98.6067 C89.1045,98.9387 88.7095,99.3367 88.4785,99.5197 C88.3775,99.4577 88.2355,99.3547 88.1225,99.2727 C87.3855,98.7327 86.2715,97.9177 83.9415,97.9177 C82.1455,97.9177 81.1675,98.8017 80.4545,99.4477 C79.6915,100.1377 79.5535,100.2617 78.6535,99.7147 C75.6295,97.8707 69.4955,96.1927 65.7845,96.1927 C63.5195,96.1927 60.2265,97.1177 57.5805,97.8627 C56.0125,98.3037 54.3905,98.7597 53.9045,98.7747 C53.7115,98.6787 53.2825,98.0397 52.9375,97.5267 C51.7175,95.7077 49.7305,92.7597 44.9385,90.4907 L44.9385,52.1087 L106.5605,52.1087 L106.5605,91.2727 C102.8165,91.8587 99.5395,92.6637 97.4765,93.3037 M52.2005,37.7157 L99.2995,37.7157 C103.3035,37.7157 106.5605,40.9727 106.5605,44.9757 L106.5605,51.3457 L44.9385,51.3457 L44.9385,44.9757 C44.9385,40.9727 48.1955,37.7157 52.2005,37.7157 M109.4505,90.8837 L109.4515,45.8507 C109.4515,39.7857 104.5165,34.8527 98.4515,34.8527 L53.0485,34.8527 C46.9825,34.8527 42.0485,39.7857 42.0485,45.8507 L42.0485,89.3277 C34.3135,86.6937 28.0625,88.0717 27.7835,88.1357 L28.2285,90.0847 C28.2975,90.0717 35.0885,88.5897 42.9635,91.8017 C48.0885,93.8927 50.0075,96.7497 51.2775,98.6417 C52.0725,99.8247 52.7005,100.7597 53.8295,100.7597 C54.6275,100.7597 55.9145,100.4077 58.1225,99.7877 C60.6495,99.0767 63.7955,98.1927 65.7845,98.1927 C69.1405,98.1927 74.8885,99.7617 77.6125,101.4217 C78.3655,101.8807 78.9955,102.0547 79.5345,102.0547 C80.5525,102.0547 81.2415,101.4327 81.7955,100.9307 C82.3965,100.3877 82.9155,99.9177 83.9415,99.9177 C85.6185,99.9177 86.3215,100.4327 86.9425,100.8867 C87.3795,101.2057 87.8745,101.5687 88.5605,101.5687 C89.3115,101.5687 89.8915,100.9847 90.8525,100.0167 C92.3185,98.5397 94.5345,96.3097 98.0685,95.2137 C103.4555,93.5447 114.2325,91.5727 121.8435,92.9817 L122.2075,91.0147 C118.2365,90.2787 113.6805,90.3997 109.4505,90.8837" id="Fill-49" fill="#CACACA" mask="url(#mask-8)"></path>
            </g>
        </g>
    </g>
</svg>