<svg xmlns="http://www.w3.org/2000/svg" width="344" height="2" viewBox="0 0 344 2">
  <path fill="#D8D8D8" fill-rule="evenodd" d="M1,0 L180,0 C180.552285,-1.01453063e-16 181,0.44771525 181,1 C181,1.55228475 180.552285,2 180,2 L1,2 C0.44771525,2 6.76353751e-17,1.55228475 0,1 C-6.76353751e-17,0.44771525 0.44771525,1.01453063e-16 1,0 Z M268,0 L343,0 C343.552285,-1.01453063e-16 344,0.44771525 344,1 C344,1.55228475 343.552285,2 343,2 L268,2 C267.447715,2 267,1.55228475 267,1 C267,0.44771525 267.447715,3.23497668e-16 268,2.22044605e-16 Z M215,0 L235,0 C235.552285,-1.01453063e-16 236,0.44771525 236,1 C236,1.55228475 235.552285,2 235,2 L215,2 C214.447715,2 214,1.55228475 214,1 C214,0.44771525 214.447715,1.01453063e-16 215,0 Z M241,0 L261,0 C261.552285,-1.01453063e-16 262,0.44771525 262,1 C262,1.55228475 261.552285,2 261,2 L241,2 C240.447715,2 240,1.55228475 240,1 C240,0.44771525 240.447715,1.01453063e-16 241,0 Z M188,0 L208,0 C208.552285,-1.01453063e-16 209,0.44771525 209,1 C209,1.55228475 208.552285,2 208,2 L188,2 C187.447715,2 187,1.55228475 187,1 C187,0.44771525 187.447715,1.01453063e-16 188,0 Z"/>
</svg>
