<?xml version="1.0" encoding="UTF-8"?>
<svg width="50px" height="50px" viewBox="0 0 50 50" version="1.1" xmlns="http://www.w3.org/2000/svg" xmlns:xlink="http://www.w3.org/1999/xlink">
    <!-- Generator: Sketch 49.3 (51167) - http://www.bohemiancoding.com/sketch -->
    <title>sc@3x</title>
    <desc>Created with Sketch.</desc>
    <defs></defs>
    <g id="Page-2" stroke="none" stroke-width="1" fill="none" fill-rule="evenodd">
        <g id="拼团购-分享" transform="translate(-244.000000, -535.000000)">
            <g id="Group-11">
                <g id="Group-10" transform="translate(0.000000, 439.000000)">
                    <g id="Group-8" transform="translate(215.000000, 96.000000)">
                        <g id="Group-9">
                            <g id="sc" transform="translate(29.000000, 0.000000)">
                                <circle id="Oval-3" fill="#03C7B6" cx="25" cy="25" r="25"></circle>
                                <path d="M25.4999709,12.0000579 C24.968471,12.0000579 24.4369419,12.0000579 24.0117943,12.1059352 C22.7362351,12.2118124 21.566912,12.5294731 20.503912,12.9529821 C20.503912,12.9529821 29.6456473,21.9529531 29.8582066,22.2705848 L29.8582066,12.7411986 C29.5393531,12.6353214 29.3267066,12.5294152 29.0078241,12.5294152 C27.9447951,12.2118124 26.7755592,12 25.4999418,12 L25.4999418,12 L25.4999709,12.0000579 Z M35.0668829,15.9176897 C34.7480294,15.6000869 34.3228237,15.176549 33.8975888,14.8588303 C32.9408831,14.1176897 31.8778831,13.4823683 30.8149123,13.0588303 C30.8149123,13.0588303 30.9212065,25.8705848 30.8149123,26.2940938 L37.6180594,19.5176317 C37.5117652,19.3058483 37.299206,18.9882166 37.1928536,18.776491 C36.6613537,17.7176317 35.9172944,16.7647076 35.0668829,15.9176607 L35.0668829,15.9176607 L35.0668829,15.9176897 Z M38.0432652,20.576491 C38.0432652,20.576491 29.0078532,29.6823683 28.6889707,29.8940938 L38.3621768,29.8940938 C38.468471,29.576491 38.5747942,29.3646786 38.5747942,29.0470469 C38.8936477,27.8823393 39,26.7176317 39,25.5529241 C39,25.023509 39,24.4940648 38.8937058,24.0705848 C38.7874117,22.800029 38.5748524,21.6352924 38.0433233,20.5764621 L38.0433233,20.5764621 L38.0432652,20.576491 Z M24.6495884,30.9529531 L31.4527355,37.7294152 C31.665353,37.6235379 31.9842355,37.5176317 32.1967947,37.3058772 C33.1535005,36.7764621 34.1101771,36.0353214 34.9605596,35.1882455 C35.2794131,34.8706428 35.7046188,34.4471048 36.0235886,34.0235379 C36.7676478,33.0705848 37.4054711,32.0117545 37.8306768,30.9529531 C37.936971,30.9529531 25.0747942,30.9529531 24.6495884,30.9529531 L24.6495884,30.9529531 L24.6495884,30.9529531 Z M21.1417353,28.7294152 L21.1417353,38.3646786 C21.4605887,38.4705559 21.6732352,38.5764621 21.9921177,38.5764621 C23.1614118,38.8940648 24.3307059,39 25.5,39 C26.0315,39 26.563029,39 26.9881766,38.8941228 C28.2637358,38.7882455 29.433059,38.4705848 30.4960589,38.0470759 C30.4960589,38.1529531 21.3543236,29.1529821 21.1417643,28.7294731 L21.1417643,28.7294731 L21.1417353,28.7294152 Z M20.1850586,24.8118124 L13.3819115,31.5882745 C13.4882057,31.8000579 13.700765,32.1176897 13.8071173,32.3294152 C14.3386173,33.2823683 15.0826765,34.2352924 15.933088,35.0823393 C16.2519415,35.3999421 16.6771473,35.82348 17.1023821,36.1411986 C18.0590879,36.8823393 19.1220878,37.5176607 20.1850586,37.9411986 C20.1850586,38.0470759 20.0787644,25.1294441 20.1850586,24.8118124 L20.1850586,24.8118124 L20.1850586,24.8118124 Z M12.4252058,22.0588303 C12.1063523,23.2235379 12,24.3882455 12,25.5529531 C12,26.0823683 12,26.6118124 12.1062942,27.0352924 C12.2125883,28.3058483 12.5315,29.4705848 12.9566767,30.5294152 C12.9566767,30.5294152 21.9920887,21.4235379 22.3109712,21.2118124 L12.637765,21.2118124 C12.5314709,21.5294152 12.5314709,21.7412276 12.4251476,22.0588593 L12.4251476,22.0588593 L12.4252058,22.0588303 Z M18.6968238,13.9059352 C17.7401181,14.4353503 16.7834414,15.176491 15.933059,16.0235669 C15.5078532,16.3411697 15.1889997,16.7647076 14.87003,17.1882745 C14.1259707,18.1412276 13.4881475,19.2000579 13.0629417,20.2588593 C13.0629417,20.2588593 25.9251476,20.1529821 26.3503243,20.2588593 L19.5471772,13.4823972 C19.2283238,13.5882745 18.909354,13.6941807 18.6967947,13.9059352 L18.6967947,13.9059352 L18.6968238,13.9059352 Z" id="Shape" fill="#FFFFFF"></path>
                            </g>
                        </g>
                    </g>
                </g>
            </g>
        </g>
    </g>
</svg>