<?xml version="1.0" encoding="UTF-8"?>
<svg width="25px" height="25px" viewBox="0 0 25 25" version="1.1" xmlns="http://www.w3.org/2000/svg" xmlns:xlink="http://www.w3.org/1999/xlink">
    <!-- Generator: Sketch 49.2 (51160) - http://www.bohemiancoding.com/sketch -->
    <title>mdpi/Shape</title>
    <desc>Created with Sketch.</desc>
    <defs></defs>
    <g id="v1.5.0" stroke="none" stroke-width="1" fill="none" fill-rule="evenodd">
        <g id="企业端-员工列表" transform="translate(-330.000000, -126.000000)" fill="#FFA816" fill-rule="nonzero">
            <g id="电话-copy-6" transform="translate(330.000000, 126.000000)">
                <path d="M12.5,5.12354927e-05 C5.60745437,5.12354927e-05 0,5.60754535 0,12.5000256 C0,19.3925059 5.60750561,25 12.5,25 C19.3924944,25 25,19.3928645 25,12.500333 C25,5.60780153 19.3924944,0 12.5,0 L12.5,5.12354927e-05 Z M17.0718292,19.042798 C12.6458677,19.042798 6.06811363,12.0222546 6.06811363,8.33465692 C6.06811363,6.86038123 7.33916634,5.86282619 8.400025,5.86282619 C9.52175156,5.86282619 11.4335567,9.09780958 11.4335567,9.78198273 C11.4335567,10.263955 11.2254377,10.6049785 11.0585889,10.8792164 C10.9288092,11.0918693 10.8522376,11.2247742 10.8438349,11.3779939 C11.0159353,11.916274 13.0298786,13.9242955 13.5986193,14.1264451 C13.7497387,14.1131751 13.9410268,14.0134708 14.1432281,13.9082075 C14.4601203,13.7431011 14.85466,13.5374419 15.3366589,13.5374419 C16.107191,13.5374419 19.4034332,15.6874625 19.4034332,16.571326 C19.4037918,18.2519526 18.4460961,19.042798 17.0718805,19.042798 L17.0718292,19.042798 Z" id="Shape"></path>
            </g>
        </g>
    </g>
</svg>