<?xml version="1.0" encoding="UTF-8"?>
<svg width="31px" height="31px" viewBox="0 0 31 31" version="1.1" xmlns="http://www.w3.org/2000/svg" xmlns:xlink="http://www.w3.org/1999/xlink">
    <!-- Generator: Sketch 49.3 (51167) - http://www.bohemiancoding.com/sketch -->
    <title>shdz_bj@3x</title>
    <desc>Created with Sketch.</desc>
    <defs></defs>
    <g id="Page-2" stroke="none" stroke-width="1" fill="none" fill-rule="evenodd" opacity="0.400000006">
        <g id="19地址管理" transform="translate(-317.000000, -215.000000)" fill="#000000" fill-rule="nonzero">
            <g id="Group-3-Copy" transform="translate(13.000000, 183.000000)">
                <g id="jiaoyiyuntubiao-" transform="translate(304.000000, 32.000000)">
                    <path d="M26.3333333,29 L3.66666667,29 C3.26666667,29 3,28.7333333 3,28.3333333 C3,27.9333333 3.26666667,27.6666667 3.66666667,27.6666667 L26.3333333,27.6666667 C26.7333333,27.6666667 27,27.9333333 27,28.3333333 C27,28.7333333 26.7333333,29 26.3333333,29 Z M26.6,8.2 L23.8,5.4 C23.2666667,4.86666667 22.4666667,4.86666667 21.9333333,5.4 L7.13333333,20.2 C7,20.3333333 6.73333333,20.6 6.73333333,21 L6.46666667,24.0666667 C6.46666667,24.4666667 6.6,24.8666667 6.86666667,25.1333333 C7.13333333,25.4 7.53333333,25.5333333 7.93333333,25.5333333 L11,25.2666667 C11.2666667,25.2666667 11.6666667,25.1333333 11.8,24.8666667 L26.6,10.0666667 C27.1333333,9.53333333 27.1333333,8.73333333 26.6,8.2 Z M22.8666667,6.33333333 L25.6666667,9.13333333 L23.8,11 L21,8.2 L22.8666667,6.33333333 Z M20.0666667,9.13333333 L22.8666667,11.9333333 L13.4,21.4 L10.6,18.6 L20.0666667,9.13333333 Z M10.8666667,23.9333333 L7.66666667,24.2 L7.93333333,21.1333333 L9.66666667,19.5333333 L12.4666667,22.3333333 L10.8666667,23.9333333 Z" id="Shape"></path>
                </g>
            </g>
        </g>
    </g>
</svg>