<?xml version="1.0" encoding="UTF-8"?>
<svg width="101px" height="94px" viewBox="0 0 101 94" version="1.1" xmlns="http://www.w3.org/2000/svg" xmlns:xlink="http://www.w3.org/1999/xlink">
    <!-- Generator: Sketch 49.3 (51167) - http://www.bohemiancoding.com/sketch -->
    <title>shdz@3x</title>
    <desc>Created with Sketch.</desc>
    <defs>
        <rect id="path-1" x="26" y="92" width="74" height="1"></rect>
        <polygon id="path-2" points="14 92 22 92 22 93 14 93"></polygon>
    </defs>
    <g id="Page-2" stroke="none" stroke-width="1" fill="none" fill-rule="evenodd">
        <g id="16地址管理-空页面" transform="translate(-129.000000, -202.000000)">
            <g id="shdz" transform="translate(130.000000, 203.000000)">
                <g id="地址" transform="translate(28.000000, 0.000000)">
                    <path d="M33,91.0410156 C32,91.0410156 23.5765146,78.7941867 15.9814453,66.7070313 C9.09674503,55.7503908 0,48.0078125 0,35.2206096 C9.35352406e-16,14.149492 15.6005859,3.10819318e-15 34,0 C52.3994141,0 66,14.1507136 66,35.2206096 C66,45.5205078 56.918475,57.2383804 50.3535156,66.7070312 C41.2392578,79.8525391 34,91.0410156 33,91.0410156 Z" id="Shape" stroke="#979797" fill-rule="nonzero"></path>
                    <path d="M10.3663054,20.5140692 C8.01327801,26.1875718 6.7526172,31.8353582 6.58432293,37.4574285 C6.33188153,45.890534 10.1145204,50.5995622 12.8519011,53.6539617 C15.2627897,56.3440579 17.8271123,58.8724305 21.0611296,62.7762762 C22.5730757,64.6013761 27.8909636,71.6551824 30.1763639,76.598786 C32.4617643,81.5423895 34.4207487,89.8277899 32.8233366,90.2167059 C31.6059138,90.5131073 24.3492155,74.3207098 18.3472624,65.9398504 C12.3453093,57.558991 4.88388348,53.4056707 2.79111004,43.1878973 C0.698336605,32.9701238 3.11288739,24.2250067 5.90097332,21.6517645 C7.75969728,19.9362697 9.24814129,19.5570379 10.3663054,20.5140692 Z" id="Path-18" fill="#D8D8D8" opacity="0.646770059"></path>
                    <path d="M22.9209302,34 C22.4093023,34 22,33.5534884 22,32.9953488 C22,26.9339535 26.5227907,22 32.0790698,22 C32.5906977,22 33,22.4465116 33,23.0046512 C33,23.5627907 32.5906977,24.0093023 32.0790698,24.0093023 C27.5255814,24.0093023 23.8316279,28.0502326 23.8316279,33.0065116 C23.8316279,33.5534884 23.4223256,34 22.9209302,34 Z" id="Shape" fill="#979797" fill-rule="nonzero"></path>
                    <path d="M33,52 C21.970066,52 13,43.029934 13,32 C13,20.970066 21.970066,12 33,12 C44.029934,12 53,20.9802131 53,32 C53,36.5966514 51.4069001,41.0816844 48.5048199,44.6331811 C47.8655505,45.4043633 46.7290715,45.5261289 45.9477423,44.8970066 C45.166413,44.2577372 45.0547945,43.1212582 45.6839168,42.339929 C48.058346,39.4378488 49.3571791,35.7645865 49.3571791,32.0101471 C49.3571791,22.9893455 42.0208016,15.652968 33,15.652968 C23.9791984,15.652968 16.6428209,22.9893455 16.6428209,32.0101471 C16.6428209,41.0309488 23.9791984,48.3673262 33,48.3673262 C35.283105,48.3673262 37.4951801,47.9107052 39.5651953,46.9974632 C40.4885845,46.601725 41.5540335,47.0177575 41.9599188,47.9309995 C42.3658042,48.8543886 41.9396246,49.9198376 41.0263825,50.325723 C38.4895992,51.4317605 35.7904617,52 33,52 Z" id="Shape" stroke="#FFFFFF" stroke-width="2" fill="#979797" fill-rule="nonzero"></path>
                </g>
                <g id="Rectangle-40">
                    <use fill="#D8D8D8" fill-rule="evenodd" xlink:href="#path-1"></use>
                    <rect stroke="#979797" stroke-width="1" x="26.5" y="92.5" width="73" height="1"></rect>
                </g>
                <g id="Rectangle-40-Copy">
                    <use fill="#D8D8D8" fill-rule="evenodd" xlink:href="#path-2"></use>
                    <path stroke="#979797" stroke-width="1" d="M18,92.5 L22,92.5 L21.5,92 L21.5,93 L22,92.5 L18,92.5 Z M18,92.5 L14,92.5 L14.5,93 L14.5,92 L14,92.5 L18,92.5 Z"></path>
                </g>
                <path d="M0.541992188,26.7988281 C0.541992188,26.7988281 2.72460938,25.1503906 7.08984375,21.8535156 C10.1341146,25.1503906 11.90625,26.7988281 12.40625,26.7988281 C12.90625,26.7988281 14.8421224,25.1503906 18.2138672,21.8535156 L24.5126953,26.7988281" id="Path-17" stroke="#979797" stroke-width="1.5" stroke-linecap="round"></path>
                <path d="M82.4348145,86.626709 C82.6388289,86.626709 83.7049142,87.2139315 84.4099121,88.2080078 C85.3053351,89.4705914 85.5471191,91.1759614 85.5471191,91.7231445 C85.5471191,92.5822754 86.095459,88.2961426 87.2834473,87.9233398 C88.4714355,87.5505371 89.0388184,87.8676758 89.7241211,88.2080078" id="Path-19" stroke="#979797" stroke-linecap="round"></path>
            </g>
        </g>
    </g>
</svg>