<?xml version="1.0" encoding="UTF-8"?>
<svg width="11px" height="14px" viewBox="0 0 11 14" version="1.1" xmlns="http://www.w3.org/2000/svg" xmlns:xlink="http://www.w3.org/1999/xlink">
    <!-- Generator: Sketch 49.3 (51167) - http://www.bohemiancoding.com/sketch -->
    <title>ss_dw@3x</title>
    <desc>Created with Sketch.</desc>
    <defs></defs>
    <g id="Page-2" stroke="none" stroke-width="1" fill="none" fill-rule="evenodd">
        <g id="查看地图" transform="translate(-25.000000, -608.000000)" fill="#616161" fill-rule="nonzero">
            <g id="Group" transform="translate(0.000000, 542.000000)">
                <g id="ss_dw" transform="translate(25.000000, 66.000000)">
                    <path d="M5.50256727,0 C2.46329881,0 0,2.49995156 0,5.58024903 C0,6.99828878 0.524543796,8.28502855 1.3807844,9.26977838 C1.40392604,9.31442037 1.43478156,9.35906236 1.47077966,9.39845236 L5.0448771,13.1956477 C5.06287615,13.2192817 5.0808752,13.2455417 5.10144555,13.2665497 C5.1554427,13.3216957 5.21715374,13.3610857 5.28400736,13.3899717 C5.48971081,13.4871336 5.73912624,13.4556216 5.90626029,13.2849317 C5.95254357,13.2376637 5.98854167,13.1825177 6.01425461,13.1247457 L9.52149842,9.39845236 C9.55492523,9.36694036 9.58063816,9.32755037 9.6037798,9.28816038 C10.4703056,8.30341055 10.999992,7.00616678 10.999992,5.58287502 C11.0051345,2.49995156 8.54183574,0 5.50256727,0 Z M5.49999598,7.84911263 C4.13206804,7.84911263 3.02126941,6.72255883 3.02126941,5.33603107 C3.02126941,3.94950331 4.13206804,2.82294951 5.49999598,2.82294951 C6.86792392,2.82294951 7.97872255,3.94950331 7.97872255,5.33603107 C7.97872255,6.72255883 6.86792392,7.84911263 5.49999598,7.84911263 Z" id="Shape"></path>
                </g>
            </g>
        </g>
    </g>
</svg>