<?xml version="1.0" encoding="UTF-8"?>
<svg width="25px" height="25px" viewBox="0 0 25 25" version="1.1" xmlns="http://www.w3.org/2000/svg" xmlns:xlink="http://www.w3.org/1999/xlink">
    <!-- Generator: Sketch 49.2 (51160) - http://www.bohemiancoding.com/sketch -->
    <title>tgylb@3x</title>
    <desc>Created with Sketch.</desc>
    <defs></defs>
    <g id="v1.5.0" stroke="none" stroke-width="1" fill="none" fill-rule="evenodd">
        <g id="企业端-管理员" transform="translate(-21.000000, -500.000000)" fill="#666666" fill-rule="nonzero">
            <g id="Group-6" transform="translate(10.000000, 388.000000)">
                <g id="Group-4" transform="translate(11.000000, 62.000000)">
                    <g id="Group-3-Copy" transform="translate(0.000000, 50.000000)">
                        <g id="Group-2-Copy">
                            <path d="M21.7627035,22 L4.23993625,22 C3.85201959,21.9585346 3.49948362,21.7556168 3.26872615,21.4409768 C3.03796869,21.1263368 2.9503174,20.7290551 3.02725345,20.3464955 C3.02725345,17.237907 8.9284773,14.0956245 8.92847732,14.0956245 L11.6994325,19.3444094 L12.198479,18.0715229 L11.4174713,16.5028775 L12.9794866,14.9379758 L14.5415019,16.5066213 L13.7604942,18.0740187 L14.1821885,19.3219467 L17.0317435,14.10436 C17.0317435,14.10436 22.9753863,17.4475589 22.9753863,20.3639665 C23.0480236,20.7440576 22.9582475,21.1372072 22.727832,21.4480613 C22.4974166,21.7589153 22.1474104,21.9590773 21.7627035,22 Z M17.2263716,10.0498421 C16.9700543,11.0844278 16.4675557,12.0417256 15.7616704,12.840209 C15.0520155,13.5669605 14.1320548,14.0523742 13.1316958,14.2279049 L13.0443626,14.2453758 L12.9582771,14.2304007 C11.9860865,14.0833698 11.088479,13.6228421 10.4019119,12.9188285 C9.65924785,12.1104229 9.12706287,11.1315064 8.85237273,10.0685611 C8.53284189,9.88602717 8.28738656,9.59723595 8.15869822,9.2524162 C7.97252663,8.74747665 7.89061404,8.2100297 7.91790833,7.67253944 L7.91790833,7.42295386 L8.12376498,7.28443386 C8.18992601,7.23824121 8.25911676,7.19654961 8.33086923,7.15964107 C8.02021284,5.2528072 8.10130789,3.62800503 9.25160986,2.54230772 C10.1661124,1.87217041 11.7755371,2.32766411 13.2439812,2.10802881 C17.4434568,1.48406485 17.4147616,3.61178197 17.8352082,7.23077295 L17.90757,7.27819421 L18.1109314,7.41671421 L18.1109314,7.6662998 C18.1343826,8.19512928 18.057332,8.72360877 17.8838652,9.22371387 C17.7647537,9.56572941 17.5328941,9.85705661 17.2263716,10.0498421 Z M16.7136014,8.14176034 L16.6487254,7.92836467 L16.5114876,7.93585223 L16.4328878,7.52278809 C16.3742498,7.2020706 16.279431,5.5261034 16.1584123,5.25904682 C15.7476275,5.31673068 15.3321214,5.19232111 15.0205864,4.91836251 L14.8321964,5.50114485 L14.5327686,5.46121114 L14.5726923,5.10679962 L14.2557978,5.61345837 L13.9738366,5.55730161 L14.2508073,4.80230521 C12.7673919,5.83558954 10.2072838,5.78192863 9.86793218,5.32019529 C9.82490159,5.39439759 9.79493868,5.4754443 9.77935145,5.55979746 C9.70948495,5.83933331 9.62963752,7.57020935 9.56101865,7.84600143 L9.54105679,7.94708358 L9.5348187,7.94708358 C9.5215108,8.00448827 9.50778702,8.05440538 9.49364738,8.09683493 C9.28823811,8.04358346 9.07194779,8.0496411 8.86983936,8.11430593 C8.88380611,8.37728009 8.93808694,8.63654638 9.03078183,8.88302953 C9.08387026,9.05668666 9.21210713,9.19732438 9.38011432,9.2661434 L9.62963752,9.34476287 L9.69950403,9.59434845 C9.92347199,10.5819776 10.3958521,11.4960468 11.0718817,12.2499391 C11.5954678,12.7862867 12.2747471,13.1439145 13.0131722,13.2719921 C13.7905579,13.1244386 14.5043944,12.7430502 15.0592625,12.1788072 C15.6996304,11.4348361 16.143938,10.5425668 16.3517927,9.5831171 L16.4166688,9.34101908 L16.6549634,9.25615999 C16.8190246,9.17991347 16.9428823,9.03741883 16.9955626,8.86431062 C17.0853265,8.62443204 17.1354704,8.37154218 17.1440289,8.11555387 C17.0001877,8.11657995 16.8565051,8.12532802 16.7136014,8.14176034 Z" id="Shape"></path>
                        </g>
                    </g>
                </g>
            </g>
        </g>
    </g>
</svg>