<?xml version="1.0" encoding="UTF-8"?>
<svg width="20px" height="20px" viewBox="0 0 20 20" version="1.1" xmlns="http://www.w3.org/2000/svg" xmlns:xlink="http://www.w3.org/1999/xlink">
    <!-- Generator: Sketch 49.2 (51160) - http://www.bohemiancoding.com/sketch -->
    <title>txjl@3x</title>
    <desc>Created with Sketch.</desc>
    <defs></defs>
    <g id="v1.8.0" stroke="none" stroke-width="1" fill="none" fill-rule="evenodd">
        <g id="团长端-我的钱包" transform="translate(-15.000000, -382.000000)" fill="#000000" fill-rule="nonzero">
            <g id="Group-3" transform="translate(15.000000, 382.000000)">
                <g id="txjl">
                    <path d="M10,3.5 C6.41588056,3.5 3.5,6.41588056 3.5,10 C3.5,13.5841194 6.41590056,16.5 10,16.5 C13.5840994,16.5 16.5,13.5841194 16.5,10 C16.5,6.41588056 13.5841194,3.5 10,3.5 Z M5.49999692,7.50001384 L12.7929081,7.50001384 L12.2928989,7.00000461 L12.9999954,6.29288813 L14.3535521,7.64644483 C14.4965433,7.78945602 14.5393207,8.00450279 14.4619254,8.1913513 C14.3845302,8.37817981 14.2022214,8.50001231 13.9999938,8.50001231 L5.49999692,8.50001231 L5.49999692,7.50001384 Z M14.5000031,12.5000061 L7.20709187,12.5000061 L7.70710111,13.0000154 L7.00000463,13.7071319 L5.64644793,12.3535752 C5.50345673,12.210564 5.46067935,11.9955172 5.5380546,11.8086687 C5.61544984,11.6218402 5.79775863,11.5000077 5.99998618,11.5000077 L14.5000031,11.5000077 L14.5000031,12.5000061 Z" id="Shape"></path>
                    <path d="M9.99999,0 C4.47713794,0 0,4.47716242 0,10 C0,15.48366 4.41384193,19.936324 9.8825774,19.9992601 C9.92069501,19.99974 9.95889259,20 9.99713018,20 C9.99761014,20 9.99809013,20 9.99857009,20 C9.99905005,20 9.99953004,20 10.00001,20 C15.5228621,20 20,15.5228376 20,9.99999999 C20,4.4771624 15.5228421,0 9.99999,0 Z M16.9625313,12.9156193 C16.5847752,13.8087839 16.0440492,14.6108141 15.3554326,15.2994314 C14.666796,15.9880487 13.8647665,16.5287552 12.9716228,16.9065318 C12.0466611,17.2977676 11.0644029,17.4961152 10.0521267,17.4961152 C9.03985049,17.4961152 8.05759237,17.2977475 7.13263065,16.9065318 C6.23946691,16.5287552 5.43745745,15.9880487 4.74882084,15.2994314 C4.06020423,14.6107941 3.51947828,13.8087839 3.14172209,12.9156193 C2.75048673,11.9906566 2.55211924,11.0084175 2.55211924,9.99612026 C2.55211924,8.98382302 2.75048675,8.00158392 3.14172209,7.07662127 C3.51947828,6.18345664 4.06020423,5.38142637 4.74882084,4.69280907 C5.43745745,4.00419178 6.23946693,3.46348528 7.13263065,3.08570871 C8.05759237,2.69447296 9.03985049,2.49612528 10.0521267,2.49612528 C11.0644029,2.49612528 12.0466611,2.69449298 12.9716228,3.08570871 C13.8647865,3.46348528 14.666796,4.00419178 15.3554326,4.69280907 C16.0440492,5.38144637 16.5847752,6.18345666 16.9625313,7.07662127 C17.3537667,8.00158392 17.5521342,8.98382302 17.5521342,9.99612026 C17.5521342,11.0084175 17.3537467,11.9906566 16.9625313,12.9156193 Z" id="Shape"></path>
                </g>
            </g>
        </g>
    </g>
</svg>