<?xml version="1.0" encoding="UTF-8"?>
<svg width="25px" height="25px" viewBox="0 0 25 25" version="1.1" xmlns="http://www.w3.org/2000/svg" xmlns:xlink="http://www.w3.org/1999/xlink">
    <!-- Generator: Sketch 49.2 (51160) - http://www.bohemiancoding.com/sketch -->
    <title>wddd@3x</title>
    <desc>Created with Sketch.</desc>
    <defs></defs>
    <g id="v1.5.0" stroke="none" stroke-width="1" fill="none" fill-rule="evenodd">
        <g id="企业端-管理员" transform="translate(-21.000000, -450.000000)" fill="#666666" fill-rule="nonzero">
            <g id="Group-6" transform="translate(10.000000, 388.000000)">
                <g id="Group-4" transform="translate(11.000000, 62.000000)">
                    <g id="Group-3">
                        <g id="Group-2-Copy">
                            <path d="M19.410922,3.88847073 L15.4635812,3.88847073 C15.0667789,2.79313511 14.0278147,2 12.7997732,2 C11.5724098,2 10.5331065,2.79313511 10.1365303,3.88847073 L6.18885044,3.88847073 C5.15022526,3.88847073 4.29999924,4.73833906 4.29999924,5.77694146 L4.29999924,18.999062 C4.29999924,20.0383425 5.15022528,20.8888889 6.18885044,20.8888889 L19.4108089,20.8888889 C20.4497732,20.8888889 21.2999992,20.0383425 21.2999992,18.999062 L21.2999992,5.77682846 C21.3002252,4.73822606 20.4498862,3.88847073 19.410922,3.88847073 Z M12.7996602,3.88888889 C13.31889,3.88888889 13.7444437,4.31425626 13.7444437,4.83401157 C13.7444437,5.35308864 13.31889,5.77777778 12.7996602,5.77777778 C12.2811085,5.77777778 11.8555548,5.35308864 11.8555548,4.83401157 C11.8555548,4.31425626 12.2811085,3.88888889 12.7996602,3.88888889 Z M14.6888881,17.1111111 L8.07777701,17.1111111 L8.07777701,15.2222222 L14.6888881,15.2222222 L14.6888881,17.1111111 Z M17.5221084,13.3333333 L8.07777701,13.3333333 L8.07777701,11.4444444 L17.5222215,11.4444444 L17.5222215,13.3333333 L17.5221084,13.3333333 Z M17.5221084,9.55555556 L8.07777701,9.55555556 L8.07777701,7.66666667 L17.5222215,7.66666667 L17.5222215,9.55555556 L17.5221084,9.55555556 Z" id="Shape"></path>
                        </g>
                    </g>
                </g>
            </g>
        </g>
    </g>
</svg>