<?xml version="1.0" encoding="UTF-8"?>
<svg width="24px" height="24px" viewBox="0 0 24 24" version="1.1" xmlns="http://www.w3.org/2000/svg" xmlns:xlink="http://www.w3.org/1999/xlink">
    <!-- Generator: Sketch 49.2 (51160) - http://www.bohemiancoding.com/sketch -->
    <title>wdfr@3x</title>
    <desc>Created with Sketch.</desc>
    <defs></defs>
    <g id="v1.5.0" stroke="none" stroke-width="1" fill="none" fill-rule="evenodd">
        <g id="企业端-管理员" transform="translate(-22.000000, -399.000000)" fill="#666666" fill-rule="nonzero">
            <g id="Group-6" transform="translate(10.000000, 388.000000)">
                <g id="Group-11-Copy" transform="translate(12.000000, 11.000000)">
                    <g id="钱包">
                        <path d="M20.6842517,14.1089653 C20.0069588,11.6799566 18.5566252,9.80484377 16.28902,8.52927595 C16.0284846,8.38271551 15.7530267,8.26067062 15.4841529,8.12696241 C15.4858041,8.12325228 15.4870631,8.11515557 15.4920785,8.11066653 C15.5372383,8.0687687 15.5833681,8.02775227 15.6286723,7.9861209 C16.0954193,7.55748797 16.5145504,7.06180619 16.7333935,6.47695827 C16.8395849,6.19351242 16.8657561,6.07015567 16.9394606,5.80700281 C17.0766323,4.97576935 16.9190479,4.47055604 16.4049947,4.05051175 C15.7104057,3.48280013 14.9221948,3.4156283 14.0898149,3.74906868 C14.0319204,3.7720674 13.9935512,3.78889622 13.9359663,3.73648293 C12.86431,2.76266564 11.1440293,2.75358505 10.0650665,3.71512406 C10.0148294,3.7600556 9.97840023,3.77126798 9.91293099,3.74250934 C9.47516219,3.54884457 9.01745543,3.5074387 8.54779824,3.60078643 C7.65752389,3.77749938 6.92120132,4.5053206 7.05185085,5.4992464 C7.16528684,6.36167774 7.51308702,7.10782415 8.11256813,7.75105027 C8.23572544,7.88311865 8.36643688,8.0086277 8.49894398,8.14215143 C8.46596168,8.15754541 8.43318579,8.1736568 8.39989389,8.18833334 C5.33726676,9.53429112 3.2685048,12.4588792 3.02621494,15.7854118 C2.95928028,16.7053195 3.01521396,17.616167 3.25564623,18.5181594 C3.63415835,19.9389963 4.93454423,21.0034761 6.49604342,20.9999915 C10.175778,20.9917923 13.855492,21.0008729 17.5352679,20.9953999 C18.7173674,20.9937396 19.6273528,20.4838117 20.2877211,19.5551924 C20.6233232,19.0832268 20.7803503,18.5471845 20.871516,17.9858273 C21.0842704,16.6798815 21.0401014,15.3851276 20.6842517,14.1089653 Z M14.7025055,15.8801124 C14.6454572,16.388257 14.144923,16.4174256 14.144923,16.4174256 L12.5915972,16.418307 L12.5910192,16.8456075 C12.5819378,17.1168366 12.3865208,17.2644424 12.3865208,17.2644424 C12.1614857,17.4659374 11.8755428,17.3943175 11.8755428,17.3943175 C11.4200239,17.2828701 11.4078051,16.8571069 11.4078051,16.8571069 L11.4078051,16.4183275 L9.84812225,16.4170566 C9.53408867,16.4094314 9.37997176,16.1344512 9.37997176,16.1344512 C9.26195374,15.9362359 9.30242827,15.7360117 9.30242827,15.7360117 C9.39943503,15.2470328 9.8584421,15.2434252 9.8584421,15.2434252 L11.4078051,15.2427692 L11.4078051,14.6073323 L9.84731728,14.606041 C9.60996031,14.5912824 9.4697546,14.4452139 9.41794886,14.3791285 C9.48802076,14.4777647 9.44676193,14.4197555 9.41708199,14.3780011 C9.40228329,14.35902 9.39493556,14.3468442 9.39493556,14.3468442 C9.39493556,14.3468442 9.40504902,14.3610698 9.41708199,14.3780011 C9.41737094,14.3783701 9.41768053,14.3787595 9.41794886,14.3791285 C9.41068367,14.3688795 9.40232458,14.3571342 9.3925207,14.3433186 C9.24987949,14.1425205 9.30509078,13.9093767 9.30509078,13.9093767 C9.42465676,13.4253582 9.86595496,13.4321021 9.86595496,13.4321021 L11.4052045,13.4317536 L11.4052045,12.974854 L9.57241664,11.1689423 C9.41757735,10.9920654 9.41807269,10.7998355 9.41807269,10.7998355 C9.4024897,10.3879494 9.76436618,10.2371664 9.76436618,10.2371664 C10.1359433,10.0812793 10.3927223,10.3247337 10.3927223,10.3247337 L12.0829515,11.983101 L13.7030675,10.3960461 C13.9037064,10.2337637 14.1325598,10.2721564 14.1325598,10.2721564 C14.5962934,10.331088 14.6546213,10.7600694 14.6546213,10.7600694 C14.7077686,11.041814 14.5165827,11.2434524 14.5165827,11.2434524 L12.5915146,13.1366649 L12.5915146,13.4317536 L14.1303307,13.432635 C14.1464091,13.4318766 14.1873376,13.4364067 14.1873376,13.4364067 C14.5226095,13.4795344 14.6455604,13.7633287 14.6455604,13.7633287 C14.7867362,14.0460776 14.6303076,14.3049669 14.6303076,14.3049669 C14.4445087,14.6233413 14.1284318,14.6071069 14.1284318,14.6071069 L12.5915352,14.6073529 L12.5915352,15.2427897 L14.1513832,15.2458235 C14.2717335,15.2458235 14.3959228,15.3142867 14.3959228,15.3142867 C14.7566435,15.522013 14.7025055,15.8801124 14.7025055,15.8801124 Z" id="Shape"></path>
                    </g>
                </g>
            </g>
        </g>
    </g>
</svg>