<?xml version="1.0" encoding="UTF-8"?>
<svg width="50px" height="50px" viewBox="0 0 50 50" version="1.1" xmlns="http://www.w3.org/2000/svg" xmlns:xlink="http://www.w3.org/1999/xlink">
    <!-- Generator: Sketch 49.3 (51167) - http://www.bohemiancoding.com/sketch -->
    <title>wx@3x</title>
    <desc>Created with Sketch.</desc>
    <defs></defs>
    <g id="Page-2" stroke="none" stroke-width="1" fill="none" fill-rule="evenodd">
        <g id="拼团购-分享" transform="translate(-81.000000, -535.000000)">
            <g id="Group-11">
                <g id="Group-10" transform="translate(0.000000, 439.000000)">
                    <g id="Group-7" transform="translate(52.000000, 96.000000)">
                        <g id="wx" transform="translate(29.000000, 0.000000)">
                            <circle id="Oval-3" fill="#19C80A" cx="25" cy="25" r="25"></circle>
                            <path d="M35.4846065,34.2092793 L36.227215,36.763678 L33.5199275,35.2276777 C32.5331279,35.484238 31.5418681,35.7407982 30.5595286,35.7407982 C25.8630315,35.7407982 22.1655993,32.4167189 22.1655993,28.322959 C22.1655993,24.2359211 25.8630315,20.9039994 30.5595286,20.9039994 C34.9939942,20.9039994 38.9423077,24.2359211 38.9423077,28.322959 C38.9423077,30.6286398 37.4660109,32.669918 35.4846065,34.2092793 L35.4846065,34.2092793 Z M27.8377458,24.9977593 C27.3460185,24.9977593 26.8509462,25.5108797 26.8509462,26.0206391 C26.8509462,26.5371206 27.3460185,27.0435189 27.8377458,27.0435189 C28.5836994,27.0435189 29.0731966,26.5371206 29.0731966,26.0206391 C29.0731966,25.5108797 28.5836994,24.9977593 27.8377458,24.9977593 L27.8377458,24.9977593 Z M33.2657011,24.9977593 C32.778434,24.9977593 32.2855917,25.5108797 32.2855917,26.0206391 C32.2855917,26.5371206 32.778434,27.0435189 33.2657011,27.0435189 C34.0060796,27.0435189 34.501152,26.5371206 34.501152,26.0206391 C34.501152,25.5108797 34.0060796,24.9977593 33.2657011,24.9977593 L33.2657011,24.9977593 Z M21.5445288,28.4450771 C21.5445288,29.1878694 21.6560316,29.9037732 21.8489314,30.5871869 C21.5445288,30.6118346 21.2367812,30.6286398 20.9268034,30.6286398 C19.6958127,30.6286398 18.704553,30.3675982 17.4702172,30.114399 L14.0203212,31.9069595 L15.0071208,28.831598 C12.5362192,27.0435189 11.0576923,24.737838 11.0576923,21.9302402 C11.0576923,17.0667996 15.5021931,13.236322 20.9268034,13.236322 C25.7794044,13.236322 30.0310055,16.297119 30.8851168,20.4155266 C30.5706789,20.3796754 30.254011,20.3550277 29.9339981,20.3550277 C25.2464211,20.3550277 21.5445288,23.9793609 21.5445288,28.4450771 L21.5445288,28.4450771 Z M17.7210985,17.5832811 C16.981835,17.5832811 16.2347664,18.0896794 16.2347664,18.8582397 C16.2347664,19.6245593 16.981835,20.1388001 17.7210985,20.1388001 C18.4603619,20.1388001 18.9532042,19.6245593 18.9532042,18.8582397 C18.9532042,18.0896794 18.4603619,17.5832811 17.7210985,17.5832811 L17.7210985,17.5832811 Z M24.6275807,17.5832811 C23.8883173,17.5832811 23.1457088,18.0896794 23.1457088,18.8582397 C23.1457088,19.6245593 23.8883173,20.1388001 24.6275807,20.1388001 C25.3713043,20.1388001 25.8630315,19.6245593 25.8630315,18.8582397 C25.8630315,18.0896794 25.3713043,17.5832811 24.6275807,17.5832811 L24.6275807,17.5832811 Z" id="Shape" fill="#FFFFFF"></path>
                        </g>
                    </g>
                </g>
            </g>
        </g>
    </g>
</svg>