<?xml version="1.0" encoding="UTF-8"?>
<svg width="50px" height="50px" viewBox="0 0 50 50" version="1.1" xmlns="http://www.w3.org/2000/svg" xmlns:xlink="http://www.w3.org/1999/xlink">
    <!-- Generator: Sketch 49.3 (51167) - http://www.bohemiancoding.com/sketch -->
    <title>zxkf@3x</title>
    <desc>Created with Sketch.</desc>
    <defs></defs>
    <g id="总平台" stroke="none" stroke-width="1" fill="none" fill-rule="evenodd">
        <g id="在线客服弹窗" transform="translate(-244.000000, -535.000000)">
            <g id="在线客服">
                <g id="Group-10" transform="translate(0.000000, 439.000000)">
                    <g id="Group-8" transform="translate(244.000000, 96.000000)">
                        <g id="Group-9">
                            <g id="zxkf">
                                <circle id="Oval-3" fill="#15B4F1" cx="25" cy="25" r="25"></circle>
                                <path d="M38.0498047,20.5861111 C36.25,15.1095833 31.1503906,11 25.1494141,11 C19.1503906,11 14.0507812,14.9569444 12.2509766,20.4344444 C10.9003906,20.5870833 10,21.8052778 10,23.1741667 L10,29.4129167 C10,30.7827778 11.0498047,32 12.4003906,32.1526389 C13.2998047,35.1956944 16.9003906,37.4784722 21.5507813,37.9344444 C22,38.5430556 22.9003906,39 24.0996094,39 C25.5996094,39 26.7998047,38.23875 26.7998047,37.3258333 C26.7998047,36.4129167 25.5996094,35.6526389 24.0996094,35.6526389 C22.9003906,35.6526389 21.8496094,36.1095833 21.5507813,36.7172222 C17.6503906,36.4129167 14.6503906,34.2827778 14.0507812,31.6956944 C14.9732874,31.2323843 15.5536304,30.2898955 15.5498047,29.26125 L15.5498047,23.0215278 C15.5469464,22.0338675 15.0380628,21.1159362 14.2001953,20.5870833 C15.8505859,16.0215278 20.2001953,12.6731944 25.2998047,12.6731944 C30.4003906,12.6731944 34.75,15.8698611 36.25,20.5870833 C35.3496094,21.0440278 34.5996094,21.9569444 34.5996094,23.1731945 L34.5996094,29.4129167 C34.5996094,30.9344445 35.8007812,32.1526389 37.2998047,32.1526389 C38.7998047,32.1526389 40,30.9344444 40,29.4129167 L40,23.1741667 C40,21.9569444 39.0996094,20.8913889 38.0498047,20.5870833 L38.0498047,20.5861111 Z" id="Shape" fill="#FFFFFF" fill-rule="nonzero"></path>
                            </g>
                        </g>
                    </g>
                </g>
            </g>
        </g>
    </g>
</svg>