<?xml version="1.0" standalone="no"?>
<!DOCTYPE svg PUBLIC "-//W3C//DTD SVG 1.1//EN" "http://www.w3.org/Graphics/SVG/1.1/DTD/svg11.dtd" >
<svg xmlns="http://www.w3.org/2000/svg">
<metadata>Generated by IcoMoon</metadata>
<defs>
<font id="icomoon" horiz-adv-x="1024">
<font-face units-per-em="1024" ascent="960" descent="-64" />
<missing-glyph horiz-adv-x="1024" />
<glyph unicode="&#x20;" horiz-adv-x="512" d="" />
<glyph unicode="&#xe900;" glyph-name="shdz" horiz-adv-x="1058" d="M856.955 189.21l-94.38 158.364h-78.084l-30.555-34.145h84.874l86.232-143.058 1.358-1.177c4.753-5.298 4.753-12.363 1.358-18.25s-10.185-9.419-18.333-9.419h-560.166c-8.148 0-14.938 3.532-18.333 9.419-3.395 6.476-2.716 12.952 2.037 18.839l0.679 0.589 84.874 143.646h96.417l-31.913 34.145h-88.269l-94.38-158.953c-12.901-15.895-14.259-35.912-4.074-52.396 10.864-17.661 30.555-28.258 53.64-28.258h560.166c22.407 0 42.776 10.597 52.961 28.258 8.827 17.073 6.79 37.089-6.111 52.396zM657.308 380.316c-18.343-21.805-47.217-68.279-97.843-135.165-8.463-10.783-20.066-16.791-32.397-16.791-12.408 0-23.819 6.088-32.053 16.632-1.264 1.791-98.073 141.77-98.073 141.77v0.040c-34.427 40.148-87.58 120.562-87.58 176.586 0 123.547 95.967 224.055 217.974 224.055s221.306-100.508 221.306-224.055c-0.038-72.337-81.989-171.891-91.333-183.072zM527.335 752.547c-103.013 0-186.84-84.871-186.84-189.16 0-45.241 49.86-122.472 81.3-160.511 34.389-41.58 97.345-133.215 100.026-137.115 1.034-1.313 2.987-2.507 4.787-2.507 1.838 0 3.791 1.194 5.514 3.382 49.515 65.414 79.002 112.604 98.915 136.319 40.056 47.628 83.138 118.095 83.138 160.392-0.038 104.328-83.827 189.199-186.84 189.199zM527.335 476.169c-56.676 0-102.822 46.673-102.822 104.089s46.145 104.089 102.822 104.089c56.676 0 102.783-46.673 102.783-104.089s-46.107-104.089-102.783-104.089zM527.335 649.452c-37.72 0-68.394-31.076-68.394-69.194 0-38.158 30.674-69.194 68.394-69.194s68.394 31.076 68.394 69.194c-0.038 38.118-30.712 69.194-68.394 69.194z" />
<glyph unicode="&#xe901;" glyph-name="dbl_sy_h" d="M102.072 555.803c-15.067-12.362-28.776-23.605-42.483-34.848-2.266-1.861-4.504-3.751-6.799-5.578-10.527-8.371-23.393-7.509-31.32 2.080-7.647 9.25-6.197 22.331 3.856 30.742 17.145 14.337 34.498 28.421 51.776 42.603 138.907 114.028 277.833 228.033 416.694 342.119 7.228 5.938 14.591 10.79 24.345 7.407 3.364-1.167 6.634-3.146 9.403-5.415 156.51-128.389 312.959-256.849 469.414-385.299 11.211-9.204 13.584-21.2 6.184-31.255-7.504-10.196-20.991-11.77-31.517-3.312-14.991 12.055-29.775 24.362-44.656 36.548-1.373 1.124-2.809 2.169-5.209 4.007v-7.282c0-160.875-0.042-321.751 0.033-482.626 0.016-34.005-12.014-62.578-37.744-84.953-21.108-18.355-46.093-26.195-73.875-26.182-134.674 0.059-269.341 0.027-404.009 0.027-64.313 0-128.623 0.030-192.937-0.014-25.949-0.018-49.616 6.981-69.948 23.349-24.629 19.829-38.54 45.565-40.634 77.315-0.519 7.851-0.545 15.743-0.551 23.618-0.030 155.928-0.021 311.855-0.021 467.784 0.002 2.516 0.002 5.032 0.002 9.165zM512.103 892.201c-1.568-1.202-3.038-2.265-4.44-3.413-119.372-97.996-238.73-196.017-358.179-293.922-3.365-2.758-4.513-5.556-4.513-9.75 0.088-172.983 0.065-345.968 0.112-518.95 0-4.932 0.065-9.956 0.951-14.777 5.938-32.463 32.305-53.863 66.447-53.929 47.46-0.092 94.922-0.028 142.384-0.013 1.947 0.001 3.897 0.184 6.233 0.306v7.651c0 96.756-0.095 193.508 0.128 290.263 0.026 11.116 0.836 22.419 2.972 33.304 15.346 78.253 89.345 130.963 168.341 119.918 41.113-5.748 74.368-25.552 99.616-58.49 21.537-28.094 30.804-60.212 30.775-95.363-0.074-96.571-0.028-193.139-0.011-289.711 0.001-2.47 0.244-4.94 0.383-7.605 1.852-0.119 3.104-0.263 4.361-0.263 48.56-0.012 97.119-0.154 145.683 0.156 7.202 0.046 14.694 1.322 21.537 3.592 27.645 9.173 44.088 33.68 44.090 64.673 0.011 172.432-0.026 344.868 0.135 517.301 0.004 5.688-1.635 9.279-6.049 12.892-95.407 78.106-190.683 156.376-285.983 234.616-24.916 20.451-49.836 40.904-74.967 61.528zM619.928-2.192v6.846c0 96.934 0.028 193.873-0.060 290.808-0.004 6.752-0.382 13.569-1.361 20.242-8.871 60.212-66.34 101.196-126.069 90.064-52.013-9.696-88.485-54.174-88.538-108.357-0.092-97.852-0.028-195.707-0.016-293.561 0-1.946 0.159-3.896 0.258-6.042 72.053 0 143.594 0 215.786 0z" />
<glyph unicode="&#xe902;" glyph-name="dh" d="M649.491 163.556c-4.805 0-9.609 0.278-14.414 0.973-29.761 3.893-72.201 21.135-119.446 48.388-49.513 28.643-97.292 64.795-134.66 101.642-37.369 36.986-73.936 84.4-103.030 133.483-27.893 47.136-45.51 89.684-49.513 119.718-3.070 22.525 2.002 46.858 14.547 70.635 10.41 19.744 25.891 38.655 44.575 54.645l2.936 2.503c13.079 11.263 26.558 22.803 48.312 31.285 16.149 7.23 34.699 7.647 51.515 0.278 3.603-1.669 8.141-4.171 9.342-4.867 5.071-2.503 25.357-14.183 46.844-43.938 6.406-8.899 16.549-23.916 23.889-36.986 12.679-22.525 20.82-41.714 20.82-41.992l2.402-7.091c7.607-20.022 3.203-42.687-11.878-58.955-0.534-0.556-0.934-1.112-1.468-1.529l-5.205-4.867c-2.536-2.364-3.336-2.92-4.004-3.476-8.675-5.979-11.211-7.508-14.013-9.038-1.335-0.834-2.803-1.529-5.739-3.476-8.274-5.145-15.214-8.065-22.021-10.846-3.203-1.251-6.539-2.781-10.276-4.449 11.077-23.081 30.028-47.275 60.991-77.865 28.961-28.643 57.521-47.275 81.944-61.736 0.4 0.556 1.335 1.39 1.602 2.086 2.803 5.145 5.338 10.428 7.607 15.295 2.803 5.84 4.671 9.733 6.539 13.070 5.205 9.594 8.942 15.712 11.077 19.049 1.868 2.781 3.603 5.423 5.605 7.787 6.673 9.316 16.549 16.685 27.092 20.44 14.28 5.145 32.564 4.171 45.376-2.503l21.487-12.236c4.137-2.642 10.677-7.091 18.684-12.514l4.404-3.059 40.305-31.841c17.483-15.017 24.69-23.777 26.024-25.306l6.006-7.508c0.934-1.251 1.735-2.503 2.402-3.615l6.94-10.567v-3.198c6.673-19.466 2.402-41.574-4.271-56.73-11.077-24.75-31.229-45.051-37.102-50.751-24.423-23.499-57.921-50.334-102.23-50.334zM365.090 684.836c-2.936 0-5.872-0.695-9.476-2.364-15.481-5.979-24.156-13.487-36.167-23.777l-2.936-2.503c-14.28-12.236-25.891-26.419-33.632-40.879-7.741-14.6-10.944-28.782-9.342-41.018 3.070-23.081 19.218-60.902 43.107-101.364 27.092-45.607 60.991-89.684 95.557-123.889 34.699-34.205 79.275-67.854 125.451-94.551 41.105-23.777 79.542-39.767 102.897-42.826 31.496-4.032 59.923 17.659 79.942 36.986 8.541 8.204 20.686 22.525 26.692 35.874 2.936 6.396 4.538 16.685 2.402 21.135l-4.271 6.118-2.803 3.337c-0.133 0.139-5.739 6.813-20.419 19.466l-6.806 5.84-33.899 26.001c-7.741 5.284-14.013 9.455-18.017 12.097l-7.34 4.728-10.009 5.145c-0.801 0.417-8.808 0.556-10.143 0.139-2.135-0.695-4.404-2.503-5.605-4.31l-2.269-2.781c-0.667-0.834-1.335-1.808-2.002-2.92-1.868-2.781-4.805-7.787-8.942-15.295-1.468-2.781-3.070-6.257-4.805-9.733-3.47-7.091-6.273-13.070-9.342-18.771-7.207-13.348-22.955-26.836-41.773-26.975-7.207 0-14.28 1.947-20.82 5.84-27.092 15.99-59.256 36.708-92.22 69.384-37.635 37.264-60.323 67.437-73.536 98.027-6.673 15.434-2.669 43.66 18.818 54.506 7.207 3.615 13.212 6.118 18.417 8.343 5.872 2.503 10.41 4.31 15.081 7.23 3.87 2.503 5.872 3.615 7.741 4.728 2.269 1.251 4.137 2.364 9.476 5.979l3.87 3.615c3.203 3.198 4.004 6.535 2.536 10.428l-1.468 4.588c-1.868 4.31-8.541 19.466-18.15 36.43-6.406 11.402-15.348 24.611-21.087 32.537-16.282 22.525-30.295 29.756-30.829 30.034-1.468 0.834-4.938 2.642-6.94 3.615-2.002 1.251-4.538 1.808-6.94 1.808zM512-64c-282.282 0-512 229.718-512 512s229.718 512 512 512c282.282 0 512-229.718 512-512 0-282.401-229.718-512-512-512zM512 911.232c-255.466 0-463.232-207.766-463.232-463.232s207.766-463.232 463.232-463.232c255.466 0 463.232 207.766 463.232 463.232s-207.766 463.232-463.232 463.232z" />
<glyph unicode="&#xe903;" glyph-name="gb" d="M1024 448c0-282.77-229.23-512-512-512s-512 229.23-512 512c0 282.77 229.23 512 512 512s512-229.23 512-512zM512 488.227l160.906 160.906 40.227-40.227-160.906-160.906 160.906-160.906-40.227-40.227-160.906 160.906-160.906-160.906-40.227 40.227 160.906 160.906-160.906 160.906 40.227 40.227 160.906-160.906z" />
<glyph unicode="&#xe904;" glyph-name="num-add" d="M980.918 405.147h-937.839c-23.658 0-42.856 19.197-42.856 42.849 0 23.658 19.198 42.857 42.856 42.857h937.839c23.698 0 42.859-19.199 42.859-42.857-0.002-23.652-19.161-42.849-42.859-42.849v0zM469.148-20.918v937.839c0 23.658 19.197 42.856 42.849 42.856 23.658 0 42.856-19.198 42.856-42.856v-937.839c0-23.698-19.199-42.859-42.856-42.859-23.652 0.002-42.849 19.161-42.849 42.859v0z" />
<glyph unicode="&#xe905;" glyph-name="kf" horiz-adv-x="964" d="M871.166 575.388c-2.44 102.89-41.478 198.431-114.676 269.474-73.197 73.493-170.794 115.139-275.71 115.139-209.832 0-380.626-169.033-385.506-382.163-56.118-19.598-95.157-73.493-95.157-134.737v-122.488c0-78.392 63.438-144.536 143.955-144.536h39.039c17.079 0 29.279 14.699 29.279 29.397v350.316c0 17.148-14.639 29.397-29.279 29.397h-26.839c9.76 173.933 151.274 311.12 326.948 311.12 87.837 0 170.794-34.297 231.792-95.541 58.558-58.794 90.277-134.737 95.157-218.029h-29.279c-17.079 0-29.279-14.699-29.279-29.397v-347.866c0-17.148 14.639-29.397 29.279-29.397h9.76c-31.719-90.641-100.036-142.086-217.152-156.785-2.44 9.799-12.2 19.598-24.399 19.598h-109.796c-14.639 0-24.399-12.249-24.399-24.498v-53.895c0-14.699 12.2-24.498 24.399-24.498h109.796c12.2 0 21.959 9.799 24.399 22.048 153.714 19.598 246.431 93.091 283.030 222.928 60.998 17.148 107.356 71.043 107.356 137.187v122.488c-2.44 61.244-39.039 112.689-92.717 134.737zM151.392 239.77h-9.76c-46.358 0-82.957 36.746-82.957 83.292v122.488c0 41.646 29.279 73.493 68.317 80.842h21.959v-286.622h2.44zM900.445 320.612c0-41.646-31.719-75.943-73.197-80.842h-19.519v284.172h9.76c4.88 0 9.76 0 17.079-2.45 39.039-7.349 65.878-41.646 65.878-80.842v-120.038z" />
<glyph unicode="&#xe906;" glyph-name="tjtt" horiz-adv-x="1122" d="M848.798 637.502c0 15.848 8.533 30.476 22.333 38.424 13.848 7.899 30.866 7.899 44.666 0 13.848-7.948 22.333-22.577 22.333-38.424s-8.485-30.476-22.333-38.376c-13.8-7.948-30.818-7.948-44.666 0-13.8 7.899-22.333 22.528-22.333 38.376zM926.705 143.242v121.905c0 13.458 10.923 24.381 24.381 24.381s24.381-10.923 24.381-24.381v-121.905h121.905c13.458 0 24.381-10.923 24.381-24.381s-10.923-24.381-24.381-24.381h-121.905v-121.905c0-13.458-10.923-24.381-24.381-24.381s-24.381 10.923-24.381 24.381v121.905h-121.905c-13.458 0-24.381 10.923-24.381 24.381s10.923 24.381 24.381 24.381h121.905zM938.135 814.834c75.922 0 133.998-57.637 133.998-133.022v-338.749c0-12.337-9.996-22.333-22.333-22.333s-22.333 9.996-22.333 22.333v338.749c0 48.762-40.229 88.698-89.332 88.698h-218.843l-29.013 100.693c-6.095 28.526-20.139 32.28-37.986 32.28h-227.767c-22.333 0-28.916-4.486-36.669-28.526-9.216-29.842-31.842-104.448-31.842-104.448h-221.818c-49.103 0-89.283-39.936-89.283-88.698v-576.219c0-48.762 40.18-88.698 89.283-88.698h567.442c12.19-0.098 22.040-9.947 22.040-22.138s-9.85-22.089-22.040-22.138v-0.049h-567.442c-75.922 0-133.949 57.637-133.949 133.022v576.219c0 75.386 58.027 133.022 133.949 133.022h184.954c0 0 7.119 22.187 11.557 35.45 8.972 31.013 8.972 31.013 13.41 44.325 8.923 31.013 40.229 53.199 80.408 53.199h223.281c35.742 0 71.485-22.187 80.408-53.199l22.333-79.774h187.587zM536.181 659.669c133.998 0 245.662-110.787 245.662-243.81 0-132.974-111.665-243.81-245.662-243.81s-245.662 110.836-245.662 243.81c0 133.022 111.665 243.81 245.662 243.81zM536.181 216.375c111.665 0 200.997 88.698 200.997 199.485 0 110.836-89.332 199.485-200.997 199.485s-200.997-88.649-200.997-199.485c0-110.787 89.332-199.485 200.997-199.485z" />
<glyph unicode="&#xe907;" glyph-name="sc" horiz-adv-x="870" d="M580.066 567.469h48.358v-352.712h-48.358v352.712zM459.178 112.357v506.312h-48.356v-506.312h48.356zM241.578 567.469h48.358v-352.712h-48.358v352.712zM628.424 789.334v113.778c0 31.277-21.749 56.888-48.358 56.888h-290.132c-26.609 0-48.357-25.611-48.357-56.888v-113.778h-241.777v-56.89h96.713v-739.555c0-31.28 21.744-56.89 48.354-56.89h580.265c26.61 0 48.358 25.611 48.358 56.89v739.556h96.709v56.89l-241.777-0.001zM289.935 903.112h290.132v-113.778h-290.132v113.778zM725.133-7.109h-580.265v739.555h580.265v-739.555z" />
<glyph unicode="&#xe908;" glyph-name="sc_h" d="M296.315 896.459c-157.433 0-285.534-128.444-285.534-286.297 0-366.181 484.030-604.808 488.942-606.929 4.229-2.12 9.549-3.694 12.278-3.694s7.98 1.573 12.006 3.557c5.184 2.325 489.214 240.883 489.214 607.065 0 157.854-128.102 286.297-285.534 286.297-81.103 0-157.979-33.991-211.047-93.29l-4.57-5.13-4.638 5.061c-54.979 59.366-131.921 93.358-211.115 93.358z" />
<glyph unicode="&#xe909;" glyph-name="collect" d="M328.396 829.755c-134.016 0-243.063-109.339-243.063-243.713 0-311.715 412.034-514.847 416.215-516.652 3.6-1.805 8.129-3.144 10.452-3.144s6.794 1.339 10.22 3.027c4.413 1.98 416.447 205.054 416.447 516.769 0 134.374-109.047 243.713-243.063 243.713-69.040 0-134.48-28.936-179.655-79.413l-3.89-4.367-3.948 4.308c-46.801 50.536-112.299 79.472-179.713 79.472zM530.987 695.496c37.046 55.717 98.596 89.020 164.616 89.020 109.105 0 197.888-89.020 197.888-198.417 0-252.096-315.645-435.958-378.937-470.308l-2.555-1.397-2.555 1.339c-63.234 34.35-378.937 218.154-378.937 470.308 0 109.397 88.782 198.417 197.888 198.417 66.021 0 127.57-33.244 164.616-89.020 4.065-6.113 11.207-9.781 18.987-9.781s14.923 3.668 18.987 9.839z" />
<glyph unicode="&#xe90a;" glyph-name="spxq_pl_lx" d="M512 157.76l295.322-187.626-78.37 353.621 260.915 237.927-343.586 30.684-134.281 333.501-134.281-333.501-343.586-30.684 260.915-237.927-78.37-353.621z" />
<glyph unicode="&#xe90b;" glyph-name="spxq_xzgb" d="M512 493.254l150.695 150.695c12.582 12.582 32.826 12.739 45.409 0.155 12.497-12.497 12.538-32.717-0.155-45.409l-150.695-150.695 150.695-150.695c12.582-12.582 12.739-32.826 0.155-45.409-12.497-12.497-32.717-12.538-45.409 0.155l-150.695 150.695-150.695-150.695c-12.582-12.582-32.826-12.739-45.409-0.155-12.497 12.497-12.538 32.717 0.155 45.409l150.695 150.695-150.695 150.695c-12.582 12.582-12.739 32.826-0.155 45.409 12.497 12.497 32.717 12.538 45.409-0.155l150.695-150.695z" />
<glyph unicode="&#xe90c;" glyph-name="ss" d="M976.954 25.499l-198.893 210.11c33.784 35.976 60.707 76.982 80.102 122.144 22.376 52.106 33.722 107.432 33.722 164.438 0 57.011-11.346 112.34-33.721 164.45-21.603 50.311-52.521 95.485-91.895 134.268s-85.236 69.237-136.313 90.517c-52.904 22.040-109.079 33.215-166.961 33.215-57.877 0-114.046-11.176-166.945-33.216-51.073-21.279-96.933-51.733-136.305-90.517s-70.288-83.958-91.891-134.268c-22.375-52.11-33.721-107.438-33.721-164.449 0-57.006 11.346-112.33 33.721-164.437 21.603-50.307 52.518-95.479 91.891-134.26s85.231-69.235 136.305-90.512c52.901-22.040 109.070-33.216 166.945-33.216 57.883 0 114.056 11.175 166.961 33.215 29.050 12.102 56.404 27.18 81.847 45.061l202.803-213.962c8.61-8.48 19.892-12.72 31.175-12.72s22.565 4.24 31.175 12.72c17.216 16.962 17.216 44.458-0.001 61.419zM462.994 186.623c-187.856 0-340.687 150.535-340.687 335.569 0 185.046 152.831 335.594 340.687 335.594 187.871 0 340.714-150.547 340.714-335.594 0-185.034-152.844-335.569-340.714-335.569z" />
<glyph unicode="&#xe90d;" glyph-name="tj" d="M512 960c-282.327 0-512-229.673-512-512s229.673-512 512-512c282.327 0 512 229.673 512 512s-229.673 512-512 512zM512 0.211c-247.199 0.261-447.528 200.59-447.789 447.789 0.298 247.183 200.605 447.491 447.789 447.789 247.199-0.261 447.528-200.59 447.789-447.789-0.261-247.199-200.59-447.528-447.789-447.789zM747.257 583.511l-263.503-277.712-138.27 127.133c-14.038 10.684-34.085 8.438-45.365-5.082s-9.748-33.467 3.466-45.137l162.147-146.829c5.722-4.696 12.563-6.522 19.469-6.848 1.447-0.13 2.894-0.522 4.407-0.457 0.658 0.065 1.25 0.391 1.907 0.457 7.792 0.844 15.012 4.458 20.324 10.174l284.288 300.604c12.148 13.383 11.058 33.995-2.434 46.045-13.497 12.11-34.284 11.030-46.437-2.348z" />
<glyph unicode="&#xe90e;" glyph-name="tx_mxz" d="M512-64c282.77 0 512 229.23 512 512s-229.23 512-512 512c-282.77 0-512-229.23-512-512s229.23-512 512-512z" />
<glyph unicode="&#xe90f;" glyph-name="tx_xz" d="M1024 448c0-282.77-229.23-512-512-512s-512 229.23-512 512c0 282.77 229.23 512 512 512s512-229.23 512-512zM170.667 509.058l53.479 51.65 230.965-229.146 378.576 377.896 53.222-53.090-431.799-431.754z" />
<glyph unicode="&#xe910;" glyph-name="xxb" d="M555.52 452.502l398.454-422.556c9.778-10.378 15.168-23.96 15.168-38.252 0-15.247-6.337-30.022-17.381-40.529-22.217-21.054-57.446-20.070-78.504 2.235l-358.785 380.414-364.121-378.928c-21.246-22.082-56.46-22.748-78.494-1.462-10.971 10.58-17.001 24.823-17.001 40.124 0 14.471 5.524 28.203 15.562 38.671l402.32 418.69c0.072 0.068 0.197 0.169 0.38 0.295l2.093 1.472 1.732 1.882c2.435 2.336 5.274 3.852 8.281 5.449 0.669 0.337 1.554 0.821 2.401 1.288l2.449 1.559c0.221 0.159 0.731 0.531 1.136 0.714 22.356 10.711 48.058 6.197 64.308-11.068z" />
<glyph unicode="&#xe911;" glyph-name="gfkf" d="M760.094 529.21c-1.555 65.592-26.443 126.5-73.106 171.789-46.663 46.852-108.881 73.401-175.765 73.401-133.768 0-242.649-107.759-245.76-243.629-35.775-12.494-60.662-46.852-60.662-85.895v-78.086c0-49.975 40.442-92.142 91.771-92.142h24.887c10.888 0 18.665 9.37 18.665 18.741v223.326c0 10.932-9.333 18.741-18.665 18.741h-17.11c6.222 110.882 96.437 198.339 208.429 198.339 55.996 0 108.881-21.864 147.767-60.907 37.331-37.481 57.551-85.895 60.662-138.993h-18.665c-10.888 0-18.665-9.37-18.665-18.741v-221.765c0-10.932 9.333-18.741 18.665-18.741h6.222c-20.221-57.784-63.773-90.58-138.434-99.95-1.555 6.247-7.777 12.494-15.554 12.494h-69.995c-9.333 0-15.554-7.809-15.554-15.617v-34.358c0-9.37 7.777-15.617 15.554-15.617h69.995c7.777 0 13.999 6.247 15.554 14.056 97.993 12.494 157.1 59.345 180.431 142.117 38.886 10.932 68.439 45.29 68.439 87.456v78.086c-1.555 39.043-24.887 71.839-59.107 85.895zM301.238 315.254h-6.222c-29.553 0-52.885 23.426-52.885 53.099v78.086c0 26.549 18.665 46.852 43.552 51.537h13.999v-182.722h1.555zM778.759 366.791c0-26.549-20.221-48.413-46.663-51.537h-12.444v181.16h6.222c3.111 0 6.222 0 10.888-1.562 24.887-4.685 41.997-26.549 41.997-51.537v-76.524z" />
<glyph unicode="&#xe912;" glyph-name="shdz_bj" d="M789.333 85.334h-554.667c-36.267 0-64 27.733-64 64v554.667c0 36.267 27.733 64 64 64h277.333c12.8 0 21.333-8.533 21.333-21.333s-8.533-21.333-21.333-21.333h-277.333c-12.8 0-21.333-8.533-21.333-21.333v-554.667c0-12.8 8.533-21.333 21.333-21.333h554.667c12.8 0 21.333 8.533 21.333 21.333v277.333c0 12.8 8.533 21.333 21.333 21.333s21.333-8.533 21.333-21.333v-277.333c0-36.267-27.733-64-64-64zM365.333 298.667c-7.2 0-12 2.133-16.8 6.4-9.6 8.533-9.6 21.333 0 29.867l464 469.333c9.6 8.533 24 8.533 33.6 0s9.6-21.333 0-29.867l-464-469.333c-4.8-4.267-9.6-6.4-16.8-6.4z" />
<glyph unicode="&#xe913;" glyph-name="shdz_sc" d="M345.742 193.068v405.343h34.489v-405.343h-34.489zM496.978 193.068v405.343h34.489v-405.343h-34.489zM648.212 193.068v405.343h34.489v-405.343h-34.489zM128 696.659v32.587h768v-32.587h-768zM575.772 771.143h-126.953c0 0-0.021 0.482-0.021 0.593 0 33.135 28.426 60.264 63.494 60.264s63.497-27.041 63.497-60.176c0-0.108-0.021-0.681-0.017-0.681zM713.534 64h-412.776c-48.888 0-90.195 40.131-90.195 87.64v505.448h34.489v-505.448c0-29.84 25.508-55.053 55.706-55.053h412.776c30.219 0 55.748 25.213 55.748 55.053v505.448h34.489v-505.448c0-47.509-41.321-87.64-90.236-87.64z" />
<glyph unicode="&#xe914;" glyph-name="shdz_xz" d="M554.667 490.667h256v-85.333h-256v-256h-85.333v256h-256v85.333h256v256h85.333v-256z" />
<glyph unicode="&#xe915;" glyph-name="xsb" d="M468.48 443.498l-398.455 422.556c-9.778 10.378-15.168 23.96-15.168 38.252 0 15.247 6.337 30.022 17.381 40.529 22.217 21.054 57.446 20.070 78.504-2.235l358.785-380.414 364.121 378.928c21.246 22.082 56.46 22.748 78.494 1.462 10.971-10.58 17.001-24.823 17.001-40.124 0-14.471-5.524-28.203-15.562-38.671l-402.32-418.69c-0.072-0.068-0.197-0.169-0.38-0.295l-2.093-1.472-1.732-1.882c-2.435-2.336-5.274-3.852-8.281-5.449-0.669-0.337-1.554-0.821-2.401-1.288l-2.449-1.559c-0.221-0.159-0.731-0.531-1.136-0.714-22.356-10.711-48.058-6.197-64.308 11.068z" />
<glyph unicode="&#xe916;" glyph-name="num-red" d="M972.796 396.8h-921.591c-28.265 0-51.205 22.938-51.205 51.197 0 28.265 22.938 51.205 51.205 51.205h921.591c28.32 0 51.205-22.938 51.205-51.205 0-28.258-22.883-51.197-51.205-51.197v0z" />
<glyph unicode="&#xe917;" glyph-name="wdsc" d="M680.529 139.948c-7.779 0-15.557 1.927-23.984 6.424l-130.94 68.099c-3.241 1.927-7.779 3.212-12.964 3.212-4.538 0-9.723-1.285-12.964-2.57l-130.291-68.742c-7.779-4.497-15.557-6.424-24.632-6.424-15.557 0-30.466 7.067-40.838 18.631s-14.261 26.983-11.668 42.402l25.28 143.908c1.296 8.994-1.945 17.989-8.427 24.413l-105.011 100.864c-14.909 14.134-20.095 34.692-13.613 53.966s22.688 32.765 42.782 35.977l145.2 21.201c9.075 1.285 17.502 7.067 21.391 14.776l64.822 131.059c9.075 17.989 27.225 28.91 47.32 28.91s38.245-10.922 47.32-28.91l64.822-131.059c4.538-8.352 12.316-13.491 21.391-14.776l145.2-21.201c20.095-3.212 36.3-16.704 42.782-35.335 6.482-19.273 1.296-39.832-12.964-53.966l-104.363-101.507c-7.13-6.424-9.723-15.419-8.427-24.413l24.632-143.266c2.593-15.419-1.296-30.837-11.668-42.402-9.723-12.206-24.632-19.273-40.189-19.273zM674.312 174.855c3.282-1.301 5.907-1.951 7.876-1.951 4.594 0 9.189 1.951 12.47 5.854s3.938 9.107 3.282 12.359l-24.941 145.060c-3.938 20.816 3.282 43.583 19.034 57.894l105.67 103.429c3.938 3.903 5.251 9.757 3.938 16.262-1.969 5.854-6.563 9.757-13.127 10.408l-147.019 21.466c-21.659 3.252-40.693 16.262-49.882 35.777l-65.634 132.050c-2.625 5.854-7.876 8.456-13.783 8.456s-11.158-3.252-14.439-9.107l-65.634-131.4c-9.189-18.864-28.222-32.525-49.882-35.777l-147.019-21.466c-5.907-1.301-10.501-5.204-12.47-10.408v-0.65c-1.969-5.854-0.656-11.058 3.938-15.612l106.326-103.429c15.752-14.961 22.315-36.428 19.034-57.894l-24.941-145.060c-0.656-3.252-0.656-7.806 3.282-11.709 3.282-3.903 7.876-5.854 12.47-5.854 3.282 0 5.251 0.65 7.22 1.301l132.58 68.952c8.532 5.204 19.034 7.806 30.191 7.806 9.845 0 20.346-2.602 30.191-7.806l131.267-68.952z" />
<glyph unicode="&#xe918;" glyph-name="xyb" horiz-adv-x="569" d="M53.615-63.999c13.708 0 27.42 5.228 37.853 15.628l461.78 458.66c20.94 20.86 20.94 54.56 0 75.42l-461.78 458.66c-20.94 20.86-54.772 20.86-75.708 0s-20.94-54.56 0-75.42l423.926-420.95-423.926-420.95c-20.94-20.86-20.94-54.62 0-75.42 10.444-10.4 24.147-15.628 37.853-15.628z" />
<glyph unicode="&#xe919;" glyph-name="dw" horiz-adv-x="853" d="M426.009-32c-5.563 0-10.876 2.338-14.647 6.445l-274.614 299.016c-0.993 1.077-1.849 2.245-2.571 3.483-63.021 71.661-97.677 163.562-97.677 259.294 0 216.018 174.952 391.762 390.003 391.762 215.046 0 389.998-175.744 389.998-391.762 0-105.045-40.857-203.695-115.061-277.835l-260.789-283.958c-3.771-4.107-9.079-6.445-14.642-6.445v0zM168.894 297.493l257.115-279.955 246.439 268.334c0.195 0.217 0.398 0.428 0.606 0.637 66.806 66.6 103.595 155.287 103.595 249.73 0 193.943-157.074 351.727-350.145 351.727-193.074 0-350.149-157.784-350.149-351.727 0-87.253 32.065-170.963 90.292-235.71 0.853-0.95 1.602-1.966 2.247-3.035v0zM426.507 397.782c-79.066 0-143.389 64.611-143.389 144.034s64.324 144.038 143.389 144.038c79.058 0 143.38-64.614 143.38-144.038s-64.324-144.034-143.38-144.034v0zM426.507 645.818c-57.090 0-103.536-46.656-103.536-104.003 0-57.344 46.446-104 103.536-104 57.086 0 103.527 46.656 103.527 104 0 57.349-46.441 104.003-103.527 104.003v0z" />
</font>
</defs>
</svg>
